G04 Layer_Color=65535*
%FSLAX44Y44*%
%MOMM*%
G71*
G01*
G75*
%ADD34C,0.2000*%
%ADD35C,0.2500*%
%ADD36C,0.8890*%
%ADD37C,0.5080*%
%ADD38C,0.3810*%
%ADD39C,0.1270*%
%ADD40C,0.2540*%
%ADD41C,1.0000*%
%ADD42C,0.2032*%
%ADD43R,1.9000X0.8000*%
G36*
X94864Y724094D02*
X95128Y724064D01*
X95450Y724006D01*
X95831Y723947D01*
X96211Y723859D01*
X96621Y723772D01*
X97061Y723625D01*
X97529Y723479D01*
X97969Y723274D01*
X98437Y723039D01*
X98876Y722776D01*
X99316Y722454D01*
X99726Y722102D01*
X99755Y722073D01*
X99813Y722014D01*
X99931Y721897D01*
X100048Y721751D01*
X100224Y721546D01*
X100399Y721311D01*
X100575Y721019D01*
X100780Y720696D01*
X100985Y720345D01*
X101161Y719964D01*
X101336Y719525D01*
X101512Y719056D01*
X101629Y718559D01*
X101746Y718031D01*
X101805Y717475D01*
X101834Y716889D01*
Y716860D01*
Y716743D01*
X101805Y716597D01*
Y716362D01*
X101776Y716099D01*
X101717Y715806D01*
X101659Y715454D01*
X101571Y715074D01*
X101454Y714693D01*
X101307Y714283D01*
X101161Y713844D01*
X100956Y713434D01*
X100692Y713024D01*
X100429Y712584D01*
X100106Y712204D01*
X99726Y711823D01*
X99696Y711794D01*
X99638Y711735D01*
X99491Y711647D01*
X99345Y711530D01*
X99140Y711384D01*
X98876Y711208D01*
X98583Y711032D01*
X98232Y710856D01*
X97881Y710681D01*
X97471Y710505D01*
X97031Y710329D01*
X96533Y710183D01*
X96036Y710066D01*
X95479Y709978D01*
X94923Y709919D01*
X94308Y709890D01*
X90852D01*
X90618Y709919D01*
X90354Y709949D01*
X90032Y710007D01*
X89681Y710066D01*
X89270Y710124D01*
X88421Y710359D01*
X87982Y710505D01*
X87513Y710710D01*
X87074Y710915D01*
X86606Y711179D01*
X86166Y711471D01*
X85756Y711823D01*
X85727Y711852D01*
X85668Y711911D01*
X85551Y712028D01*
X85405Y712174D01*
X85258Y712379D01*
X85083Y712614D01*
X84878Y712877D01*
X84673Y713170D01*
X84468Y713521D01*
X84263Y713902D01*
X84087Y714312D01*
X83940Y714781D01*
X83794Y715249D01*
X83677Y715776D01*
X83618Y716304D01*
X83589Y716889D01*
Y716919D01*
Y717036D01*
Y717212D01*
X83618Y717417D01*
X83648Y717709D01*
X83706Y718002D01*
X83765Y718354D01*
X83853Y718764D01*
X83970Y719144D01*
X84116Y719584D01*
X84292Y720023D01*
X84497Y720462D01*
X84760Y720872D01*
X85053Y721311D01*
X85375Y721721D01*
X85756Y722102D01*
X85786Y722132D01*
X85844Y722190D01*
X85961Y722278D01*
X86137Y722424D01*
X86342Y722571D01*
X86606Y722747D01*
X86898Y722922D01*
X87220Y723127D01*
X87601Y723303D01*
X88011Y723479D01*
X88450Y723654D01*
X88948Y723801D01*
X89446Y723947D01*
X90003Y724035D01*
X90559Y724094D01*
X91174Y724123D01*
X94630D01*
X94864Y724094D01*
D02*
G37*
G36*
X101600Y705028D02*
X101571Y704999D01*
X101512Y704941D01*
X101424Y704882D01*
X101307Y704765D01*
X101131Y704677D01*
X100926Y704560D01*
X100663Y704472D01*
X100399Y704413D01*
X100370D01*
X100253Y704384D01*
X100106D01*
X99872Y704355D01*
X99638Y704325D01*
X99345D01*
X98730Y704296D01*
X96885D01*
X96621Y704267D01*
X96299Y704179D01*
X95919Y704091D01*
X95538Y703945D01*
X95157Y703740D01*
X94806Y703447D01*
X94776Y703418D01*
X94659Y703300D01*
X94513Y703095D01*
X94366Y702861D01*
X94191Y702510D01*
X94073Y702129D01*
X93956Y701690D01*
X93927Y701192D01*
Y697063D01*
X101600D01*
Y694661D01*
X83853D01*
Y700753D01*
Y700782D01*
Y700870D01*
Y701046D01*
X83882Y701221D01*
Y701485D01*
X83911Y701748D01*
X83970Y702070D01*
X84028Y702393D01*
X84175Y703095D01*
X84409Y703857D01*
X84731Y704560D01*
X84936Y704882D01*
X85170Y705175D01*
Y705204D01*
X85229Y705233D01*
X85317Y705321D01*
X85405Y705409D01*
X85551Y705526D01*
X85698Y705673D01*
X86108Y705966D01*
X86664Y706229D01*
X87308Y706493D01*
X88041Y706668D01*
X88480Y706698D01*
X88919Y706727D01*
X89153D01*
X89417Y706698D01*
X89739Y706639D01*
X90120Y706551D01*
X90500Y706434D01*
X90911Y706258D01*
X91320Y706024D01*
X91350Y705995D01*
X91496Y705907D01*
X91672Y705731D01*
X91877Y705497D01*
X92141Y705204D01*
X92404Y704853D01*
X92668Y704443D01*
X92902Y703945D01*
Y703974D01*
X92931Y704003D01*
X92990Y704179D01*
X93107Y704443D01*
X93283Y704765D01*
X93488Y705116D01*
X93751Y705468D01*
X94073Y705790D01*
X94454Y706053D01*
X94513Y706083D01*
X94630Y706141D01*
X94864Y706258D01*
X95186Y706376D01*
X95567Y706493D01*
X96006Y706610D01*
X96533Y706668D01*
X97090Y706698D01*
X99052D01*
X99257Y706727D01*
X99491D01*
X99726Y706786D01*
X100253Y706873D01*
X100282D01*
X100370Y706903D01*
X100487Y706961D01*
X100634Y707020D01*
X100956Y707196D01*
X101307Y707488D01*
X101600D01*
Y705028D01*
D02*
G37*
G36*
X85756Y686285D02*
X101600D01*
Y683884D01*
X85756D01*
Y678114D01*
X83853D01*
Y692142D01*
X85756D01*
Y686285D01*
D02*
G37*
G36*
X101600Y727608D02*
X83853D01*
Y730010D01*
X99726D01*
Y738678D01*
X101600D01*
Y727608D01*
D02*
G37*
G36*
Y779240D02*
X101571Y779210D01*
X101512Y779152D01*
X101424Y779093D01*
X101307Y778976D01*
X101131Y778888D01*
X100926Y778771D01*
X100663Y778683D01*
X100399Y778625D01*
X100370D01*
X100253Y778595D01*
X100106D01*
X99872Y778566D01*
X99638Y778537D01*
X99345D01*
X98730Y778508D01*
X96885D01*
X96621Y778478D01*
X96299Y778390D01*
X95919Y778303D01*
X95538Y778156D01*
X95157Y777951D01*
X94806Y777658D01*
X94776Y777629D01*
X94659Y777512D01*
X94513Y777307D01*
X94366Y777073D01*
X94191Y776721D01*
X94073Y776340D01*
X93956Y775901D01*
X93927Y775403D01*
Y771274D01*
X101600D01*
Y768872D01*
X83853D01*
Y774964D01*
Y774993D01*
Y775081D01*
Y775257D01*
X83882Y775432D01*
Y775696D01*
X83911Y775960D01*
X83970Y776282D01*
X84028Y776604D01*
X84175Y777307D01*
X84409Y778068D01*
X84731Y778771D01*
X84936Y779093D01*
X85170Y779386D01*
Y779415D01*
X85229Y779445D01*
X85317Y779532D01*
X85405Y779620D01*
X85551Y779737D01*
X85698Y779884D01*
X86108Y780177D01*
X86664Y780440D01*
X87308Y780704D01*
X88041Y780880D01*
X88480Y780909D01*
X88919Y780938D01*
X89153D01*
X89417Y780909D01*
X89739Y780850D01*
X90120Y780762D01*
X90500Y780645D01*
X90911Y780470D01*
X91320Y780235D01*
X91350Y780206D01*
X91496Y780118D01*
X91672Y779942D01*
X91877Y779708D01*
X92141Y779415D01*
X92404Y779064D01*
X92668Y778654D01*
X92902Y778156D01*
Y778185D01*
X92931Y778215D01*
X92990Y778390D01*
X93107Y778654D01*
X93283Y778976D01*
X93488Y779327D01*
X93751Y779679D01*
X94073Y780001D01*
X94454Y780265D01*
X94513Y780294D01*
X94630Y780352D01*
X94864Y780470D01*
X95186Y780587D01*
X95567Y780704D01*
X96006Y780821D01*
X96533Y780880D01*
X97090Y780909D01*
X99052D01*
X99257Y780938D01*
X99491D01*
X99726Y780997D01*
X100253Y781085D01*
X100282D01*
X100370Y781114D01*
X100487Y781172D01*
X100634Y781231D01*
X100956Y781407D01*
X101307Y781700D01*
X101600D01*
Y779240D01*
D02*
G37*
G36*
Y755079D02*
X83853D01*
Y765885D01*
X85756D01*
Y757480D01*
X91496D01*
Y764772D01*
X93371D01*
Y757480D01*
X99726D01*
Y766032D01*
X101600D01*
Y755079D01*
D02*
G37*
G36*
Y741343D02*
X83853D01*
Y743745D01*
X99726D01*
Y752413D01*
X101600D01*
Y741343D01*
D02*
G37*
G36*
Y673165D02*
X88041Y664613D01*
X88070Y664526D01*
X101600D01*
Y662124D01*
X83853D01*
Y664526D01*
X97412Y673077D01*
X97383Y673165D01*
X83853D01*
Y675566D01*
X101600D01*
Y673165D01*
D02*
G37*
G36*
X92481Y554529D02*
X92920Y554480D01*
X93408Y554382D01*
X93945Y554284D01*
X94531Y554138D01*
X95166Y553992D01*
X95800Y553747D01*
X96484Y553455D01*
X97167Y553162D01*
X97802Y552722D01*
X98437Y552283D01*
X99022Y551746D01*
X99608Y551160D01*
X99657Y551111D01*
X99706Y551014D01*
X99852Y550818D01*
X100048Y550574D01*
X100243Y550233D01*
X100487Y549793D01*
X100780Y549354D01*
X101024Y548817D01*
X101268Y548182D01*
X101561Y547547D01*
X101805Y546815D01*
X102000Y546034D01*
X102196Y545204D01*
X102293Y544325D01*
X102391Y543349D01*
X102440Y542373D01*
Y542324D01*
Y542129D01*
Y541836D01*
X102391Y541445D01*
X102342Y541006D01*
X102293Y540469D01*
X102196Y539883D01*
X102098Y539199D01*
X101756Y537784D01*
X101512Y537051D01*
X101219Y536319D01*
X100926Y535587D01*
X100536Y534855D01*
X100096Y534171D01*
X99608Y533488D01*
X99559Y533439D01*
X99462Y533341D01*
X99315Y533195D01*
X99071Y532951D01*
X98778Y532706D01*
X98437Y532414D01*
X97997Y532121D01*
X97509Y531828D01*
X96972Y531486D01*
X96386Y531193D01*
X95751Y530900D01*
X95019Y530656D01*
X94287Y530412D01*
X93457Y530266D01*
X92578Y530168D01*
X91651Y530119D01*
X72465D01*
Y537003D01*
X92090D01*
X92578Y537100D01*
X93213Y537198D01*
X93848Y537344D01*
X94531Y537588D01*
X95215Y537930D01*
X95800Y538418D01*
X95849Y538467D01*
X95996Y538711D01*
X96240Y539004D01*
X96484Y539444D01*
X96777Y540029D01*
X96972Y540713D01*
X97167Y541494D01*
X97216Y542373D01*
Y542421D01*
Y542470D01*
Y542763D01*
X97119Y543251D01*
X97021Y543788D01*
X96874Y544423D01*
X96630Y545058D01*
X96289Y545692D01*
X95849Y546278D01*
X95800Y546327D01*
X95605Y546522D01*
X95263Y546717D01*
X94775Y547010D01*
X94189Y547254D01*
X93457Y547499D01*
X92627Y547645D01*
X91651Y547694D01*
X72465D01*
Y554577D01*
X92139D01*
X92481Y554529D01*
D02*
G37*
G36*
X102049Y507028D02*
X72465D01*
Y513911D01*
X96777D01*
Y526604D01*
X102049D01*
Y507028D01*
D02*
G37*
G36*
X94043Y502927D02*
X94385Y502878D01*
X94824Y502829D01*
X95751Y502634D01*
X96826Y502244D01*
X97363Y502048D01*
X97900Y501755D01*
X98437Y501414D01*
X98925Y501023D01*
X99413Y500584D01*
X99852Y500047D01*
Y499998D01*
X99950Y499900D01*
X100048Y499754D01*
X100194Y499510D01*
X100340Y499217D01*
X100536Y498875D01*
X100731Y498436D01*
X100926Y497948D01*
X101170Y497362D01*
X101366Y496776D01*
X101561Y496092D01*
X101707Y495311D01*
X101854Y494530D01*
X101952Y493652D01*
X102000Y492724D01*
X102049Y491748D01*
Y480470D01*
X72465D01*
Y490136D01*
Y490185D01*
Y490381D01*
Y490673D01*
X72514Y491064D01*
Y491503D01*
X72563Y492040D01*
X72611Y492626D01*
X72709Y493261D01*
X72953Y494677D01*
X73344Y496092D01*
X73832Y497459D01*
X74174Y498143D01*
X74515Y498729D01*
Y498778D01*
X74613Y498875D01*
X74711Y499022D01*
X74906Y499217D01*
X75394Y499705D01*
X76029Y500291D01*
X76908Y500877D01*
X77933Y501365D01*
X78567Y501560D01*
X79202Y501707D01*
X79885Y501804D01*
X80618Y501853D01*
X80960D01*
X81350Y501804D01*
X81887Y501755D01*
X82473Y501609D01*
X83108Y501463D01*
X83742Y501218D01*
X84377Y500877D01*
X84426Y500828D01*
X84621Y500681D01*
X84914Y500437D01*
X85304Y500144D01*
X85695Y499705D01*
X86085Y499168D01*
X86476Y498533D01*
X86818Y497801D01*
Y497850D01*
X86867Y497899D01*
Y498045D01*
X86915Y498241D01*
X87111Y498680D01*
X87355Y499266D01*
X87648Y499900D01*
X88087Y500584D01*
X88575Y501170D01*
X89210Y501707D01*
X89307Y501755D01*
X89503Y501902D01*
X89893Y502097D01*
X90381Y502341D01*
X90967Y502585D01*
X91700Y502781D01*
X92481Y502927D01*
X93311Y502976D01*
X93701D01*
X94043Y502927D01*
D02*
G37*
G36*
X102049Y584064D02*
Y576643D01*
X72465Y567124D01*
Y574300D01*
X94043Y580061D01*
X95117Y580256D01*
Y580402D01*
X94141Y580598D01*
X72465Y586456D01*
Y593681D01*
X102049Y584064D01*
D02*
G37*
G36*
X94864Y658610D02*
X95128Y658580D01*
X95450Y658522D01*
X95831Y658463D01*
X96211Y658375D01*
X96621Y658288D01*
X97061Y658141D01*
X97529Y657995D01*
X97969Y657790D01*
X98437Y657555D01*
X98876Y657292D01*
X99316Y656970D01*
X99726Y656618D01*
X99755Y656589D01*
X99813Y656531D01*
X99931Y656413D01*
X100048Y656267D01*
X100224Y656062D01*
X100399Y655828D01*
X100575Y655535D01*
X100780Y655213D01*
X100985Y654861D01*
X101161Y654480D01*
X101336Y654041D01*
X101512Y653573D01*
X101629Y653075D01*
X101746Y652548D01*
X101805Y651991D01*
X101834Y651405D01*
Y651376D01*
Y651259D01*
X101805Y651113D01*
Y650878D01*
X101776Y650615D01*
X101717Y650322D01*
X101659Y649970D01*
X101571Y649590D01*
X101454Y649209D01*
X101307Y648799D01*
X101161Y648360D01*
X100956Y647950D01*
X100692Y647540D01*
X100429Y647100D01*
X100106Y646720D01*
X99726Y646339D01*
X99696Y646310D01*
X99638Y646251D01*
X99491Y646163D01*
X99345Y646046D01*
X99140Y645900D01*
X98876Y645724D01*
X98583Y645548D01*
X98232Y645372D01*
X97881Y645197D01*
X97471Y645021D01*
X97031Y644845D01*
X96533Y644699D01*
X96036Y644582D01*
X95479Y644494D01*
X94923Y644435D01*
X94308Y644406D01*
X90852D01*
X90618Y644435D01*
X90354Y644464D01*
X90032Y644523D01*
X89681Y644582D01*
X89270Y644640D01*
X88421Y644875D01*
X87982Y645021D01*
X87513Y645226D01*
X87074Y645431D01*
X86606Y645695D01*
X86166Y645987D01*
X85756Y646339D01*
X85727Y646368D01*
X85668Y646427D01*
X85551Y646544D01*
X85405Y646690D01*
X85258Y646895D01*
X85083Y647130D01*
X84878Y647393D01*
X84673Y647686D01*
X84468Y648037D01*
X84263Y648418D01*
X84087Y648828D01*
X83940Y649297D01*
X83794Y649765D01*
X83677Y650293D01*
X83618Y650820D01*
X83589Y651405D01*
Y651435D01*
Y651552D01*
Y651728D01*
X83618Y651933D01*
X83648Y652225D01*
X83706Y652518D01*
X83765Y652870D01*
X83853Y653280D01*
X83970Y653660D01*
X84116Y654100D01*
X84292Y654539D01*
X84497Y654978D01*
X84760Y655388D01*
X85053Y655828D01*
X85375Y656238D01*
X85756Y656618D01*
X85786Y656648D01*
X85844Y656706D01*
X85961Y656794D01*
X86137Y656941D01*
X86342Y657087D01*
X86606Y657263D01*
X86898Y657438D01*
X87220Y657643D01*
X87601Y657819D01*
X88011Y657995D01*
X88450Y658170D01*
X88948Y658317D01*
X89446Y658463D01*
X90003Y658551D01*
X90559Y658610D01*
X91174Y658639D01*
X94630D01*
X94864Y658610D01*
D02*
G37*
G36*
X96416Y641946D02*
X96621D01*
X96885Y641887D01*
X97471Y641770D01*
X98115Y641565D01*
X98466Y641419D01*
X98818Y641272D01*
X99169Y641067D01*
X99521Y640804D01*
X99843Y640540D01*
X100165Y640218D01*
X100194Y640189D01*
X100224Y640130D01*
X100311Y640042D01*
X100429Y639896D01*
X100546Y639720D01*
X100692Y639486D01*
X100839Y639222D01*
X100985Y638929D01*
X101161Y638607D01*
X101307Y638256D01*
X101454Y637875D01*
X101571Y637436D01*
X101688Y636997D01*
X101776Y636499D01*
X101805Y636001D01*
X101834Y635444D01*
Y635415D01*
Y635298D01*
X101805Y635151D01*
Y634947D01*
X101776Y634683D01*
X101717Y634390D01*
X101659Y634068D01*
X101571Y633687D01*
X101454Y633307D01*
X101307Y632926D01*
X101161Y632516D01*
X100956Y632106D01*
X100692Y631696D01*
X100429Y631286D01*
X100106Y630905D01*
X99726Y630524D01*
X99696Y630495D01*
X99638Y630437D01*
X99491Y630349D01*
X99345Y630232D01*
X99140Y630085D01*
X98876Y629939D01*
X98583Y629763D01*
X98232Y629587D01*
X97881Y629411D01*
X97471Y629236D01*
X97031Y629089D01*
X96533Y628943D01*
X96036Y628826D01*
X95479Y628738D01*
X94923Y628679D01*
X94308Y628650D01*
X90852D01*
X90618Y628679D01*
X90354Y628709D01*
X90032Y628738D01*
X89651Y628796D01*
X89270Y628884D01*
X88421Y629119D01*
X87953Y629265D01*
X87513Y629441D01*
X87045Y629646D01*
X86606Y629909D01*
X86166Y630202D01*
X85756Y630524D01*
X85727Y630554D01*
X85668Y630612D01*
X85551Y630729D01*
X85405Y630876D01*
X85258Y631051D01*
X85083Y631286D01*
X84878Y631549D01*
X84673Y631842D01*
X84468Y632194D01*
X84263Y632574D01*
X84087Y632955D01*
X83940Y633394D01*
X83794Y633863D01*
X83677Y634361D01*
X83618Y634888D01*
X83589Y635444D01*
Y635474D01*
Y635591D01*
Y635737D01*
X83618Y635942D01*
X83648Y636206D01*
X83677Y636499D01*
X83735Y636821D01*
X83794Y637172D01*
X83970Y637934D01*
X84263Y638754D01*
X84438Y639134D01*
X84673Y639515D01*
X84907Y639896D01*
X85200Y640247D01*
X85229Y640277D01*
X85288Y640335D01*
X85375Y640423D01*
X85493Y640540D01*
X85639Y640657D01*
X85844Y640804D01*
X86078Y640980D01*
X86342Y641126D01*
X86635Y641302D01*
X86957Y641448D01*
X87660Y641741D01*
X88070Y641829D01*
X88509Y641917D01*
X88978Y641975D01*
X89446D01*
X89534Y641946D01*
Y639632D01*
X89358D01*
X89212Y639603D01*
X88890Y639574D01*
X88450Y639486D01*
X87982Y639369D01*
X87484Y639164D01*
X87015Y638900D01*
X86576Y638519D01*
X86518Y638461D01*
X86400Y638314D01*
X86225Y638080D01*
X86020Y637729D01*
X85844Y637289D01*
X85668Y636762D01*
X85551Y636147D01*
X85493Y635444D01*
Y635415D01*
Y635356D01*
Y635239D01*
X85522Y635122D01*
X85551Y634947D01*
X85580Y634742D01*
X85698Y634273D01*
X85903Y633775D01*
X86195Y633248D01*
X86371Y632955D01*
X86576Y632721D01*
X86840Y632457D01*
X87133Y632223D01*
X87162D01*
X87191Y632164D01*
X87308Y632106D01*
X87425Y632047D01*
X87572Y631959D01*
X87777Y631842D01*
X87982Y631754D01*
X88245Y631637D01*
X88831Y631432D01*
X89505Y631227D01*
X90295Y631110D01*
X91145Y631051D01*
X94542D01*
X94718Y631081D01*
X94923D01*
X95157Y631110D01*
X95714Y631198D01*
X96358Y631344D01*
X97061Y631549D01*
X97734Y631842D01*
X98378Y632223D01*
X98408Y632252D01*
X98437Y632281D01*
X98642Y632457D01*
X98876Y632721D01*
X99169Y633072D01*
X99491Y633541D01*
X99726Y634097D01*
X99931Y634712D01*
X99960Y635064D01*
X99989Y635444D01*
Y635474D01*
Y635532D01*
Y635649D01*
X99960Y635766D01*
Y635942D01*
X99931Y636118D01*
X99843Y636587D01*
X99726Y637084D01*
X99521Y637582D01*
X99257Y638080D01*
X98906Y638519D01*
X98847Y638578D01*
X98701Y638695D01*
X98466Y638871D01*
X98115Y639076D01*
X97705Y639281D01*
X97178Y639457D01*
X96592Y639574D01*
X95919Y639632D01*
Y641946D01*
X96006Y641975D01*
X96241D01*
X96416Y641946D01*
D02*
G37*
G36*
X102049Y595732D02*
X97607D01*
X87599Y604812D01*
X87550D01*
X87501Y604910D01*
X87257Y605105D01*
X86867Y605447D01*
X86329Y605837D01*
X85793Y606277D01*
X85158Y606716D01*
X84523Y607155D01*
X83889Y607497D01*
X83840Y607546D01*
X83596Y607643D01*
X83303Y607790D01*
X82912Y607936D01*
X82473Y608083D01*
X82034Y608229D01*
X81545Y608327D01*
X81057Y608376D01*
X80764D01*
X80471Y608327D01*
X80081Y608278D01*
X79641Y608180D01*
X79202Y608034D01*
X78763Y607839D01*
X78372Y607595D01*
X78323Y607546D01*
X78226Y607448D01*
X78030Y607253D01*
X77835Y607009D01*
X77689Y606667D01*
X77493Y606228D01*
X77396Y605691D01*
X77347Y605105D01*
Y605056D01*
Y604861D01*
X77396Y604568D01*
X77493Y604177D01*
X77689Y603787D01*
X77884Y603396D01*
X78226Y602957D01*
X78665Y602615D01*
X78714Y602566D01*
X78909Y602469D01*
X79153Y602322D01*
X79544Y602176D01*
X80032Y602029D01*
X80618Y601883D01*
X81252Y601785D01*
X81985Y601736D01*
Y594999D01*
X81838Y594950D01*
X81448D01*
X81155Y594999D01*
X80813D01*
X80374Y595048D01*
X79934Y595146D01*
X79446Y595243D01*
X78323Y595585D01*
X77786Y595780D01*
X77200Y596025D01*
X76615Y596366D01*
X76029Y596708D01*
X75443Y597147D01*
X74906Y597635D01*
X74857Y597684D01*
X74759Y597782D01*
X74662Y597928D01*
X74467Y598172D01*
X74222Y598417D01*
X73978Y598758D01*
X73734Y599198D01*
X73441Y599637D01*
X73197Y600125D01*
X72953Y600711D01*
X72709Y601297D01*
X72465Y601980D01*
X72270Y602713D01*
X72172Y603445D01*
X72074Y604275D01*
X72026Y605105D01*
Y605154D01*
Y605300D01*
Y605593D01*
X72074Y605935D01*
Y606325D01*
X72172Y606814D01*
X72221Y607302D01*
X72319Y607887D01*
X72611Y609108D01*
X73051Y610328D01*
X73295Y610963D01*
X73637Y611549D01*
X73978Y612086D01*
X74418Y612623D01*
X74467Y612672D01*
X74515Y612720D01*
X74662Y612867D01*
X74857Y613013D01*
X75101Y613257D01*
X75394Y613453D01*
X75736Y613697D01*
X76126Y613941D01*
X76566Y614185D01*
X77054Y614429D01*
X78226Y614869D01*
X79495Y615162D01*
X80227Y615210D01*
X81008Y615259D01*
X81496D01*
X81985Y615162D01*
X82668Y615064D01*
X83449Y614917D01*
X84279Y614624D01*
X85158Y614283D01*
X85988Y613795D01*
X86085Y613746D01*
X86232Y613648D01*
X86378Y613502D01*
X86622Y613355D01*
X86867Y613111D01*
X87208Y612867D01*
X87599Y612574D01*
X88038Y612232D01*
X88477Y611842D01*
X89015Y611402D01*
X89600Y610914D01*
X90235Y610377D01*
X90870Y609791D01*
X91602Y609108D01*
X92383Y608424D01*
X96679Y604812D01*
X96777Y604861D01*
Y616284D01*
X102049D01*
Y595732D01*
D02*
G37*
G36*
X101600Y834649D02*
X97031Y833097D01*
Y826390D01*
X101600Y824809D01*
Y822349D01*
X83853Y828763D01*
Y830813D01*
X101600Y837109D01*
Y834649D01*
D02*
G37*
G36*
X378240Y63500D02*
X370740D01*
Y71000D01*
X378240D01*
Y63500D01*
D02*
G37*
G36*
X153450D02*
X145950D01*
Y71000D01*
X153450D01*
Y63500D01*
D02*
G37*
G36*
X101600Y850054D02*
X101571Y850024D01*
X101512Y849966D01*
X101424Y849907D01*
X101307Y849790D01*
X101131Y849702D01*
X100926Y849585D01*
X100663Y849497D01*
X100399Y849439D01*
X100370D01*
X100253Y849409D01*
X100106D01*
X99872Y849380D01*
X99638Y849351D01*
X99345D01*
X98730Y849322D01*
X96885D01*
X96621Y849292D01*
X96299Y849204D01*
X95919Y849117D01*
X95538Y848970D01*
X95157Y848765D01*
X94806Y848472D01*
X94776Y848443D01*
X94659Y848326D01*
X94513Y848121D01*
X94366Y847887D01*
X94191Y847535D01*
X94073Y847154D01*
X93956Y846715D01*
X93927Y846217D01*
Y842088D01*
X101600D01*
Y839686D01*
X83853D01*
Y845778D01*
Y845807D01*
Y845895D01*
Y846071D01*
X83882Y846246D01*
Y846510D01*
X83911Y846774D01*
X83970Y847096D01*
X84028Y847418D01*
X84175Y848121D01*
X84409Y848882D01*
X84731Y849585D01*
X84936Y849907D01*
X85170Y850200D01*
Y850229D01*
X85229Y850259D01*
X85317Y850347D01*
X85405Y850434D01*
X85551Y850552D01*
X85698Y850698D01*
X86108Y850991D01*
X86664Y851254D01*
X87308Y851518D01*
X88041Y851694D01*
X88480Y851723D01*
X88919Y851752D01*
X89153D01*
X89417Y851723D01*
X89739Y851664D01*
X90120Y851577D01*
X90500Y851459D01*
X90911Y851284D01*
X91320Y851049D01*
X91350Y851020D01*
X91496Y850932D01*
X91672Y850757D01*
X91877Y850522D01*
X92141Y850229D01*
X92404Y849878D01*
X92668Y849468D01*
X92902Y848970D01*
Y848999D01*
X92931Y849029D01*
X92990Y849204D01*
X93107Y849468D01*
X93283Y849790D01*
X93488Y850142D01*
X93751Y850493D01*
X94073Y850815D01*
X94454Y851079D01*
X94513Y851108D01*
X94630Y851167D01*
X94864Y851284D01*
X95186Y851401D01*
X95567Y851518D01*
X96006Y851635D01*
X96533Y851694D01*
X97090Y851723D01*
X99052D01*
X99257Y851752D01*
X99491D01*
X99726Y851811D01*
X100253Y851899D01*
X100282D01*
X100370Y851928D01*
X100487Y851987D01*
X100634Y852045D01*
X100956Y852221D01*
X101307Y852514D01*
X101600D01*
Y850054D01*
D02*
G37*
G36*
X94513Y868855D02*
X94806Y868826D01*
X95157Y868768D01*
X95508Y868709D01*
X95919Y868621D01*
X96358Y868504D01*
X96797Y868357D01*
X97266Y868211D01*
X97734Y868006D01*
X98174Y867742D01*
X98642Y867479D01*
X99081Y867157D01*
X99491Y866776D01*
X99521Y866747D01*
X99579Y866688D01*
X99696Y866571D01*
X99813Y866395D01*
X99989Y866190D01*
X100165Y865927D01*
X100341Y865634D01*
X100546Y865283D01*
X100751Y864902D01*
X100926Y864492D01*
X101102Y864023D01*
X101278Y863525D01*
X101395Y862998D01*
X101512Y862412D01*
X101571Y861827D01*
X101600Y861182D01*
Y855589D01*
X83853D01*
Y861182D01*
Y861212D01*
Y861329D01*
Y861505D01*
X83882Y861768D01*
X83911Y862061D01*
X83970Y862383D01*
X84028Y862764D01*
X84116Y863203D01*
X84233Y863613D01*
X84380Y864082D01*
X84555Y864550D01*
X84760Y865019D01*
X84995Y865488D01*
X85288Y865927D01*
X85610Y866366D01*
X85990Y866776D01*
X86020Y866805D01*
X86078Y866864D01*
X86195Y866981D01*
X86371Y867098D01*
X86576Y867274D01*
X86840Y867450D01*
X87133Y867625D01*
X87484Y867830D01*
X87865Y868035D01*
X88275Y868211D01*
X88743Y868387D01*
X89212Y868563D01*
X89739Y868680D01*
X90325Y868797D01*
X90911Y868855D01*
X91525Y868885D01*
X94278D01*
X94513Y868855D01*
D02*
G37*
G36*
X144700Y77500D02*
X134700D01*
X139700Y84500D01*
X144700Y77500D01*
D02*
G37*
G36*
X369490D02*
X359490D01*
X364490Y84500D01*
X369490Y77500D01*
D02*
G37*
G36*
X97002Y803869D02*
X97207Y803840D01*
X97441Y803811D01*
X97969Y803694D01*
X98583Y803518D01*
X99199Y803225D01*
X99521Y803049D01*
X99813Y802844D01*
X100077Y802610D01*
X100341Y802317D01*
Y802288D01*
X100399Y802259D01*
X100458Y802141D01*
X100546Y802024D01*
X100634Y801878D01*
X100751Y801673D01*
X100839Y801439D01*
X100956Y801204D01*
X101073Y800911D01*
X101190Y800589D01*
X101307Y800238D01*
X101395Y799857D01*
X101541Y799008D01*
X101571Y798539D01*
X101600Y798041D01*
Y790983D01*
X83853D01*
Y796782D01*
Y796811D01*
Y796899D01*
Y797046D01*
X83882Y797251D01*
Y797485D01*
X83911Y797748D01*
X83940Y798041D01*
X83999Y798363D01*
X84145Y799066D01*
X84350Y799799D01*
X84643Y800501D01*
X85053Y801146D01*
Y801175D01*
X85112Y801204D01*
X85288Y801380D01*
X85551Y801644D01*
X85961Y801936D01*
X86459Y802229D01*
X87074Y802493D01*
X87806Y802669D01*
X88216Y802698D01*
X88656Y802727D01*
X88861D01*
X89066Y802698D01*
X89329Y802639D01*
X89651Y802551D01*
X90003Y802405D01*
X90354Y802229D01*
X90705Y801995D01*
X90735Y801966D01*
X90852Y801878D01*
X91028Y801702D01*
X91233Y801497D01*
X91438Y801234D01*
X91672Y800911D01*
X91906Y800531D01*
X92111Y800121D01*
Y800150D01*
Y800209D01*
X92141Y800296D01*
X92170Y800414D01*
X92258Y800736D01*
X92375Y801116D01*
X92580Y801556D01*
X92843Y802024D01*
X93195Y802464D01*
X93634Y802874D01*
X93693Y802932D01*
X93868Y803049D01*
X94132Y803196D01*
X94483Y803401D01*
X94923Y803577D01*
X95421Y803752D01*
X95977Y803869D01*
X96592Y803899D01*
X96826D01*
X97002Y803869D01*
D02*
G37*
G36*
X94864Y820387D02*
X95128Y820358D01*
X95450Y820299D01*
X95831Y820240D01*
X96211Y820153D01*
X96621Y820065D01*
X97061Y819918D01*
X97529Y819772D01*
X97969Y819567D01*
X98437Y819332D01*
X98876Y819069D01*
X99316Y818747D01*
X99726Y818395D01*
X99755Y818366D01*
X99813Y818307D01*
X99931Y818190D01*
X100048Y818044D01*
X100224Y817839D01*
X100399Y817605D01*
X100575Y817312D01*
X100780Y816990D01*
X100985Y816638D01*
X101161Y816257D01*
X101336Y815818D01*
X101512Y815350D01*
X101629Y814852D01*
X101746Y814324D01*
X101805Y813768D01*
X101834Y813182D01*
Y813153D01*
Y813036D01*
X101805Y812889D01*
Y812655D01*
X101776Y812392D01*
X101717Y812099D01*
X101659Y811747D01*
X101571Y811367D01*
X101454Y810986D01*
X101307Y810576D01*
X101161Y810137D01*
X100956Y809727D01*
X100692Y809317D01*
X100429Y808877D01*
X100106Y808497D01*
X99726Y808116D01*
X99696Y808086D01*
X99638Y808028D01*
X99491Y807940D01*
X99345Y807823D01*
X99140Y807676D01*
X98876Y807501D01*
X98583Y807325D01*
X98232Y807149D01*
X97881Y806974D01*
X97471Y806798D01*
X97031Y806622D01*
X96533Y806476D01*
X96036Y806359D01*
X95479Y806271D01*
X94923Y806212D01*
X94308Y806183D01*
X90852D01*
X90618Y806212D01*
X90354Y806242D01*
X90032Y806300D01*
X89681Y806359D01*
X89270Y806417D01*
X88421Y806652D01*
X87982Y806798D01*
X87513Y807003D01*
X87074Y807208D01*
X86606Y807471D01*
X86166Y807764D01*
X85756Y808116D01*
X85727Y808145D01*
X85668Y808204D01*
X85551Y808321D01*
X85405Y808467D01*
X85258Y808672D01*
X85083Y808907D01*
X84878Y809170D01*
X84673Y809463D01*
X84468Y809814D01*
X84263Y810195D01*
X84087Y810605D01*
X83940Y811074D01*
X83794Y811542D01*
X83677Y812069D01*
X83618Y812597D01*
X83589Y813182D01*
Y813212D01*
Y813329D01*
Y813504D01*
X83618Y813709D01*
X83648Y814002D01*
X83706Y814295D01*
X83765Y814647D01*
X83853Y815057D01*
X83970Y815437D01*
X84116Y815877D01*
X84292Y816316D01*
X84497Y816755D01*
X84760Y817165D01*
X85053Y817605D01*
X85375Y818015D01*
X85756Y818395D01*
X85786Y818425D01*
X85844Y818483D01*
X85961Y818571D01*
X86137Y818717D01*
X86342Y818864D01*
X86606Y819040D01*
X86898Y819215D01*
X87220Y819420D01*
X87601Y819596D01*
X88011Y819772D01*
X88450Y819948D01*
X88948Y820094D01*
X89446Y820240D01*
X90003Y820328D01*
X90559Y820387D01*
X91174Y820416D01*
X94630D01*
X94864Y820387D01*
D02*
G37*
%LPC*%
G36*
X81350Y494970D02*
X81057D01*
X80715Y494921D01*
X80325Y494823D01*
X79885Y494677D01*
X79397Y494433D01*
X79007Y494140D01*
X78616Y493749D01*
X78567Y493700D01*
X78470Y493554D01*
X78323Y493261D01*
X78177Y492870D01*
X78030Y492333D01*
X77884Y491748D01*
X77786Y491015D01*
X77737Y490136D01*
Y487354D01*
X84816D01*
Y490039D01*
Y490088D01*
Y490136D01*
Y490429D01*
X84767Y490869D01*
X84719Y491455D01*
X84621Y492040D01*
X84426Y492675D01*
X84230Y493261D01*
X83937Y493749D01*
X83889Y493798D01*
X83791Y493944D01*
X83547Y494140D01*
X83303Y494384D01*
X82912Y494579D01*
X82473Y494774D01*
X81936Y494921D01*
X81350Y494970D01*
D02*
G37*
G36*
X93262Y496141D02*
X92969D01*
X92627Y496092D01*
X92188Y496044D01*
X91700Y495897D01*
X91260Y495751D01*
X90772Y495507D01*
X90381Y495165D01*
X90333Y495116D01*
X90235Y494970D01*
X90089Y494725D01*
X89893Y494384D01*
X89698Y493944D01*
X89552Y493407D01*
X89405Y492773D01*
X89356Y491992D01*
Y491748D01*
Y487354D01*
X96777D01*
Y491748D01*
Y491796D01*
Y491845D01*
Y492089D01*
X96728Y492480D01*
X96679Y492968D01*
X96581Y493505D01*
X96435Y494042D01*
X96240Y494579D01*
X95947Y495018D01*
X95898Y495067D01*
X95800Y495214D01*
X95556Y495360D01*
X95263Y495604D01*
X94922Y495799D01*
X94433Y495946D01*
X93896Y496092D01*
X93262Y496141D01*
D02*
G37*
G36*
X93956Y866483D02*
X91262D01*
X91086Y866454D01*
X90852D01*
X90618Y866395D01*
X90032Y866308D01*
X89388Y866132D01*
X88685Y865868D01*
X88333Y865722D01*
X88011Y865517D01*
X87689Y865312D01*
X87367Y865048D01*
X87338Y865019D01*
X87308Y864990D01*
X87220Y864902D01*
X87103Y864785D01*
X86986Y864638D01*
X86869Y864463D01*
X86723Y864258D01*
X86547Y864053D01*
X86254Y863496D01*
X86020Y862822D01*
X85815Y862061D01*
X85786Y861622D01*
X85756Y861182D01*
Y857990D01*
X99726D01*
Y861182D01*
Y861212D01*
Y861300D01*
Y861417D01*
X99696Y861592D01*
X99667Y861797D01*
X99638Y862032D01*
X99521Y862588D01*
X99345Y863203D01*
X99052Y863848D01*
X98847Y864170D01*
X98642Y864492D01*
X98408Y864785D01*
X98115Y865048D01*
X98086Y865078D01*
X98027Y865107D01*
X97939Y865195D01*
X97822Y865283D01*
X97676Y865370D01*
X97471Y865517D01*
X97236Y865634D01*
X97002Y865780D01*
X96709Y865898D01*
X96387Y866044D01*
X95684Y866249D01*
X94864Y866425D01*
X94425Y866454D01*
X93956Y866483D01*
D02*
G37*
G36*
X96621Y801497D02*
X96387D01*
X96124Y801439D01*
X95772Y801380D01*
X95391Y801263D01*
X95011Y801116D01*
X94601Y800882D01*
X94249Y800560D01*
X94220Y800531D01*
X94103Y800384D01*
X93956Y800179D01*
X93781Y799916D01*
X93605Y799564D01*
X93458Y799125D01*
X93341Y798627D01*
X93283Y798071D01*
Y797895D01*
Y793385D01*
X99726D01*
Y798041D01*
Y798071D01*
Y798100D01*
Y798188D01*
Y798305D01*
X99696Y798598D01*
X99638Y798979D01*
X99521Y799389D01*
X99403Y799799D01*
X99199Y800209D01*
X98935Y800589D01*
X98906Y800619D01*
X98788Y800736D01*
X98583Y800882D01*
X98349Y801058D01*
X97998Y801204D01*
X97617Y801351D01*
X97149Y801468D01*
X96621Y801497D01*
D02*
G37*
G36*
X94776Y721721D02*
X90911D01*
X90735Y721692D01*
X90530D01*
X90295Y721663D01*
X89710Y721546D01*
X89095Y721399D01*
X88421Y721165D01*
X87748Y720843D01*
X87425Y720638D01*
X87133Y720404D01*
X87103D01*
X87074Y720345D01*
X86986Y720257D01*
X86898Y720169D01*
X86635Y719876D01*
X86342Y719466D01*
X86078Y718969D01*
X85815Y718354D01*
X85639Y717680D01*
X85610Y717299D01*
X85580Y716889D01*
Y716860D01*
Y716802D01*
Y716684D01*
X85610Y716538D01*
X85639Y716362D01*
X85668Y716157D01*
X85786Y715689D01*
X85961Y715132D01*
X86225Y714576D01*
X86400Y714312D01*
X86606Y714019D01*
X86869Y713756D01*
X87133Y713521D01*
X87162D01*
X87191Y713463D01*
X87279Y713404D01*
X87425Y713316D01*
X87572Y713229D01*
X87748Y713141D01*
X87982Y713024D01*
X88216Y712906D01*
X88802Y712672D01*
X89475Y712496D01*
X90266Y712350D01*
X91145Y712291D01*
X94542D01*
X94718Y712321D01*
X94923D01*
X95186Y712350D01*
X95743Y712438D01*
X96387Y712584D01*
X97061Y712819D01*
X97734Y713111D01*
X98349Y713521D01*
X98378Y713551D01*
X98408Y713580D01*
X98583Y713756D01*
X98847Y714019D01*
X99111Y714429D01*
X99403Y714898D01*
X99667Y715484D01*
X99843Y716128D01*
X99872Y716509D01*
X99901Y716889D01*
Y716919D01*
Y716977D01*
Y717094D01*
X99872Y717270D01*
X99843Y717446D01*
X99813Y717651D01*
X99696Y718178D01*
X99521Y718734D01*
X99257Y719320D01*
X99081Y719613D01*
X98847Y719876D01*
X98613Y720140D01*
X98349Y720404D01*
X98320Y720433D01*
X98291Y720462D01*
X98203Y720521D01*
X98056Y720609D01*
X97910Y720696D01*
X97734Y720814D01*
X97500Y720931D01*
X97266Y721077D01*
X96680Y721311D01*
X95977Y721516D01*
X95186Y721663D01*
X94776Y721721D01*
D02*
G37*
G36*
X88597Y800326D02*
X88363D01*
X88099Y800267D01*
X87777Y800209D01*
X87455Y800091D01*
X87074Y799945D01*
X86752Y799711D01*
X86459Y799389D01*
X86430Y799359D01*
X86342Y799213D01*
X86225Y799008D01*
X86108Y798715D01*
X85990Y798363D01*
X85873Y797895D01*
X85786Y797397D01*
X85756Y796782D01*
Y793385D01*
X91408D01*
Y797280D01*
Y797309D01*
Y797338D01*
Y797514D01*
X91379Y797748D01*
X91320Y798071D01*
X91233Y798422D01*
X91086Y798773D01*
X90911Y799125D01*
X90676Y799476D01*
X90647Y799506D01*
X90530Y799623D01*
X90354Y799740D01*
X90120Y799916D01*
X89827Y800062D01*
X89475Y800209D01*
X89066Y800296D01*
X88597Y800326D01*
D02*
G37*
G36*
X88890Y778537D02*
X88656D01*
X88363Y778478D01*
X88041Y778420D01*
X87660Y778332D01*
X87279Y778156D01*
X86898Y777951D01*
X86576Y777658D01*
X86547Y777629D01*
X86459Y777512D01*
X86313Y777307D01*
X86166Y777014D01*
X86020Y776633D01*
X85873Y776165D01*
X85786Y775608D01*
X85756Y774964D01*
Y771274D01*
X92023D01*
Y774700D01*
Y774730D01*
Y774788D01*
Y774905D01*
Y775022D01*
X91994Y775403D01*
X91936Y775842D01*
X91848Y776311D01*
X91701Y776809D01*
X91525Y777248D01*
X91262Y777629D01*
X91233Y777658D01*
X91116Y777775D01*
X90940Y777922D01*
X90676Y778098D01*
X90325Y778244D01*
X89915Y778390D01*
X89446Y778508D01*
X88890Y778537D01*
D02*
G37*
G36*
X94776Y818015D02*
X90911D01*
X90735Y817985D01*
X90530D01*
X90295Y817956D01*
X89710Y817839D01*
X89095Y817692D01*
X88421Y817458D01*
X87748Y817136D01*
X87425Y816931D01*
X87133Y816697D01*
X87103D01*
X87074Y816638D01*
X86986Y816550D01*
X86898Y816462D01*
X86635Y816170D01*
X86342Y815760D01*
X86078Y815262D01*
X85815Y814647D01*
X85639Y813973D01*
X85610Y813592D01*
X85580Y813182D01*
Y813153D01*
Y813094D01*
Y812977D01*
X85610Y812831D01*
X85639Y812655D01*
X85668Y812450D01*
X85786Y811982D01*
X85961Y811425D01*
X86225Y810869D01*
X86400Y810605D01*
X86606Y810312D01*
X86869Y810049D01*
X87133Y809814D01*
X87162D01*
X87191Y809756D01*
X87279Y809697D01*
X87425Y809609D01*
X87572Y809522D01*
X87748Y809434D01*
X87982Y809317D01*
X88216Y809199D01*
X88802Y808965D01*
X89475Y808789D01*
X90266Y808643D01*
X91145Y808584D01*
X94542D01*
X94718Y808614D01*
X94923D01*
X95186Y808643D01*
X95743Y808731D01*
X96387Y808877D01*
X97061Y809112D01*
X97734Y809404D01*
X98349Y809814D01*
X98378Y809844D01*
X98408Y809873D01*
X98583Y810049D01*
X98847Y810312D01*
X99111Y810722D01*
X99403Y811191D01*
X99667Y811777D01*
X99843Y812421D01*
X99872Y812802D01*
X99901Y813182D01*
Y813212D01*
Y813270D01*
Y813387D01*
X99872Y813563D01*
X99843Y813739D01*
X99813Y813944D01*
X99696Y814471D01*
X99521Y815027D01*
X99257Y815613D01*
X99081Y815906D01*
X98847Y816170D01*
X98613Y816433D01*
X98349Y816697D01*
X98320Y816726D01*
X98291Y816755D01*
X98203Y816814D01*
X98056Y816902D01*
X97910Y816990D01*
X97734Y817107D01*
X97500Y817224D01*
X97266Y817370D01*
X96680Y817605D01*
X95977Y817810D01*
X95186Y817956D01*
X94776Y818015D01*
D02*
G37*
G36*
X88890Y849351D02*
X88656D01*
X88363Y849292D01*
X88041Y849234D01*
X87660Y849146D01*
X87279Y848970D01*
X86898Y848765D01*
X86576Y848472D01*
X86547Y848443D01*
X86459Y848326D01*
X86313Y848121D01*
X86166Y847828D01*
X86020Y847447D01*
X85873Y846979D01*
X85786Y846422D01*
X85756Y845778D01*
Y842088D01*
X92023D01*
Y845514D01*
Y845544D01*
Y845602D01*
Y845719D01*
Y845836D01*
X91994Y846217D01*
X91936Y846656D01*
X91848Y847125D01*
X91701Y847623D01*
X91525Y848062D01*
X91262Y848443D01*
X91233Y848472D01*
X91116Y848589D01*
X90940Y848736D01*
X90676Y848912D01*
X90325Y849058D01*
X89915Y849204D01*
X89446Y849322D01*
X88890Y849351D01*
D02*
G37*
G36*
X94776Y656238D02*
X90911D01*
X90735Y656208D01*
X90530D01*
X90295Y656179D01*
X89710Y656062D01*
X89095Y655916D01*
X88421Y655681D01*
X87748Y655359D01*
X87425Y655154D01*
X87133Y654920D01*
X87103D01*
X87074Y654861D01*
X86986Y654773D01*
X86898Y654685D01*
X86635Y654393D01*
X86342Y653983D01*
X86078Y653485D01*
X85815Y652870D01*
X85639Y652196D01*
X85610Y651815D01*
X85580Y651405D01*
Y651376D01*
Y651318D01*
Y651200D01*
X85610Y651054D01*
X85639Y650878D01*
X85668Y650673D01*
X85786Y650205D01*
X85961Y649648D01*
X86225Y649092D01*
X86400Y648828D01*
X86606Y648535D01*
X86869Y648272D01*
X87133Y648037D01*
X87162D01*
X87191Y647979D01*
X87279Y647920D01*
X87425Y647832D01*
X87572Y647745D01*
X87748Y647657D01*
X87982Y647540D01*
X88216Y647422D01*
X88802Y647188D01*
X89475Y647012D01*
X90266Y646866D01*
X91145Y646807D01*
X94542D01*
X94718Y646837D01*
X94923D01*
X95186Y646866D01*
X95743Y646954D01*
X96387Y647100D01*
X97061Y647335D01*
X97734Y647627D01*
X98349Y648037D01*
X98378Y648067D01*
X98408Y648096D01*
X98583Y648272D01*
X98847Y648535D01*
X99111Y648945D01*
X99403Y649414D01*
X99667Y650000D01*
X99843Y650644D01*
X99872Y651025D01*
X99901Y651405D01*
Y651435D01*
Y651493D01*
Y651610D01*
X99872Y651786D01*
X99843Y651962D01*
X99813Y652167D01*
X99696Y652694D01*
X99521Y653250D01*
X99257Y653836D01*
X99081Y654129D01*
X98847Y654393D01*
X98613Y654656D01*
X98349Y654920D01*
X98320Y654949D01*
X98291Y654978D01*
X98203Y655037D01*
X98056Y655125D01*
X97910Y655213D01*
X97734Y655330D01*
X97500Y655447D01*
X97266Y655593D01*
X96680Y655828D01*
X95977Y656033D01*
X95186Y656179D01*
X94776Y656238D01*
D02*
G37*
G36*
X88890Y704325D02*
X88656D01*
X88363Y704267D01*
X88041Y704208D01*
X87660Y704120D01*
X87279Y703945D01*
X86898Y703740D01*
X86576Y703447D01*
X86547Y703418D01*
X86459Y703300D01*
X86313Y703095D01*
X86166Y702803D01*
X86020Y702422D01*
X85873Y701953D01*
X85786Y701397D01*
X85756Y700753D01*
Y697063D01*
X92023D01*
Y700489D01*
Y700518D01*
Y700577D01*
Y700694D01*
Y700811D01*
X91994Y701192D01*
X91936Y701631D01*
X91848Y702100D01*
X91701Y702598D01*
X91525Y703037D01*
X91262Y703418D01*
X91233Y703447D01*
X91116Y703564D01*
X90940Y703710D01*
X90676Y703886D01*
X90325Y704033D01*
X89915Y704179D01*
X89446Y704296D01*
X88890Y704325D01*
D02*
G37*
G36*
X95040Y832394D02*
X87396Y829817D01*
Y829729D01*
X95040Y827093D01*
Y832394D01*
D02*
G37*
%LPD*%
D34*
X83938Y260390D02*
G03*
X40522Y260390I-21707J15200D01*
G01*
X519839Y193737D02*
G03*
X484785Y196170I-18189J-8317D01*
G01*
Y174670D02*
G03*
X519839Y177103I16865J10750D01*
G01*
X407552Y495260D02*
G03*
X450967Y495260I21707J-15200D01*
G01*
X436240Y245341D02*
G03*
X435850Y285230I14610J20089D01*
G01*
X40523Y260390D02*
X83937D01*
X17780Y342900D02*
Y393700D01*
Y342900D02*
X68580D01*
X17780Y393700D02*
X68580D01*
Y342900D02*
Y393700D01*
X452690Y41910D02*
X478090D01*
X452690D02*
Y143510D01*
X478090Y41910D02*
Y143510D01*
X452690D02*
X478090D01*
X250190Y16510D02*
X275590D01*
X250190D02*
Y143510D01*
X275590Y16510D02*
Y143510D01*
X250190D02*
X275590D01*
X97790Y217170D02*
X224790D01*
X97790Y166370D02*
X224790D01*
Y217170D01*
X97790Y166370D02*
Y217170D01*
X147220Y872490D02*
X172620D01*
Y262890D02*
Y872490D01*
X147220Y262890D02*
X172620D01*
X147220D02*
Y281940D01*
Y872490D01*
X299720Y281940D02*
Y872490D01*
Y262890D02*
Y281940D01*
Y262890D02*
X325120D01*
Y872490D01*
X299720D02*
X325120D01*
X16510Y529590D02*
X41910D01*
X16510D02*
Y656590D01*
X41910Y529590D02*
Y656590D01*
X16510D02*
X41910D01*
X512470Y292550D02*
X531470D01*
Y253550D02*
Y292550D01*
X512470Y253550D02*
Y292550D01*
X407553Y495260D02*
X450967D01*
X387350Y427990D02*
X412750D01*
Y199390D02*
Y427990D01*
X387350Y199390D02*
X412750D01*
X387350D02*
Y427990D01*
X67310Y685800D02*
Y838200D01*
X16510D02*
X67310D01*
X16510Y685800D02*
Y838200D01*
Y685800D02*
X67310D01*
X426720Y570230D02*
X528320D01*
X426720Y519430D02*
X528320D01*
Y570230D01*
X426720Y519430D02*
Y570230D01*
X337820Y281940D02*
Y872490D01*
Y262890D02*
Y281940D01*
Y262890D02*
X363220D01*
Y872490D01*
X337820D02*
X363220D01*
X435850Y245630D02*
Y285230D01*
X109220Y281940D02*
Y872490D01*
Y262890D02*
Y281940D01*
Y262890D02*
X134620D01*
Y872490D01*
X109220D02*
X134620D01*
X509270Y834390D02*
X534670D01*
X509270D02*
Y885190D01*
X534670D01*
Y834390D02*
Y885190D01*
D35*
X33450Y261880D02*
G03*
X33450Y261880I-1250J0D01*
G01*
X460540Y493770D02*
G03*
X460540Y493770I-1250J0D01*
G01*
X437100Y292930D02*
G03*
X437100Y292930I-1250J0D01*
G01*
D36*
X367030Y25000D02*
G03*
X367030Y25000I-2540J0D01*
G01*
X142240D02*
G03*
X142240Y25000I-2540J0D01*
G01*
D37*
X353990Y62500D02*
G03*
X353990Y62500I-2000J0D01*
G01*
X129200D02*
G03*
X129200Y62500I-2000J0D01*
G01*
X364490Y30000D02*
Y77500D01*
X139700Y30000D02*
Y77500D01*
D38*
X351990Y50000D02*
G03*
X353866Y45472I6403J0D01*
G01*
X372615Y56472D02*
G03*
X374490Y61000I-4528J4528D01*
G01*
X127200Y50000D02*
G03*
X129075Y45472I6403J0D01*
G01*
X147825Y56472D02*
G03*
X149700Y61000I-4528J4528D01*
G01*
X351990Y50000D02*
Y62500D01*
X374490Y61000D02*
Y63500D01*
X353866Y45472D02*
X363866Y35472D01*
X365115Y48972D02*
X372614Y56472D01*
X127200Y50000D02*
Y62500D01*
X149700Y61000D02*
Y63500D01*
X129076Y45472D02*
X139076Y35472D01*
X140325Y48972D02*
X147824Y56472D01*
D39*
X449490Y688201D02*
G03*
X449490Y688201I-12500J0D01*
G01*
Y766941D02*
G03*
X449490Y766941I-12500J0D01*
G01*
Y845681D02*
G03*
X449490Y845681I-12500J0D01*
G01*
X364490Y84500D02*
X369490Y77500D01*
X359490D02*
X364490Y84500D01*
X359490Y77500D02*
X369490D01*
X370740Y63500D02*
Y71000D01*
Y63500D02*
X378240D01*
Y71000D01*
X370740D02*
X378240D01*
X436490Y125000D02*
Y159000D01*
X292490Y125000D02*
Y159000D01*
X436490Y0D02*
Y80000D01*
X292490Y0D02*
Y80000D01*
Y0D02*
X436490D01*
X292490Y159000D02*
X436490D01*
X292100Y845820D02*
Y853440D01*
X279400Y845820D02*
Y853440D01*
X139700Y84500D02*
X144700Y77500D01*
X134700D02*
X139700Y84500D01*
X134700Y77500D02*
X144700D01*
X145950Y63500D02*
Y71000D01*
Y63500D02*
X153450D01*
Y71000D01*
X145950D02*
X153450D01*
X211700Y125000D02*
Y159000D01*
X67700Y125000D02*
Y159000D01*
X211700Y0D02*
Y80000D01*
X67700Y0D02*
Y80000D01*
Y0D02*
X211700D01*
X67700Y159000D02*
X211700D01*
X402880Y679340D02*
Y697340D01*
X470880Y679340D02*
Y697340D01*
X404478Y723900D02*
X469271D01*
X404518Y652780D02*
X469242D01*
X402880Y758080D02*
Y776080D01*
X470880Y758080D02*
Y776080D01*
X404478Y802640D02*
X469271D01*
X404518Y731520D02*
X469242D01*
X402880Y836820D02*
Y854820D01*
X470880Y836820D02*
Y854820D01*
X404478Y881380D02*
X469271D01*
X404518Y810260D02*
X469242D01*
X505460Y722630D02*
Y730250D01*
X518160Y722630D02*
Y730250D01*
X246634Y868172D02*
X258826D01*
X261620Y859155D02*
Y865378D01*
X243840Y831215D02*
X261620D01*
Y841375D01*
X243840Y859155D02*
Y865378D01*
Y831215D02*
Y841375D01*
Y865378D02*
X247650Y869188D01*
X257810D01*
X261620Y865378D01*
X505714Y793242D02*
X517906D01*
X520700Y784225D02*
Y790448D01*
X502920Y756285D02*
X520700D01*
Y766445D01*
X502920Y784225D02*
Y790448D01*
Y756285D02*
Y766445D01*
Y790448D02*
X506730Y794258D01*
X516890D01*
X520700Y790448D01*
D40*
X250883Y300590D02*
G03*
X250883Y300590I-13463J0D01*
G01*
X542608Y372110D02*
G03*
X542608Y372110I-60008J0D01*
G01*
X245390Y11710D02*
X480390D01*
X482890D01*
Y159210D01*
X247890D02*
X482890D01*
X245390D02*
X247890D01*
X245390Y11710D02*
Y159210D01*
X291900Y350250D02*
Y425250D01*
X266900Y350250D02*
X291900D01*
X266900D02*
Y425250D01*
X291900D01*
X271900Y400250D02*
X286900D01*
X271900Y375250D02*
X286900D01*
X274400Y395250D02*
X284400D01*
X274400Y380250D02*
Y395250D01*
Y380250D02*
X284400D01*
Y395250D01*
X492600Y372110D02*
Y387110D01*
Y372110D02*
X507600Y357110D01*
X457600D02*
X507600D01*
X457600D02*
X472600Y372110D01*
Y387110D01*
X492600D01*
X112644Y300609D02*
X99948D01*
X97409Y298070D01*
Y292992D01*
X99948Y290452D01*
X112644D01*
Y285374D02*
Y275217D01*
X110105D01*
X99948Y285374D01*
X97409D01*
X269240Y339085D02*
Y336546D01*
X274318Y331468D01*
X279397Y336546D01*
Y339085D01*
X274318Y331468D02*
Y323850D01*
X284475D02*
X289553D01*
X287014D01*
Y339085D01*
X284475Y336546D01*
X440690Y226055D02*
Y213359D01*
X443229Y210820D01*
X448307D01*
X450847Y213359D01*
Y226055D01*
X463543Y210820D02*
Y226055D01*
X455925Y218438D01*
X466082D01*
X184150Y861055D02*
Y848359D01*
X186689Y845820D01*
X191768D01*
X194307Y848359D01*
Y861055D01*
X199385Y858516D02*
X201924Y861055D01*
X207003D01*
X209542Y858516D01*
Y855977D01*
X207003Y853438D01*
X204463D01*
X207003D01*
X209542Y850898D01*
Y848359D01*
X207003Y845820D01*
X201924D01*
X199385Y848359D01*
X492760Y85085D02*
Y72389D01*
X495299Y69850D01*
X500378D01*
X502917Y72389D01*
Y85085D01*
X507995Y69850D02*
X513073D01*
X510534D01*
Y85085D01*
X507995Y82546D01*
X378457Y852166D02*
X375918Y854705D01*
X370839D01*
X368300Y852166D01*
Y849627D01*
X370839Y847087D01*
X375918D01*
X378457Y844548D01*
Y842009D01*
X375918Y839470D01*
X370839D01*
X368300Y842009D01*
X383535Y852166D02*
X386074Y854705D01*
X391153D01*
X393692Y852166D01*
Y849627D01*
X391153Y847087D01*
X388613D01*
X391153D01*
X393692Y844548D01*
Y842009D01*
X391153Y839470D01*
X386074D01*
X383535Y842009D01*
X380997Y772156D02*
X378457Y774695D01*
X373379D01*
X370840Y772156D01*
Y769617D01*
X373379Y767077D01*
X378457D01*
X380997Y764538D01*
Y761999D01*
X378457Y759460D01*
X373379D01*
X370840Y761999D01*
X396232Y759460D02*
X386075D01*
X396232Y769617D01*
Y772156D01*
X393693Y774695D01*
X388614D01*
X386075Y772156D01*
X382267Y693416D02*
X379728Y695955D01*
X374649D01*
X372110Y693416D01*
Y690877D01*
X374649Y688337D01*
X379728D01*
X382267Y685798D01*
Y683259D01*
X379728Y680720D01*
X374649D01*
X372110Y683259D01*
X387345Y680720D02*
X392423D01*
X389884D01*
Y695955D01*
X387345Y693416D01*
X500752Y713934D02*
X485517D01*
Y721552D01*
X488056Y724091D01*
X493134D01*
X495674Y721552D01*
Y713934D01*
Y719012D02*
X500752Y724091D01*
Y736787D02*
X485517D01*
X493134Y729169D01*
Y739326D01*
X302387Y863473D02*
X317622D01*
Y855855D01*
X315083Y853316D01*
X310005D01*
X307465Y855855D01*
Y863473D01*
Y858395D02*
X302387Y853316D01*
Y848238D02*
Y843160D01*
Y845699D01*
X317622D01*
X315083Y848238D01*
X464819Y473713D02*
X474976D01*
X477515Y476253D01*
Y481331D01*
X474976Y483870D01*
X464819D01*
X462280Y481331D01*
Y476253D01*
X467358Y478792D02*
X462280Y473713D01*
Y476253D02*
X464819Y473713D01*
X462280Y468635D02*
Y463557D01*
Y466096D01*
X477515D01*
X474976Y468635D01*
X510540Y811530D02*
Y826765D01*
X518158D01*
X520697Y824226D01*
Y819147D01*
X518158Y816608D01*
X510540D01*
X525775Y814069D02*
X528314Y811530D01*
X533393D01*
X535932Y814069D01*
Y824226D01*
X533393Y826765D01*
X528314D01*
X525775Y824226D01*
Y821687D01*
X528314Y819147D01*
X535932D01*
X44450Y867410D02*
Y882645D01*
X52067D01*
X54607Y880106D01*
Y875027D01*
X52067Y872488D01*
X44450D01*
X69842Y882645D02*
X64763Y880106D01*
X59685Y875027D01*
Y869949D01*
X62224Y867410D01*
X67303D01*
X69842Y869949D01*
Y872488D01*
X67303Y875027D01*
X59685D01*
X476250Y495300D02*
Y510535D01*
X483867D01*
X486407Y507996D01*
Y502918D01*
X483867Y500378D01*
X476250D01*
X501642Y510535D02*
X491485D01*
Y502918D01*
X496563Y505457D01*
X499103D01*
X501642Y502918D01*
Y497839D01*
X499103Y495300D01*
X494024D01*
X491485Y497839D01*
X389001Y436499D02*
Y451734D01*
X396618D01*
X399158Y449195D01*
Y444117D01*
X396618Y441577D01*
X389001D01*
X411854Y436499D02*
Y451734D01*
X404236Y444117D01*
X414393D01*
X17780Y509270D02*
Y524505D01*
X25398D01*
X27937Y521966D01*
Y516888D01*
X25398Y514348D01*
X17780D01*
X33015Y521966D02*
X35554Y524505D01*
X40633D01*
X43172Y521966D01*
Y519427D01*
X40633Y516888D01*
X38093D01*
X40633D01*
X43172Y514348D01*
Y511809D01*
X40633Y509270D01*
X35554D01*
X33015Y511809D01*
X66675Y168021D02*
X51440D01*
Y175639D01*
X53979Y178178D01*
X59057D01*
X61597Y175639D01*
Y168021D01*
X66675Y193413D02*
Y183256D01*
X56518Y193413D01*
X53979D01*
X51440Y190874D01*
Y185795D01*
X53979Y183256D01*
X24130Y422910D02*
Y438145D01*
X31748D01*
X34287Y435606D01*
Y430527D01*
X31748Y427988D01*
X24130D01*
X39365Y422910D02*
X44443D01*
X41904D01*
Y438145D01*
X39365Y435606D01*
X44447Y76195D02*
X39368D01*
X41908D01*
Y63499D01*
X39368Y60960D01*
X36829D01*
X34290Y63499D01*
X59682Y60960D02*
X49525D01*
X59682Y71117D01*
Y73656D01*
X57143Y76195D01*
X52064D01*
X49525Y73656D01*
X322577Y184145D02*
X317498D01*
X320037D01*
Y171449D01*
X317498Y168910D01*
X314959D01*
X312420Y171449D01*
X327655Y168910D02*
X332733D01*
X330194D01*
Y184145D01*
X327655Y181606D01*
X483875Y755650D02*
X499110D01*
Y763268D01*
X496571Y765807D01*
X486414D01*
X483875Y763268D01*
Y755650D01*
X486414Y770885D02*
X483875Y773424D01*
Y778503D01*
X486414Y781042D01*
X488953D01*
X491493Y778503D01*
Y775963D01*
Y778503D01*
X494032Y781042D01*
X496571D01*
X499110Y778503D01*
Y773424D01*
X496571Y770885D01*
X490225Y255270D02*
X505460D01*
Y262887D01*
X502921Y265427D01*
X492764D01*
X490225Y262887D01*
Y255270D01*
X505460Y280662D02*
Y270505D01*
X495303Y280662D01*
X492764D01*
X490225Y278123D01*
Y273044D01*
X492764Y270505D01*
X220985Y831850D02*
X236220D01*
Y839467D01*
X233681Y842007D01*
X223524D01*
X220985Y839467D01*
Y831850D01*
X236220Y847085D02*
Y852163D01*
Y849624D01*
X220985D01*
X223524Y847085D01*
X514347Y156206D02*
X511808Y158745D01*
X506729D01*
X504190Y156206D01*
Y146049D01*
X506729Y143510D01*
X511808D01*
X514347Y146049D01*
X529582Y158745D02*
X524503Y156206D01*
X519425Y151128D01*
Y146049D01*
X521964Y143510D01*
X527043D01*
X529582Y146049D01*
Y148588D01*
X527043Y151128D01*
X519425D01*
X438150Y391155D02*
Y375920D01*
X445768D01*
X448307Y378459D01*
Y380998D01*
X445768Y383537D01*
X438150D01*
X445768D01*
X448307Y386077D01*
Y388616D01*
X445768Y391155D01*
X438150D01*
X453385Y375920D02*
X458463D01*
X455924D01*
Y391155D01*
X453385Y388616D01*
X434340Y631190D02*
Y646425D01*
X441958D01*
X444497Y643886D01*
Y638807D01*
X441958Y636268D01*
X434340D01*
X439418D02*
X444497Y631190D01*
X459732Y643886D02*
X457193Y646425D01*
X452114D01*
X449575Y643886D01*
Y641347D01*
X452114Y638807D01*
X457193D01*
X459732Y636268D01*
Y633729D01*
X457193Y631190D01*
X452114D01*
X449575Y633729D01*
X464810Y646425D02*
X474967D01*
X469888D01*
Y631190D01*
X426720Y593085D02*
Y577850D01*
X431798Y582928D01*
X436877Y577850D01*
Y593085D01*
X441955D02*
X447033D01*
X444494D01*
Y577850D01*
X441955D01*
X447033D01*
X464808Y593085D02*
X454651D01*
Y585467D01*
X459729D01*
X454651D01*
Y577850D01*
X469886Y593085D02*
X474964D01*
X472425D01*
Y577850D01*
X469886D01*
X474964D01*
X227738Y487354D02*
X222740Y482355D01*
Y472358D01*
X227738Y467360D01*
X232736D01*
X237735Y472358D01*
Y482355D01*
X242733Y487354D01*
X247732D01*
X252730Y482355D01*
Y472358D01*
X247732Y467360D01*
X222740Y497350D02*
Y517344D01*
Y507347D01*
X252730D01*
Y527341D02*
X222740D01*
X232736Y537337D01*
X222740Y547334D01*
X252730D01*
X227738Y557331D02*
X222740Y562329D01*
Y572326D01*
X227738Y577324D01*
X232736D01*
X237735Y572326D01*
Y567328D01*
Y572326D01*
X242733Y577324D01*
X247732D01*
X252730Y572326D01*
Y562329D01*
X247732Y557331D01*
X252730Y607315D02*
Y587321D01*
X232736Y607315D01*
X227738D01*
X222740Y602316D01*
Y592319D01*
X227738Y587321D01*
X222740Y637305D02*
Y617311D01*
X237735D01*
Y627308D01*
Y617311D01*
X252730D01*
X227738Y647302D02*
X222740Y652300D01*
Y662297D01*
X227738Y667295D01*
X247732D01*
X252730Y662297D01*
Y652300D01*
X247732Y647302D01*
X227738D01*
X222740Y697286D02*
Y677292D01*
X237735D01*
X232736Y687289D01*
Y692287D01*
X237735Y697286D01*
X247732D01*
X252730Y692287D01*
Y682290D01*
X247732Y677292D01*
X252730Y707282D02*
Y717279D01*
Y712281D01*
X222740D01*
X227738Y707282D01*
Y752268D02*
X222740Y747269D01*
Y737273D01*
X227738Y732274D01*
X247732D01*
X252730Y737273D01*
Y747269D01*
X247732Y752268D01*
X222740Y782258D02*
X227738Y772261D01*
X237735Y762264D01*
X247732D01*
X252730Y767263D01*
Y777260D01*
X247732Y782258D01*
X242733D01*
X237735Y777260D01*
Y762264D01*
X24130Y415285D02*
Y400050D01*
X31748D01*
X34287Y402589D01*
Y405128D01*
X31748Y407668D01*
X24130D01*
X31748D01*
X34287Y410207D01*
Y412746D01*
X31748Y415285D01*
X24130D01*
X39365Y400050D02*
Y410207D01*
X44443Y415285D01*
X49522Y410207D01*
Y400050D01*
Y407668D01*
X39365D01*
X54600Y415285D02*
X64757D01*
X59679D01*
Y400050D01*
X24130Y335275D02*
Y322579D01*
X26669Y320040D01*
X31748D01*
X34287Y322579D01*
Y335275D01*
X49522Y332736D02*
X46983Y335275D01*
X41904D01*
X39365Y332736D01*
Y330197D01*
X41904Y327658D01*
X46983D01*
X49522Y325118D01*
Y322579D01*
X46983Y320040D01*
X41904D01*
X39365Y322579D01*
X54600Y335275D02*
Y320040D01*
X62218D01*
X64757Y322579D01*
Y325118D01*
X62218Y327658D01*
X54600D01*
X62218D01*
X64757Y330197D01*
Y332736D01*
X62218Y335275D01*
X54600D01*
X381000Y184145D02*
Y168910D01*
X388618D01*
X391157Y171449D01*
Y181606D01*
X388618Y184145D01*
X381000D01*
X406392D02*
X396235D01*
Y168910D01*
X406392D01*
X396235Y176528D02*
X401313D01*
X411470Y184145D02*
Y168910D01*
X419088D01*
X421627Y171449D01*
Y173988D01*
X419088Y176528D01*
X411470D01*
X419088D01*
X421627Y179067D01*
Y181606D01*
X419088Y184145D01*
X411470D01*
X426705D02*
Y171449D01*
X429244Y168910D01*
X434323D01*
X436862Y171449D01*
Y184145D01*
X452097Y181606D02*
X449558Y184145D01*
X444479D01*
X441940Y181606D01*
Y171449D01*
X444479Y168910D01*
X449558D01*
X452097Y171449D01*
Y176528D01*
X447019D01*
X167640Y240025D02*
Y227329D01*
X170179Y224790D01*
X175257D01*
X177797Y227329D01*
Y240025D01*
X182875Y224790D02*
Y234947D01*
X187953Y240025D01*
X193032Y234947D01*
Y224790D01*
Y232407D01*
X182875D01*
X198110Y224790D02*
Y240025D01*
X205728D01*
X208267Y237486D01*
Y232407D01*
X205728Y229868D01*
X198110D01*
X203188D02*
X208267Y224790D01*
X213345Y240025D02*
X223502D01*
X218424D01*
Y224790D01*
X220980Y806450D02*
Y821685D01*
X228598D01*
X231137Y819146D01*
Y814068D01*
X228598Y811528D01*
X220980D01*
X236215Y821685D02*
Y806450D01*
X241293Y811528D01*
X246372Y806450D01*
Y821685D01*
X251450Y806450D02*
Y821685D01*
X259068D01*
X261607Y819146D01*
Y814068D01*
X259068Y811528D01*
X251450D01*
X256528D02*
X261607Y806450D01*
D41*
X182420Y263090D02*
X289920D01*
X182420Y873090D02*
X289920D01*
D42*
X73660Y172720D02*
X77892D01*
X75776D01*
Y185416D01*
X73660Y183300D01*
X84240D02*
X86356Y185416D01*
X90588D01*
X92704Y183300D01*
Y174836D01*
X90588Y172720D01*
X86356D01*
X84240Y174836D01*
Y183300D01*
X83820Y200236D02*
X85936Y198120D01*
X90168D01*
X92284Y200236D01*
Y208700D01*
X90168Y210816D01*
X85936D01*
X83820Y208700D01*
Y206584D01*
X85936Y204468D01*
X92284D01*
X231140Y198120D02*
X235372D01*
X233256D01*
Y210816D01*
X231140Y208700D01*
X239604Y172720D02*
X231140D01*
X239604Y181184D01*
Y183300D01*
X237488Y185416D01*
X233256D01*
X231140Y183300D01*
X34290Y845820D02*
Y850052D01*
Y847936D01*
X21594D01*
X23710Y845820D01*
X34290Y864864D02*
Y856400D01*
X25826Y864864D01*
X23710D01*
X21594Y862748D01*
Y858516D01*
X23710Y856400D01*
X59690Y855980D02*
Y860212D01*
Y858096D01*
X46994D01*
X49110Y855980D01*
X59690Y845820D02*
Y850052D01*
Y847936D01*
X46994D01*
X49110Y845820D01*
X59690Y673100D02*
Y677332D01*
Y675216D01*
X46994D01*
X49110Y673100D01*
X34290Y681564D02*
Y673100D01*
X25826Y681564D01*
X23710D01*
X21594Y679448D01*
Y675216D01*
X23710Y673100D01*
X509270Y504616D02*
Y513080D01*
X517734Y504616D01*
X519850D01*
X521966Y506732D01*
Y510964D01*
X519850Y513080D01*
X510540Y581660D02*
Y577428D01*
Y579544D01*
X523236D01*
X521120Y581660D01*
X412750Y563876D02*
X421214D01*
Y561760D01*
X412750Y553296D01*
Y551180D01*
X411480Y536360D02*
X413596Y538476D01*
X417828D01*
X419944Y536360D01*
Y534244D01*
X417828Y532128D01*
X419944Y530012D01*
Y527896D01*
X417828Y525780D01*
X413596D01*
X411480Y527896D01*
Y530012D01*
X413596Y532128D01*
X411480Y534244D01*
Y536360D01*
X413596Y532128D02*
X417828D01*
D43*
X521970Y256550D02*
D03*
M02*
