G04 Layer_Color=32896*
%FSLAX44Y44*%
%MOMM*%
G71*
G01*
G75*
%ADD39C,0.1270*%
%ADD40C,0.2540*%
G36*
X101567Y629920D02*
X99664D01*
Y635689D01*
X83820D01*
Y638091D01*
X99664D01*
Y643948D01*
X101567D01*
Y629920D01*
D02*
G37*
G36*
Y667172D02*
Y665122D01*
X83820Y658708D01*
Y661168D01*
X88389Y662750D01*
Y669456D01*
X83820Y671009D01*
Y673469D01*
X101567Y667172D01*
D02*
G37*
G36*
X85694Y648868D02*
X92049D01*
Y656160D01*
X93924D01*
Y648868D01*
X99664D01*
Y657273D01*
X101567D01*
Y646467D01*
X83820D01*
Y657420D01*
X85694D01*
Y648868D01*
D02*
G37*
G36*
X89326Y728585D02*
X89824Y728497D01*
X90292Y728380D01*
X90673Y728263D01*
X90995Y728146D01*
X91200Y728029D01*
X91347Y727941D01*
X91405Y727912D01*
X91786Y727619D01*
X92108Y727297D01*
X92401Y726974D01*
X92606Y726652D01*
X92782Y726359D01*
X92928Y726096D01*
X92987Y725949D01*
X93016Y725920D01*
Y725891D01*
X93250Y726301D01*
X93514Y726682D01*
X93777Y726974D01*
X94041Y727238D01*
X94275Y727443D01*
X94451Y727589D01*
X94568Y727677D01*
X94627Y727707D01*
X95007Y727912D01*
X95417Y728087D01*
X95798Y728204D01*
X96150Y728263D01*
X96442Y728322D01*
X96677Y728351D01*
X96882D01*
X97321Y728322D01*
X97731Y728292D01*
X98492Y728146D01*
X99107Y727912D01*
X99635Y727648D01*
X100045Y727384D01*
X100337Y727179D01*
X100513Y727004D01*
X100572Y726974D01*
Y726945D01*
X100806Y726682D01*
X100982Y726389D01*
X101304Y725744D01*
X101538Y725100D01*
X101685Y724485D01*
X101772Y723929D01*
X101802Y723694D01*
Y723489D01*
X101831Y723314D01*
Y723196D01*
Y723109D01*
Y723079D01*
X101802Y722640D01*
X101772Y722201D01*
X101597Y721410D01*
X101392Y720707D01*
X101128Y720151D01*
X100982Y719887D01*
X100865Y719682D01*
X100718Y719477D01*
X100630Y719331D01*
X100542Y719214D01*
X100455Y719126D01*
X100425Y719067D01*
X100396Y719038D01*
X100132Y718774D01*
X99840Y718540D01*
X99576Y718335D01*
X99283Y718159D01*
X98697Y717896D01*
X98170Y717720D01*
X97702Y717603D01*
X97497Y717574D01*
X97321D01*
X97204Y717544D01*
X96999D01*
X96911Y717574D01*
Y719858D01*
X97380Y719887D01*
X97789Y720004D01*
X98141Y720151D01*
X98463Y720327D01*
X98727Y720473D01*
X98902Y720619D01*
X99019Y720736D01*
X99049Y720766D01*
X99342Y721117D01*
X99547Y721498D01*
X99722Y721908D01*
X99810Y722259D01*
X99869Y722581D01*
X99927Y722845D01*
Y723021D01*
Y723050D01*
Y723079D01*
X99898Y723577D01*
X99810Y724017D01*
X99664Y724368D01*
X99517Y724690D01*
X99371Y724924D01*
X99225Y725071D01*
X99137Y725188D01*
X99107Y725217D01*
X98785Y725452D01*
X98434Y725627D01*
X98053Y725774D01*
X97731Y725862D01*
X97409Y725920D01*
X97175Y725949D01*
X96940D01*
X96442Y725920D01*
X95974Y725832D01*
X95593Y725744D01*
X95271Y725627D01*
X95007Y725481D01*
X94832Y725393D01*
X94714Y725305D01*
X94685Y725276D01*
X94422Y724983D01*
X94217Y724661D01*
X94100Y724280D01*
X93982Y723899D01*
X93924Y723577D01*
X93895Y723284D01*
Y723167D01*
Y723079D01*
Y723050D01*
Y723021D01*
Y721029D01*
X92049D01*
Y723021D01*
X92020Y723607D01*
X91932Y724075D01*
X91786Y724514D01*
X91639Y724837D01*
X91464Y725100D01*
X91347Y725276D01*
X91229Y725393D01*
X91200Y725422D01*
X90849Y725686D01*
X90468Y725891D01*
X90058Y726008D01*
X89648Y726125D01*
X89297Y726184D01*
X88974Y726213D01*
X88711D01*
X88184Y726184D01*
X87715Y726096D01*
X87305Y725949D01*
X86983Y725803D01*
X86690Y725627D01*
X86514Y725510D01*
X86368Y725393D01*
X86339Y725364D01*
X86046Y725042D01*
X85812Y724661D01*
X85665Y724280D01*
X85548Y723929D01*
X85489Y723577D01*
X85460Y723314D01*
X85431Y723138D01*
Y723109D01*
Y723079D01*
X85460Y722552D01*
X85577Y722084D01*
X85724Y721644D01*
X85870Y721293D01*
X86046Y721029D01*
X86163Y720824D01*
X86280Y720707D01*
X86309Y720649D01*
X86661Y720356D01*
X87012Y720122D01*
X87393Y719975D01*
X87715Y719858D01*
X88037Y719799D01*
X88272Y719770D01*
X88418Y719741D01*
X88476D01*
Y717427D01*
X88418Y717398D01*
X88008D01*
X87627Y717457D01*
X87276Y717544D01*
X86954Y717632D01*
X86339Y717896D01*
X85841Y718218D01*
X85431Y718511D01*
X85138Y718804D01*
X85050Y718921D01*
X84962Y719009D01*
X84933Y719038D01*
X84904Y719067D01*
X84669Y719389D01*
X84464Y719741D01*
X84142Y720414D01*
X83908Y721088D01*
X83761Y721732D01*
X83644Y722259D01*
X83615Y722494D01*
Y722699D01*
X83586Y722845D01*
Y722991D01*
Y723050D01*
Y723079D01*
X83615Y723519D01*
X83644Y723958D01*
X83791Y724749D01*
X84025Y725422D01*
X84259Y726008D01*
X84376Y726242D01*
X84494Y726447D01*
X84611Y726623D01*
X84728Y726799D01*
X84816Y726916D01*
X84874Y727004D01*
X84933Y727033D01*
Y727062D01*
X85197Y727326D01*
X85489Y727589D01*
X85812Y727794D01*
X86104Y727970D01*
X86749Y728234D01*
X87364Y728410D01*
X87920Y728527D01*
X88154Y728556D01*
X88359Y728585D01*
X88535Y728615D01*
X88769D01*
X89326Y728585D01*
D02*
G37*
G36*
X101157Y704278D02*
X99312D01*
X99342Y708143D01*
X83820D01*
Y710545D01*
X101831D01*
X101157Y704278D01*
D02*
G37*
G36*
X101567Y690601D02*
X87129Y684949D01*
Y684861D01*
X101567Y679209D01*
Y676046D01*
X83820D01*
Y678447D01*
X97555D01*
Y678535D01*
X83820Y684070D01*
Y685740D01*
X97116Y691128D01*
Y691187D01*
X83820D01*
Y693588D01*
X101567D01*
Y690601D01*
D02*
G37*
%LPC*%
G36*
X90380Y668754D02*
Y663453D01*
X98024Y666088D01*
Y666176D01*
X90380Y668754D01*
D02*
G37*
%LPD*%
D39*
X322806Y244948D02*
Y257972D01*
X319814Y244948D02*
Y257972D01*
X178908Y288516D02*
X191932D01*
X178908Y285524D02*
X191932D01*
X281778Y463324D02*
X294802D01*
X281778Y466316D02*
X294802D01*
X279238Y848134D02*
X292262D01*
X279238Y851126D02*
X292262D01*
X66168Y237680D02*
X83692D01*
X66168Y229680D02*
X83692D01*
X41720Y317628D02*
Y335152D01*
X49720Y317628D02*
Y335152D01*
X68390Y401448D02*
Y418972D01*
X76390Y401448D02*
Y418972D01*
X191770Y363220D02*
Y370840D01*
X179070Y363220D02*
Y370840D01*
X414020Y500380D02*
X421640D01*
X414020Y513080D02*
X421640D01*
Y243840D02*
Y251460D01*
X434340Y243840D02*
Y251460D01*
X251298Y372336D02*
X264322D01*
X251298Y369344D02*
X264322D01*
X251298Y403634D02*
X264322D01*
X251298Y406626D02*
X264322D01*
D40*
X422910Y219710D02*
Y204475D01*
X430527D01*
X433067Y207014D01*
Y212092D01*
X430527Y214632D01*
X422910D01*
X427988D02*
X433067Y219710D01*
X448302Y204475D02*
X438145D01*
Y212092D01*
X443223Y209553D01*
X445763D01*
X448302Y212092D01*
Y217171D01*
X445763Y219710D01*
X440684D01*
X438145Y217171D01*
X370840Y514350D02*
Y499115D01*
X378457D01*
X380997Y501654D01*
Y506732D01*
X378457Y509272D01*
X370840D01*
X375918D02*
X380997Y514350D01*
X386075Y501654D02*
X388614Y499115D01*
X393693D01*
X396232Y501654D01*
Y504193D01*
X393693Y506732D01*
X391153D01*
X393693D01*
X396232Y509272D01*
Y511811D01*
X393693Y514350D01*
X388614D01*
X386075Y511811D01*
X193040Y412750D02*
X177805D01*
Y405132D01*
X180344Y402593D01*
X185422D01*
X187962Y405132D01*
Y412750D01*
Y407672D02*
X193040Y402593D01*
Y387358D02*
Y397515D01*
X182883Y387358D01*
X180344D01*
X177805Y389897D01*
Y394976D01*
X180344Y397515D01*
X231144Y373383D02*
X228605Y375923D01*
Y381001D01*
X231144Y383540D01*
X241301D01*
X243840Y381001D01*
Y375923D01*
X241301Y373383D01*
X243840Y368305D02*
Y363227D01*
Y365766D01*
X228605D01*
X231144Y368305D01*
Y355609D02*
X228605Y353070D01*
Y347991D01*
X231144Y345452D01*
X241301D01*
X243840Y347991D01*
Y353070D01*
X241301Y355609D01*
X231144D01*
Y408943D02*
X228605Y411483D01*
Y416561D01*
X231144Y419100D01*
X241301D01*
X243840Y416561D01*
Y411483D01*
X241301Y408943D01*
Y403865D02*
X243840Y401326D01*
Y396247D01*
X241301Y393708D01*
X231144D01*
X228605Y396247D01*
Y401326D01*
X231144Y403865D01*
X233683D01*
X236222Y401326D01*
Y393708D01*
X83817Y321314D02*
X81278Y318775D01*
X76199D01*
X73660Y321314D01*
Y331471D01*
X76199Y334010D01*
X81278D01*
X83817Y331471D01*
X88895Y321314D02*
X91434Y318775D01*
X96513D01*
X99052Y321314D01*
Y323853D01*
X96513Y326393D01*
X99052Y328932D01*
Y331471D01*
X96513Y334010D01*
X91434D01*
X88895Y331471D01*
Y328932D01*
X91434Y326393D01*
X88895Y323853D01*
Y321314D01*
X91434Y326393D02*
X96513D01*
X85087Y381004D02*
X82548Y378465D01*
X77469D01*
X74930Y381004D01*
Y391161D01*
X77469Y393700D01*
X82548D01*
X85087Y391161D01*
X90165Y378465D02*
X100322D01*
Y381004D01*
X90165Y391161D01*
Y393700D01*
X317624Y221619D02*
X315084Y219080D01*
X310006D01*
X307467Y221619D01*
Y231776D01*
X310006Y234315D01*
X315084D01*
X317624Y231776D01*
X332859Y219080D02*
X322702D01*
Y226698D01*
X327780Y224158D01*
X330320D01*
X332859Y226698D01*
Y231776D01*
X330320Y234315D01*
X325241D01*
X322702Y231776D01*
X212086Y285747D02*
X214625Y283207D01*
Y278129D01*
X212086Y275590D01*
X201929D01*
X199390Y278129D01*
Y283207D01*
X201929Y285747D01*
X199390Y298443D02*
X214625D01*
X207008Y290825D01*
Y300982D01*
X261624Y467363D02*
X259085Y469902D01*
Y474981D01*
X261624Y477520D01*
X271781D01*
X274320Y474981D01*
Y469902D01*
X271781Y467363D01*
X261624Y462285D02*
X259085Y459746D01*
Y454667D01*
X261624Y452128D01*
X264163D01*
X266702Y454667D01*
Y457207D01*
Y454667D01*
X269242Y452128D01*
X271781D01*
X274320Y454667D01*
Y459746D01*
X271781Y462285D01*
X255909Y853316D02*
X253370Y855855D01*
Y860934D01*
X255909Y863473D01*
X266066D01*
X268605Y860934D01*
Y855855D01*
X266066Y853316D01*
X268605Y838081D02*
Y848238D01*
X258448Y838081D01*
X255909D01*
X253370Y840620D01*
Y845699D01*
X255909Y848238D01*
X102866Y241297D02*
X105405Y238757D01*
Y233679D01*
X102866Y231140D01*
X92709D01*
X90170Y233679D01*
Y238757D01*
X92709Y241297D01*
X90170Y246375D02*
Y251453D01*
Y248914D01*
X105405D01*
X102866Y246375D01*
M02*
