M48
;Layer_Color=9474304
;FILE_FORMAT=4:4
METRIC,LZ
;TYPE=PLATED
T1F00S00C0.4000
T2F00S00C0.7620
T3F00S00C0.8000
T4F00S00C0.9000
T5F00S00C0.9144
T6F00S00C0.9652
T7F00S00C1.0000
T8F00S00C2.3000
T9F00S00C3.4000
%
T01
X0029972Y0038989
X00432308Y00461518
X00398272Y00517652
X00404876Y00602234
T02
X002794Y0036275
Y0041275
X004826Y0041011
Y0033411
T03
X0047665Y0018542
X0052665
T04
X0026289Y0002921
Y0005461
Y0008001
Y0010541
Y0013081
X0021209Y0017907
X0018669
X0016129
X0013589
X0011049
Y0020447
X0013589
X0016129
X0018669
X0021209
X0015992Y0027559
Y0030099
Y0032639
Y0035179
Y0037719
Y0040259
Y0042799
X0012192
Y0040259
Y0037719
Y0035179
Y0032639
Y0030099
Y0027559
X0007493
X0006223
X0004953
X0005588Y003556
Y00381
X0003048
Y003556
X0031242Y0035179
Y0037719
Y0040259
Y0042799
X0035052
Y0040259
Y0037719
Y0035179
Y0032639
Y0030099
Y0027559
X0031242
Y0030099
Y0032639
X0040005Y0031369
Y0028829
Y0026289
Y0023749
Y0021209
Y0033909
Y0036449
Y0038989
Y0041529
X0052197Y0030855
Y0023755
X0046539Y0013081
Y0010541
Y0008001
Y0005461
X0044196Y0048006
X0042926
X0041656
X0035052Y0047879
Y0050419
Y0052959
Y0055499
Y0058039
Y0060579
Y0063119
Y0065659
Y0068199
Y0070739
Y0073279
Y0075819
Y0078359
Y0080899
X0031242
Y0078359
Y0075819
Y0073279
Y0070739
Y0068199
Y0065659
Y0063119
Y0060579
Y0058039
Y0055499
Y0052959
Y0050419
Y0047879
Y0045339
X0035052
X0043942Y0053213
Y0055753
X0046482
Y0053213
X0049022
Y0055753
X0051562
Y0053213
X0015992Y0052959
Y0050419
Y0047879
Y0045339
X0012192
Y0047879
Y0050419
Y0052959
Y0055499
Y0058039
Y0060579
Y0063119
Y0065659
Y0068199
Y0070739
Y0073279
Y0075819
Y0078359
Y0080899
X0015992
Y0078359
Y0075819
Y0073279
Y0070739
Y0068199
Y0065659
Y0063119
Y0060579
Y0058039
Y0055499
X0002921Y0056769
Y0059309
Y0061849
Y0064389
Y006985
Y007239
Y007493
Y007747
Y008001
X0005461
Y007747
Y007493
Y007239
Y006985
X0002921Y0054229
Y008255
X0005461
X0012192Y0083439
Y0085979
X0015992
Y0083439
X0031242
Y0085979
X0035052
Y0083439
X0052197Y0084709
Y0087249
T05
X001272Y001299
Y001499
X001522
Y001299
X0035199
Y001499
X0037699
Y001299
T06
X0040188Y0066584
Y0071084
Y0074458
Y0078958
Y0082332
X0047188
Y0078958
Y0074458
Y0071084
Y0066584
Y0086832
X0040188
T07
X0045085Y0024003
Y0026543
Y0029083
T08
X000795Y001028
X001999
X0030429
X0042469
T09
X0052197Y0002794
X0002794
X0052197Y0047244
X0002794
M30
