G04 Layer_Color=32896*
%FSLAX44Y44*%
%MOMM*%
G71*
G01*
G75*
G36*
X173990Y69184D02*
X168221D01*
Y53340D01*
X165819D01*
Y69184D01*
X159962D01*
Y71087D01*
X173990D01*
Y69184D01*
D02*
G37*
G36*
X157443Y53340D02*
X146490D01*
Y55214D01*
X155042D01*
Y61569D01*
X147750D01*
Y63444D01*
X155042D01*
Y69184D01*
X146637D01*
Y71087D01*
X157443D01*
Y53340D01*
D02*
G37*
G36*
X145202D02*
X142742D01*
X141160Y57909D01*
X134454D01*
X132901Y53340D01*
X130441D01*
X136738Y71087D01*
X138788D01*
X145202Y53340D01*
D02*
G37*
G36*
X127864D02*
X125463D01*
Y67075D01*
X125375D01*
X119840Y53340D01*
X118170D01*
X112782Y66636D01*
X112723D01*
Y53340D01*
X110322D01*
Y71087D01*
X113309D01*
X118961Y56649D01*
X119049D01*
X124701Y71087D01*
X127864D01*
Y53340D01*
D02*
G37*
G36*
X99632Y70677D02*
Y68832D01*
X95767Y68862D01*
Y53340D01*
X93365D01*
Y71351D01*
X99632Y70677D01*
D02*
G37*
G36*
X81270Y71322D02*
X81709Y71292D01*
X82500Y71117D01*
X83203Y70912D01*
X83759Y70648D01*
X84023Y70502D01*
X84228Y70385D01*
X84433Y70238D01*
X84579Y70150D01*
X84696Y70062D01*
X84784Y69975D01*
X84843Y69945D01*
X84872Y69916D01*
X85136Y69652D01*
X85370Y69360D01*
X85575Y69096D01*
X85751Y68803D01*
X86014Y68217D01*
X86190Y67690D01*
X86307Y67222D01*
X86336Y67017D01*
Y66841D01*
X86366Y66724D01*
Y66607D01*
Y66548D01*
Y66519D01*
X86336Y66431D01*
X84052D01*
X84023Y66899D01*
X83906Y67309D01*
X83759Y67661D01*
X83583Y67983D01*
X83437Y68247D01*
X83291Y68422D01*
X83174Y68540D01*
X83144Y68569D01*
X82793Y68862D01*
X82412Y69067D01*
X82002Y69242D01*
X81651Y69330D01*
X81328Y69389D01*
X81065Y69447D01*
X80831D01*
X80333Y69418D01*
X79893Y69330D01*
X79542Y69184D01*
X79220Y69037D01*
X78986Y68891D01*
X78839Y68745D01*
X78722Y68657D01*
X78693Y68627D01*
X78458Y68305D01*
X78283Y67954D01*
X78136Y67573D01*
X78048Y67251D01*
X77990Y66929D01*
X77961Y66694D01*
Y66519D01*
Y66490D01*
Y66460D01*
X77990Y65962D01*
X78078Y65494D01*
X78166Y65113D01*
X78283Y64791D01*
X78429Y64527D01*
X78517Y64352D01*
X78605Y64234D01*
X78634Y64205D01*
X78927Y63942D01*
X79249Y63737D01*
X79630Y63619D01*
X80011Y63502D01*
X80333Y63444D01*
X80626Y63415D01*
X82881D01*
Y61569D01*
X80889D01*
X80303Y61540D01*
X79835Y61452D01*
X79396Y61306D01*
X79073Y61159D01*
X78810Y60984D01*
X78634Y60867D01*
X78517Y60749D01*
X78488Y60720D01*
X78224Y60369D01*
X78019Y59988D01*
X77902Y59578D01*
X77785Y59168D01*
X77726Y58816D01*
X77697Y58494D01*
Y58377D01*
Y58319D01*
Y58260D01*
Y58231D01*
X77726Y57704D01*
X77814Y57235D01*
X77961Y56825D01*
X78107Y56503D01*
X78283Y56210D01*
X78400Y56034D01*
X78517Y55888D01*
X78546Y55859D01*
X78868Y55566D01*
X79249Y55332D01*
X79630Y55185D01*
X79981Y55068D01*
X80333Y55009D01*
X80596Y54980D01*
X80772Y54951D01*
X80831D01*
X81358Y54980D01*
X81826Y55097D01*
X82266Y55244D01*
X82617Y55390D01*
X82881Y55566D01*
X83086Y55683D01*
X83203Y55800D01*
X83261Y55829D01*
X83554Y56181D01*
X83788Y56532D01*
X83935Y56913D01*
X84052Y57235D01*
X84111Y57557D01*
X84140Y57792D01*
X84169Y57938D01*
Y57997D01*
X86483D01*
X86512Y57938D01*
Y57528D01*
X86454Y57147D01*
X86366Y56796D01*
X86278Y56474D01*
X86014Y55859D01*
X85692Y55361D01*
X85399Y54951D01*
X85106Y54658D01*
X84989Y54570D01*
X84901Y54482D01*
X84872Y54453D01*
X84843Y54424D01*
X84521Y54189D01*
X84169Y53984D01*
X83496Y53662D01*
X82822Y53428D01*
X82178Y53281D01*
X81651Y53164D01*
X81416Y53135D01*
X81211D01*
X81065Y53106D01*
X80831D01*
X80391Y53135D01*
X79952Y53164D01*
X79161Y53311D01*
X78488Y53545D01*
X77902Y53779D01*
X77668Y53896D01*
X77463Y54014D01*
X77287Y54131D01*
X77111Y54248D01*
X76994Y54336D01*
X76906Y54394D01*
X76877Y54453D01*
X76848D01*
X76584Y54717D01*
X76321Y55009D01*
X76115Y55332D01*
X75940Y55624D01*
X75676Y56269D01*
X75500Y56884D01*
X75383Y57440D01*
X75354Y57674D01*
X75325Y57879D01*
X75296Y58055D01*
Y58172D01*
Y58260D01*
Y58289D01*
X75325Y58846D01*
X75413Y59344D01*
X75530Y59812D01*
X75647Y60193D01*
X75764Y60515D01*
X75881Y60720D01*
X75969Y60867D01*
X75998Y60925D01*
X76291Y61306D01*
X76613Y61628D01*
X76936Y61921D01*
X77258Y62126D01*
X77551Y62302D01*
X77814Y62448D01*
X77961Y62507D01*
X77990Y62536D01*
X78019D01*
X77609Y62770D01*
X77228Y63034D01*
X76936Y63297D01*
X76672Y63561D01*
X76467Y63795D01*
X76321Y63971D01*
X76233Y64088D01*
X76203Y64147D01*
X75998Y64527D01*
X75823Y64937D01*
X75705Y65318D01*
X75647Y65669D01*
X75588Y65962D01*
X75559Y66197D01*
Y66343D01*
Y66402D01*
X75588Y66841D01*
X75618Y67251D01*
X75764Y68012D01*
X75998Y68627D01*
X76262Y69155D01*
X76526Y69565D01*
X76730Y69857D01*
X76906Y70033D01*
X76936Y70092D01*
X76965D01*
X77228Y70326D01*
X77521Y70502D01*
X78166Y70824D01*
X78810Y71058D01*
X79425Y71205D01*
X79981Y71292D01*
X80216Y71322D01*
X80421D01*
X80596Y71351D01*
X80831D01*
X81270Y71322D01*
D02*
G37*
%LPC*%
G36*
X137822Y67544D02*
X137734D01*
X135156Y59900D01*
X140457D01*
X137822Y67544D01*
D02*
G37*
%LPD*%
M02*
