G04 Layer_Color=16711935*
%FSLAX44Y44*%
%MOMM*%
G71*
G01*
G75*
%ADD18C,0.2540*%
%ADD29C,0.3000*%
%ADD30C,0.1524*%
D18*
X250000Y-71120D02*
Y-4040D01*
X0Y-71120D02*
Y-4040D01*
X194827Y-68580D02*
X250000D01*
X0D02*
X47045D01*
X234760Y-63500D02*
X250000Y-68580D01*
X234760Y-73660D02*
X250000Y-68580D01*
X0D02*
X15240Y-73660D01*
X0Y-68580D02*
X15240Y-63500D01*
X-104140Y350000D02*
X-4040D01*
X-104140Y0D02*
X-4040D01*
X-101600Y244827D02*
Y350000D01*
Y0D02*
Y97045D01*
X-106680Y334760D02*
X-101600Y350000D01*
X-96520Y334760D01*
X-101600Y0D02*
X-96520Y15240D01*
X-106680D02*
X-101600Y0D01*
D29*
X0D02*
X250000D01*
Y350000D01*
X0Y0D02*
Y350000D01*
X250000D01*
D30*
X61265Y-80261D02*
X51109D01*
X61265Y-70104D01*
Y-67565D01*
X58726Y-65026D01*
X53648D01*
X51109Y-67565D01*
X76500Y-65026D02*
X66344D01*
Y-72643D01*
X71422Y-70104D01*
X73961D01*
X76500Y-72643D01*
Y-77722D01*
X73961Y-80261D01*
X68883D01*
X66344Y-77722D01*
X84118Y-82800D02*
X86657Y-80261D01*
Y-77722D01*
X84118D01*
Y-80261D01*
X86657D01*
X84118Y-82800D01*
X81579Y-85339D01*
X96814Y-67565D02*
X99353Y-65026D01*
X104431D01*
X106971Y-67565D01*
Y-77722D01*
X104431Y-80261D01*
X99353D01*
X96814Y-77722D01*
Y-67565D01*
X112049D02*
X114588Y-65026D01*
X119666D01*
X122206Y-67565D01*
Y-77722D01*
X119666Y-80261D01*
X114588D01*
X112049Y-77722D01*
Y-67565D01*
X147597Y-80261D02*
X142519Y-75182D01*
Y-70104D01*
X147597Y-65026D01*
X155215Y-80261D02*
Y-70104D01*
X157754D01*
X160293Y-72643D01*
Y-80261D01*
Y-72643D01*
X162832Y-70104D01*
X165372Y-72643D01*
Y-80261D01*
X170450D02*
Y-70104D01*
X172989D01*
X175528Y-72643D01*
Y-80261D01*
Y-72643D01*
X178067Y-70104D01*
X180607Y-72643D01*
Y-80261D01*
X185685D02*
X190763Y-75182D01*
Y-70104D01*
X185685Y-65026D01*
X-102615Y101109D02*
X-105154Y103648D01*
Y108726D01*
X-102615Y111265D01*
X-100076D01*
X-97537Y108726D01*
Y106187D01*
Y108726D01*
X-94998Y111265D01*
X-92458D01*
X-89919Y108726D01*
Y103648D01*
X-92458Y101109D01*
X-105154Y126500D02*
Y116344D01*
X-97537D01*
X-100076Y121422D01*
Y123961D01*
X-97537Y126500D01*
X-92458D01*
X-89919Y123961D01*
Y118883D01*
X-92458Y116344D01*
X-87380Y134118D02*
X-89919Y136657D01*
X-92458D01*
Y134118D01*
X-89919D01*
Y136657D01*
X-87380Y134118D01*
X-84841Y131579D01*
X-102615Y146814D02*
X-105154Y149353D01*
Y154431D01*
X-102615Y156971D01*
X-92458D01*
X-89919Y154431D01*
Y149353D01*
X-92458Y146814D01*
X-102615D01*
Y162049D02*
X-105154Y164588D01*
Y169666D01*
X-102615Y172206D01*
X-92458D01*
X-89919Y169666D01*
Y164588D01*
X-92458Y162049D01*
X-102615D01*
X-89919Y197597D02*
X-94998Y192519D01*
X-100076D01*
X-105154Y197597D01*
X-89919Y205215D02*
X-100076D01*
Y207754D01*
X-97537Y210293D01*
X-89919D01*
X-97537D01*
X-100076Y212832D01*
X-97537Y215372D01*
X-89919D01*
Y220450D02*
X-100076D01*
Y222989D01*
X-97537Y225528D01*
X-89919D01*
X-97537D01*
X-100076Y228067D01*
X-97537Y230607D01*
X-89919D01*
Y235685D02*
X-94998Y240763D01*
X-100076D01*
X-105154Y235685D01*
M02*
