G04 Layer_Color=65535*
%FSLAX44Y44*%
%MOMM*%
G71*
G01*
G75*
%ADD18C,0.2540*%
%ADD19C,0.8000*%
%ADD20C,0.1270*%
%ADD21C,0.2000*%
G36*
X95684Y77795D02*
X96123D01*
X96660Y77747D01*
X97246Y77698D01*
X97880Y77600D01*
X99296Y77356D01*
X100712Y76965D01*
X102079Y76477D01*
X102762Y76136D01*
X103348Y75794D01*
X103397D01*
X103495Y75696D01*
X103641Y75599D01*
X103836Y75403D01*
X104325Y74915D01*
X104910Y74280D01*
X105496Y73402D01*
X105984Y72376D01*
X106180Y71742D01*
X106326Y71107D01*
X106424Y70424D01*
X106473Y69692D01*
Y69594D01*
Y69350D01*
X106424Y68959D01*
X106375Y68422D01*
X106229Y67836D01*
X106082Y67202D01*
X105838Y66567D01*
X105496Y65932D01*
X105447Y65884D01*
X105301Y65688D01*
X105057Y65395D01*
X104764Y65005D01*
X104325Y64614D01*
X103788Y64224D01*
X103153Y63833D01*
X102421Y63492D01*
X102470D01*
X102518Y63443D01*
X102665D01*
X102860Y63394D01*
X103299Y63199D01*
X103885Y62955D01*
X104520Y62661D01*
X105203Y62222D01*
X105789Y61734D01*
X106326Y61099D01*
X106375Y61002D01*
X106522Y60806D01*
X106717Y60416D01*
X106961Y59928D01*
X107205Y59342D01*
X107400Y58610D01*
X107547Y57828D01*
X107596Y56999D01*
Y56950D01*
Y56803D01*
Y56608D01*
X107547Y56266D01*
X107498Y55925D01*
X107449Y55485D01*
X107254Y54558D01*
X106863Y53484D01*
X106668Y52947D01*
X106375Y52410D01*
X106033Y51873D01*
X105643Y51384D01*
X105203Y50896D01*
X104666Y50457D01*
X104618D01*
X104520Y50359D01*
X104373Y50262D01*
X104129Y50115D01*
X103836Y49969D01*
X103495Y49773D01*
X103055Y49578D01*
X102567Y49383D01*
X101981Y49139D01*
X101396Y48944D01*
X100712Y48748D01*
X99931Y48602D01*
X99150Y48455D01*
X98271Y48358D01*
X97344Y48309D01*
X96367Y48260D01*
X85090D01*
Y77844D01*
X95293D01*
X95684Y77795D01*
D02*
G37*
G36*
X116589Y22860D02*
X114539D01*
X107950Y40607D01*
X110556D01*
X115125Y27517D01*
X115535Y26023D01*
X115623D01*
X116004Y27517D01*
X120602Y40607D01*
X123208D01*
X116589Y22860D01*
D02*
G37*
G36*
X131086Y40842D02*
X131291D01*
X131525Y40812D01*
X132052Y40695D01*
X132668Y40549D01*
X133283Y40315D01*
X133868Y39992D01*
X134161Y39787D01*
X134425Y39553D01*
X134454D01*
X134483Y39495D01*
X134542Y39407D01*
X134630Y39319D01*
X134864Y39026D01*
X135128Y38645D01*
X135362Y38147D01*
X135596Y37562D01*
X135743Y36888D01*
X135801Y36507D01*
Y36127D01*
Y36097D01*
Y36068D01*
Y35892D01*
X135772Y35629D01*
X135713Y35277D01*
X135625Y34867D01*
X135479Y34399D01*
X135303Y33901D01*
X135040Y33403D01*
Y33374D01*
X135010Y33345D01*
X134952Y33257D01*
X134893Y33169D01*
X134718Y32876D01*
X134454Y32466D01*
X134132Y31997D01*
X133722Y31412D01*
X133224Y30767D01*
X132668Y30035D01*
X128216Y24793D01*
Y24734D01*
X136328D01*
Y22860D01*
X125287D01*
Y24500D01*
X130852Y31148D01*
X130881Y31177D01*
X130910Y31236D01*
X130998Y31324D01*
X131086Y31441D01*
X131350Y31763D01*
X131672Y32173D01*
X131994Y32642D01*
X132345Y33110D01*
X132638Y33579D01*
X132873Y33989D01*
X132902Y34047D01*
X132960Y34165D01*
X133048Y34399D01*
X133136Y34662D01*
X133224Y34985D01*
X133312Y35365D01*
X133370Y35746D01*
X133400Y36156D01*
Y36214D01*
Y36361D01*
X133370Y36595D01*
X133312Y36859D01*
X133224Y37181D01*
X133078Y37532D01*
X132902Y37854D01*
X132668Y38177D01*
X132638Y38206D01*
X132550Y38294D01*
X132375Y38440D01*
X132170Y38587D01*
X131877Y38704D01*
X131555Y38850D01*
X131145Y38938D01*
X130705Y38967D01*
X130442D01*
X130149Y38909D01*
X129827Y38850D01*
X129417Y38733D01*
X129036Y38557D01*
X128655Y38323D01*
X128304Y38001D01*
X128275Y37972D01*
X128187Y37825D01*
X128040Y37620D01*
X127894Y37327D01*
X127747Y37005D01*
X127601Y36595D01*
X127513Y36127D01*
X127484Y35600D01*
X125170D01*
X125141Y35687D01*
Y35717D01*
Y35775D01*
Y35892D01*
X125170Y36039D01*
Y36244D01*
X125200Y36449D01*
X125287Y36947D01*
X125463Y37532D01*
X125727Y38147D01*
X125902Y38470D01*
X126078Y38762D01*
X126312Y39055D01*
X126576Y39348D01*
X126605Y39377D01*
X126635Y39407D01*
X126722Y39495D01*
X126869Y39582D01*
X127015Y39700D01*
X127191Y39817D01*
X127425Y39963D01*
X127660Y40110D01*
X127952Y40256D01*
X128245Y40402D01*
X128948Y40637D01*
X129768Y40812D01*
X130237Y40842D01*
X130705Y40871D01*
X130940D01*
X131086Y40842D01*
D02*
G37*
G36*
X118531Y53532D02*
X131224D01*
Y48260D01*
X111647D01*
Y77844D01*
X118531D01*
Y53532D01*
D02*
G37*
G36*
X159197Y58658D02*
Y58610D01*
Y58414D01*
Y58170D01*
X159148Y57828D01*
X159099Y57389D01*
X159002Y56901D01*
X158904Y56364D01*
X158758Y55778D01*
X158611Y55143D01*
X158367Y54509D01*
X158074Y53825D01*
X157781Y53142D01*
X157342Y52507D01*
X156903Y51873D01*
X156365Y51287D01*
X155780Y50701D01*
X155731Y50652D01*
X155633Y50603D01*
X155438Y50457D01*
X155194Y50262D01*
X154852Y50066D01*
X154413Y49822D01*
X153973Y49529D01*
X153436Y49285D01*
X152802Y49041D01*
X152167Y48748D01*
X151435Y48504D01*
X150654Y48309D01*
X149824Y48113D01*
X148945Y48016D01*
X147969Y47918D01*
X146992Y47869D01*
X146455D01*
X146065Y47918D01*
X145625Y47967D01*
X145088Y48016D01*
X144502Y48113D01*
X143819Y48211D01*
X142403Y48553D01*
X141671Y48797D01*
X140939Y49090D01*
X140206Y49383D01*
X139474Y49773D01*
X138791Y50213D01*
X138107Y50701D01*
X138058Y50750D01*
X137961Y50847D01*
X137814Y50994D01*
X137570Y51238D01*
X137326Y51531D01*
X137033Y51873D01*
X136740Y52312D01*
X136447Y52800D01*
X136106Y53337D01*
X135813Y53923D01*
X135520Y54558D01*
X135276Y55290D01*
X135032Y56022D01*
X134885Y56852D01*
X134788Y57731D01*
X134739Y58658D01*
Y77844D01*
X141622D01*
Y58658D01*
Y58610D01*
Y58561D01*
Y58414D01*
Y58219D01*
X141720Y57731D01*
X141817Y57096D01*
X141964Y56462D01*
X142208Y55778D01*
X142550Y55095D01*
X143038Y54509D01*
X143087Y54460D01*
X143331Y54314D01*
X143624Y54069D01*
X144063Y53825D01*
X144649Y53532D01*
X145332Y53337D01*
X146114Y53142D01*
X146992Y53093D01*
X147383D01*
X147871Y53191D01*
X148408Y53288D01*
X149043Y53435D01*
X149677Y53679D01*
X150312Y54021D01*
X150898Y54460D01*
X150947Y54509D01*
X151142Y54704D01*
X151337Y55046D01*
X151630Y55534D01*
X151874Y56120D01*
X152118Y56852D01*
X152265Y57682D01*
X152313Y58658D01*
Y77844D01*
X159197D01*
Y58658D01*
D02*
G37*
%LPC*%
G36*
X94756Y72572D02*
X91973D01*
Y65493D01*
X95049D01*
X95488Y65542D01*
X96074Y65591D01*
X96660Y65688D01*
X97295Y65884D01*
X97880Y66079D01*
X98369Y66372D01*
X98418Y66421D01*
X98564Y66518D01*
X98759Y66762D01*
X99003Y67006D01*
X99199Y67397D01*
X99394Y67836D01*
X99540Y68373D01*
X99589Y68959D01*
Y69057D01*
Y69252D01*
X99540Y69594D01*
X99443Y69984D01*
X99296Y70424D01*
X99052Y70912D01*
X98759Y71302D01*
X98369Y71693D01*
X98320Y71742D01*
X98173Y71839D01*
X97880Y71986D01*
X97490Y72132D01*
X96953Y72279D01*
X96367Y72425D01*
X95635Y72523D01*
X94756Y72572D01*
D02*
G37*
G36*
X96611Y60953D02*
X91973D01*
Y53532D01*
X96709D01*
X97099Y53581D01*
X97588Y53630D01*
X98125Y53728D01*
X98662Y53874D01*
X99199Y54069D01*
X99638Y54362D01*
X99687Y54411D01*
X99833Y54509D01*
X99980Y54753D01*
X100224Y55046D01*
X100419Y55388D01*
X100566Y55876D01*
X100712Y56413D01*
X100761Y57047D01*
Y57145D01*
Y57340D01*
X100712Y57682D01*
X100663Y58121D01*
X100517Y58610D01*
X100370Y59049D01*
X100126Y59537D01*
X99784Y59928D01*
X99736Y59977D01*
X99589Y60074D01*
X99345Y60221D01*
X99003Y60416D01*
X98564Y60611D01*
X98027Y60758D01*
X97392Y60904D01*
X96611Y60953D01*
D02*
G37*
%LPD*%
D18*
X112550Y299720D02*
G03*
X112550Y299720I-30000J0D01*
G01*
X196370Y297180D02*
G03*
X196370Y297180I-30000J0D01*
G01*
X173120Y320430D02*
G03*
X173120Y320430I-1250J0D01*
G01*
X129848Y151130D02*
G03*
X129848Y151130I-5388J0D01*
G01*
X95050Y277220D02*
Y288470D01*
Y310970D02*
Y322220D01*
X178870Y308430D02*
Y319680D01*
Y274680D02*
Y285930D01*
X106680Y270505D02*
Y255270D01*
X114298D01*
X116837Y257809D01*
Y267966D01*
X114298Y270505D01*
X106680D01*
X121915Y255270D02*
X126993D01*
X124454D01*
Y270505D01*
X121915Y267966D01*
X30480Y227330D02*
Y242565D01*
X38098D01*
X40637Y240026D01*
Y234947D01*
X38098Y232408D01*
X30480D01*
X35558D02*
X40637Y227330D01*
X45715D02*
X50793D01*
X48254D01*
Y242565D01*
X45715Y240026D01*
X199387Y257809D02*
Y267966D01*
X196847Y270505D01*
X191769D01*
X189230Y267966D01*
Y257809D01*
X191769Y255270D01*
X196847D01*
X194308Y260348D02*
X199387Y255270D01*
X196847D02*
X199387Y257809D01*
X204465Y255270D02*
X209543D01*
X207004D01*
Y270505D01*
X204465Y267966D01*
X167259Y115189D02*
X182494D01*
Y107571D01*
X179955Y105032D01*
X174876D01*
X172337Y107571D01*
Y115189D01*
X167259Y99954D02*
Y94876D01*
Y97415D01*
X182494D01*
X179955Y99954D01*
X20320Y327655D02*
X30477D01*
X25398D01*
Y312420D01*
X35555Y327655D02*
X45712Y312420D01*
Y327655D02*
X35555Y312420D01*
X201930D02*
Y327655D01*
X209548D01*
X212087Y325116D01*
Y320037D01*
X209548Y317498D01*
X201930D01*
X207008D02*
X212087Y312420D01*
X217165Y327655D02*
X227322Y312420D01*
Y327655D02*
X217165Y312420D01*
D19*
X172142Y178284D02*
G03*
X76511Y177785I-47682J-25884D01*
G01*
X155438Y170272D02*
G03*
X93256Y169874I-30978J-17872D01*
G01*
X139140Y162187D02*
G03*
X109780Y162187I-14680J-9787D01*
G01*
D20*
X78740Y223520D02*
Y233680D01*
X60960Y223774D02*
Y233426D01*
D21*
X82550Y91440D02*
Y116840D01*
X158750D01*
Y91440D02*
Y116840D01*
X82550Y91440D02*
X158750D01*
M02*
