G04 Layer_Physical_Order=2*
G04 Layer_Color=16711680*
%FSLAX44Y44*%
%MOMM*%
G71*
G01*
G75*
G04:AMPARAMS|DCode=10|XSize=1.3mm|YSize=0.8mm|CornerRadius=0.1mm|HoleSize=0mm|Usage=FLASHONLY|Rotation=270.000|XOffset=0mm|YOffset=0mm|HoleType=Round|Shape=RoundedRectangle|*
%AMROUNDEDRECTD10*
21,1,1.3000,0.6000,0,0,270.0*
21,1,1.1000,0.8000,0,0,270.0*
1,1,0.2000,-0.3000,-0.5500*
1,1,0.2000,-0.3000,0.5500*
1,1,0.2000,0.3000,0.5500*
1,1,0.2000,0.3000,-0.5500*
%
%ADD10ROUNDEDRECTD10*%
%ADD12C,1.0000*%
%ADD13C,0.5000*%
%ADD14C,5.0000*%
%ADD15R,1.5000X1.5000*%
%ADD16C,1.5000*%
%ADD17R,1.5000X1.5000*%
%ADD18O,1.0000X2.0000*%
%ADD19O,1.0000X2.0000*%
%ADD20C,2.0000*%
%ADD21C,0.9000*%
G04:AMPARAMS|DCode=22|XSize=1.4mm|YSize=1mm|CornerRadius=0.125mm|HoleSize=0mm|Usage=FLASHONLY|Rotation=180.000|XOffset=0mm|YOffset=0mm|HoleType=Round|Shape=RoundedRectangle|*
%AMROUNDEDRECTD22*
21,1,1.4000,0.7500,0,0,180.0*
21,1,1.1500,1.0000,0,0,180.0*
1,1,0.2500,-0.5750,0.3750*
1,1,0.2500,0.5750,0.3750*
1,1,0.2500,0.5750,-0.3750*
1,1,0.2500,-0.5750,-0.3750*
%
%ADD22ROUNDEDRECTD22*%
G04:AMPARAMS|DCode=23|XSize=1.4mm|YSize=1mm|CornerRadius=0.125mm|HoleSize=0mm|Usage=FLASHONLY|Rotation=270.000|XOffset=0mm|YOffset=0mm|HoleType=Round|Shape=RoundedRectangle|*
%AMROUNDEDRECTD23*
21,1,1.4000,0.7500,0,0,270.0*
21,1,1.1500,1.0000,0,0,270.0*
1,1,0.2500,-0.3750,-0.5750*
1,1,0.2500,-0.3750,0.5750*
1,1,0.2500,0.3750,0.5750*
1,1,0.2500,0.3750,-0.5750*
%
%ADD23ROUNDEDRECTD23*%
G04:AMPARAMS|DCode=24|XSize=1.3mm|YSize=0.8mm|CornerRadius=0.1mm|HoleSize=0mm|Usage=FLASHONLY|Rotation=0.000|XOffset=0mm|YOffset=0mm|HoleType=Round|Shape=RoundedRectangle|*
%AMROUNDEDRECTD24*
21,1,1.3000,0.6000,0,0,0.0*
21,1,1.1000,0.8000,0,0,0.0*
1,1,0.2000,0.5500,-0.3000*
1,1,0.2000,-0.5500,-0.3000*
1,1,0.2000,-0.5500,0.3000*
1,1,0.2000,0.5500,0.3000*
%
%ADD24ROUNDEDRECTD24*%
%ADD25C,0.6400*%
%ADD26C,0.8000*%
G36*
X96244Y582760D02*
X96138Y582808D01*
X95916Y582850D01*
X95580Y582887D01*
X93882Y582970D01*
X90010Y583010D01*
Y593010D01*
X96244Y593260D01*
Y582760D01*
D02*
G37*
G36*
X40220Y222105D02*
X39546Y221392D01*
X38944Y220673D01*
X38414Y219948D01*
X37955Y219217D01*
X37568Y218480D01*
X37253Y217737D01*
X37009Y216988D01*
X36838Y216233D01*
X36738Y215472D01*
X36710Y214705D01*
X29285Y222130D01*
X30052Y222158D01*
X30813Y222258D01*
X31568Y222429D01*
X32317Y222673D01*
X33060Y222988D01*
X33797Y223375D01*
X34528Y223834D01*
X35253Y224364D01*
X35972Y224966D01*
X36685Y225640D01*
X40220Y222105D01*
D02*
G37*
G36*
X96244Y150960D02*
X96138Y151007D01*
X95916Y151050D01*
X95580Y151088D01*
X93882Y151170D01*
X90010Y151210D01*
Y161210D01*
X96244Y161460D01*
Y150960D01*
D02*
G37*
G36*
X33858Y651158D02*
X34467Y650690D01*
X35122Y650277D01*
X35824Y649920D01*
X36573Y649617D01*
X37367Y649370D01*
X38208Y649177D01*
X39096Y649040D01*
X40030Y648958D01*
X41011Y648930D01*
Y643930D01*
X40030Y643903D01*
X39096Y643820D01*
X38208Y643682D01*
X37367Y643490D01*
X36573Y643242D01*
X35824Y642940D01*
X35122Y642582D01*
X34467Y642170D01*
X33858Y641702D01*
X33296Y641180D01*
Y651680D01*
X33858Y651158D01*
D02*
G37*
G36*
X106619Y151999D02*
X106701Y150854D01*
X106850D01*
X106803Y150747D01*
X106760Y150526D01*
X106738Y150330D01*
X106904Y148006D01*
X107075Y146879D01*
X107530Y144929D01*
X107815Y144106D01*
X108138Y143385D01*
X108499Y142766D01*
X94701D01*
X95062Y143385D01*
X95385Y144106D01*
X95670Y144929D01*
X95916Y145853D01*
X96125Y146879D01*
X96418Y149151D01*
X96350Y150854D01*
X96531D01*
X96600Y153534D01*
X106600D01*
X106619Y151999D01*
D02*
G37*
G36*
Y583799D02*
X106701Y582654D01*
X106850D01*
X106803Y582547D01*
X106760Y582326D01*
X106738Y582130D01*
X106904Y579806D01*
X107075Y578679D01*
X107530Y576729D01*
X107815Y575906D01*
X108138Y575185D01*
X108499Y574566D01*
X94701D01*
X95062Y575185D01*
X95385Y575906D01*
X95670Y576729D01*
X95916Y577653D01*
X96125Y578679D01*
X96418Y580951D01*
X96350Y582654D01*
X96531D01*
X96600Y585334D01*
X106600D01*
X106619Y583799D01*
D02*
G37*
G36*
X93588Y448530D02*
X92689Y449385D01*
X91755Y450150D01*
X90787Y450825D01*
X89785Y451410D01*
X88748Y451905D01*
X87676Y452310D01*
X86571Y452625D01*
X85431Y452850D01*
X84256Y452985D01*
X83047Y453030D01*
Y458030D01*
X84256Y458075D01*
X85431Y458210D01*
X86571Y458435D01*
X87676Y458750D01*
X88748Y459155D01*
X89785Y459650D01*
X90787Y460235D01*
X91755Y460910D01*
X92689Y461675D01*
X93588Y462530D01*
Y448530D01*
D02*
G37*
G36*
X40220Y438005D02*
X39546Y437292D01*
X38944Y436573D01*
X38414Y435848D01*
X37955Y435117D01*
X37568Y434380D01*
X37253Y433637D01*
X37009Y432888D01*
X36838Y432133D01*
X36738Y431372D01*
X36710Y430605D01*
X29285Y438030D01*
X30052Y438058D01*
X30813Y438158D01*
X31568Y438329D01*
X32317Y438573D01*
X33060Y438888D01*
X33797Y439275D01*
X34528Y439734D01*
X35253Y440264D01*
X35972Y440866D01*
X36685Y441540D01*
X40220Y438005D01*
D02*
G37*
G36*
X96244Y366860D02*
X96138Y366908D01*
X95916Y366950D01*
X95580Y366987D01*
X93882Y367070D01*
X90010Y367110D01*
Y377110D01*
X96244Y377360D01*
Y366860D01*
D02*
G37*
G36*
X93588Y231360D02*
X92689Y232215D01*
X91755Y232980D01*
X90787Y233655D01*
X89785Y234240D01*
X88748Y234735D01*
X87676Y235140D01*
X86571Y235455D01*
X85431Y235680D01*
X84256Y235815D01*
X83047Y235860D01*
Y240860D01*
X84256Y240905D01*
X85431Y241040D01*
X86571Y241265D01*
X87676Y241580D01*
X88748Y241985D01*
X89785Y242480D01*
X90787Y243065D01*
X91755Y243740D01*
X92689Y244505D01*
X93588Y245360D01*
Y231360D01*
D02*
G37*
G36*
X106619Y367899D02*
X106701Y366754D01*
X106850D01*
X106803Y366647D01*
X106760Y366426D01*
X106738Y366230D01*
X106904Y363906D01*
X107075Y362779D01*
X107530Y360829D01*
X107815Y360006D01*
X108138Y359285D01*
X108499Y358666D01*
X94701D01*
X95062Y359285D01*
X95385Y360006D01*
X95670Y360829D01*
X95916Y361753D01*
X96125Y362779D01*
X96418Y365051D01*
X96350Y366754D01*
X96531D01*
X96600Y369434D01*
X106600D01*
X106619Y367899D01*
D02*
G37*
G36*
X444997Y682280D02*
X446101Y679921D01*
X445195Y676145D01*
X444855Y671830D01*
X445195Y667515D01*
X446205Y663306D01*
X447862Y659307D01*
X450123Y655616D01*
X452934Y652324D01*
X456226Y649513D01*
X459917Y647252D01*
X463916Y645595D01*
X468125Y644585D01*
X472440Y644245D01*
X476755Y644585D01*
X479921Y645345D01*
X482921Y643591D01*
Y142539D01*
X479921Y140785D01*
X476755Y141545D01*
X472440Y141885D01*
X468125Y141545D01*
X463916Y140535D01*
X459917Y138878D01*
X456226Y136617D01*
X452934Y133806D01*
X450123Y130514D01*
X447862Y126823D01*
X446205Y122824D01*
X445195Y118615D01*
X444855Y114300D01*
X445195Y109985D01*
X446205Y105776D01*
X447862Y101777D01*
X450123Y98086D01*
X452934Y94794D01*
X456226Y91983D01*
X459917Y89722D01*
X463916Y88065D01*
X468125Y87055D01*
X472440Y86715D01*
X476755Y87055D01*
X479921Y87815D01*
X482921Y86061D01*
Y17079D01*
X55903D01*
X54334Y20079D01*
X55185Y23625D01*
X55525Y27940D01*
X55185Y32255D01*
X54175Y36464D01*
X52518Y40463D01*
X50257Y44154D01*
X47446Y47446D01*
X44154Y50257D01*
X40463Y52518D01*
X36464Y54175D01*
X32255Y55185D01*
X27940Y55525D01*
X23625Y55185D01*
X20079Y54334D01*
X17079Y55903D01*
Y151733D01*
X19210Y153830D01*
X20079Y153830D01*
X28512D01*
X31481Y150861D01*
X33048Y149659D01*
X34872Y148903D01*
X36830Y148645D01*
X90758D01*
X91568Y148262D01*
X92140Y147703D01*
X93231Y145675D01*
X93013Y145046D01*
X92791Y144551D01*
X92499Y144049D01*
X92481Y143998D01*
X92318Y143753D01*
X92208Y143205D01*
X92175Y143109D01*
X92179Y143055D01*
X92027Y142290D01*
Y134790D01*
X92318Y133327D01*
X92600Y132904D01*
Y126248D01*
X92280Y125769D01*
X91986Y124290D01*
Y121810D01*
X111214D01*
Y124290D01*
X110920Y125769D01*
X110600Y126248D01*
Y132904D01*
X110882Y133327D01*
X111173Y134790D01*
Y142290D01*
X111021Y143055D01*
X111025Y143109D01*
X110991Y143205D01*
X110882Y143753D01*
X110719Y143998D01*
X110701Y144049D01*
X110409Y144551D01*
X110187Y145046D01*
X109982Y145638D01*
X109580Y147360D01*
X109439Y148288D01*
X109327Y149854D01*
X110335Y151167D01*
X111343Y153600D01*
X111686Y156210D01*
X111343Y158820D01*
X110335Y161253D01*
X108732Y163342D01*
X106643Y164945D01*
X104211Y165953D01*
X101600Y166296D01*
X98989Y165953D01*
X96557Y164945D01*
X95290Y163973D01*
X90352Y163775D01*
X39963D01*
X39210Y164528D01*
Y173830D01*
X20079D01*
X19210Y173830D01*
X17079Y175927D01*
Y184547D01*
X20079Y185144D01*
X20475Y184187D01*
X22078Y182098D01*
X24167Y180495D01*
X26600Y179487D01*
X29210Y179144D01*
X31820Y179487D01*
X34253Y180495D01*
X36342Y182098D01*
X37945Y184187D01*
X38953Y186619D01*
X39296Y189230D01*
X38953Y191840D01*
X37945Y194273D01*
X36342Y196362D01*
X34253Y197965D01*
X31820Y198973D01*
X29210Y199316D01*
X26600Y198973D01*
X24167Y197965D01*
X22078Y196362D01*
X20475Y194273D01*
X20079Y193316D01*
X17079Y193913D01*
Y209947D01*
X20079Y210544D01*
X20475Y209587D01*
X22078Y207498D01*
X24167Y205895D01*
X26600Y204887D01*
X29210Y204544D01*
X31820Y204887D01*
X34253Y205895D01*
X36342Y207498D01*
X37945Y209587D01*
X38953Y212020D01*
X39296Y214630D01*
X39266Y214860D01*
X39281Y215259D01*
X39350Y215784D01*
X39469Y216310D01*
X39643Y216844D01*
X39874Y217388D01*
X40166Y217945D01*
X40525Y218516D01*
X40952Y219100D01*
X41271Y219482D01*
X55052Y233262D01*
X84145D01*
X85038Y233160D01*
X85974Y232975D01*
X86875Y232718D01*
X87746Y232389D01*
X88591Y231985D01*
X89414Y231506D01*
X90216Y230946D01*
X91001Y230303D01*
X91575Y229757D01*
X91815Y229445D01*
X94426Y227442D01*
X97467Y226182D01*
X100730Y225752D01*
X103993Y226182D01*
X107034Y227442D01*
X109645Y229445D01*
X111649Y232056D01*
X112908Y235097D01*
X113338Y238360D01*
X112908Y241623D01*
X111649Y244664D01*
X109645Y247275D01*
X107034Y249279D01*
X103993Y250539D01*
X100730Y250968D01*
X97467Y250539D01*
X94426Y249279D01*
X91815Y247275D01*
X91576Y246964D01*
X91001Y246417D01*
X90216Y245774D01*
X89414Y245215D01*
X88591Y244735D01*
X87746Y244332D01*
X86875Y244002D01*
X85974Y243745D01*
X85038Y243561D01*
X84145Y243458D01*
X52940D01*
X50989Y243070D01*
X49335Y241965D01*
X34062Y226691D01*
X33681Y226372D01*
X33096Y225944D01*
X32525Y225586D01*
X31968Y225294D01*
X31424Y225063D01*
X30890Y224889D01*
X30364Y224769D01*
X29839Y224701D01*
X29440Y224686D01*
X29210Y224716D01*
X26600Y224373D01*
X24167Y223365D01*
X22078Y221762D01*
X20475Y219673D01*
X20079Y218716D01*
X17079Y219313D01*
Y367633D01*
X19210Y369730D01*
X20079Y369730D01*
X28512D01*
X31481Y366761D01*
X33048Y365559D01*
X34872Y364803D01*
X36830Y364545D01*
X90758D01*
X91568Y364162D01*
X92140Y363603D01*
X93231Y361575D01*
X93013Y360946D01*
X92791Y360451D01*
X92499Y359949D01*
X92481Y359898D01*
X92318Y359653D01*
X92208Y359105D01*
X92175Y359009D01*
X92179Y358955D01*
X92027Y358190D01*
Y350690D01*
X92318Y349227D01*
X92600Y348804D01*
Y342148D01*
X92280Y341669D01*
X91986Y340190D01*
Y337710D01*
X111214D01*
Y340190D01*
X110920Y341669D01*
X110600Y342148D01*
Y348804D01*
X110882Y349227D01*
X111173Y350690D01*
Y358190D01*
X111021Y358955D01*
X111025Y359009D01*
X110991Y359105D01*
X110882Y359653D01*
X110719Y359898D01*
X110701Y359949D01*
X110409Y360451D01*
X110187Y360946D01*
X109982Y361538D01*
X109580Y363260D01*
X109439Y364188D01*
X109327Y365754D01*
X110335Y367067D01*
X111343Y369500D01*
X111686Y372110D01*
X111343Y374720D01*
X110335Y377153D01*
X108732Y379242D01*
X106643Y380845D01*
X104211Y381853D01*
X101600Y382196D01*
X98989Y381853D01*
X96557Y380845D01*
X95290Y379873D01*
X90352Y379675D01*
X39963D01*
X39210Y380428D01*
Y389730D01*
X20079D01*
X19210Y389730D01*
X17079Y391827D01*
Y400447D01*
X20079Y401044D01*
X20475Y400087D01*
X22078Y397998D01*
X24167Y396395D01*
X26600Y395387D01*
X29210Y395044D01*
X31820Y395387D01*
X34253Y396395D01*
X36342Y397998D01*
X37945Y400087D01*
X38953Y402519D01*
X39296Y405130D01*
X38953Y407741D01*
X37945Y410173D01*
X36342Y412262D01*
X34253Y413865D01*
X31820Y414873D01*
X29210Y415216D01*
X26600Y414873D01*
X24167Y413865D01*
X22078Y412262D01*
X20475Y410173D01*
X20079Y409216D01*
X17079Y409813D01*
Y425847D01*
X20079Y426444D01*
X20475Y425487D01*
X22078Y423398D01*
X24167Y421795D01*
X26600Y420787D01*
X29210Y420444D01*
X31820Y420787D01*
X34253Y421795D01*
X36342Y423398D01*
X37945Y425487D01*
X38953Y427920D01*
X39296Y430530D01*
X39266Y430760D01*
X39281Y431159D01*
X39350Y431684D01*
X39469Y432210D01*
X39643Y432744D01*
X39874Y433288D01*
X40166Y433845D01*
X40525Y434416D01*
X40952Y435000D01*
X41271Y435382D01*
X56322Y450432D01*
X84145D01*
X85038Y450330D01*
X85974Y450145D01*
X86875Y449888D01*
X87746Y449559D01*
X88591Y449155D01*
X89414Y448675D01*
X90216Y448116D01*
X91001Y447473D01*
X91575Y446927D01*
X91815Y446615D01*
X94426Y444612D01*
X97467Y443352D01*
X100730Y442922D01*
X103993Y443352D01*
X107034Y444612D01*
X109645Y446615D01*
X111649Y449226D01*
X112908Y452267D01*
X113338Y455530D01*
X112908Y458793D01*
X111649Y461834D01*
X109645Y464445D01*
X107034Y466449D01*
X103993Y467709D01*
X100730Y468138D01*
X97467Y467709D01*
X94426Y466449D01*
X91815Y464445D01*
X91576Y464134D01*
X91001Y463587D01*
X90216Y462944D01*
X89414Y462385D01*
X88591Y461905D01*
X87746Y461502D01*
X86875Y461172D01*
X85974Y460915D01*
X85038Y460731D01*
X84145Y460628D01*
X54210D01*
X52259Y460240D01*
X50605Y459135D01*
X34062Y442591D01*
X33681Y442272D01*
X33096Y441844D01*
X32525Y441486D01*
X31968Y441194D01*
X31424Y440963D01*
X30890Y440789D01*
X30364Y440670D01*
X29839Y440601D01*
X29440Y440586D01*
X29210Y440616D01*
X26600Y440273D01*
X24167Y439265D01*
X22078Y437662D01*
X20475Y435573D01*
X20079Y434616D01*
X17079Y435213D01*
Y582987D01*
X17940Y585630D01*
X20079Y585630D01*
X27242D01*
X30211Y582661D01*
X31778Y581459D01*
X33602Y580703D01*
X35560Y580445D01*
X90758D01*
X91568Y580062D01*
X92140Y579503D01*
X93231Y577475D01*
X93013Y576846D01*
X92791Y576351D01*
X92499Y575849D01*
X92481Y575798D01*
X92318Y575553D01*
X92208Y575005D01*
X92175Y574909D01*
X92179Y574855D01*
X92027Y574090D01*
Y566590D01*
X92318Y565127D01*
X92600Y564704D01*
Y558048D01*
X92280Y557569D01*
X91986Y556090D01*
Y553610D01*
X111214D01*
Y556090D01*
X110920Y557569D01*
X110600Y558048D01*
Y564704D01*
X110882Y565127D01*
X111173Y566590D01*
Y574090D01*
X111021Y574855D01*
X111025Y574909D01*
X110991Y575005D01*
X110882Y575553D01*
X110719Y575798D01*
X110701Y575849D01*
X110409Y576351D01*
X110187Y576846D01*
X109982Y577438D01*
X109580Y579160D01*
X109439Y580088D01*
X109327Y581654D01*
X110335Y582967D01*
X111343Y585400D01*
X111686Y588010D01*
X111343Y590620D01*
X110335Y593053D01*
X108732Y595142D01*
X106643Y596745D01*
X104211Y597753D01*
X101600Y598096D01*
X98989Y597753D01*
X96557Y596745D01*
X95290Y595773D01*
X90352Y595575D01*
X38693D01*
X37940Y596328D01*
Y605630D01*
X20079D01*
X17940Y605630D01*
X17079Y608273D01*
Y613830D01*
X20079Y614849D01*
X20808Y613898D01*
X22897Y612295D01*
X25329Y611287D01*
X27940Y610944D01*
X30550Y611287D01*
X32983Y612295D01*
X35072Y613898D01*
X36675Y615987D01*
X37683Y618419D01*
X38026Y621030D01*
X37683Y623641D01*
X36675Y626073D01*
X35072Y628162D01*
X32983Y629765D01*
X30550Y630773D01*
X27940Y631116D01*
X25329Y630773D01*
X22897Y629765D01*
X20808Y628162D01*
X20079Y627211D01*
X17079Y628230D01*
Y639230D01*
X20079Y640248D01*
X20808Y639298D01*
X22897Y637695D01*
X25329Y636687D01*
X27940Y636344D01*
X30550Y636687D01*
X32983Y637695D01*
X35072Y639298D01*
X35213Y639482D01*
X35506Y639754D01*
X35926Y640076D01*
X36383Y640364D01*
X36883Y640618D01*
X37431Y640840D01*
X38031Y641027D01*
X38688Y641178D01*
X39404Y641288D01*
X39899Y641332D01*
X74460D01*
X76410Y641720D01*
X78064Y642825D01*
X92607Y657368D01*
X93311Y657927D01*
X94103Y658458D01*
X94923Y658914D01*
X95772Y659297D01*
X96654Y659609D01*
X97575Y659851D01*
X98539Y660023D01*
X99548Y660124D01*
X100340Y660144D01*
X100730Y660092D01*
X103993Y660522D01*
X107034Y661781D01*
X109645Y663785D01*
X111649Y666396D01*
X112908Y669437D01*
X113338Y672700D01*
X112908Y675963D01*
X111649Y679004D01*
X110945Y679922D01*
X112424Y682922D01*
X444569D01*
X444997Y682280D01*
D02*
G37*
G36*
X90515Y679922D02*
X89811Y679004D01*
X88552Y675963D01*
X88122Y672700D01*
X88173Y672311D01*
X88153Y671518D01*
X88053Y670509D01*
X87881Y669546D01*
X87639Y668624D01*
X87327Y667742D01*
X86943Y666893D01*
X86488Y666074D01*
X85956Y665282D01*
X85398Y664578D01*
X72348Y651528D01*
X39899D01*
X39404Y651572D01*
X38688Y651683D01*
X38031Y651833D01*
X37431Y652020D01*
X36883Y652242D01*
X36383Y652496D01*
X35926Y652784D01*
X35506Y653106D01*
X35213Y653378D01*
X35072Y653562D01*
X32983Y655165D01*
X30550Y656173D01*
X27940Y656516D01*
X25329Y656173D01*
X22897Y655165D01*
X20808Y653562D01*
X20079Y652611D01*
X17079Y653630D01*
Y682922D01*
X89036D01*
X90515Y679922D01*
D02*
G37*
G36*
X100630Y662701D02*
X99389Y662669D01*
X98188Y662550D01*
X97026Y662343D01*
X95904Y662048D01*
X94820Y661664D01*
X93777Y661193D01*
X92772Y660634D01*
X91807Y659987D01*
X90881Y659252D01*
X89994Y658429D01*
X86459Y661965D01*
X87282Y662851D01*
X88017Y663777D01*
X88664Y664742D01*
X89223Y665747D01*
X89694Y666791D01*
X90077Y667874D01*
X90372Y668997D01*
X90580Y670158D01*
X90699Y671360D01*
X90730Y672600D01*
X100630Y662701D01*
D02*
G37*
%LPC*%
G36*
X111214Y335170D02*
X102870D01*
Y328825D01*
X107350D01*
X108829Y329120D01*
X110082Y329957D01*
X110920Y331211D01*
X111214Y332690D01*
Y335170D01*
D02*
G37*
G36*
X100330D02*
X91986D01*
Y332690D01*
X92280Y331211D01*
X93118Y329957D01*
X94371Y329120D01*
X95850Y328825D01*
X100330D01*
Y335170D01*
D02*
G37*
G36*
X151130D02*
X142786D01*
Y332690D01*
X143080Y331211D01*
X143918Y329957D01*
X145171Y329120D01*
X146650Y328825D01*
X146756D01*
X146470Y330051D01*
X146185Y330874D01*
X145862Y331595D01*
X145501Y332214D01*
X151130D01*
Y335170D01*
D02*
G37*
G36*
X391145Y358140D02*
X384810D01*
Y346972D01*
X385508Y347064D01*
X387342Y347824D01*
X388918Y349032D01*
X390126Y350607D01*
X390886Y352442D01*
X391145Y354410D01*
Y358140D01*
D02*
G37*
G36*
X40640Y337685D02*
X38682Y337427D01*
X36858Y336671D01*
X36411Y336329D01*
X34290Y335745D01*
X32169Y336329D01*
X31722Y336671D01*
X29898Y337427D01*
X27940Y337685D01*
X25982Y337427D01*
X24158Y336671D01*
X22591Y335469D01*
X21389Y333902D01*
X20633Y332078D01*
X20375Y330120D01*
Y320120D01*
X20633Y318162D01*
X21389Y316338D01*
X22591Y314771D01*
X24158Y313569D01*
X25982Y312813D01*
X27940Y312555D01*
X29898Y312813D01*
X31722Y313569D01*
X32169Y313911D01*
X32759Y314074D01*
X34769Y313523D01*
X35542Y312871D01*
Y311912D01*
X35930Y309961D01*
X37035Y308307D01*
X40845Y304497D01*
X42499Y303392D01*
X44450Y303004D01*
X82710D01*
X84661Y303392D01*
X86315Y304497D01*
X87420Y306151D01*
X87475Y306430D01*
X87520Y306460D01*
X93994D01*
X95013Y303460D01*
X94468Y303042D01*
X92865Y300953D01*
X91857Y298521D01*
X91514Y295910D01*
X91857Y293300D01*
X92865Y290867D01*
X94468Y288778D01*
X96557Y287175D01*
X98989Y286167D01*
X101600Y285824D01*
X104211Y286167D01*
X106643Y287175D01*
X108732Y288778D01*
X110335Y290867D01*
X111343Y293300D01*
X111686Y295910D01*
X111343Y298521D01*
X110335Y300953D01*
X108732Y303042D01*
X107730Y303811D01*
X107973Y306763D01*
X108122Y306862D01*
X108335Y306937D01*
X111451D01*
X111539Y306895D01*
X112634Y306163D01*
X114000Y305891D01*
X118653D01*
X119640Y303577D01*
X119752Y302891D01*
X118265Y300953D01*
X117257Y298521D01*
X116914Y295910D01*
X117257Y293300D01*
X118265Y290867D01*
X119868Y288778D01*
X121840Y287264D01*
X121902Y286372D01*
Y285542D01*
X121792Y284988D01*
Y283769D01*
X121776Y283622D01*
X121677Y283602D01*
X120436Y282774D01*
X119607Y281533D01*
X119316Y280070D01*
Y268570D01*
X119607Y267107D01*
X120436Y265866D01*
X121677Y265038D01*
X123140Y264747D01*
X130640D01*
X132103Y265038D01*
X132526Y265320D01*
X139182D01*
X139661Y265000D01*
X141140Y264706D01*
X143620D01*
Y274320D01*
Y283934D01*
X141140D01*
X139661Y283640D01*
X139182Y283320D01*
X134503D01*
X132839Y284550D01*
X132823Y287774D01*
X134132Y288778D01*
X135735Y290867D01*
X136743Y293300D01*
X137086Y295910D01*
X137056Y296140D01*
X137071Y296539D01*
X137140Y297064D01*
X137259Y297590D01*
X137433Y298124D01*
X137664Y298668D01*
X137956Y299226D01*
X138315Y299796D01*
X138742Y300380D01*
X139061Y300762D01*
X140605Y302305D01*
X141710Y303959D01*
X142098Y305910D01*
Y306652D01*
X142523Y306937D01*
X143297Y308094D01*
X143568Y309460D01*
Y320460D01*
X143297Y321826D01*
X142523Y322983D01*
X141366Y323757D01*
X140000Y324029D01*
X134000D01*
X132634Y323757D01*
X132190Y323460D01*
X121810D01*
X121366Y323757D01*
X120000Y324029D01*
X114000D01*
X112634Y323757D01*
X111539Y323025D01*
X111451Y322983D01*
X108259D01*
X108171Y323025D01*
X107076Y323757D01*
X105710Y324029D01*
X99710D01*
X98344Y323757D01*
X97900Y323460D01*
X87520D01*
X87076Y323757D01*
X85710Y324029D01*
X79710D01*
X78344Y323757D01*
X77187Y322983D01*
X76413Y321826D01*
X76142Y320460D01*
Y313200D01*
X61315D01*
X59836Y316200D01*
X59926Y316318D01*
X60686Y318152D01*
X60945Y320120D01*
Y323850D01*
X53340D01*
Y325120D01*
X52070D01*
Y337558D01*
X51372Y337466D01*
X49538Y336706D01*
X49087Y336360D01*
X45989Y335469D01*
X44422Y336671D01*
X42598Y337427D01*
X40640Y337685D01*
D02*
G37*
G36*
X468630Y354256D02*
X466020Y353913D01*
X463587Y352905D01*
X461498Y351302D01*
X459895Y349213D01*
X458887Y346781D01*
X458544Y344170D01*
X458887Y341559D01*
X459895Y339127D01*
X461498Y337038D01*
X463587Y335435D01*
X466020Y334427D01*
X468630Y334084D01*
X471241Y334427D01*
X473673Y335435D01*
X475762Y337038D01*
X477365Y339127D01*
X478373Y341559D01*
X478716Y344170D01*
X478373Y346781D01*
X477365Y349213D01*
X475762Y351302D01*
X473673Y352905D01*
X471241Y353913D01*
X468630Y354256D01*
D02*
G37*
G36*
X151130Y305869D02*
X149779Y305692D01*
X147337Y304680D01*
X145239Y303071D01*
X143630Y300973D01*
X142618Y298531D01*
X142441Y297180D01*
X151130D01*
Y305869D01*
D02*
G37*
G36*
X153670D02*
Y297180D01*
X162359D01*
X162182Y298531D01*
X161170Y300973D01*
X159561Y303071D01*
X157463Y304680D01*
X155021Y305692D01*
X153670Y305869D01*
D02*
G37*
G36*
X162359Y294640D02*
X142441D01*
X142618Y293289D01*
X143630Y290847D01*
X145239Y288749D01*
X147337Y287140D01*
X147834Y286934D01*
X147237Y283934D01*
X146160D01*
Y275590D01*
X152505D01*
Y280070D01*
X152210Y281549D01*
X151373Y282802D01*
X151204Y282915D01*
X152289Y285798D01*
X152400Y285783D01*
X155021Y286128D01*
X157463Y287140D01*
X159561Y288749D01*
X161170Y290847D01*
X162182Y293289D01*
X162359Y294640D01*
D02*
G37*
G36*
X392480Y296634D02*
X390000D01*
Y288290D01*
X396344D01*
Y292770D01*
X396050Y294249D01*
X395213Y295502D01*
X393959Y296340D01*
X392480Y296634D01*
D02*
G37*
G36*
X391145Y316230D02*
X384810D01*
Y305062D01*
X385508Y305154D01*
X387342Y305914D01*
X388918Y307122D01*
X390126Y308697D01*
X390886Y310532D01*
X391145Y312500D01*
Y316230D01*
D02*
G37*
G36*
X54610Y337558D02*
Y326390D01*
X60945D01*
Y330120D01*
X60686Y332088D01*
X59926Y333923D01*
X58718Y335498D01*
X57143Y336706D01*
X55308Y337466D01*
X54610Y337558D01*
D02*
G37*
G36*
X370840Y330065D02*
X368882Y329807D01*
X367058Y329051D01*
X366611Y328708D01*
X364490Y328125D01*
X362369Y328708D01*
X361922Y329051D01*
X360098Y329807D01*
X358140Y330065D01*
X356182Y329807D01*
X354358Y329051D01*
X352791Y327849D01*
X351589Y326282D01*
X350833Y324458D01*
X350575Y322500D01*
Y312500D01*
X350833Y310542D01*
X351426Y309111D01*
X351444Y309018D01*
X351497Y308940D01*
X351589Y308718D01*
X351683Y308595D01*
X351710Y308533D01*
X351997Y308123D01*
X352204Y307766D01*
X352394Y307366D01*
X352566Y306918D01*
X352718Y306420D01*
X352847Y305871D01*
X352945Y305302D01*
X353042Y304242D01*
Y299402D01*
X352154Y298514D01*
X346040D01*
X344577Y298223D01*
X343336Y297394D01*
X342508Y296153D01*
X342217Y294690D01*
Y287190D01*
X342508Y285727D01*
X342790Y285304D01*
Y278648D01*
X342470Y278169D01*
X342176Y276690D01*
Y274210D01*
X361404D01*
Y276690D01*
X361366Y276883D01*
X361619Y277143D01*
X364276Y278566D01*
X365517Y277738D01*
X366980Y277447D01*
X374480D01*
X375943Y277738D01*
X376366Y278020D01*
X383022D01*
X383501Y277700D01*
X384980Y277406D01*
X387460D01*
Y287020D01*
Y296634D01*
X384980D01*
X383501Y296340D01*
X383022Y296020D01*
X376499D01*
X376379Y296174D01*
X376255Y296381D01*
X376133Y296647D01*
X376020Y296978D01*
X375922Y297380D01*
X375846Y297854D01*
X375828Y298055D01*
Y301562D01*
X375938Y302116D01*
Y304228D01*
X375956Y304646D01*
X376016Y305161D01*
X376265Y305388D01*
X377955Y306216D01*
X378486Y306316D01*
X379006Y306292D01*
X379352Y306208D01*
X379357Y306206D01*
X379738Y305914D01*
X381572Y305154D01*
X382270Y305062D01*
Y317500D01*
Y329938D01*
X381572Y329846D01*
X379738Y329086D01*
X379287Y328740D01*
X376189Y327849D01*
X374622Y329051D01*
X372798Y329807D01*
X370840Y330065D01*
D02*
G37*
G36*
X468630Y328856D02*
X466020Y328513D01*
X463587Y327505D01*
X461498Y325902D01*
X459895Y323813D01*
X458887Y321381D01*
X458544Y318770D01*
X458887Y316159D01*
X459895Y313727D01*
X461498Y311638D01*
X463587Y310035D01*
X466020Y309027D01*
X468630Y308684D01*
X471241Y309027D01*
X473673Y310035D01*
X475762Y311638D01*
X477365Y313727D01*
X478373Y316159D01*
X478716Y318770D01*
X478373Y321381D01*
X477365Y323813D01*
X475762Y325902D01*
X473673Y327505D01*
X471241Y328513D01*
X468630Y328856D01*
D02*
G37*
G36*
X384810Y329938D02*
Y318770D01*
X391145D01*
Y322500D01*
X390886Y324468D01*
X390126Y326302D01*
X388918Y327878D01*
X387342Y329086D01*
X385508Y329846D01*
X384810Y329938D01*
D02*
G37*
G36*
X113211Y404260D02*
X102000D01*
Y393049D01*
X104003Y393313D01*
X107054Y394576D01*
X109673Y396586D01*
X111684Y399206D01*
X112947Y402256D01*
X113211Y404260D01*
D02*
G37*
G36*
X152505Y57150D02*
X146160D01*
Y48806D01*
X148640D01*
X150119Y49100D01*
X151373Y49938D01*
X152210Y51191D01*
X152505Y52670D01*
Y57150D01*
D02*
G37*
G36*
X234950Y407596D02*
X232339Y407253D01*
X229907Y406245D01*
X227818Y404642D01*
X226215Y402553D01*
X225207Y400121D01*
X224864Y397510D01*
X225207Y394899D01*
X226215Y392467D01*
X227818Y390378D01*
X229907Y388775D01*
X232339Y387767D01*
X234950Y387424D01*
X237561Y387767D01*
X239993Y388775D01*
X242082Y390378D01*
X243685Y392467D01*
X244693Y394899D01*
X245036Y397510D01*
X244693Y400121D01*
X243685Y402553D01*
X242082Y404642D01*
X239993Y406245D01*
X237561Y407253D01*
X234950Y407596D01*
D02*
G37*
G36*
X99460Y404260D02*
X88249D01*
X88513Y402256D01*
X89776Y399206D01*
X91786Y396586D01*
X94406Y394576D01*
X97456Y393313D01*
X99460Y393049D01*
Y404260D01*
D02*
G37*
G36*
X234950Y432996D02*
X232339Y432653D01*
X229907Y431645D01*
X227818Y430042D01*
X226215Y427953D01*
X225207Y425521D01*
X224864Y422910D01*
X225207Y420299D01*
X226215Y417867D01*
X227818Y415778D01*
X229907Y414175D01*
X232339Y413167D01*
X234950Y412824D01*
X237561Y413167D01*
X239993Y414175D01*
X241155Y415067D01*
X241628Y415169D01*
X244414Y414796D01*
X244507Y414747D01*
X244896Y414456D01*
X246137Y413628D01*
X246252Y413605D01*
Y412860D01*
X246640Y410909D01*
X247745Y409255D01*
X263095Y393905D01*
X263116Y393087D01*
X262698Y390563D01*
X261708Y389802D01*
X260585Y388340D01*
X259880Y386637D01*
X259640Y384810D01*
X259880Y382983D01*
X260585Y381280D01*
X261708Y379818D01*
X263170Y378695D01*
X264873Y377990D01*
X266700Y377750D01*
X268527Y377990D01*
X270230Y378695D01*
X271370Y379570D01*
X271432Y379586D01*
X271593Y379616D01*
X272892Y379712D01*
X301110D01*
Y373380D01*
X311150D01*
Y372110D01*
X312420D01*
Y362070D01*
X321190D01*
Y370275D01*
X321803Y370788D01*
X324717Y371827D01*
X325874Y371053D01*
X327240Y370782D01*
X338240D01*
X339606Y371053D01*
X340763Y371827D01*
X341537Y372984D01*
X341809Y374350D01*
Y380350D01*
X341537Y381716D01*
X341240Y382160D01*
Y392540D01*
X341537Y392984D01*
X341809Y394350D01*
Y400350D01*
X341537Y401716D01*
X340763Y402873D01*
X339606Y403647D01*
X338240Y403918D01*
X327240D01*
X325874Y403647D01*
X325370Y403310D01*
X325356Y403306D01*
X325320Y403276D01*
X324717Y402873D01*
X324601Y402700D01*
X324550Y402679D01*
X324346Y402616D01*
X324043Y402548D01*
X323678Y402492D01*
X323094Y402448D01*
X322622D01*
X321818Y402608D01*
X319843D01*
X318282Y404642D01*
X316193Y406245D01*
X313761Y407253D01*
X311150Y407596D01*
X308540Y407253D01*
X306107Y406245D01*
X304018Y404642D01*
X303877Y404458D01*
X303584Y404186D01*
X303165Y403864D01*
X302707Y403576D01*
X302208Y403322D01*
X301659Y403100D01*
X301059Y402913D01*
X300402Y402762D01*
X299686Y402652D01*
X299191Y402608D01*
X268812D01*
X261428Y409992D01*
X262454Y413208D01*
X264121Y413590D01*
X265600Y413296D01*
X268080D01*
Y422910D01*
Y432524D01*
X265600D01*
X264121Y432230D01*
X263642Y431910D01*
X256986D01*
X256563Y432192D01*
X255100Y432483D01*
X247600D01*
X246137Y432192D01*
X244896Y431364D01*
X244507Y431073D01*
X244414Y431024D01*
X241628Y430651D01*
X241155Y430753D01*
X239993Y431645D01*
X237561Y432653D01*
X234950Y432996D01*
D02*
G37*
G36*
X276964Y421640D02*
X270620D01*
Y413296D01*
X273100D01*
X274579Y413590D01*
X275833Y414428D01*
X276670Y415681D01*
X276964Y417160D01*
Y421640D01*
D02*
G37*
G36*
X99460Y418011D02*
X97456Y417747D01*
X94406Y416483D01*
X91786Y414473D01*
X89776Y411854D01*
X88513Y408803D01*
X88249Y406800D01*
X99460D01*
Y418011D01*
D02*
G37*
G36*
X102000D02*
Y406800D01*
X113211D01*
X112947Y408803D01*
X111684Y411854D01*
X109673Y414473D01*
X107054Y416483D01*
X104003Y417747D01*
X102000Y418011D01*
D02*
G37*
G36*
X384810Y371848D02*
Y360680D01*
X391145D01*
Y364410D01*
X390886Y366378D01*
X390126Y368213D01*
X388918Y369788D01*
X387342Y370996D01*
X385508Y371756D01*
X384810Y371848D01*
D02*
G37*
G36*
X309880Y370840D02*
X301110D01*
Y362070D01*
X309880D01*
Y370840D01*
D02*
G37*
G36*
X467360Y368300D02*
X458671D01*
X458848Y366949D01*
X459860Y364507D01*
X461469Y362409D01*
X463567Y360800D01*
X466009Y359788D01*
X467360Y359611D01*
Y368300D01*
D02*
G37*
G36*
X478589D02*
X469900D01*
Y359611D01*
X471251Y359788D01*
X473693Y360800D01*
X475791Y362409D01*
X477400Y364507D01*
X478412Y366949D01*
X478589Y368300D01*
D02*
G37*
G36*
X467360Y379529D02*
X466009Y379352D01*
X463567Y378340D01*
X461469Y376731D01*
X459860Y374633D01*
X458848Y372191D01*
X458671Y370840D01*
X467360D01*
Y379529D01*
D02*
G37*
G36*
X469900D02*
Y370840D01*
X478589D01*
X478412Y372191D01*
X477400Y374633D01*
X475791Y376731D01*
X473693Y378340D01*
X471251Y379352D01*
X469900Y379529D01*
D02*
G37*
G36*
X349250Y57040D02*
X340906D01*
Y54560D01*
X341200Y53081D01*
X342038Y51827D01*
X343291Y50990D01*
X344770Y50696D01*
X349250D01*
Y57040D01*
D02*
G37*
G36*
X311150Y458396D02*
X308540Y458053D01*
X306107Y457045D01*
X304018Y455442D01*
X302415Y453353D01*
X301407Y450920D01*
X301064Y448310D01*
X301407Y445700D01*
X302415Y443267D01*
X304018Y441178D01*
X306107Y439575D01*
X308540Y438567D01*
X311150Y438224D01*
X313761Y438567D01*
X316193Y439575D01*
X318282Y441178D01*
X319885Y443267D01*
X320735Y445319D01*
X320893Y445699D01*
X323671Y444969D01*
X323671Y444967D01*
Y440070D01*
X323943Y438704D01*
X324240Y438260D01*
Y428312D01*
X324043Y428268D01*
X323678Y428212D01*
X323094Y428168D01*
X321978D01*
X321174Y428008D01*
X319843D01*
X318282Y430042D01*
X316193Y431645D01*
X313761Y432653D01*
X311150Y432996D01*
X308540Y432653D01*
X306107Y431645D01*
X304018Y430042D01*
X302415Y427953D01*
X301407Y425521D01*
X301064Y422910D01*
X301407Y420299D01*
X302415Y417867D01*
X304018Y415778D01*
X306107Y414175D01*
X308540Y413167D01*
X311150Y412824D01*
X313761Y413167D01*
X316193Y414175D01*
X318282Y415778D01*
X319813Y417774D01*
X320447Y417812D01*
X321818D01*
X322622Y417972D01*
X323249D01*
X323649Y417932D01*
X324043Y417872D01*
X324346Y417804D01*
X324550Y417741D01*
X324601Y417720D01*
X324717Y417547D01*
X325320Y417144D01*
X325356Y417114D01*
X325370Y417110D01*
X325874Y416773D01*
X327240Y416502D01*
X338240D01*
X339606Y416773D01*
X340763Y417547D01*
X341537Y418704D01*
X341809Y420070D01*
Y426070D01*
X341537Y427436D01*
X341240Y427880D01*
Y437786D01*
X341574Y437849D01*
X343034Y437972D01*
X353488D01*
X365742Y425718D01*
Y372682D01*
X365724Y372264D01*
X365659Y371707D01*
X365360Y371438D01*
X363819Y370677D01*
X363225Y370553D01*
X362737Y370567D01*
X362319Y370662D01*
X362306Y370667D01*
X361922Y370961D01*
X360098Y371717D01*
X358140Y371975D01*
X356182Y371717D01*
X354358Y370961D01*
X352791Y369759D01*
X351589Y368192D01*
X350833Y366368D01*
X350575Y364410D01*
Y354410D01*
X350690Y353538D01*
X349108Y351107D01*
X348379Y350538D01*
X262980D01*
X262608Y350571D01*
X262072Y350659D01*
X261692Y350761D01*
X261679Y350766D01*
Y350940D01*
X261407Y352306D01*
X260633Y353463D01*
X259476Y354237D01*
X258110Y354509D01*
X252110D01*
X250744Y354237D01*
X250300Y353940D01*
X244525D01*
X242499Y356583D01*
X242450Y356940D01*
X242675Y358648D01*
X242515Y359864D01*
Y364140D01*
X242537Y365570D01*
X243685Y367067D01*
X244693Y369500D01*
X245036Y372110D01*
X244693Y374720D01*
X243685Y377153D01*
X242082Y379242D01*
X239993Y380845D01*
X237561Y381853D01*
X234950Y382196D01*
X232339Y381853D01*
X229907Y380845D01*
X227818Y379242D01*
X226215Y377153D01*
X225207Y374720D01*
X224864Y372110D01*
X225207Y369500D01*
X226215Y367067D01*
X227337Y365605D01*
X227385Y361749D01*
Y358808D01*
X227643Y356850D01*
X228399Y355026D01*
X228436Y354977D01*
X228251Y353349D01*
X227849Y351799D01*
X227691Y351718D01*
X227234Y351541D01*
X226713Y351395D01*
X226121Y351284D01*
X225810Y351252D01*
X212615D01*
X211357Y351773D01*
X209660Y351996D01*
X207963Y351773D01*
X206382Y351118D01*
X205024Y350076D01*
X203983Y348718D01*
X203328Y347137D01*
X203119Y345550D01*
X197368D01*
X196889Y345870D01*
X195410Y346164D01*
X192930D01*
Y336550D01*
X190390D01*
Y346164D01*
X187910D01*
X186431Y345870D01*
X185177Y345032D01*
X184720Y344348D01*
X181844Y344796D01*
X181720Y344847D01*
Y348804D01*
X182002Y349227D01*
X182293Y350690D01*
Y357245D01*
X182510Y357569D01*
X182898Y359520D01*
Y360750D01*
X182931Y361119D01*
X183019Y361648D01*
X183120Y362023D01*
X183155Y362110D01*
X187800D01*
Y382110D01*
X167800D01*
Y362110D01*
X166970Y362014D01*
X165507Y361723D01*
X165507Y361723D01*
X165079Y361437D01*
X164266Y360894D01*
X164263Y360888D01*
X160857D01*
X160854Y360894D01*
X159856Y361560D01*
X159490Y362962D01*
X159346Y364835D01*
X159348Y364837D01*
X159532Y364978D01*
X161135Y367067D01*
X162143Y369500D01*
X162486Y372110D01*
X162143Y374720D01*
X161135Y377153D01*
X159532Y379242D01*
X157443Y380845D01*
X155010Y381853D01*
X152400Y382196D01*
X149789Y381853D01*
X147357Y380845D01*
X145268Y379242D01*
X143665Y377153D01*
X142657Y374720D01*
X142314Y372110D01*
X142657Y369500D01*
X143665Y367067D01*
X145268Y364978D01*
X145452Y364837D01*
X145454Y364835D01*
X145310Y362963D01*
X144944Y361560D01*
X143946Y360894D01*
X143118Y359653D01*
X142827Y358190D01*
Y350690D01*
X143118Y349227D01*
X143400Y348804D01*
Y342148D01*
X143080Y341669D01*
X142786Y340190D01*
Y337710D01*
X152400D01*
Y336440D01*
X153670D01*
Y332214D01*
X159299D01*
X158938Y331595D01*
X158615Y330874D01*
X158330Y330051D01*
X158084Y329127D01*
X158022Y328825D01*
X158150D01*
X159629Y329120D01*
X160830Y329923D01*
X160900Y329957D01*
X162560D01*
X164220D01*
X164289Y329923D01*
X165491Y329120D01*
X166970Y328825D01*
X171450D01*
Y336440D01*
X173990D01*
Y328825D01*
X178470D01*
X179949Y329120D01*
X181202Y329957D01*
X184340Y329321D01*
X185177Y328068D01*
X185517Y327841D01*
X185671Y327284D01*
X185613Y324793D01*
X185517Y324507D01*
X185137Y324253D01*
X184363Y323096D01*
X184091Y321730D01*
Y310730D01*
X184310Y309630D01*
X182652Y307971D01*
X182271Y307652D01*
X181686Y307225D01*
X181115Y306866D01*
X180558Y306574D01*
X180014Y306343D01*
X179480Y306169D01*
X178954Y306049D01*
X178429Y305981D01*
X178030Y305966D01*
X177800Y305996D01*
X175189Y305653D01*
X172757Y304645D01*
X170668Y303042D01*
X169065Y300953D01*
X168057Y298521D01*
X167714Y295910D01*
X168057Y293300D01*
X169065Y290867D01*
X170668Y288778D01*
X172757Y287175D01*
X175189Y286167D01*
X177800Y285824D01*
X180410Y286167D01*
X182843Y287175D01*
X184932Y288778D01*
X186535Y290867D01*
X187543Y293300D01*
X187886Y295910D01*
X187856Y296140D01*
X187871Y296539D01*
X187939Y297064D01*
X188059Y297590D01*
X188233Y298124D01*
X188464Y298668D01*
X188756Y299226D01*
X189114Y299796D01*
X189542Y300380D01*
X189861Y300762D01*
X194265Y305165D01*
X195370Y306819D01*
X195551Y307730D01*
X204709D01*
X204848Y305375D01*
Y286929D01*
X204749Y283908D01*
X204734Y283743D01*
X204109Y282928D01*
X203353Y281104D01*
X203095Y279146D01*
X203353Y277188D01*
X204109Y275364D01*
X205311Y273797D01*
X231473Y247635D01*
X233040Y246433D01*
X234864Y245677D01*
X236822Y245419D01*
X287443D01*
X298674Y234188D01*
X300274Y232555D01*
X301175Y231561D01*
X301407Y229799D01*
X302415Y227367D01*
X304018Y225278D01*
X306107Y223675D01*
X308540Y222667D01*
X311150Y222324D01*
X313761Y222667D01*
X316193Y223675D01*
X318282Y225278D01*
X319885Y227367D01*
X320893Y229799D01*
X323671Y229069D01*
Y224170D01*
X323943Y222804D01*
X324240Y222360D01*
Y212412D01*
X324043Y212368D01*
X323678Y212312D01*
X323094Y212268D01*
X321978D01*
X321174Y212108D01*
X319843D01*
X318282Y214142D01*
X316193Y215745D01*
X313761Y216753D01*
X311150Y217096D01*
X308540Y216753D01*
X306107Y215745D01*
X304018Y214142D01*
X302415Y212053D01*
X301407Y209620D01*
X301064Y207010D01*
X301407Y204400D01*
X302415Y201967D01*
X304018Y199878D01*
X306107Y198275D01*
X308540Y197267D01*
X311150Y196924D01*
X313761Y197267D01*
X316193Y198275D01*
X318282Y199878D01*
X319813Y201874D01*
X320447Y201912D01*
X321818D01*
X322622Y202072D01*
X323249D01*
X323649Y202032D01*
X324043Y201972D01*
X324346Y201904D01*
X324550Y201841D01*
X324601Y201820D01*
X324717Y201647D01*
X325320Y201244D01*
X325356Y201214D01*
X325370Y201210D01*
X325874Y200873D01*
X327240Y200602D01*
X338240D01*
X339606Y200873D01*
X340763Y201647D01*
X341537Y202804D01*
X341809Y204170D01*
Y206649D01*
X344809Y207892D01*
X364472Y188228D01*
Y156782D01*
X364454Y156364D01*
X364389Y155807D01*
X364090Y155539D01*
X362549Y154777D01*
X361955Y154653D01*
X361467Y154667D01*
X361049Y154762D01*
X361036Y154767D01*
X360652Y155061D01*
X358828Y155817D01*
X356870Y156075D01*
X354912Y155817D01*
X353088Y155061D01*
X351521Y153859D01*
X350319Y152292D01*
X349563Y150468D01*
X349352Y148867D01*
X349264Y148831D01*
X348884Y148729D01*
X348348Y148641D01*
X347976Y148608D01*
X321190D01*
Y154375D01*
X321798Y154894D01*
X324717Y155927D01*
X325874Y155153D01*
X327240Y154881D01*
X338240D01*
X339606Y155153D01*
X340763Y155927D01*
X341537Y157084D01*
X341809Y158450D01*
Y164450D01*
X341537Y165816D01*
X341240Y166260D01*
Y176640D01*
X341537Y177084D01*
X341809Y178450D01*
Y184450D01*
X341537Y185816D01*
X340763Y186973D01*
X339606Y187747D01*
X338240Y188018D01*
X327240D01*
X325874Y187747D01*
X325370Y187410D01*
X325356Y187406D01*
X325320Y187376D01*
X324717Y186973D01*
X324601Y186800D01*
X324550Y186779D01*
X324346Y186716D01*
X324043Y186648D01*
X323678Y186592D01*
X323094Y186548D01*
X322622D01*
X321818Y186708D01*
X319843D01*
X318282Y188742D01*
X316193Y190345D01*
X313761Y191353D01*
X311150Y191696D01*
X308540Y191353D01*
X306107Y190345D01*
X304018Y188742D01*
X303877Y188558D01*
X303584Y188286D01*
X303165Y187964D01*
X302707Y187676D01*
X302208Y187422D01*
X301659Y187200D01*
X301059Y187013D01*
X300402Y186863D01*
X299686Y186752D01*
X299191Y186708D01*
X268701D01*
X261213Y194196D01*
X262301Y197351D01*
X264091Y197710D01*
X264121Y197690D01*
X265600Y197396D01*
X268080D01*
Y207010D01*
Y216624D01*
X265600D01*
X264121Y216330D01*
X263642Y216010D01*
X256986D01*
X256563Y216292D01*
X255100Y216583D01*
X247600D01*
X246137Y216292D01*
X244896Y215464D01*
X244507Y215173D01*
X244414Y215124D01*
X241628Y214751D01*
X241155Y214853D01*
X239993Y215745D01*
X237561Y216753D01*
X234950Y217096D01*
X232339Y216753D01*
X229907Y215745D01*
X227818Y214142D01*
X226215Y212053D01*
X225207Y209620D01*
X224864Y207010D01*
X225207Y204400D01*
X226215Y201967D01*
X227818Y199878D01*
X229907Y198275D01*
X232339Y197267D01*
X234950Y196924D01*
X237561Y197267D01*
X239993Y198275D01*
X241155Y199167D01*
X241628Y199269D01*
X244414Y198896D01*
X244507Y198847D01*
X244896Y198556D01*
X246137Y197728D01*
X246252Y197705D01*
Y196850D01*
X246640Y194899D01*
X247745Y193245D01*
X262985Y178005D01*
X264570Y176946D01*
X264625Y176622D01*
X264489Y173871D01*
X263225Y173620D01*
X261571Y172515D01*
X247737Y158680D01*
X246602Y158733D01*
X244383Y159569D01*
X243685Y161253D01*
X242082Y163342D01*
X239993Y164945D01*
X237561Y165953D01*
X234950Y166296D01*
X232339Y165953D01*
X229907Y164945D01*
X227818Y163342D01*
X226215Y161253D01*
X225207Y158820D01*
X224864Y156210D01*
X225207Y153600D01*
X226215Y151167D01*
X227607Y149352D01*
X227643Y149082D01*
X228399Y147258D01*
X229133Y146300D01*
X229153Y146191D01*
X229298Y141740D01*
Y139572D01*
X229253Y138631D01*
X229126Y137387D01*
X229060Y136997D01*
X229000Y136740D01*
X228980Y136680D01*
X228933Y136590D01*
X228930Y136581D01*
X228813Y136406D01*
X228666Y135665D01*
X228657Y135634D01*
X228658Y135625D01*
X228542Y135040D01*
Y129440D01*
X228264Y129328D01*
X227678Y129176D01*
X226882Y129050D01*
X226293Y129002D01*
X212615D01*
X211357Y129523D01*
X209660Y129746D01*
X207963Y129523D01*
X206589Y128953D01*
X205910D01*
X204447Y128662D01*
X204024Y128380D01*
X197368D01*
X196889Y128700D01*
X195410Y128994D01*
X192930D01*
Y119380D01*
X190390D01*
Y128994D01*
X187910D01*
X186431Y128700D01*
X185177Y127862D01*
X184720Y127178D01*
X181844Y127626D01*
X181720Y127677D01*
Y132904D01*
X182002Y133327D01*
X182293Y134790D01*
Y141345D01*
X182510Y141669D01*
X182898Y143620D01*
Y144850D01*
X182931Y145218D01*
X183019Y145749D01*
X183120Y146123D01*
X183155Y146210D01*
X187800D01*
Y166210D01*
X167800D01*
Y146210D01*
X166970Y146114D01*
X165507Y145823D01*
X165507Y145823D01*
X165079Y145537D01*
X164266Y144994D01*
X164263Y144988D01*
X160857D01*
X160854Y144994D01*
X159856Y145660D01*
X159490Y147062D01*
X159346Y148935D01*
X159348Y148937D01*
X159532Y149078D01*
X161135Y151167D01*
X162143Y153600D01*
X162486Y156210D01*
X162143Y158820D01*
X161135Y161253D01*
X159532Y163342D01*
X157443Y164945D01*
X155010Y165953D01*
X152400Y166296D01*
X149789Y165953D01*
X147357Y164945D01*
X145268Y163342D01*
X143665Y161253D01*
X142657Y158820D01*
X142314Y156210D01*
X142657Y153600D01*
X143665Y151167D01*
X145268Y149078D01*
X145452Y148937D01*
X145454Y148935D01*
X145310Y147063D01*
X144944Y145660D01*
X143946Y144994D01*
X143118Y143753D01*
X142827Y142290D01*
Y134790D01*
X143118Y133327D01*
X143400Y132904D01*
Y126248D01*
X143080Y125769D01*
X142786Y124290D01*
Y121810D01*
X152400D01*
Y120540D01*
X153670D01*
Y112926D01*
X158150D01*
X159629Y113220D01*
X160830Y114023D01*
X160900Y114057D01*
X162560D01*
X164220D01*
X164289Y114023D01*
X165491Y113220D01*
X166970Y112926D01*
X171450D01*
Y120540D01*
X173990D01*
Y112926D01*
X178470D01*
X179949Y113220D01*
X181045Y113953D01*
X182460Y113800D01*
X184156Y113077D01*
X184340Y112151D01*
X185177Y110898D01*
X185517Y110671D01*
X185671Y110113D01*
X185613Y107623D01*
X185517Y107337D01*
X185137Y107083D01*
X184363Y105926D01*
X184091Y104560D01*
Y93560D01*
X184363Y92194D01*
X184016Y91327D01*
X180410Y89753D01*
X177800Y90096D01*
X175189Y89753D01*
X172757Y88745D01*
X170668Y87142D01*
X169065Y85053D01*
X168057Y82620D01*
X167714Y80010D01*
X168057Y77400D01*
X169065Y74967D01*
X170668Y72878D01*
X172757Y71275D01*
X175189Y70267D01*
X177800Y69924D01*
X180410Y70267D01*
X182843Y71275D01*
X183825Y72029D01*
X186125Y72432D01*
X187871Y71780D01*
X193151Y66499D01*
X194805Y65394D01*
X196756Y65006D01*
X245110D01*
X247061Y65394D01*
X248715Y66499D01*
X249820Y68153D01*
X250208Y70104D01*
Y117791D01*
X252110Y120471D01*
X258110D01*
X259476Y120743D01*
X260633Y121517D01*
X261407Y122674D01*
X261679Y124040D01*
Y135040D01*
X261604Y135412D01*
X263091Y137895D01*
X263674Y138412D01*
X347976D01*
X348349Y138379D01*
X348885Y138291D01*
X349266Y138189D01*
X349352Y138154D01*
X349563Y136552D01*
X350319Y134728D01*
X351521Y133161D01*
X353088Y131959D01*
X354912Y131203D01*
X356870Y130945D01*
X358828Y131203D01*
X360652Y131959D01*
X361099Y132302D01*
X363220Y132885D01*
X365341Y132302D01*
X365788Y131959D01*
X367612Y131203D01*
X369570Y130945D01*
X371528Y131203D01*
X373352Y131959D01*
X374919Y133161D01*
X378017Y132270D01*
X378467Y131924D01*
X380302Y131164D01*
X381000Y131072D01*
Y143510D01*
Y155948D01*
X380302Y155856D01*
X378467Y155096D01*
X378087Y154804D01*
X378082Y154802D01*
X377736Y154718D01*
X377216Y154694D01*
X376657Y154800D01*
X375067Y155563D01*
X374752Y155852D01*
X374668Y156768D01*
Y190340D01*
X374280Y192291D01*
X373175Y193945D01*
X343586Y223533D01*
X342641Y224543D01*
X341976Y225359D01*
X341809Y225595D01*
Y230170D01*
X341537Y231536D01*
X340763Y232693D01*
X339606Y233467D01*
X338240Y233738D01*
X327419D01*
X327058Y234145D01*
X325986Y236548D01*
X333182Y243744D01*
X454205D01*
X456316Y243716D01*
X458427Y243614D01*
X459630Y243490D01*
Y238008D01*
X459310Y237529D01*
X459016Y236050D01*
Y233570D01*
X478244D01*
Y236050D01*
X477950Y237529D01*
X477630Y238008D01*
Y244664D01*
X477912Y245087D01*
X478203Y246550D01*
Y254050D01*
X478051Y254815D01*
X478055Y254869D01*
X478022Y254965D01*
X478021Y254970D01*
X478630Y257970D01*
X478648Y260501D01*
X478630Y260593D01*
Y277970D01*
X458630D01*
Y260593D01*
X458611Y260501D01*
X458630Y257970D01*
X456065Y256920D01*
X455017Y256858D01*
X454797Y256856D01*
X332811D01*
X330998Y257607D01*
X329040Y257865D01*
X327082Y257607D01*
X325258Y256852D01*
X323691Y255649D01*
X312928Y244886D01*
X311295Y243286D01*
X311234Y243231D01*
X308545Y245713D01*
X295925Y258333D01*
X294358Y259535D01*
X292534Y260291D01*
X290576Y260549D01*
X239955D01*
X216712Y283792D01*
X216472Y291116D01*
Y306198D01*
X216517Y307139D01*
X216644Y308383D01*
X216710Y308773D01*
X216770Y309030D01*
X216790Y309090D01*
X216837Y309180D01*
X216840Y309189D01*
X216957Y309364D01*
X217104Y310105D01*
X217113Y310136D01*
X217112Y310145D01*
X217229Y310730D01*
Y321730D01*
X216957Y323096D01*
X216496Y323786D01*
X216967Y324924D01*
X217225Y326882D01*
Y330756D01*
X217234Y330800D01*
Y339628D01*
X225810D01*
X226121Y339596D01*
X226713Y339485D01*
X227234Y339339D01*
X227691Y339162D01*
X228089Y338957D01*
X228438Y338726D01*
X228749Y338464D01*
X229031Y338166D01*
X229372Y337711D01*
X229416Y337672D01*
X229587Y337417D01*
X230036Y337117D01*
X230113Y337047D01*
X230169Y337028D01*
X230744Y336643D01*
X232110Y336371D01*
X238110D01*
X239476Y336643D01*
X239920Y336940D01*
X250300D01*
X250744Y336643D01*
X252110Y336371D01*
X258110D01*
X259476Y336643D01*
X260633Y337417D01*
X261407Y338574D01*
X261679Y339940D01*
Y340113D01*
X261692Y340119D01*
X262072Y340221D01*
X262608Y340309D01*
X262980Y340342D01*
X354330D01*
X356281Y340730D01*
X357935Y341835D01*
X361745Y345645D01*
X362850Y347299D01*
X365524Y348501D01*
X366611Y348201D01*
X367058Y347859D01*
X368882Y347103D01*
X370840Y346845D01*
X372798Y347103D01*
X374622Y347859D01*
X376189Y349061D01*
X379287Y348170D01*
X379738Y347824D01*
X381572Y347064D01*
X382270Y346972D01*
Y359410D01*
Y371848D01*
X381572Y371756D01*
X379738Y370996D01*
X379357Y370704D01*
X379352Y370702D01*
X379006Y370618D01*
X378486Y370594D01*
X377927Y370700D01*
X376337Y371463D01*
X376022Y371752D01*
X375938Y372668D01*
Y427830D01*
X375550Y429781D01*
X374445Y431435D01*
X359205Y446675D01*
X357551Y447780D01*
X355600Y448168D01*
X342870D01*
X342115Y448216D01*
X341633Y448279D01*
X341231Y448356D01*
X340946Y448432D01*
X340846Y448470D01*
X340763Y448593D01*
X339606Y449367D01*
X338240Y449638D01*
X327240D01*
X325874Y449367D01*
X324717Y448593D01*
X324197Y447816D01*
X323116Y447703D01*
X321236Y448310D01*
X321206Y448540D01*
X320893Y450920D01*
X319885Y453353D01*
X318282Y455442D01*
X316193Y457045D01*
X313761Y458053D01*
X311150Y458396D01*
D02*
G37*
G36*
X468630Y303456D02*
X466020Y303113D01*
X463587Y302105D01*
X461498Y300502D01*
X459895Y298413D01*
X458887Y295980D01*
X458544Y293370D01*
X458887Y290760D01*
X459895Y288327D01*
X461498Y286238D01*
X463587Y284635D01*
X466020Y283627D01*
X468630Y283284D01*
X471241Y283627D01*
X473673Y284635D01*
X475762Y286238D01*
X477365Y288327D01*
X478373Y290760D01*
X478716Y293370D01*
X478373Y295980D01*
X477365Y298413D01*
X475762Y300502D01*
X473673Y302105D01*
X471241Y303113D01*
X468630Y303456D01*
D02*
G37*
G36*
X151130Y89969D02*
X149779Y89792D01*
X147337Y88780D01*
X145239Y87171D01*
X143630Y85073D01*
X142618Y82631D01*
X142441Y81280D01*
X151130D01*
Y89969D01*
D02*
G37*
G36*
X383540Y155948D02*
Y144780D01*
X389875D01*
Y148510D01*
X389616Y150478D01*
X388856Y152312D01*
X387648Y153888D01*
X386073Y155096D01*
X384238Y155856D01*
X383540Y155948D01*
D02*
G37*
G36*
X40640Y121785D02*
X38682Y121527D01*
X36858Y120771D01*
X36411Y120428D01*
X34290Y119845D01*
X32169Y120428D01*
X31722Y120771D01*
X29898Y121527D01*
X27940Y121785D01*
X25982Y121527D01*
X24158Y120771D01*
X22591Y119569D01*
X21389Y118002D01*
X20633Y116178D01*
X20375Y114220D01*
Y104220D01*
X20633Y102262D01*
X21389Y100438D01*
X22591Y98871D01*
X24158Y97669D01*
X25982Y96913D01*
X27940Y96655D01*
X29898Y96913D01*
X31722Y97669D01*
X32169Y98012D01*
X32612Y98134D01*
X35135Y97292D01*
X35523Y96960D01*
X35542Y96719D01*
Y95250D01*
X35930Y93299D01*
X37035Y91645D01*
X40685Y87995D01*
X42339Y86890D01*
X44290Y86502D01*
X81440D01*
X83391Y86890D01*
X85045Y87995D01*
X86150Y89649D01*
X86331Y90560D01*
X93994D01*
X95013Y87560D01*
X94468Y87142D01*
X92865Y85053D01*
X91857Y82620D01*
X91514Y80010D01*
X91857Y77400D01*
X92865Y74967D01*
X94468Y72878D01*
X96557Y71275D01*
X98989Y70267D01*
X101600Y69924D01*
X104211Y70267D01*
X106643Y71275D01*
X108732Y72878D01*
X110335Y74967D01*
X111343Y77400D01*
X111686Y80010D01*
X111343Y82620D01*
X110335Y85053D01*
X108732Y87142D01*
X109439Y90381D01*
X110008Y91037D01*
X110181D01*
X110269Y90995D01*
X111364Y90263D01*
X112730Y89991D01*
X118653D01*
X118785Y89858D01*
X119898Y87165D01*
X119868Y87142D01*
X118265Y85053D01*
X117257Y82620D01*
X116914Y80010D01*
X117257Y77400D01*
X118265Y74967D01*
X119868Y72878D01*
X121840Y71364D01*
X121902Y70472D01*
Y69642D01*
X121792Y69088D01*
Y67869D01*
X121776Y67722D01*
X121677Y67702D01*
X120436Y66874D01*
X119607Y65633D01*
X119316Y64170D01*
Y52670D01*
X119607Y51207D01*
X120436Y49966D01*
X121677Y49138D01*
X123140Y48847D01*
X130640D01*
X132103Y49138D01*
X132526Y49420D01*
X139182D01*
X139661Y49100D01*
X141140Y48806D01*
X143620D01*
Y58420D01*
Y68034D01*
X141140D01*
X139661Y67740D01*
X139182Y67420D01*
X134503D01*
X132839Y68650D01*
X132823Y71874D01*
X134132Y72878D01*
X135735Y74967D01*
X136743Y77400D01*
X137086Y80010D01*
X136912Y81336D01*
X136922Y81386D01*
X136899Y81499D01*
X136911Y81613D01*
X136893Y81819D01*
X136897Y81862D01*
X136931Y82006D01*
X137023Y82248D01*
X137190Y82579D01*
X137438Y82984D01*
X137755Y83427D01*
X138463Y84263D01*
X139335Y85135D01*
X140440Y86789D01*
X140828Y88740D01*
Y89835D01*
X140863Y90147D01*
X140918Y90471D01*
X140978Y90712D01*
X141031Y90868D01*
X141039Y90886D01*
X141054Y90904D01*
X141253Y91037D01*
X141627Y91596D01*
X141672Y91650D01*
X141679Y91674D01*
X142027Y92194D01*
X142298Y93560D01*
Y104560D01*
X142027Y105926D01*
X141253Y107083D01*
X140096Y107857D01*
X138730Y108129D01*
X132730D01*
X131364Y107857D01*
X130920Y107560D01*
X120540D01*
X120096Y107857D01*
X118730Y108129D01*
X112730D01*
X111364Y107857D01*
X110269Y107125D01*
X110181Y107083D01*
X106989D01*
X106901Y107125D01*
X105806Y107857D01*
X104440Y108129D01*
X98440D01*
X97074Y107857D01*
X96630Y107560D01*
X86250D01*
X85806Y107857D01*
X84440Y108129D01*
X78440D01*
X77074Y107857D01*
X75917Y107083D01*
X75143Y105926D01*
X74872Y104560D01*
Y96698D01*
X60680D01*
X60447Y96952D01*
X59374Y99698D01*
X59926Y100417D01*
X60686Y102252D01*
X60945Y104220D01*
Y107950D01*
X53340D01*
Y109220D01*
X52070D01*
Y121658D01*
X51372Y121566D01*
X49538Y120806D01*
X49087Y120460D01*
X45989Y119569D01*
X44422Y120771D01*
X42598Y121527D01*
X40640Y121785D01*
D02*
G37*
G36*
X389875Y142240D02*
X383540D01*
Y131072D01*
X384238Y131164D01*
X386073Y131924D01*
X387648Y133132D01*
X388856Y134707D01*
X389616Y136542D01*
X389875Y138510D01*
Y142240D01*
D02*
G37*
G36*
X99460Y187090D02*
X88249D01*
X88513Y185086D01*
X89776Y182036D01*
X91786Y179416D01*
X94406Y177406D01*
X97456Y176143D01*
X99460Y175879D01*
Y187090D01*
D02*
G37*
G36*
X113211D02*
X102000D01*
Y175879D01*
X104003Y176143D01*
X107054Y177406D01*
X109673Y179416D01*
X111684Y182036D01*
X112947Y185086D01*
X113211Y187090D01*
D02*
G37*
G36*
X391210Y82004D02*
X388730D01*
Y73660D01*
X395075D01*
Y78140D01*
X394780Y79619D01*
X393943Y80872D01*
X392689Y81710D01*
X391210Y82004D01*
D02*
G37*
G36*
X234950Y191696D02*
X232339Y191353D01*
X229907Y190345D01*
X227818Y188742D01*
X226215Y186653D01*
X225207Y184221D01*
X224864Y181610D01*
X225207Y179000D01*
X226215Y176567D01*
X227818Y174478D01*
X229907Y172875D01*
X232339Y171867D01*
X234950Y171524D01*
X237561Y171867D01*
X239993Y172875D01*
X242082Y174478D01*
X243685Y176567D01*
X244693Y179000D01*
X245036Y181610D01*
X244693Y184221D01*
X243685Y186653D01*
X242082Y188742D01*
X239993Y190345D01*
X237561Y191353D01*
X234950Y191696D01*
D02*
G37*
G36*
X383540Y115308D02*
Y104140D01*
X389875D01*
Y107870D01*
X389616Y109838D01*
X388856Y111672D01*
X387648Y113248D01*
X386073Y114456D01*
X384238Y115216D01*
X383540Y115308D01*
D02*
G37*
G36*
X54610Y121658D02*
Y110490D01*
X60945D01*
Y114220D01*
X60686Y116188D01*
X59926Y118022D01*
X58718Y119598D01*
X57143Y120806D01*
X55308Y121566D01*
X54610Y121658D01*
D02*
G37*
G36*
X153670Y89969D02*
Y81280D01*
X162359D01*
X162182Y82631D01*
X161170Y85073D01*
X159561Y87171D01*
X157463Y88780D01*
X155021Y89792D01*
X153670Y89969D01*
D02*
G37*
G36*
X389875Y101600D02*
X383540D01*
Y90432D01*
X384238Y90524D01*
X386073Y91284D01*
X387648Y92492D01*
X388856Y94067D01*
X389616Y95902D01*
X389875Y97870D01*
Y101600D01*
D02*
G37*
G36*
X151130Y119270D02*
X142786D01*
Y116790D01*
X143080Y115311D01*
X143918Y114057D01*
X145171Y113220D01*
X146650Y112926D01*
X151130D01*
Y119270D01*
D02*
G37*
G36*
X369570Y115435D02*
X367612Y115177D01*
X365788Y114421D01*
X365341Y114079D01*
X363220Y113495D01*
X361099Y114079D01*
X360652Y114421D01*
X358828Y115177D01*
X356870Y115435D01*
X354912Y115177D01*
X353088Y114421D01*
X351521Y113219D01*
X350319Y111652D01*
X349563Y109828D01*
X349305Y107870D01*
Y97870D01*
X349563Y95912D01*
X350156Y94481D01*
X350174Y94388D01*
X350227Y94310D01*
X350319Y94088D01*
X350413Y93965D01*
X350440Y93903D01*
X350727Y93493D01*
X350934Y93136D01*
X351124Y92736D01*
X351296Y92288D01*
X351448Y91790D01*
X351577Y91241D01*
X351675Y90672D01*
X351772Y89612D01*
Y84772D01*
X350884Y83884D01*
X344770D01*
X343307Y83593D01*
X342066Y82764D01*
X341238Y81523D01*
X340947Y80060D01*
Y72560D01*
X341238Y71097D01*
X341520Y70674D01*
Y64018D01*
X341200Y63539D01*
X340906Y62060D01*
Y59580D01*
X360134D01*
Y62060D01*
X360096Y62253D01*
X360349Y62513D01*
X363006Y63936D01*
X364247Y63108D01*
X365710Y62817D01*
X373210D01*
X374673Y63108D01*
X375096Y63390D01*
X381752D01*
X382231Y63070D01*
X383710Y62776D01*
X386190D01*
Y72390D01*
Y82004D01*
X383710D01*
X382231Y81710D01*
X381752Y81390D01*
X375229D01*
X375109Y81544D01*
X374985Y81751D01*
X374863Y82017D01*
X374750Y82348D01*
X374652Y82750D01*
X374576Y83224D01*
X374558Y83425D01*
Y86932D01*
X374668Y87486D01*
Y89598D01*
X374686Y90016D01*
X374746Y90531D01*
X374995Y90758D01*
X376685Y91586D01*
X377216Y91686D01*
X377736Y91662D01*
X378082Y91578D01*
X378087Y91576D01*
X378467Y91284D01*
X380302Y90524D01*
X381000Y90432D01*
Y102870D01*
Y115308D01*
X380302Y115216D01*
X378467Y114456D01*
X378017Y114110D01*
X374919Y113219D01*
X373352Y114421D01*
X371528Y115177D01*
X369570Y115435D01*
D02*
G37*
G36*
X100330Y119270D02*
X91986D01*
Y116790D01*
X92280Y115311D01*
X93118Y114057D01*
X94371Y113220D01*
X95850Y112926D01*
X100330D01*
Y119270D01*
D02*
G37*
G36*
X111214D02*
X102870D01*
Y112926D01*
X107350D01*
X108829Y113220D01*
X110082Y114057D01*
X110920Y115311D01*
X111214Y116790D01*
Y119270D01*
D02*
G37*
G36*
X99460Y200841D02*
X97456Y200577D01*
X94406Y199314D01*
X91786Y197303D01*
X89776Y194684D01*
X88513Y191633D01*
X88249Y189630D01*
X99460D01*
Y200841D01*
D02*
G37*
G36*
X360134Y57040D02*
X351790D01*
Y50696D01*
X356270D01*
X357749Y50990D01*
X359002Y51827D01*
X359840Y53081D01*
X360134Y54560D01*
Y57040D01*
D02*
G37*
G36*
X273100Y242024D02*
X270620D01*
Y233680D01*
X276964D01*
Y238160D01*
X276670Y239639D01*
X275833Y240892D01*
X274579Y241730D01*
X273100Y242024D01*
D02*
G37*
G36*
X467360Y231030D02*
X459016D01*
Y228550D01*
X459310Y227071D01*
X460148Y225817D01*
X461401Y224980D01*
X462880Y224685D01*
X467360D01*
Y231030D01*
D02*
G37*
G36*
X478244D02*
X469900D01*
Y224685D01*
X474380D01*
X475859Y224980D01*
X477112Y225817D01*
X477950Y227071D01*
X478244Y228550D01*
Y231030D01*
D02*
G37*
G36*
X361404Y271670D02*
X353060D01*
Y265326D01*
X357540D01*
X359019Y265620D01*
X360272Y266457D01*
X361110Y267711D01*
X361404Y269190D01*
Y271670D01*
D02*
G37*
G36*
X396344Y285750D02*
X390000D01*
Y277406D01*
X392480D01*
X393959Y277700D01*
X395213Y278538D01*
X396050Y279791D01*
X396344Y281270D01*
Y285750D01*
D02*
G37*
G36*
X152505Y273050D02*
X146160D01*
Y264706D01*
X148640D01*
X150119Y265000D01*
X151373Y265838D01*
X152210Y267091D01*
X152505Y268570D01*
Y273050D01*
D02*
G37*
G36*
X350520Y271670D02*
X342176D01*
Y269190D01*
X342470Y267711D01*
X343308Y266457D01*
X344561Y265620D01*
X346040Y265326D01*
X350520D01*
Y271670D01*
D02*
G37*
G36*
X273100Y216624D02*
X270620D01*
Y208280D01*
X276964D01*
Y212760D01*
X276670Y214239D01*
X275833Y215492D01*
X274579Y216330D01*
X273100Y216624D01*
D02*
G37*
G36*
X162359Y78740D02*
X142441D01*
X142618Y77389D01*
X143630Y74947D01*
X145239Y72849D01*
X147337Y71240D01*
X147834Y71034D01*
X147237Y68034D01*
X146160D01*
Y59690D01*
X152505D01*
Y64170D01*
X152210Y65649D01*
X151373Y66902D01*
X151204Y67015D01*
X152289Y69898D01*
X152400Y69883D01*
X155021Y70228D01*
X157463Y71240D01*
X159561Y72849D01*
X161170Y74947D01*
X162182Y77389D01*
X162359Y78740D01*
D02*
G37*
G36*
X102000Y200841D02*
Y189630D01*
X113211D01*
X112947Y191633D01*
X111684Y194684D01*
X109673Y197303D01*
X107054Y199314D01*
X104003Y200577D01*
X102000Y200841D01*
D02*
G37*
G36*
X276964Y205740D02*
X270620D01*
Y197396D01*
X273100D01*
X274579Y197690D01*
X275833Y198528D01*
X276670Y199781D01*
X276964Y201260D01*
Y205740D01*
D02*
G37*
G36*
X395075Y71120D02*
X388730D01*
Y62776D01*
X391210D01*
X392689Y63070D01*
X393943Y63908D01*
X394780Y65161D01*
X395075Y66640D01*
Y71120D01*
D02*
G37*
G36*
X276964Y231140D02*
X270620D01*
Y222796D01*
X273100D01*
X274579Y223090D01*
X275833Y223928D01*
X276670Y225181D01*
X276964Y226660D01*
Y231140D01*
D02*
G37*
G36*
X150730Y225968D02*
X147467Y225538D01*
X144426Y224279D01*
X141815Y222275D01*
X140489Y220547D01*
X139566Y220360D01*
X137694Y220487D01*
X137021Y220749D01*
X136724Y221194D01*
X135483Y222023D01*
X134020Y222314D01*
X122520D01*
X121057Y222023D01*
X119816Y221194D01*
X118988Y219953D01*
X118697Y218490D01*
Y210990D01*
X118988Y209527D01*
X119270Y209104D01*
Y202376D01*
X118988Y201953D01*
X118697Y200490D01*
Y192990D01*
X118988Y191527D01*
X119816Y190286D01*
X121057Y189457D01*
X122520Y189166D01*
X122943D01*
X122949Y189153D01*
X123051Y188773D01*
X123139Y188237D01*
X123172Y187864D01*
Y179039D01*
X122290Y177719D01*
X121902Y175768D01*
Y168169D01*
X121858Y167674D01*
X121748Y166958D01*
X121597Y166301D01*
X121410Y165701D01*
X121188Y165153D01*
X120934Y164653D01*
X120646Y164195D01*
X120324Y163776D01*
X120052Y163483D01*
X119868Y163342D01*
X118265Y161253D01*
X117257Y158820D01*
X116914Y156210D01*
X117257Y153600D01*
X118265Y151167D01*
X119868Y149078D01*
X121957Y147475D01*
X124389Y146467D01*
X127000Y146124D01*
X129611Y146467D01*
X132043Y147475D01*
X134132Y149078D01*
X135735Y151167D01*
X136743Y153600D01*
X137086Y156210D01*
X136743Y158820D01*
X135735Y161253D01*
X134132Y163342D01*
X133948Y163483D01*
X133676Y163776D01*
X133354Y164195D01*
X133066Y164653D01*
X132812Y165152D01*
X132590Y165701D01*
X132403Y166301D01*
X132253Y166958D01*
X132142Y167674D01*
X132098Y168169D01*
Y173767D01*
X132980Y175087D01*
X133368Y177038D01*
Y187864D01*
X133401Y188237D01*
X133489Y188773D01*
X133591Y189153D01*
X133596Y189166D01*
X134020D01*
X135483Y189457D01*
X136724Y190286D01*
X137552Y191527D01*
X137843Y192990D01*
Y200490D01*
X137552Y201953D01*
X137270Y202376D01*
Y205678D01*
X137733Y205929D01*
X140270Y206458D01*
X141815Y204445D01*
X144426Y202441D01*
X147467Y201182D01*
X150730Y200752D01*
X153993Y201182D01*
X157034Y202441D01*
X159645Y204445D01*
X161649Y207056D01*
X162908Y210097D01*
X163338Y213360D01*
X162908Y216623D01*
X161649Y219664D01*
X159645Y222275D01*
X157034Y224279D01*
X153993Y225538D01*
X150730Y225968D01*
D02*
G37*
G36*
X234950Y242496D02*
X232339Y242153D01*
X229907Y241145D01*
X227818Y239542D01*
X226215Y237453D01*
X225207Y235021D01*
X224864Y232410D01*
X225207Y229799D01*
X226215Y227367D01*
X227818Y225278D01*
X229907Y223675D01*
X232339Y222667D01*
X234950Y222324D01*
X237561Y222667D01*
X239993Y223675D01*
X241155Y224567D01*
X241628Y224669D01*
X244414Y224296D01*
X244507Y224247D01*
X244896Y223956D01*
X246137Y223128D01*
X247600Y222837D01*
X255100D01*
X256563Y223128D01*
X256986Y223410D01*
X263642D01*
X264121Y223090D01*
X265600Y222796D01*
X268080D01*
Y232410D01*
Y242024D01*
X265600D01*
X264121Y241730D01*
X263642Y241410D01*
X256986D01*
X256563Y241692D01*
X255100Y241983D01*
X247600D01*
X246137Y241692D01*
X244896Y240864D01*
X244507Y240573D01*
X244414Y240524D01*
X241628Y240151D01*
X241155Y240253D01*
X239993Y241145D01*
X237561Y242153D01*
X234950Y242496D01*
D02*
G37*
G36*
X99460Y635181D02*
X97456Y634917D01*
X94406Y633653D01*
X91786Y631643D01*
X89776Y629024D01*
X88513Y625973D01*
X88249Y623970D01*
X99460D01*
Y635181D01*
D02*
G37*
G36*
X102000D02*
Y623970D01*
X113211D01*
X112947Y625973D01*
X111684Y629024D01*
X109673Y631643D01*
X107054Y633653D01*
X104003Y634917D01*
X102000Y635181D01*
D02*
G37*
G36*
X153670Y521769D02*
Y513080D01*
X162359D01*
X162182Y514431D01*
X161170Y516873D01*
X159561Y518971D01*
X157463Y520580D01*
X155021Y521592D01*
X153670Y521769D01*
D02*
G37*
G36*
X99460Y621430D02*
X88249D01*
X88513Y619426D01*
X89776Y616376D01*
X91786Y613756D01*
X94406Y611746D01*
X97456Y610483D01*
X99460Y610219D01*
Y621430D01*
D02*
G37*
G36*
X113211D02*
X102000D01*
Y610219D01*
X104003Y610483D01*
X107054Y611746D01*
X109673Y613756D01*
X111684Y616376D01*
X112947Y619426D01*
X113211Y621430D01*
D02*
G37*
G36*
X391145Y530860D02*
X384810D01*
Y519692D01*
X385508Y519784D01*
X387342Y520544D01*
X388918Y521752D01*
X390126Y523327D01*
X390886Y525162D01*
X391145Y527130D01*
Y530860D01*
D02*
G37*
G36*
X162359Y510540D02*
X142441D01*
X142618Y509189D01*
X143630Y506747D01*
X145239Y504649D01*
X147337Y503040D01*
X147834Y502834D01*
X147237Y499834D01*
X146160D01*
Y491490D01*
X152505D01*
Y495970D01*
X152210Y497449D01*
X151373Y498702D01*
X151204Y498815D01*
X152289Y501698D01*
X152400Y501683D01*
X155021Y502028D01*
X157463Y503040D01*
X159561Y504649D01*
X161170Y506747D01*
X162182Y509189D01*
X162359Y510540D01*
D02*
G37*
G36*
X273100Y648424D02*
X270620D01*
Y640080D01*
X276964D01*
Y644560D01*
X276670Y646039D01*
X275833Y647292D01*
X274579Y648130D01*
X273100Y648424D01*
D02*
G37*
G36*
X395075Y502920D02*
X388730D01*
Y494576D01*
X391210D01*
X392689Y494870D01*
X393943Y495708D01*
X394780Y496961D01*
X395075Y498440D01*
Y502920D01*
D02*
G37*
G36*
X151130Y521769D02*
X149779Y521592D01*
X147337Y520580D01*
X145239Y518971D01*
X143630Y516873D01*
X142618Y514431D01*
X142441Y513080D01*
X151130D01*
Y521769D01*
D02*
G37*
G36*
X276964Y637540D02*
X270620D01*
Y629196D01*
X273100D01*
X274579Y629490D01*
X275833Y630328D01*
X276670Y631581D01*
X276964Y633060D01*
Y637540D01*
D02*
G37*
G36*
X391210Y513804D02*
X388730D01*
Y505460D01*
X395075D01*
Y509940D01*
X394780Y511419D01*
X393943Y512672D01*
X392689Y513510D01*
X391210Y513804D01*
D02*
G37*
G36*
X40640Y553585D02*
X38682Y553327D01*
X36858Y552571D01*
X36411Y552229D01*
X34290Y551645D01*
X32169Y552229D01*
X31722Y552571D01*
X29898Y553327D01*
X27940Y553585D01*
X25982Y553327D01*
X24158Y552571D01*
X22591Y551369D01*
X21389Y549802D01*
X20633Y547978D01*
X20375Y546020D01*
Y536020D01*
X20633Y534062D01*
X21389Y532238D01*
X22591Y530671D01*
X24158Y529469D01*
X25982Y528713D01*
X27940Y528455D01*
X29898Y528713D01*
X31722Y529469D01*
X32106Y529763D01*
X32119Y529768D01*
X32537Y529863D01*
X33025Y529877D01*
X33619Y529753D01*
X35147Y528998D01*
X35454Y528721D01*
X35542Y527762D01*
Y520700D01*
X35930Y518749D01*
X37035Y517095D01*
X37637Y516493D01*
X39291Y515388D01*
X41242Y515000D01*
X81440D01*
X83391Y515388D01*
X85045Y516493D01*
X86150Y518147D01*
X86538Y520098D01*
Y521090D01*
X92508D01*
X92747Y520827D01*
X93814Y518090D01*
X92865Y516853D01*
X91857Y514421D01*
X91514Y511810D01*
X91857Y509199D01*
X92865Y506767D01*
X94468Y504678D01*
X96557Y503075D01*
X98989Y502067D01*
X101600Y501724D01*
X104211Y502067D01*
X106643Y503075D01*
X108732Y504678D01*
X110335Y506767D01*
X111343Y509199D01*
X111686Y511810D01*
X111343Y514421D01*
X110335Y516853D01*
X108732Y518942D01*
X108714Y518956D01*
X110462Y521396D01*
X111364Y520793D01*
X112730Y520521D01*
X117298D01*
X118800Y517551D01*
X118265Y516853D01*
X117257Y514421D01*
X116914Y511810D01*
X117257Y509199D01*
X118265Y506767D01*
X119868Y504678D01*
X121840Y503164D01*
X121902Y502272D01*
Y501442D01*
X121792Y500888D01*
Y499669D01*
X121776Y499522D01*
X121677Y499502D01*
X120436Y498674D01*
X119607Y497433D01*
X119316Y495970D01*
Y484470D01*
X119607Y483007D01*
X120436Y481766D01*
X121677Y480938D01*
X123140Y480647D01*
X130640D01*
X132103Y480938D01*
X132526Y481220D01*
X139182D01*
X139661Y480900D01*
X141140Y480606D01*
X143620D01*
Y490220D01*
Y499834D01*
X141140D01*
X139661Y499540D01*
X139182Y499220D01*
X134503D01*
X132839Y500450D01*
X132823Y503674D01*
X134132Y504678D01*
X135735Y506767D01*
X136743Y509199D01*
X137086Y511810D01*
X136912Y513136D01*
X136922Y513186D01*
X136899Y513299D01*
X136911Y513413D01*
X136893Y513619D01*
X136897Y513662D01*
X136931Y513806D01*
X137023Y514048D01*
X137190Y514379D01*
X137438Y514784D01*
X137755Y515227D01*
X138463Y516063D01*
X139335Y516935D01*
X140440Y518589D01*
X140828Y520540D01*
Y521282D01*
X141253Y521567D01*
X142027Y522724D01*
X142298Y524090D01*
Y535090D01*
X142027Y536456D01*
X141253Y537613D01*
X140096Y538387D01*
X138730Y538659D01*
X132730D01*
X131364Y538387D01*
X130920Y538090D01*
X120540D01*
X120096Y538387D01*
X118730Y538659D01*
X112730D01*
X111364Y538387D01*
X110269Y537655D01*
X110181Y537613D01*
X106989D01*
X106901Y537655D01*
X105806Y538387D01*
X104440Y538659D01*
X98440D01*
X97074Y538387D01*
X96630Y538090D01*
X86250D01*
X85806Y538387D01*
X84440Y538659D01*
X78440D01*
X77074Y538387D01*
X75917Y537613D01*
X75143Y536456D01*
X74872Y535090D01*
Y525196D01*
X48067D01*
X46800Y528184D01*
X46827Y528219D01*
X49538Y529434D01*
X51372Y528674D01*
X52070Y528582D01*
Y541020D01*
Y553458D01*
X51372Y553366D01*
X49538Y552606D01*
X49087Y552260D01*
X45989Y551369D01*
X44422Y552571D01*
X42598Y553327D01*
X40640Y553585D01*
D02*
G37*
G36*
X151130Y551070D02*
X142786D01*
Y548590D01*
X143080Y547111D01*
X143918Y545857D01*
X145171Y545020D01*
X146650Y544725D01*
X151130D01*
Y551070D01*
D02*
G37*
G36*
X234950Y623496D02*
X232339Y623153D01*
X229907Y622145D01*
X227818Y620542D01*
X226215Y618453D01*
X225207Y616021D01*
X224864Y613410D01*
X225207Y610799D01*
X226215Y608367D01*
X227818Y606278D01*
X229907Y604675D01*
X232339Y603667D01*
X234950Y603324D01*
X237561Y603667D01*
X239993Y604675D01*
X242082Y606278D01*
X243685Y608367D01*
X244693Y610799D01*
X245036Y613410D01*
X244693Y616021D01*
X243685Y618453D01*
X242082Y620542D01*
X239993Y622145D01*
X237561Y623153D01*
X234950Y623496D01*
D02*
G37*
G36*
X384810Y587748D02*
Y576580D01*
X391145D01*
Y580310D01*
X390886Y582278D01*
X390126Y584113D01*
X388918Y585688D01*
X387342Y586896D01*
X385508Y587656D01*
X384810Y587748D01*
D02*
G37*
G36*
X309880Y586740D02*
X301110D01*
Y577970D01*
X309880D01*
Y586740D01*
D02*
G37*
G36*
X391145Y574040D02*
X384810D01*
Y562872D01*
X385508Y562964D01*
X387342Y563724D01*
X388918Y564932D01*
X390126Y566507D01*
X390886Y568342D01*
X391145Y570310D01*
Y574040D01*
D02*
G37*
G36*
X54610Y553458D02*
Y542290D01*
X60945D01*
Y546020D01*
X60686Y547988D01*
X59926Y549823D01*
X58718Y551398D01*
X57143Y552606D01*
X55308Y553366D01*
X54610Y553458D01*
D02*
G37*
G36*
X384810Y544568D02*
Y533400D01*
X391145D01*
Y537130D01*
X390886Y539098D01*
X390126Y540933D01*
X388918Y542508D01*
X387342Y543716D01*
X385508Y544476D01*
X384810Y544568D01*
D02*
G37*
G36*
X60945Y539750D02*
X54610D01*
Y528582D01*
X55308Y528674D01*
X57143Y529434D01*
X58718Y530642D01*
X59926Y532217D01*
X60686Y534052D01*
X60945Y536020D01*
Y539750D01*
D02*
G37*
G36*
X111214Y551070D02*
X102870D01*
Y544725D01*
X107350D01*
X108829Y545020D01*
X110082Y545857D01*
X110920Y547111D01*
X111214Y548590D01*
Y551070D01*
D02*
G37*
G36*
X100330D02*
X91986D01*
Y548590D01*
X92280Y547111D01*
X93118Y545857D01*
X94371Y545020D01*
X95850Y544725D01*
X100330D01*
Y551070D01*
D02*
G37*
G36*
X370840Y544695D02*
X368882Y544437D01*
X367058Y543681D01*
X366611Y543339D01*
X364490Y542755D01*
X362369Y543339D01*
X361922Y543681D01*
X360098Y544437D01*
X358140Y544695D01*
X356182Y544437D01*
X354358Y543681D01*
X352791Y542479D01*
X351589Y540912D01*
X350833Y539088D01*
X350575Y537130D01*
Y527130D01*
X350833Y525172D01*
X351426Y523741D01*
X351444Y523648D01*
X351497Y523570D01*
X351589Y523348D01*
X351683Y523225D01*
X351710Y523163D01*
X351997Y522753D01*
X352204Y522396D01*
X352394Y521996D01*
X352566Y521548D01*
X352718Y521050D01*
X352847Y520501D01*
X352945Y519932D01*
X350919Y516954D01*
X344770D01*
X343307Y516663D01*
X342066Y515834D01*
X341238Y514593D01*
X340947Y513130D01*
Y505630D01*
X341238Y504167D01*
X341520Y503744D01*
Y497088D01*
X341200Y496609D01*
X340906Y495130D01*
Y492650D01*
X360134D01*
Y494635D01*
X361282Y495350D01*
X363072Y495692D01*
X364247Y494908D01*
X365710Y494617D01*
X373210D01*
X374673Y494908D01*
X375096Y495190D01*
X381752D01*
X382231Y494870D01*
X383710Y494576D01*
X386190D01*
Y504190D01*
Y513804D01*
X383710D01*
X382231Y513510D01*
X381752Y513190D01*
X376325D01*
X375084Y516130D01*
X375550Y516827D01*
X375938Y518778D01*
Y519836D01*
X376590Y520397D01*
X377471Y520851D01*
X378678Y521065D01*
X379287Y520890D01*
X379738Y520544D01*
X381572Y519784D01*
X382270Y519692D01*
Y532130D01*
Y544568D01*
X381572Y544476D01*
X379738Y543716D01*
X379287Y543370D01*
X376189Y542479D01*
X374622Y543681D01*
X372798Y544437D01*
X370840Y544695D01*
D02*
G37*
G36*
X234950Y458396D02*
X232339Y458053D01*
X229907Y457045D01*
X227818Y455442D01*
X226215Y453353D01*
X225207Y450920D01*
X224864Y448310D01*
X225207Y445700D01*
X226215Y443267D01*
X227818Y441178D01*
X229907Y439575D01*
X232339Y438567D01*
X234950Y438224D01*
X237561Y438567D01*
X239993Y439575D01*
X241155Y440467D01*
X241628Y440569D01*
X244414Y440196D01*
X244507Y440147D01*
X244896Y439856D01*
X246137Y439028D01*
X247600Y438737D01*
X255100D01*
X256563Y439028D01*
X256986Y439310D01*
X263642D01*
X264121Y438990D01*
X265600Y438696D01*
X268080D01*
Y448310D01*
Y457924D01*
X265600D01*
X264121Y457630D01*
X263642Y457310D01*
X256986D01*
X256563Y457592D01*
X255100Y457883D01*
X247600D01*
X246137Y457592D01*
X244896Y456764D01*
X244507Y456473D01*
X244414Y456424D01*
X241628Y456051D01*
X241155Y456153D01*
X239993Y457045D01*
X237561Y458053D01*
X234950Y458396D01*
D02*
G37*
G36*
X150730Y443138D02*
X147467Y442708D01*
X144426Y441449D01*
X141815Y439445D01*
X140107Y437219D01*
X138247Y436966D01*
X136724Y437094D01*
X135483Y437923D01*
X134020Y438214D01*
X122520D01*
X121057Y437923D01*
X119816Y437094D01*
X118988Y435853D01*
X118697Y434390D01*
Y426890D01*
X118988Y425427D01*
X119270Y425004D01*
Y418276D01*
X118988Y417853D01*
X118697Y416390D01*
Y408890D01*
X118988Y407427D01*
X119816Y406186D01*
X121057Y405357D01*
X122520Y405066D01*
X122943D01*
X122949Y405053D01*
X123051Y404673D01*
X123139Y404137D01*
X123172Y403764D01*
Y394939D01*
X122290Y393619D01*
X121902Y391668D01*
Y384069D01*
X121858Y383574D01*
X121748Y382858D01*
X121597Y382201D01*
X121410Y381601D01*
X121188Y381053D01*
X120934Y380553D01*
X120646Y380095D01*
X120324Y379676D01*
X120052Y379383D01*
X119868Y379242D01*
X118265Y377153D01*
X117257Y374720D01*
X116914Y372110D01*
X117257Y369500D01*
X118265Y367067D01*
X119868Y364978D01*
X121957Y363375D01*
X124389Y362367D01*
X127000Y362024D01*
X129611Y362367D01*
X132043Y363375D01*
X134132Y364978D01*
X135735Y367067D01*
X136743Y369500D01*
X137086Y372110D01*
X136743Y374720D01*
X135735Y377153D01*
X134132Y379242D01*
X133948Y379383D01*
X133676Y379676D01*
X133354Y380095D01*
X133066Y380553D01*
X132812Y381053D01*
X132590Y381601D01*
X132403Y382201D01*
X132253Y382858D01*
X132142Y383574D01*
X132098Y384069D01*
Y389667D01*
X132980Y390987D01*
X133368Y392938D01*
Y403764D01*
X133401Y404137D01*
X133489Y404673D01*
X133591Y405053D01*
X133596Y405066D01*
X134020D01*
X135483Y405357D01*
X136724Y406186D01*
X137552Y407427D01*
X137843Y408890D01*
Y416390D01*
X137552Y417853D01*
X137270Y418276D01*
Y422848D01*
X137733Y423099D01*
X140270Y423629D01*
X141815Y421615D01*
X144426Y419611D01*
X147467Y418352D01*
X150730Y417922D01*
X153993Y418352D01*
X157034Y419611D01*
X159645Y421615D01*
X161649Y424226D01*
X162908Y427267D01*
X163338Y430530D01*
X162908Y433793D01*
X161649Y436834D01*
X159645Y439445D01*
X157034Y441449D01*
X153993Y442708D01*
X150730Y443138D01*
D02*
G37*
G36*
X276964Y447040D02*
X270620D01*
Y438696D01*
X273100D01*
X274579Y438990D01*
X275833Y439828D01*
X276670Y441081D01*
X276964Y442560D01*
Y447040D01*
D02*
G37*
G36*
X273100Y457924D02*
X270620D01*
Y449580D01*
X276964D01*
Y454060D01*
X276670Y455539D01*
X275833Y456792D01*
X274579Y457630D01*
X273100Y457924D01*
D02*
G37*
G36*
X311150Y674296D02*
X308540Y673953D01*
X306107Y672945D01*
X304018Y671342D01*
X302415Y669253D01*
X301407Y666821D01*
X301064Y664210D01*
X301407Y661600D01*
X302415Y659167D01*
X304018Y657078D01*
X306107Y655475D01*
X308540Y654467D01*
X311150Y654124D01*
X313761Y654467D01*
X316193Y655475D01*
X318282Y657078D01*
X319885Y659167D01*
X320735Y661219D01*
X320893Y661599D01*
X323671Y660869D01*
X323671Y660867D01*
Y655970D01*
X323943Y654604D01*
X324240Y654160D01*
Y644212D01*
X324043Y644168D01*
X323678Y644112D01*
X323094Y644068D01*
X321978D01*
X321174Y643908D01*
X319843D01*
X318282Y645942D01*
X316193Y647545D01*
X313761Y648553D01*
X311150Y648896D01*
X308540Y648553D01*
X306107Y647545D01*
X304018Y645942D01*
X302415Y643853D01*
X301407Y641421D01*
X301064Y638810D01*
X301407Y636199D01*
X302415Y633767D01*
X304018Y631678D01*
X306107Y630075D01*
X308540Y629067D01*
X311150Y628724D01*
X313761Y629067D01*
X316193Y630075D01*
X318282Y631678D01*
X319813Y633674D01*
X320447Y633712D01*
X321818D01*
X322622Y633872D01*
X323249D01*
X323649Y633832D01*
X324043Y633772D01*
X324346Y633704D01*
X324550Y633641D01*
X324601Y633620D01*
X324717Y633447D01*
X325320Y633044D01*
X325356Y633014D01*
X325370Y633010D01*
X325874Y632673D01*
X327240Y632402D01*
X338240D01*
X339606Y632673D01*
X340763Y633447D01*
X341537Y634604D01*
X341809Y635970D01*
Y638449D01*
X344809Y639692D01*
X365742Y618758D01*
Y588582D01*
X365724Y588164D01*
X365659Y587607D01*
X365360Y587338D01*
X363819Y586577D01*
X363225Y586453D01*
X362737Y586467D01*
X362319Y586562D01*
X362306Y586567D01*
X361922Y586861D01*
X360098Y587617D01*
X358140Y587875D01*
X356182Y587617D01*
X354358Y586861D01*
X352791Y585659D01*
X351589Y584092D01*
X350833Y582268D01*
X350575Y580310D01*
Y570310D01*
X350690Y569438D01*
X349108Y567007D01*
X348379Y566438D01*
X262980D01*
X262608Y566471D01*
X262072Y566559D01*
X261692Y566661D01*
X261679Y566666D01*
Y566840D01*
X261407Y568206D01*
X260633Y569363D01*
X259476Y570137D01*
X258110Y570409D01*
X252110D01*
X250716Y573190D01*
Y579040D01*
X267288Y595612D01*
X301110D01*
Y589280D01*
X311150D01*
Y588010D01*
X312420D01*
Y577970D01*
X321190D01*
Y586175D01*
X321798Y586694D01*
X324717Y587727D01*
X325874Y586953D01*
X327240Y586682D01*
X338240D01*
X339606Y586953D01*
X340763Y587727D01*
X341537Y588884D01*
X341809Y590250D01*
Y596250D01*
X341537Y597616D01*
X341240Y598060D01*
Y608440D01*
X341537Y608884D01*
X341809Y610250D01*
Y616250D01*
X341537Y617616D01*
X340763Y618773D01*
X339606Y619547D01*
X338240Y619818D01*
X327240D01*
X325874Y619547D01*
X325370Y619210D01*
X325356Y619206D01*
X325320Y619176D01*
X324717Y618773D01*
X324601Y618600D01*
X324550Y618579D01*
X324346Y618516D01*
X324043Y618448D01*
X323678Y618392D01*
X323094Y618348D01*
X322622D01*
X321818Y618508D01*
X319843D01*
X318282Y620542D01*
X316193Y622145D01*
X313761Y623153D01*
X311150Y623496D01*
X308540Y623153D01*
X306107Y622145D01*
X304018Y620542D01*
X303877Y620358D01*
X303584Y620086D01*
X303165Y619764D01*
X302707Y619476D01*
X302208Y619222D01*
X301659Y619000D01*
X301059Y618813D01*
X300402Y618662D01*
X299686Y618552D01*
X299191Y618508D01*
X268701D01*
X261213Y625997D01*
X262301Y629151D01*
X264091Y629510D01*
X264121Y629490D01*
X265600Y629196D01*
X268080D01*
Y638810D01*
Y648424D01*
X265600D01*
X264121Y648130D01*
X263642Y647810D01*
X256986D01*
X256563Y648092D01*
X255100Y648383D01*
X247600D01*
X246137Y648092D01*
X244896Y647264D01*
X244507Y646973D01*
X244414Y646924D01*
X241628Y646551D01*
X241155Y646653D01*
X239993Y647545D01*
X237561Y648553D01*
X234950Y648896D01*
X232339Y648553D01*
X229907Y647545D01*
X227818Y645942D01*
X226215Y643853D01*
X225207Y641421D01*
X224864Y638810D01*
X225207Y636199D01*
X226215Y633767D01*
X227818Y631678D01*
X229907Y630075D01*
X232339Y629067D01*
X234950Y628724D01*
X237561Y629067D01*
X239993Y630075D01*
X241155Y630967D01*
X241628Y631069D01*
X244414Y630696D01*
X244507Y630647D01*
X244896Y630356D01*
X246137Y629528D01*
X246252Y629505D01*
Y628650D01*
X246640Y626699D01*
X247745Y625045D01*
X262985Y609805D01*
X264570Y608746D01*
X264625Y608422D01*
X264489Y605671D01*
X263225Y605420D01*
X261571Y604315D01*
X247737Y590480D01*
X246602Y590533D01*
X244383Y591369D01*
X243685Y593053D01*
X242082Y595142D01*
X239993Y596745D01*
X237561Y597753D01*
X234950Y598096D01*
X232339Y597753D01*
X229907Y596745D01*
X227818Y595142D01*
X226215Y593053D01*
X225207Y590620D01*
X224864Y588010D01*
X225207Y585400D01*
X226215Y582967D01*
X227337Y581505D01*
X227385Y577649D01*
Y574708D01*
X227643Y572750D01*
X228399Y570926D01*
X228436Y570877D01*
X228251Y569249D01*
X227849Y567699D01*
X227691Y567618D01*
X227234Y567441D01*
X226713Y567295D01*
X226121Y567184D01*
X225810Y567152D01*
X212615D01*
X211357Y567673D01*
X209660Y567896D01*
X207963Y567673D01*
X206382Y567018D01*
X205024Y565976D01*
X203983Y564618D01*
X203328Y563037D01*
X203119Y561450D01*
X197368D01*
X196889Y561770D01*
X195410Y562064D01*
X192930D01*
Y552450D01*
X190390D01*
Y562064D01*
X187910D01*
X186431Y561770D01*
X185177Y560932D01*
X184720Y560248D01*
X181844Y560696D01*
X181720Y560747D01*
Y564704D01*
X182002Y565127D01*
X182293Y566590D01*
Y573145D01*
X182510Y573469D01*
X182898Y575420D01*
Y576650D01*
X182931Y577019D01*
X183019Y577548D01*
X183120Y577923D01*
X183155Y578010D01*
X187800D01*
Y598010D01*
X167800D01*
Y578010D01*
X166970Y577914D01*
X165507Y577623D01*
X165507Y577623D01*
X165079Y577337D01*
X164266Y576794D01*
X164263Y576788D01*
X160857D01*
X160854Y576794D01*
X159856Y577460D01*
X159490Y578862D01*
X159346Y580735D01*
X159348Y580737D01*
X159532Y580878D01*
X161135Y582967D01*
X162143Y585400D01*
X162486Y588010D01*
X162143Y590620D01*
X161135Y593053D01*
X159532Y595142D01*
X157443Y596745D01*
X155010Y597753D01*
X152400Y598096D01*
X149789Y597753D01*
X147357Y596745D01*
X145268Y595142D01*
X143665Y593053D01*
X142657Y590620D01*
X142314Y588010D01*
X142657Y585400D01*
X143665Y582967D01*
X145268Y580878D01*
X145452Y580737D01*
X145454Y580735D01*
X145310Y578863D01*
X144944Y577460D01*
X143946Y576794D01*
X143118Y575553D01*
X142827Y574090D01*
Y566590D01*
X143118Y565127D01*
X143400Y564704D01*
Y558048D01*
X143080Y557569D01*
X142786Y556090D01*
Y553610D01*
X152400D01*
Y552340D01*
X153670D01*
Y544725D01*
X158150D01*
X159629Y545020D01*
X160830Y545823D01*
X160900Y545857D01*
X162560D01*
X164220D01*
X164289Y545823D01*
X165491Y545020D01*
X166970Y544725D01*
X171450D01*
Y552340D01*
X173990D01*
Y544725D01*
X178470D01*
X179949Y545020D01*
X181202Y545857D01*
X184340Y545221D01*
X185177Y543968D01*
X185517Y543741D01*
X185671Y543184D01*
X185613Y540693D01*
X185517Y540407D01*
X185137Y540153D01*
X184363Y538996D01*
X184091Y537630D01*
Y526630D01*
X184310Y525530D01*
X182652Y523871D01*
X182271Y523552D01*
X181686Y523125D01*
X181115Y522766D01*
X180558Y522474D01*
X180014Y522243D01*
X179480Y522069D01*
X178954Y521950D01*
X178429Y521881D01*
X178030Y521866D01*
X177800Y521896D01*
X175189Y521553D01*
X172757Y520545D01*
X170668Y518942D01*
X169065Y516853D01*
X168057Y514421D01*
X167714Y511810D01*
X168057Y509199D01*
X169065Y506767D01*
X170668Y504678D01*
X172757Y503075D01*
X175189Y502067D01*
X177800Y501724D01*
X180410Y502067D01*
X182843Y503075D01*
X184932Y504678D01*
X186535Y506767D01*
X187543Y509199D01*
X187856Y511578D01*
X190280Y513098D01*
X190407Y513165D01*
X191055Y513076D01*
X191085Y513065D01*
X199755Y504395D01*
X201409Y503290D01*
X203360Y502902D01*
X225204D01*
X227155Y503290D01*
X228809Y504395D01*
X249223Y524809D01*
X250328Y526463D01*
X250716Y528414D01*
Y549490D01*
X252110Y552271D01*
X258110D01*
X259476Y552543D01*
X260633Y553317D01*
X261407Y554474D01*
X261679Y555840D01*
Y556013D01*
X261692Y556019D01*
X262072Y556121D01*
X262608Y556209D01*
X262980Y556242D01*
X354330D01*
X356281Y556630D01*
X357935Y557735D01*
X361745Y561545D01*
X362850Y563199D01*
X365524Y564401D01*
X366611Y564101D01*
X367058Y563759D01*
X368882Y563003D01*
X370840Y562745D01*
X372798Y563003D01*
X374622Y563759D01*
X376189Y564961D01*
X379287Y564070D01*
X379738Y563724D01*
X381572Y562964D01*
X382270Y562872D01*
Y575310D01*
Y587748D01*
X381572Y587656D01*
X379738Y586896D01*
X379357Y586604D01*
X379352Y586602D01*
X379006Y586518D01*
X378486Y586494D01*
X377927Y586600D01*
X376337Y587363D01*
X376022Y587652D01*
X375938Y588568D01*
Y620870D01*
X375550Y622821D01*
X374445Y624475D01*
X343586Y655333D01*
X342641Y656343D01*
X341976Y657159D01*
X341809Y657395D01*
Y661970D01*
X341537Y663336D01*
X340763Y664493D01*
X339606Y665267D01*
X338240Y665538D01*
X327240D01*
X325874Y665267D01*
X324717Y664493D01*
X324197Y663716D01*
X323116Y663603D01*
X321236Y664210D01*
X321206Y664440D01*
X320893Y666821D01*
X319885Y669253D01*
X318282Y671342D01*
X316193Y672945D01*
X313761Y673953D01*
X311150Y674296D01*
D02*
G37*
G36*
X276964Y662940D02*
X270620D01*
Y654596D01*
X273100D01*
X274579Y654890D01*
X275833Y655728D01*
X276670Y656981D01*
X276964Y658460D01*
Y662940D01*
D02*
G37*
G36*
X273100Y673824D02*
X270620D01*
Y665480D01*
X276964D01*
Y669960D01*
X276670Y671439D01*
X275833Y672692D01*
X274579Y673530D01*
X273100Y673824D01*
D02*
G37*
G36*
X234950Y674296D02*
X232339Y673953D01*
X229907Y672945D01*
X227818Y671342D01*
X226215Y669253D01*
X225207Y666821D01*
X224864Y664210D01*
X225207Y661600D01*
X226215Y659167D01*
X227818Y657078D01*
X229907Y655475D01*
X232339Y654467D01*
X234950Y654124D01*
X237561Y654467D01*
X239993Y655475D01*
X241155Y656367D01*
X241628Y656469D01*
X244414Y656096D01*
X244507Y656047D01*
X244896Y655756D01*
X246137Y654928D01*
X247600Y654637D01*
X255100D01*
X256563Y654928D01*
X256986Y655210D01*
X263642D01*
X264121Y654890D01*
X265600Y654596D01*
X268080D01*
Y664210D01*
Y673824D01*
X265600D01*
X264121Y673530D01*
X263642Y673210D01*
X256986D01*
X256563Y673492D01*
X255100Y673783D01*
X247600D01*
X246137Y673492D01*
X244896Y672664D01*
X244507Y672373D01*
X244414Y672324D01*
X241628Y671951D01*
X241155Y672053D01*
X239993Y672945D01*
X237561Y673953D01*
X234950Y674296D01*
D02*
G37*
G36*
X150730Y660308D02*
X147467Y659878D01*
X144426Y658619D01*
X141815Y656615D01*
X140107Y654389D01*
X138247Y654136D01*
X136724Y654264D01*
X135483Y655093D01*
X134020Y655384D01*
X122520D01*
X121057Y655093D01*
X119816Y654264D01*
X118988Y653023D01*
X118697Y651560D01*
Y644060D01*
X118988Y642597D01*
X119270Y642174D01*
Y635446D01*
X118988Y635023D01*
X118697Y633560D01*
Y626060D01*
X118988Y624597D01*
X119816Y623356D01*
X121057Y622527D01*
X122520Y622236D01*
X122943D01*
X122949Y622223D01*
X123051Y621843D01*
X123139Y621307D01*
X123172Y620934D01*
Y611347D01*
X122290Y610027D01*
X121902Y608076D01*
Y599969D01*
X121858Y599474D01*
X121748Y598758D01*
X121597Y598101D01*
X121410Y597501D01*
X121188Y596953D01*
X120934Y596453D01*
X120646Y595995D01*
X120324Y595576D01*
X120052Y595283D01*
X119868Y595142D01*
X118265Y593053D01*
X117257Y590620D01*
X116914Y588010D01*
X117257Y585400D01*
X118265Y582967D01*
X119868Y580878D01*
X121957Y579275D01*
X124389Y578267D01*
X127000Y577924D01*
X129611Y578267D01*
X132043Y579275D01*
X134132Y580878D01*
X135735Y582967D01*
X136743Y585400D01*
X137086Y588010D01*
X136743Y590620D01*
X135735Y593053D01*
X134132Y595142D01*
X133948Y595283D01*
X133676Y595576D01*
X133354Y595995D01*
X133066Y596453D01*
X132812Y596953D01*
X132590Y597501D01*
X132403Y598101D01*
X132253Y598758D01*
X132142Y599474D01*
X132098Y599969D01*
Y606075D01*
X132980Y607395D01*
X133368Y609346D01*
Y620934D01*
X133401Y621307D01*
X133489Y621843D01*
X133591Y622223D01*
X133596Y622236D01*
X134020D01*
X135483Y622527D01*
X136724Y623356D01*
X137552Y624597D01*
X137843Y626060D01*
Y633560D01*
X137552Y635023D01*
X137270Y635446D01*
Y640018D01*
X137733Y640269D01*
X140270Y640798D01*
X141815Y638785D01*
X144426Y636781D01*
X147467Y635522D01*
X150730Y635092D01*
X153993Y635522D01*
X157034Y636781D01*
X159645Y638785D01*
X161649Y641396D01*
X162908Y644437D01*
X163338Y647700D01*
X162908Y650963D01*
X161649Y654004D01*
X159645Y656615D01*
X157034Y658619D01*
X153993Y659878D01*
X150730Y660308D01*
D02*
G37*
G36*
X273100Y432524D02*
X270620D01*
Y424180D01*
X276964D01*
Y428660D01*
X276670Y430139D01*
X275833Y431392D01*
X274579Y432230D01*
X273100Y432524D01*
D02*
G37*
G36*
X360134Y490110D02*
X351790D01*
Y483765D01*
X356270D01*
X357749Y484060D01*
X359002Y484897D01*
X359840Y486151D01*
X360134Y487630D01*
Y490110D01*
D02*
G37*
G36*
X152505Y488950D02*
X146160D01*
Y480606D01*
X148640D01*
X150119Y480900D01*
X151373Y481738D01*
X152210Y482991D01*
X152505Y484470D01*
Y488950D01*
D02*
G37*
G36*
X349250Y490110D02*
X340906D01*
Y487630D01*
X341200Y486151D01*
X342038Y484897D01*
X343291Y484060D01*
X344770Y483765D01*
X349250D01*
Y490110D01*
D02*
G37*
%LPD*%
G36*
X129822Y73024D02*
X129755Y72883D01*
X129695Y72672D01*
X129643Y72389D01*
X129599Y72036D01*
X129536Y71114D01*
X129500Y69198D01*
X124500D01*
X124496Y69908D01*
X124305Y72672D01*
X124245Y72883D01*
X124178Y73024D01*
X124102Y73092D01*
X129898D01*
X129822Y73024D01*
D02*
G37*
G36*
X326541Y203471D02*
X326351Y203699D01*
X326102Y203903D01*
X325794Y204083D01*
X325426Y204238D01*
X325000Y204370D01*
X324514Y204478D01*
X323969Y204562D01*
X323364Y204622D01*
X321978Y204670D01*
Y209670D01*
X322701Y209682D01*
X323969Y209778D01*
X324514Y209862D01*
X325000Y209970D01*
X325426Y210102D01*
X325794Y210257D01*
X326102Y210437D01*
X326351Y210641D01*
X326541Y210869D01*
Y203471D01*
D02*
G37*
G36*
X44301Y101173D02*
X44057Y100994D01*
X43842Y100694D01*
X43656Y100276D01*
X43498Y99737D01*
X43369Y99079D01*
X43269Y98301D01*
X43154Y96387D01*
X43140Y95250D01*
X38140D01*
X38126Y96387D01*
X37911Y99079D01*
X37782Y99737D01*
X37624Y100276D01*
X37438Y100694D01*
X37223Y100994D01*
X36979Y101173D01*
X36707Y101233D01*
X44573D01*
X44301Y101173D01*
D02*
G37*
G36*
X129402Y68384D02*
X129495Y67198D01*
X129578Y66717D01*
X129683Y66309D01*
X129813Y65976D01*
X129965Y65716D01*
X130141Y65531D01*
X130341Y65420D01*
X130564Y65383D01*
X123215D01*
X123438Y65420D01*
X123638Y65531D01*
X123814Y65716D01*
X123967Y65976D01*
X124096Y66309D01*
X124202Y66717D01*
X124284Y67198D01*
X124343Y67754D01*
X124390Y69088D01*
X129390D01*
X129402Y68384D01*
D02*
G37*
G36*
X111772Y94060D02*
X111722Y94535D01*
X111571Y94960D01*
X111319Y95335D01*
X110967Y95660D01*
X110514Y95935D01*
X109961Y96160D01*
X109307Y96335D01*
X108585Y96455D01*
X107863Y96335D01*
X107209Y96160D01*
X106656Y95935D01*
X106203Y95660D01*
X105851Y95335D01*
X105599Y94960D01*
X105448Y94535D01*
X105398Y94060D01*
Y104060D01*
X105448Y103585D01*
X105599Y103160D01*
X105851Y102785D01*
X106203Y102460D01*
X106656Y102185D01*
X107209Y101960D01*
X107863Y101785D01*
X108585Y101665D01*
X109307Y101785D01*
X109961Y101960D01*
X110514Y102185D01*
X110967Y102460D01*
X111319Y102785D01*
X111571Y103160D01*
X111722Y103585D01*
X111772Y104060D01*
Y94060D01*
D02*
G37*
G36*
X305794Y608160D02*
X305232Y608683D01*
X304623Y609150D01*
X303967Y609562D01*
X303266Y609920D01*
X302517Y610223D01*
X301723Y610470D01*
X300882Y610662D01*
X299994Y610800D01*
X299060Y610882D01*
X298079Y610910D01*
Y615910D01*
X299060Y615938D01*
X299994Y616020D01*
X300882Y616157D01*
X301723Y616350D01*
X302517Y616598D01*
X303266Y616900D01*
X303967Y617257D01*
X304623Y617670D01*
X305232Y618138D01*
X305794Y618660D01*
Y608160D01*
D02*
G37*
G36*
X326541Y609551D02*
X326351Y609779D01*
X326102Y609983D01*
X325794Y610163D01*
X325426Y610318D01*
X325000Y610450D01*
X324514Y610558D01*
X323969Y610642D01*
X323364Y610702D01*
X321978Y610750D01*
Y615750D01*
X322701Y615762D01*
X323969Y615858D01*
X324514Y615942D01*
X325000Y616050D01*
X325426Y616182D01*
X325794Y616338D01*
X326102Y616517D01*
X326351Y616721D01*
X326541Y616949D01*
Y609551D01*
D02*
G37*
G36*
X338806Y659278D02*
X338581Y658908D01*
X338521Y658441D01*
X338629Y657879D01*
X338902Y657220D01*
X339342Y656464D01*
X339948Y655613D01*
X340720Y654665D01*
X342764Y652482D01*
X336729Y651446D01*
X335812Y652327D01*
X334120Y653739D01*
X333343Y654271D01*
X332613Y654686D01*
X331929Y654984D01*
X331291Y655166D01*
X330700Y655231D01*
X330156Y655180D01*
X329658Y655012D01*
X339198Y659553D01*
X338806Y659278D01*
D02*
G37*
G36*
X193202Y92576D02*
X193193Y92499D01*
X193185Y92370D01*
X193160Y90020D01*
X188160D01*
X188109Y92602D01*
X193211D01*
X193202Y92576D01*
D02*
G37*
G36*
X305794Y176360D02*
X305232Y176882D01*
X304623Y177350D01*
X303967Y177763D01*
X303266Y178120D01*
X302517Y178423D01*
X301723Y178670D01*
X300882Y178862D01*
X299994Y179000D01*
X299060Y179083D01*
X298079Y179110D01*
Y184110D01*
X299060Y184137D01*
X299994Y184220D01*
X300882Y184357D01*
X301723Y184550D01*
X302517Y184797D01*
X303266Y185100D01*
X303967Y185457D01*
X304623Y185870D01*
X305232Y186338D01*
X305794Y186860D01*
Y176360D01*
D02*
G37*
G36*
X373358Y588786D02*
X373506Y587174D01*
X373634Y586429D01*
X373800Y585725D01*
X374003Y585062D01*
X374242Y584439D01*
X374518Y583857D01*
X374831Y583316D01*
X375181Y582816D01*
X366499D01*
X366849Y583316D01*
X367162Y583857D01*
X367438Y584439D01*
X367677Y585062D01*
X367880Y585725D01*
X368046Y586429D01*
X368174Y587174D01*
X368266Y587960D01*
X368340Y589653D01*
X373340D01*
X373358Y588786D01*
D02*
G37*
G36*
X237937Y117547D02*
X238353Y117358D01*
X239839Y115949D01*
X240012Y115585D01*
Y75202D01*
X198868D01*
X195758Y78312D01*
Y90560D01*
X205850D01*
X206294Y90263D01*
X207660Y89991D01*
X213660D01*
X215026Y90263D01*
X216183Y91037D01*
X216957Y92194D01*
X217229Y93560D01*
Y104560D01*
X216957Y105926D01*
X216496Y106616D01*
X216967Y107754D01*
X217225Y109712D01*
Y113586D01*
X217234Y113630D01*
Y116891D01*
X217259Y116906D01*
X217624Y117054D01*
X218199Y117205D01*
X218971Y117330D01*
X219535Y117378D01*
X235110D01*
X237012Y117757D01*
X237937Y117547D01*
D02*
G37*
G36*
X240868Y668938D02*
X241477Y668470D01*
X242132Y668057D01*
X242834Y667700D01*
X243583Y667398D01*
X244377Y667150D01*
X244565Y667107D01*
X244576Y667110D01*
X245129Y667335D01*
X245582Y667610D01*
X245934Y667935D01*
X246186Y668310D01*
X246336Y668735D01*
X246387Y669210D01*
Y666795D01*
X247040Y666738D01*
X248021Y666710D01*
Y661710D01*
X247040Y661683D01*
X246387Y661625D01*
Y659210D01*
X246336Y659685D01*
X246186Y660110D01*
X245934Y660485D01*
X245582Y660810D01*
X245129Y661085D01*
X244576Y661310D01*
X244565Y661313D01*
X244377Y661270D01*
X243583Y661022D01*
X242834Y660720D01*
X242132Y660362D01*
X241477Y659950D01*
X240868Y659482D01*
X240306Y658960D01*
Y669460D01*
X240868Y668938D01*
D02*
G37*
G36*
X254390Y200015D02*
X254276Y199919D01*
X254176Y199759D01*
X254090Y199536D01*
X254016Y199248D01*
X253956Y198896D01*
X253910Y198480D01*
X253856Y197457D01*
X253850Y196850D01*
X248850D01*
X248843Y197457D01*
X248743Y198896D01*
X248683Y199248D01*
X248610Y199536D01*
X248523Y199759D01*
X248423Y199919D01*
X248310Y200015D01*
X248183Y200047D01*
X254516D01*
X254390Y200015D01*
D02*
G37*
G36*
X129528Y600100D02*
X129610Y599166D01*
X129747Y598279D01*
X129940Y597437D01*
X130188Y596643D01*
X130490Y595894D01*
X130848Y595192D01*
X131260Y594537D01*
X131728Y593928D01*
X132250Y593366D01*
X121750D01*
X122273Y593928D01*
X122740Y594537D01*
X123153Y595192D01*
X123510Y595894D01*
X123813Y596643D01*
X124060Y597437D01*
X124253Y598279D01*
X124390Y599166D01*
X124473Y600100D01*
X124500Y601081D01*
X129500D01*
X129528Y600100D01*
D02*
G37*
G36*
X240868Y211737D02*
X241477Y211270D01*
X242132Y210858D01*
X242834Y210500D01*
X243583Y210198D01*
X244377Y209950D01*
X244565Y209907D01*
X244576Y209910D01*
X245129Y210135D01*
X245582Y210410D01*
X245934Y210735D01*
X246186Y211110D01*
X246336Y211535D01*
X246387Y212010D01*
Y209595D01*
X247040Y209538D01*
X248021Y209510D01*
Y204510D01*
X247040Y204482D01*
X246387Y204425D01*
Y202010D01*
X246336Y202485D01*
X246186Y202910D01*
X245934Y203285D01*
X245582Y203610D01*
X245129Y203885D01*
X244576Y204110D01*
X244565Y204113D01*
X244377Y204070D01*
X243583Y203822D01*
X242834Y203520D01*
X242132Y203162D01*
X241477Y202750D01*
X240868Y202283D01*
X240306Y201760D01*
Y212260D01*
X240868Y211737D01*
D02*
G37*
G36*
X326541Y177751D02*
X326351Y177979D01*
X326102Y178183D01*
X325794Y178363D01*
X325426Y178518D01*
X325000Y178650D01*
X324514Y178758D01*
X323969Y178842D01*
X323364Y178902D01*
X321978Y178950D01*
Y183950D01*
X322701Y183962D01*
X323969Y184058D01*
X324514Y184142D01*
X325000Y184250D01*
X325426Y184382D01*
X325794Y184538D01*
X326102Y184717D01*
X326351Y184921D01*
X326541Y185149D01*
Y177751D01*
D02*
G37*
G36*
X132795Y191726D02*
X132370Y191576D01*
X131995Y191324D01*
X131670Y190972D01*
X131395Y190519D01*
X131170Y189966D01*
X130995Y189312D01*
X130870Y188557D01*
X130795Y187702D01*
X130770Y186746D01*
X125770D01*
X125745Y187702D01*
X125670Y188557D01*
X125545Y189312D01*
X125370Y189966D01*
X125145Y190519D01*
X124870Y190972D01*
X124545Y191324D01*
X124170Y191576D01*
X123745Y191726D01*
X123270Y191777D01*
X133270D01*
X132795Y191726D01*
D02*
G37*
G36*
X318175Y184330D02*
X318302Y184284D01*
X318497Y184243D01*
X318763Y184208D01*
X319503Y184153D01*
X321818Y184110D01*
Y179110D01*
X321135Y179107D01*
X318302Y178936D01*
X318175Y178890D01*
X318119Y178838D01*
Y184382D01*
X318175Y184330D01*
D02*
G37*
G36*
Y641530D02*
X318302Y641484D01*
X318497Y641443D01*
X318763Y641408D01*
X319503Y641354D01*
X321818Y641310D01*
Y636310D01*
X321135Y636307D01*
X318302Y636136D01*
X318175Y636090D01*
X318119Y636038D01*
Y641582D01*
X318175Y641530D01*
D02*
G37*
G36*
X139201Y92676D02*
X138997Y92440D01*
X138818Y92154D01*
X138662Y91817D01*
X138530Y91430D01*
X138422Y90993D01*
X138338Y90505D01*
X138278Y89967D01*
X138230Y88740D01*
X135730D01*
X137498Y86972D01*
X136834Y86284D01*
X135741Y84994D01*
X135312Y84393D01*
X134960Y83820D01*
X134687Y83275D01*
X134491Y82760D01*
X134374Y82273D01*
X134334Y81815D01*
X134373Y81386D01*
X128376Y87383D01*
X128805Y87344D01*
X129263Y87384D01*
X129750Y87501D01*
X130265Y87697D01*
X130810Y87970D01*
X131383Y88322D01*
X131984Y88751D01*
X132615Y89259D01*
X133183Y89786D01*
X133122Y90505D01*
X133038Y90993D01*
X132930Y91430D01*
X132798Y91817D01*
X132642Y92154D01*
X132463Y92440D01*
X132259Y92676D01*
X132031Y92861D01*
X139429D01*
X139201Y92676D01*
D02*
G37*
G36*
X221054Y119990D02*
X219787Y119958D01*
X218659Y119862D01*
X217670Y119702D01*
X216819Y119478D01*
X216106Y119190D01*
X215533Y118838D01*
X215098Y118422D01*
X214801Y117942D01*
X214643Y117398D01*
X214623Y116790D01*
X213886Y126279D01*
X213928Y126300D01*
X214119Y126319D01*
X214953Y126350D01*
X221054Y126390D01*
Y119990D01*
D02*
G37*
G36*
X232110Y123052D02*
X234812Y122470D01*
X237957Y121490D01*
X238399Y121092D01*
X238088Y120755D01*
X237024Y120480D01*
X235208Y120266D01*
X232637Y120112D01*
X225237Y119990D01*
X224722Y126390D01*
X226028Y126422D01*
X227187Y126518D01*
X228198Y126678D01*
X229062Y126902D01*
X229779Y127190D01*
X230348Y127542D01*
X230770Y127958D01*
X231045Y128438D01*
X231172Y128982D01*
X231152Y129590D01*
X232110Y123052D01*
D02*
G37*
G36*
X132795Y624796D02*
X132370Y624646D01*
X131995Y624394D01*
X131670Y624042D01*
X131395Y623589D01*
X131170Y623036D01*
X130995Y622382D01*
X130870Y621627D01*
X130795Y620772D01*
X130770Y619816D01*
X125770D01*
X125745Y620772D01*
X125670Y621627D01*
X125545Y622382D01*
X125370Y623036D01*
X125145Y623589D01*
X124870Y624042D01*
X124545Y624394D01*
X124170Y624646D01*
X123745Y624796D01*
X123270Y624847D01*
X133270D01*
X132795Y624796D01*
D02*
G37*
G36*
X135238Y651463D02*
X135358Y651221D01*
X135557Y651007D01*
X135837Y650822D01*
X136196Y650666D01*
X136636Y650538D01*
X137155Y650438D01*
X137754Y650367D01*
X138433Y650324D01*
X139192Y650310D01*
Y645310D01*
X138433Y645296D01*
X137155Y645182D01*
X136636Y645083D01*
X136196Y644955D01*
X135837Y644798D01*
X135557Y644613D01*
X135358Y644400D01*
X135238Y644158D01*
X135198Y643888D01*
Y651733D01*
X135238Y651463D01*
D02*
G37*
G36*
X240868Y643538D02*
X241477Y643070D01*
X242132Y642657D01*
X242834Y642300D01*
X243583Y641998D01*
X244377Y641750D01*
X244565Y641707D01*
X244576Y641710D01*
X245129Y641935D01*
X245582Y642210D01*
X245934Y642535D01*
X246186Y642910D01*
X246336Y643335D01*
X246387Y643810D01*
Y641395D01*
X247040Y641338D01*
X248021Y641310D01*
Y636310D01*
X247040Y636283D01*
X246387Y636225D01*
Y633810D01*
X246336Y634285D01*
X246186Y634710D01*
X245934Y635085D01*
X245582Y635410D01*
X245129Y635685D01*
X244576Y635910D01*
X244565Y635913D01*
X244377Y635870D01*
X243583Y635622D01*
X242834Y635320D01*
X242132Y634963D01*
X241477Y634550D01*
X240868Y634082D01*
X240306Y633560D01*
Y644060D01*
X240868Y643538D01*
D02*
G37*
G36*
X104343Y92572D02*
X104258Y92481D01*
X104184Y92329D01*
X104119Y92117D01*
X104064Y91844D01*
X104020Y91510D01*
X103960Y90660D01*
X103940Y89568D01*
X98940D01*
X98935Y90145D01*
X98816Y91844D01*
X98761Y92117D01*
X98696Y92329D01*
X98622Y92481D01*
X98537Y92572D01*
X98442Y92602D01*
X104438D01*
X104343Y92572D01*
D02*
G37*
G36*
X360861Y94864D02*
X360548Y94323D01*
X360272Y93741D01*
X360033Y93118D01*
X359830Y92455D01*
X359664Y91751D01*
X359536Y91006D01*
X359444Y90220D01*
X359370Y88527D01*
X354370D01*
X354352Y89394D01*
X354204Y91006D01*
X354076Y91751D01*
X353910Y92455D01*
X353707Y93118D01*
X353468Y93741D01*
X353192Y94323D01*
X352879Y94864D01*
X352529Y95364D01*
X361211D01*
X360861Y94864D01*
D02*
G37*
G36*
X373561Y94864D02*
X373248Y94323D01*
X372972Y93741D01*
X372733Y93118D01*
X372530Y92455D01*
X372365Y91751D01*
X372236Y91006D01*
X372144Y90220D01*
X372070Y88527D01*
X367070D01*
X367052Y89394D01*
X366904Y91006D01*
X366776Y91751D01*
X366610Y92455D01*
X366407Y93118D01*
X366168Y93741D01*
X365892Y94323D01*
X365579Y94864D01*
X365229Y95364D01*
X373911D01*
X373561Y94864D01*
D02*
G37*
G36*
X254390Y631815D02*
X254276Y631719D01*
X254176Y631559D01*
X254090Y631335D01*
X254016Y631048D01*
X253956Y630696D01*
X253910Y630280D01*
X253856Y629257D01*
X253850Y628650D01*
X248850D01*
X248843Y629257D01*
X248743Y630696D01*
X248683Y631048D01*
X248610Y631335D01*
X248523Y631559D01*
X248423Y631719D01*
X248310Y631815D01*
X248183Y631847D01*
X254516D01*
X254390Y631815D01*
D02*
G37*
G36*
X239932Y150524D02*
X239592Y150013D01*
X239291Y149435D01*
X239031Y148790D01*
X238811Y148077D01*
X238631Y147297D01*
X238490Y146450D01*
X238390Y145535D01*
X238335Y144150D01*
X238318Y141239D01*
X238567Y137046D01*
X238659Y136494D01*
X238766Y136039D01*
X238888Y135680D01*
X239023Y135418D01*
X231197D01*
X231332Y135680D01*
X231453Y136039D01*
X231560Y136494D01*
X231653Y137046D01*
X231796Y138440D01*
X231882Y140221D01*
X231886Y140590D01*
X231694Y146453D01*
X231575Y147139D01*
X231386Y147912D01*
X231156Y148617D01*
X230884Y149252D01*
X230569Y149818D01*
X230213Y150315D01*
X229816Y150743D01*
X240313Y150967D01*
X239932Y150524D01*
D02*
G37*
G36*
X326541Y635271D02*
X326351Y635499D01*
X326102Y635703D01*
X325794Y635882D01*
X325426Y636038D01*
X325000Y636170D01*
X324514Y636278D01*
X323969Y636362D01*
X323364Y636422D01*
X321978Y636470D01*
Y641470D01*
X322701Y641482D01*
X323969Y641578D01*
X324514Y641662D01*
X325000Y641770D01*
X325426Y641902D01*
X325794Y642057D01*
X326102Y642237D01*
X326351Y642441D01*
X326541Y642669D01*
Y635271D01*
D02*
G37*
G36*
X301110Y157480D02*
X311150D01*
Y154940D01*
X301110D01*
Y148608D01*
X258920D01*
X256969Y148220D01*
X255315Y147115D01*
X252243Y148285D01*
X252163Y148687D01*
X267288Y163812D01*
X301110D01*
Y157480D01*
D02*
G37*
G36*
X371981Y83620D02*
X372045Y82908D01*
X372151Y82245D01*
X372300Y81633D01*
X372492Y81072D01*
X372726Y80560D01*
X373003Y80100D01*
X373322Y79689D01*
X373684Y79329D01*
X374089Y79019D01*
X364831D01*
X365235Y79329D01*
X365597Y79689D01*
X365916Y80100D01*
X366193Y80560D01*
X366427Y81072D01*
X366619Y81633D01*
X366768Y82245D01*
X366875Y82908D01*
X366939Y83620D01*
X366960Y84383D01*
X371960D01*
X371981Y83620D01*
D02*
G37*
G36*
X129528Y168300D02*
X129610Y167366D01*
X129747Y166479D01*
X129940Y165637D01*
X130188Y164843D01*
X130490Y164094D01*
X130848Y163393D01*
X131260Y162737D01*
X131728Y162128D01*
X132250Y161566D01*
X121750D01*
X122273Y162128D01*
X122740Y162737D01*
X123153Y163393D01*
X123510Y164094D01*
X123813Y164843D01*
X124060Y165637D01*
X124253Y166479D01*
X124390Y167366D01*
X124473Y168300D01*
X124500Y169281D01*
X129500D01*
X129528Y168300D01*
D02*
G37*
G36*
X372088Y156986D02*
X372236Y155374D01*
X372365Y154629D01*
X372530Y153925D01*
X372733Y153262D01*
X372972Y152639D01*
X373248Y152057D01*
X373561Y151516D01*
X373911Y151016D01*
X365229D01*
X365579Y151516D01*
X365892Y152057D01*
X366168Y152639D01*
X366407Y153262D01*
X366610Y153925D01*
X366776Y154629D01*
X366904Y155374D01*
X366996Y156160D01*
X367070Y157853D01*
X372070D01*
X372088Y156986D01*
D02*
G37*
G36*
X351888Y138514D02*
X351838Y138988D01*
X351687Y139412D01*
X351435Y139787D01*
X351083Y140111D01*
X350630Y140386D01*
X350077Y140611D01*
X349423Y140785D01*
X348669Y140910D01*
X347813Y140985D01*
X346858Y141010D01*
Y146010D01*
X347813Y146035D01*
X348669Y146110D01*
X349423Y146235D01*
X350077Y146410D01*
X350630Y146635D01*
X351083Y146910D01*
X351435Y147235D01*
X351687Y147610D01*
X351838Y148035D01*
X351888Y148510D01*
X351888Y138514D01*
D02*
G37*
G36*
X257621Y138946D02*
X257714Y137676D01*
X257795Y137161D01*
X257899Y136724D01*
X258026Y136367D01*
X258176Y136089D01*
X258349Y135891D01*
X258545Y135772D01*
X258764Y135732D01*
X251455D01*
X251675Y135772D01*
X251871Y135891D01*
X252044Y136089D01*
X252194Y136367D01*
X252321Y136724D01*
X252425Y137161D01*
X252506Y137676D01*
X252564Y138272D01*
X252610Y139700D01*
X257610D01*
X257621Y138946D01*
D02*
G37*
G36*
X318175Y616130D02*
X318302Y616084D01*
X318497Y616043D01*
X318763Y616008D01*
X319503Y615953D01*
X321818Y615910D01*
Y610910D01*
X321135Y610907D01*
X318302Y610736D01*
X318175Y610690D01*
X318119Y610638D01*
Y616182D01*
X318175Y616130D01*
D02*
G37*
G36*
X182325Y148691D02*
X181900Y148540D01*
X181525Y148291D01*
X181200Y147941D01*
X180925Y147491D01*
X180700Y146940D01*
X180525Y146291D01*
X180400Y145541D01*
X180325Y144691D01*
X180300Y143741D01*
X175300D01*
X175275Y144691D01*
X175200Y145541D01*
X175075Y146291D01*
X174900Y146940D01*
X174675Y147491D01*
X174400Y147941D01*
X174075Y148291D01*
X173700Y148540D01*
X173275Y148691D01*
X172800Y148741D01*
X182800D01*
X182325Y148691D01*
D02*
G37*
G36*
X157128Y150292D02*
X156660Y149683D01*
X156248Y149028D01*
X155890Y148326D01*
X155588Y147577D01*
X155340Y146783D01*
X155147Y145941D01*
X155142Y145905D01*
X155300Y145314D01*
X155525Y144761D01*
X155800Y144308D01*
X156125Y143956D01*
X156500Y143704D01*
X156925Y143553D01*
X157400Y143503D01*
X154910D01*
X154900Y143139D01*
X149900D01*
X149890Y143503D01*
X147400D01*
X147875Y143553D01*
X148300Y143704D01*
X148675Y143956D01*
X149000Y144308D01*
X149275Y144761D01*
X149500Y145314D01*
X149658Y145905D01*
X149653Y145941D01*
X149460Y146783D01*
X149213Y147577D01*
X148910Y148326D01*
X148553Y149028D01*
X148140Y149683D01*
X147673Y150292D01*
X147150Y150854D01*
X157650D01*
X157128Y150292D01*
D02*
G37*
G36*
X318175Y209730D02*
X318302Y209684D01*
X318497Y209643D01*
X318763Y209608D01*
X319503Y209554D01*
X321818Y209510D01*
Y204510D01*
X321135Y204507D01*
X318302Y204336D01*
X318175Y204290D01*
X318119Y204238D01*
Y209782D01*
X318175Y209730D01*
D02*
G37*
G36*
X129402Y500184D02*
X129495Y498998D01*
X129578Y498517D01*
X129683Y498109D01*
X129813Y497776D01*
X129965Y497516D01*
X130141Y497331D01*
X130341Y497220D01*
X130564Y497183D01*
X123215D01*
X123438Y497220D01*
X123638Y497331D01*
X123814Y497516D01*
X123967Y497776D01*
X124096Y498109D01*
X124202Y498517D01*
X124284Y498998D01*
X124343Y499554D01*
X124390Y500888D01*
X129390D01*
X129402Y500184D01*
D02*
G37*
G36*
X157128Y366192D02*
X156660Y365583D01*
X156248Y364927D01*
X155890Y364226D01*
X155588Y363477D01*
X155340Y362683D01*
X155147Y361842D01*
X155142Y361805D01*
X155300Y361214D01*
X155525Y360661D01*
X155800Y360208D01*
X156125Y359856D01*
X156500Y359604D01*
X156925Y359454D01*
X157400Y359403D01*
X154910D01*
X154900Y359039D01*
X149900D01*
X149890Y359403D01*
X147400D01*
X147875Y359454D01*
X148300Y359604D01*
X148675Y359856D01*
X149000Y360208D01*
X149275Y360661D01*
X149500Y361214D01*
X149658Y361805D01*
X149653Y361842D01*
X149460Y362683D01*
X149213Y363477D01*
X148910Y364226D01*
X148553Y364927D01*
X148140Y365583D01*
X147673Y366192D01*
X147150Y366754D01*
X157650D01*
X157128Y366192D01*
D02*
G37*
G36*
X129822Y504823D02*
X129755Y504683D01*
X129695Y504472D01*
X129643Y504189D01*
X129599Y503836D01*
X129536Y502914D01*
X129500Y500998D01*
X124500D01*
X124496Y501708D01*
X124305Y504472D01*
X124245Y504683D01*
X124178Y504823D01*
X124102Y504892D01*
X129898D01*
X129822Y504823D01*
D02*
G37*
G36*
X373358Y372886D02*
X373506Y371274D01*
X373634Y370529D01*
X373800Y369825D01*
X374003Y369162D01*
X374242Y368539D01*
X374518Y367957D01*
X374831Y367416D01*
X375181Y366916D01*
X366499D01*
X366849Y367416D01*
X367162Y367957D01*
X367438Y368539D01*
X367677Y369162D01*
X367880Y369825D01*
X368046Y370529D01*
X368174Y371274D01*
X368266Y372060D01*
X368340Y373753D01*
X373340D01*
X373358Y372886D01*
D02*
G37*
G36*
X240012Y366516D02*
X239999Y366324D01*
X239957Y363586D01*
X239950Y360520D01*
X229950D01*
X229873Y366589D01*
X240027D01*
X240012Y366516D01*
D02*
G37*
G36*
X182325Y364590D02*
X181900Y364440D01*
X181525Y364190D01*
X181200Y363840D01*
X180925Y363391D01*
X180700Y362840D01*
X180525Y362191D01*
X180400Y361441D01*
X180325Y360591D01*
X180300Y359641D01*
X175300D01*
X175275Y360591D01*
X175200Y361441D01*
X175075Y362191D01*
X174900Y362840D01*
X174675Y363391D01*
X174400Y363840D01*
X174075Y364190D01*
X173700Y364440D01*
X173275Y364590D01*
X172800Y364641D01*
X182800D01*
X182325Y364590D01*
D02*
G37*
G36*
X238317Y357156D02*
X238426Y355324D01*
X238845D01*
X238744Y355117D01*
X238653Y354736D01*
X238572Y354182D01*
X238527Y353612D01*
X238567Y352946D01*
X238659Y352394D01*
X238766Y351939D01*
X238888Y351580D01*
X239023Y351318D01*
X238414D01*
X238315Y347210D01*
X238310Y345440D01*
X231910D01*
X231592Y351318D01*
X231411D01*
Y339241D01*
X230983Y339811D01*
X230502Y340321D01*
X229967Y340770D01*
X229379Y341160D01*
X228737Y341490D01*
X228041Y341760D01*
X227292Y341970D01*
X226488Y342120D01*
X225632Y342210D01*
X224722Y342240D01*
Y348640D01*
X225632Y348670D01*
X226488Y348760D01*
X227292Y348910D01*
X228041Y349120D01*
X228737Y349390D01*
X229379Y349720D01*
X229967Y350109D01*
X230502Y350559D01*
X230983Y351069D01*
X231255Y351432D01*
X231332Y351580D01*
X231453Y351939D01*
X231539Y352300D01*
X231375Y355324D01*
X231843D01*
X231882Y356121D01*
X231910Y358289D01*
X238310D01*
X238317Y357156D01*
D02*
G37*
G36*
X362131Y524124D02*
X361818Y523583D01*
X361542Y523001D01*
X361303Y522378D01*
X361100Y521715D01*
X360934Y521011D01*
X360806Y520266D01*
X360714Y519480D01*
X360640Y517787D01*
X355640D01*
X355622Y518654D01*
X355474Y520266D01*
X355345Y521011D01*
X355180Y521715D01*
X354977Y522378D01*
X354738Y523001D01*
X354462Y523583D01*
X354149Y524124D01*
X353799Y524624D01*
X362481D01*
X362131Y524124D01*
D02*
G37*
G36*
X374005Y523406D02*
X373865Y523266D01*
X373742Y523032D01*
X373635Y522705D01*
X373545Y522284D01*
X373471Y521770D01*
X373373Y520461D01*
X373340Y518778D01*
X368340D01*
X368332Y519666D01*
X368135Y522284D01*
X368045Y522705D01*
X367938Y523032D01*
X367815Y523266D01*
X367675Y523406D01*
X367519Y523453D01*
X374161D01*
X374005Y523406D01*
D02*
G37*
G36*
X138280Y523106D02*
X138269Y523028D01*
X138260Y522899D01*
X138231Y521032D01*
X138230Y520540D01*
X135730D01*
X137498Y518772D01*
X136834Y518084D01*
X135741Y516794D01*
X135312Y516193D01*
X134960Y515620D01*
X134687Y515075D01*
X134491Y514560D01*
X134374Y514073D01*
X134334Y513615D01*
X134373Y513186D01*
X128376Y519183D01*
X128805Y519144D01*
X129263Y519184D01*
X129750Y519301D01*
X130265Y519497D01*
X130810Y519770D01*
X131383Y520122D01*
X131984Y520551D01*
X132615Y521059D01*
X133205Y521606D01*
X133168Y523132D01*
X138292D01*
X138280Y523106D01*
D02*
G37*
G36*
X259118Y349965D02*
X259269Y349540D01*
X259521Y349165D01*
X259873Y348840D01*
X260326Y348565D01*
X260879Y348340D01*
X261533Y348165D01*
X262288Y348040D01*
X263143Y347965D01*
X264098Y347940D01*
Y342940D01*
X263143Y342915D01*
X262288Y342840D01*
X261533Y342715D01*
X260879Y342540D01*
X260326Y342315D01*
X259873Y342040D01*
X259521Y341715D01*
X259269Y341340D01*
X259118Y340915D01*
X259068Y340440D01*
Y350440D01*
X259118Y349965D01*
D02*
G37*
G36*
X371981Y515420D02*
X372045Y514708D01*
X372151Y514045D01*
X372300Y513433D01*
X372492Y512872D01*
X372726Y512360D01*
X373003Y511900D01*
X373322Y511489D01*
X373684Y511129D01*
X374089Y510819D01*
X364831D01*
X365235Y511129D01*
X365597Y511489D01*
X365916Y511900D01*
X366193Y512360D01*
X366427Y512872D01*
X366619Y513433D01*
X366768Y514045D01*
X366875Y514708D01*
X366939Y515420D01*
X366960Y516183D01*
X371960D01*
X371981Y515420D01*
D02*
G37*
G36*
X188810Y519285D02*
X188136Y518572D01*
X187534Y517853D01*
X187004Y517128D01*
X186545Y516397D01*
X186158Y515660D01*
X185843Y514917D01*
X185599Y514168D01*
X185428Y513413D01*
X185328Y512652D01*
X185300Y511885D01*
X177875Y519310D01*
X178642Y519338D01*
X179403Y519438D01*
X180158Y519609D01*
X180907Y519853D01*
X181650Y520168D01*
X182387Y520555D01*
X183118Y521014D01*
X183843Y521544D01*
X184562Y522146D01*
X185275Y522820D01*
X188810Y519285D01*
D02*
G37*
G36*
X240868Y453037D02*
X241477Y452570D01*
X242132Y452158D01*
X242834Y451800D01*
X243583Y451497D01*
X244377Y451250D01*
X244565Y451207D01*
X244576Y451210D01*
X245129Y451435D01*
X245582Y451710D01*
X245934Y452035D01*
X246186Y452410D01*
X246336Y452835D01*
X246387Y453310D01*
Y450895D01*
X247040Y450838D01*
X248021Y450810D01*
Y445810D01*
X247040Y445783D01*
X246387Y445725D01*
Y443310D01*
X246336Y443785D01*
X246186Y444210D01*
X245934Y444585D01*
X245582Y444910D01*
X245129Y445185D01*
X244576Y445410D01*
X244565Y445413D01*
X244377Y445370D01*
X243583Y445122D01*
X242834Y444820D01*
X242132Y444463D01*
X241477Y444050D01*
X240868Y443582D01*
X240306Y443060D01*
Y453560D01*
X240868Y453037D01*
D02*
G37*
G36*
X254300Y415916D02*
X254206Y415824D01*
X254122Y415669D01*
X254050Y415453D01*
X253989Y415175D01*
X253939Y414836D01*
X253872Y413971D01*
X253850Y412860D01*
X248850D01*
X248844Y413447D01*
X248711Y415175D01*
X248650Y415453D01*
X248577Y415669D01*
X248494Y415824D01*
X248399Y415916D01*
X248293Y415947D01*
X254406D01*
X254300Y415916D01*
D02*
G37*
G36*
X135238Y434293D02*
X135358Y434051D01*
X135557Y433837D01*
X135837Y433652D01*
X136196Y433496D01*
X136636Y433368D01*
X137155Y433268D01*
X137754Y433197D01*
X138433Y433154D01*
X139192Y433140D01*
Y428140D01*
X138433Y428126D01*
X137155Y428012D01*
X136636Y427913D01*
X136196Y427785D01*
X135837Y427628D01*
X135557Y427443D01*
X135358Y427230D01*
X135238Y426988D01*
X135198Y426718D01*
Y434563D01*
X135238Y434293D01*
D02*
G37*
G36*
X132795Y407626D02*
X132370Y407476D01*
X131995Y407224D01*
X131670Y406872D01*
X131395Y406419D01*
X131170Y405866D01*
X130995Y405212D01*
X130870Y404457D01*
X130795Y403602D01*
X130770Y402646D01*
X125770D01*
X125745Y403602D01*
X125670Y404457D01*
X125545Y405212D01*
X125370Y405866D01*
X125145Y406419D01*
X124870Y406872D01*
X124545Y407224D01*
X124170Y407476D01*
X123745Y407626D01*
X123270Y407677D01*
X133270D01*
X132795Y407626D01*
D02*
G37*
G36*
X240868Y427637D02*
X241477Y427170D01*
X242132Y426758D01*
X242834Y426400D01*
X243583Y426097D01*
X244377Y425850D01*
X244565Y425807D01*
X244576Y425810D01*
X245129Y426035D01*
X245582Y426310D01*
X245934Y426635D01*
X246186Y427010D01*
X246336Y427435D01*
X246387Y427910D01*
Y425495D01*
X247040Y425438D01*
X248021Y425410D01*
Y420410D01*
X247040Y420382D01*
X246387Y420325D01*
Y417910D01*
X246336Y418385D01*
X246186Y418810D01*
X245934Y419185D01*
X245582Y419510D01*
X245129Y419785D01*
X244576Y420010D01*
X244565Y420013D01*
X244377Y419970D01*
X243583Y419723D01*
X242834Y419420D01*
X242132Y419062D01*
X241477Y418650D01*
X240868Y418182D01*
X240306Y417660D01*
Y428160D01*
X240868Y427637D01*
D02*
G37*
G36*
X326541Y419371D02*
X326351Y419599D01*
X326102Y419803D01*
X325794Y419982D01*
X325426Y420138D01*
X325000Y420270D01*
X324514Y420378D01*
X323969Y420462D01*
X323364Y420522D01*
X321978Y420570D01*
Y425570D01*
X322701Y425582D01*
X323969Y425678D01*
X324514Y425762D01*
X325000Y425870D01*
X325426Y426002D01*
X325794Y426157D01*
X326102Y426337D01*
X326351Y426541D01*
X326541Y426769D01*
Y419371D01*
D02*
G37*
G36*
X318175Y425630D02*
X318302Y425584D01*
X318497Y425543D01*
X318763Y425508D01*
X319503Y425453D01*
X321818Y425410D01*
Y420410D01*
X321135Y420407D01*
X318302Y420236D01*
X318175Y420190D01*
X318119Y420138D01*
Y425682D01*
X318175Y425630D01*
D02*
G37*
G36*
Y400230D02*
X318302Y400184D01*
X318497Y400143D01*
X318763Y400108D01*
X319503Y400053D01*
X321818Y400010D01*
Y395010D01*
X321135Y395007D01*
X318302Y394836D01*
X318175Y394790D01*
X318119Y394738D01*
Y400282D01*
X318175Y400230D01*
D02*
G37*
G36*
X129528Y384200D02*
X129610Y383266D01*
X129747Y382379D01*
X129940Y381537D01*
X130188Y380743D01*
X130490Y379994D01*
X130848Y379292D01*
X131260Y378637D01*
X131728Y378028D01*
X132250Y377466D01*
X121750D01*
X122273Y378028D01*
X122740Y378637D01*
X123153Y379292D01*
X123510Y379994D01*
X123813Y380743D01*
X124060Y381537D01*
X124253Y382379D01*
X124390Y383266D01*
X124473Y384200D01*
X124500Y385181D01*
X129500D01*
X129528Y384200D01*
D02*
G37*
G36*
X327243Y383878D02*
X329089Y382312D01*
X329904Y381743D01*
X330647Y381315D01*
X331318Y381029D01*
X331917Y380886D01*
X332444Y380885D01*
X332899Y381025D01*
X333283Y381308D01*
X326312Y374203D01*
X326588Y374592D01*
X326723Y375052D01*
X326716Y375583D01*
X326568Y376186D01*
X326279Y376860D01*
X325849Y377605D01*
X325278Y378422D01*
X324565Y379309D01*
X322716Y381298D01*
X326212Y384874D01*
X327243Y383878D01*
D02*
G37*
G36*
X339136Y446541D02*
X339407Y446337D01*
X339752Y446157D01*
X340170Y446002D01*
X340662Y445870D01*
X341228Y445762D01*
X341867Y445678D01*
X343368Y445582D01*
X344229Y445570D01*
Y440570D01*
X343368Y440558D01*
X341228Y440378D01*
X340662Y440270D01*
X340170Y440138D01*
X339752Y439982D01*
X339407Y439803D01*
X339136Y439599D01*
X338939Y439371D01*
Y446769D01*
X339136Y446541D01*
D02*
G37*
G36*
X326541Y393651D02*
X326351Y393879D01*
X326102Y394083D01*
X325794Y394263D01*
X325426Y394418D01*
X325000Y394550D01*
X324514Y394658D01*
X323969Y394742D01*
X323364Y394802D01*
X321978Y394850D01*
Y399850D01*
X322701Y399862D01*
X323969Y399958D01*
X324514Y400042D01*
X325000Y400150D01*
X325426Y400282D01*
X325794Y400438D01*
X326102Y400617D01*
X326351Y400821D01*
X326541Y401049D01*
Y393651D01*
D02*
G37*
G36*
X305794Y392260D02*
X305232Y392783D01*
X304623Y393250D01*
X303967Y393662D01*
X303266Y394020D01*
X302517Y394323D01*
X301723Y394570D01*
X300882Y394762D01*
X299994Y394900D01*
X299060Y394982D01*
X298079Y395010D01*
Y400010D01*
X299060Y400037D01*
X299994Y400120D01*
X300882Y400257D01*
X301723Y400450D01*
X302517Y400698D01*
X303266Y401000D01*
X303967Y401357D01*
X304623Y401770D01*
X305232Y402238D01*
X305794Y402760D01*
Y392260D01*
D02*
G37*
G36*
X270070Y387836D02*
X270283Y387726D01*
X270553Y387629D01*
X270880Y387544D01*
X271264Y387472D01*
X272204Y387369D01*
X273372Y387317D01*
X274042Y387310D01*
Y382310D01*
X273372Y382304D01*
X271264Y382147D01*
X270880Y382076D01*
X270553Y381992D01*
X270283Y381894D01*
X270070Y381783D01*
X269914Y381660D01*
Y387960D01*
X270070Y387836D01*
D02*
G37*
G36*
X322881Y237070D02*
X318650Y232485D01*
X311225Y239910D01*
X311334Y239951D01*
X311520Y240078D01*
X311785Y240289D01*
X313044Y241431D01*
X315810Y244141D01*
X322881Y237070D01*
D02*
G37*
G36*
X311075Y239910D02*
X303650Y232485D01*
X303609Y232594D01*
X303482Y232780D01*
X303271Y233045D01*
X302129Y234304D01*
X299419Y237070D01*
X306490Y244141D01*
X311075Y239910D01*
D02*
G37*
G36*
X240868Y237138D02*
X241477Y236670D01*
X242132Y236257D01*
X242834Y235900D01*
X243583Y235597D01*
X244377Y235350D01*
X244565Y235307D01*
X244576Y235310D01*
X245129Y235535D01*
X245582Y235810D01*
X245934Y236135D01*
X246186Y236510D01*
X246336Y236935D01*
X246387Y237410D01*
Y234995D01*
X247040Y234937D01*
X248021Y234910D01*
Y229910D01*
X247040Y229883D01*
X246387Y229825D01*
Y227410D01*
X246336Y227885D01*
X246186Y228310D01*
X245934Y228685D01*
X245582Y229010D01*
X245129Y229285D01*
X244576Y229510D01*
X244565Y229513D01*
X244377Y229470D01*
X243583Y229223D01*
X242834Y228920D01*
X242132Y228563D01*
X241477Y228150D01*
X240868Y227682D01*
X240306Y227160D01*
Y237660D01*
X240868Y237138D01*
D02*
G37*
G36*
X214198Y282679D02*
X207122D01*
X207186Y282843D01*
X207244Y283200D01*
X207295Y283749D01*
X207430Y287873D01*
X207460Y292988D01*
X213860D01*
X214198Y282679D01*
D02*
G37*
G36*
X129402Y284284D02*
X129495Y283098D01*
X129578Y282617D01*
X129683Y282209D01*
X129813Y281876D01*
X129965Y281616D01*
X130141Y281431D01*
X130341Y281320D01*
X130564Y281283D01*
X123215D01*
X123438Y281320D01*
X123638Y281431D01*
X123814Y281616D01*
X123967Y281876D01*
X124096Y282209D01*
X124202Y282617D01*
X124284Y283098D01*
X124343Y283654D01*
X124390Y284988D01*
X129390D01*
X129402Y284284D01*
D02*
G37*
G36*
X473649Y263759D02*
X473881Y260501D01*
X476100D01*
X475630Y260401D01*
X475210Y260100D01*
X474840Y259601D01*
X474519Y258901D01*
X474251Y258013D01*
X474560Y256689D01*
X474845Y255866D01*
X475168Y255145D01*
X475529Y254526D01*
X473786D01*
X473655Y252400D01*
X473630Y250501D01*
X463630D01*
X463605Y252400D01*
X463430Y254526D01*
X462404D01*
Y245401D01*
X462075Y245572D01*
X461625Y245725D01*
X461055Y245860D01*
X460364Y245977D01*
X458620Y246156D01*
X456394Y246264D01*
X453686Y246300D01*
Y254300D01*
X455101Y254309D01*
X460364Y254624D01*
X461055Y254741D01*
X461625Y254876D01*
X462011Y255007D01*
X462092Y255145D01*
X462415Y255866D01*
X462700Y256689D01*
X462946Y257613D01*
X463019Y257969D01*
X463013Y258001D01*
X462741Y258901D01*
X462420Y259601D01*
X462049Y260100D01*
X461630Y260401D01*
X461161Y260501D01*
X463395D01*
X463459Y260996D01*
X463554Y262327D01*
X463630Y265294D01*
X473630D01*
X473649Y263759D01*
D02*
G37*
G36*
X259118Y565865D02*
X259269Y565440D01*
X259521Y565065D01*
X259873Y564740D01*
X260326Y564465D01*
X260879Y564240D01*
X261533Y564065D01*
X262288Y563940D01*
X263143Y563865D01*
X264098Y563840D01*
Y558840D01*
X263143Y558815D01*
X262288Y558740D01*
X261533Y558615D01*
X260879Y558440D01*
X260326Y558215D01*
X259873Y557940D01*
X259521Y557615D01*
X259269Y557240D01*
X259118Y556815D01*
X259068Y556340D01*
Y566340D01*
X259118Y565865D01*
D02*
G37*
G36*
X338806Y227478D02*
X338581Y227108D01*
X338521Y226641D01*
X338629Y226079D01*
X338902Y225420D01*
X339342Y224664D01*
X339948Y223813D01*
X340720Y222865D01*
X342764Y220681D01*
X336729Y219646D01*
X335812Y220527D01*
X334120Y221939D01*
X333343Y222471D01*
X332613Y222886D01*
X331929Y223184D01*
X331291Y223366D01*
X330700Y223431D01*
X330156Y223380D01*
X329658Y223212D01*
X339198Y227752D01*
X338806Y227478D01*
D02*
G37*
G36*
X240012Y582416D02*
X239999Y582224D01*
X239957Y579486D01*
X239950Y576420D01*
X229950D01*
X229873Y582489D01*
X240027D01*
X240012Y582416D01*
D02*
G37*
G36*
X135267Y217986D02*
X135371Y217829D01*
X135543Y217691D01*
X135785Y217572D01*
X136096Y217470D01*
X136475Y217388D01*
X136924Y217323D01*
X137442Y217277D01*
X138684Y217240D01*
Y212240D01*
X138028Y212231D01*
X136924Y212157D01*
X136475Y212093D01*
X136096Y212010D01*
X135785Y211909D01*
X135543Y211789D01*
X135371Y211651D01*
X135267Y211495D01*
X135233Y211320D01*
Y218161D01*
X135267Y217986D01*
D02*
G37*
G36*
X238317Y573056D02*
X238426Y571224D01*
X238845D01*
X238744Y571017D01*
X238653Y570636D01*
X238572Y570082D01*
X238527Y569512D01*
X238567Y568846D01*
X238659Y568294D01*
X238766Y567839D01*
X238888Y567480D01*
X239023Y567218D01*
X238414D01*
X238315Y563110D01*
X238310Y561340D01*
X231910D01*
X231592Y567218D01*
X231411D01*
Y555141D01*
X230983Y555711D01*
X230502Y556221D01*
X229967Y556670D01*
X229379Y557060D01*
X228737Y557390D01*
X228041Y557660D01*
X227292Y557870D01*
X226488Y558020D01*
X225632Y558110D01*
X224722Y558140D01*
Y564540D01*
X225632Y564570D01*
X226488Y564660D01*
X227292Y564810D01*
X228041Y565020D01*
X228737Y565290D01*
X229379Y565620D01*
X229967Y566009D01*
X230502Y566459D01*
X230983Y566969D01*
X231255Y567332D01*
X231332Y567480D01*
X231453Y567839D01*
X231539Y568200D01*
X231375Y571224D01*
X231843D01*
X231882Y572021D01*
X231910Y574189D01*
X238310D01*
X238317Y573056D01*
D02*
G37*
G36*
X157128Y582092D02*
X156660Y581483D01*
X156248Y580827D01*
X155890Y580126D01*
X155588Y579377D01*
X155340Y578583D01*
X155147Y577742D01*
X155142Y577705D01*
X155300Y577114D01*
X155525Y576561D01*
X155800Y576108D01*
X156125Y575756D01*
X156500Y575504D01*
X156925Y575354D01*
X157400Y575303D01*
X154910D01*
X154900Y574939D01*
X149900D01*
X149890Y575303D01*
X147400D01*
X147875Y575354D01*
X148300Y575504D01*
X148675Y575756D01*
X149000Y576108D01*
X149275Y576561D01*
X149500Y577114D01*
X149658Y577705D01*
X149653Y577742D01*
X149460Y578583D01*
X149213Y579377D01*
X148910Y580126D01*
X148553Y580827D01*
X148140Y581483D01*
X147673Y582092D01*
X147150Y582654D01*
X157650D01*
X157128Y582092D01*
D02*
G37*
G36*
X182325Y580490D02*
X181900Y580340D01*
X181525Y580090D01*
X181200Y579740D01*
X180925Y579291D01*
X180700Y578741D01*
X180525Y578091D01*
X180400Y577341D01*
X180325Y576491D01*
X180300Y575541D01*
X175300D01*
X175275Y576491D01*
X175200Y577341D01*
X175075Y578091D01*
X174900Y578741D01*
X174675Y579291D01*
X174400Y579740D01*
X174075Y580090D01*
X173700Y580340D01*
X173275Y580490D01*
X172800Y580541D01*
X182800D01*
X182325Y580490D01*
D02*
G37*
G36*
X129822Y288923D02*
X129755Y288783D01*
X129695Y288572D01*
X129643Y288289D01*
X129599Y287936D01*
X129536Y287014D01*
X129500Y285098D01*
X124500D01*
X124496Y285808D01*
X124305Y288572D01*
X124245Y288783D01*
X124178Y288923D01*
X124102Y288992D01*
X129898D01*
X129822Y288923D01*
D02*
G37*
G36*
X105260Y308476D02*
X105249Y308398D01*
X105240Y308269D01*
X105211Y306402D01*
X105210Y305910D01*
X100210D01*
X100148Y308502D01*
X105272D01*
X105260Y308476D01*
D02*
G37*
G36*
X84343Y523102D02*
X84258Y523011D01*
X84184Y522859D01*
X84119Y522647D01*
X84064Y522374D01*
X84020Y522040D01*
X83960Y521190D01*
X83940Y520098D01*
X78940D01*
X78935Y520675D01*
X78816Y522374D01*
X78761Y522647D01*
X78696Y522859D01*
X78622Y523011D01*
X78537Y523102D01*
X78443Y523132D01*
X84438D01*
X84343Y523102D01*
D02*
G37*
G36*
X214438Y310090D02*
X214317Y309731D01*
X214209Y309276D01*
X214117Y308724D01*
X213974Y307330D01*
X213888Y305549D01*
X213860Y303381D01*
X207460D01*
X207453Y304513D01*
X207203Y308724D01*
X207111Y309276D01*
X207003Y309731D01*
X206882Y310090D01*
X206747Y310352D01*
X214573D01*
X214438Y310090D01*
D02*
G37*
G36*
X113042Y309960D02*
X112992Y310435D01*
X112841Y310860D01*
X112589Y311235D01*
X112237Y311560D01*
X111784Y311835D01*
X111231Y312060D01*
X110577Y312235D01*
X109855Y312355D01*
X109133Y312235D01*
X108479Y312060D01*
X107926Y311835D01*
X107473Y311560D01*
X107121Y311235D01*
X106869Y310860D01*
X106718Y310435D01*
X106668Y309960D01*
Y319960D01*
X106718Y319485D01*
X106869Y319060D01*
X107121Y318685D01*
X107473Y318360D01*
X107926Y318085D01*
X108479Y317860D01*
X109133Y317685D01*
X109855Y317565D01*
X110577Y317685D01*
X111231Y317860D01*
X111784Y318085D01*
X112237Y318360D01*
X112589Y318685D01*
X112841Y319060D01*
X112992Y319485D01*
X113042Y319960D01*
Y309960D01*
D02*
G37*
G36*
X43688Y316288D02*
X43573Y316155D01*
X43472Y315935D01*
X43384Y315625D01*
X43309Y315227D01*
X43248Y314741D01*
X43167Y313503D01*
X43140Y311912D01*
X38140D01*
X38133Y312752D01*
X37971Y315227D01*
X37896Y315625D01*
X37808Y315935D01*
X37707Y316155D01*
X37592Y316288D01*
X37463Y316332D01*
X43817D01*
X43688Y316288D01*
D02*
G37*
G36*
X139550Y308476D02*
X139539Y308398D01*
X139530Y308269D01*
X139501Y306402D01*
X139500Y305910D01*
X135485D01*
X138010Y303385D01*
X137336Y302672D01*
X136734Y301953D01*
X136204Y301228D01*
X135745Y300497D01*
X135358Y299760D01*
X135043Y299017D01*
X134799Y298268D01*
X134628Y297513D01*
X134528Y296752D01*
X134500Y295985D01*
X127075Y303410D01*
X127842Y303438D01*
X128603Y303538D01*
X129358Y303709D01*
X130107Y303953D01*
X130850Y304268D01*
X131587Y304655D01*
X132318Y305114D01*
X133043Y305644D01*
X133762Y306246D01*
X134475Y306920D01*
X134476Y306919D01*
X134438Y308502D01*
X139562D01*
X139550Y308476D01*
D02*
G37*
G36*
X362131Y309494D02*
X361818Y308953D01*
X361542Y308371D01*
X361303Y307748D01*
X361100Y307085D01*
X360934Y306381D01*
X360806Y305636D01*
X360714Y304850D01*
X360640Y303157D01*
X355640D01*
X355622Y304024D01*
X355474Y305636D01*
X355345Y306381D01*
X355180Y307085D01*
X354977Y307748D01*
X354738Y308371D01*
X354462Y308953D01*
X354149Y309494D01*
X353799Y309994D01*
X362481D01*
X362131Y309494D01*
D02*
G37*
G36*
X188810Y303385D02*
X188136Y302672D01*
X187534Y301953D01*
X187004Y301228D01*
X186545Y300497D01*
X186158Y299760D01*
X185843Y299017D01*
X185599Y298268D01*
X185428Y297513D01*
X185328Y296752D01*
X185300Y295985D01*
X177875Y303410D01*
X178642Y303438D01*
X179403Y303538D01*
X180158Y303709D01*
X180907Y303953D01*
X181650Y304268D01*
X182387Y304655D01*
X183118Y305114D01*
X183843Y305644D01*
X184562Y306246D01*
X185275Y306920D01*
X188810Y303385D01*
D02*
G37*
G36*
X373251Y298250D02*
X373315Y297538D01*
X373421Y296875D01*
X373570Y296263D01*
X373762Y295702D01*
X373996Y295190D01*
X374273Y294730D01*
X374593Y294319D01*
X374954Y293959D01*
X375359Y293649D01*
X366101D01*
X366505Y293959D01*
X366867Y294319D01*
X367186Y294730D01*
X367463Y295190D01*
X367697Y295702D01*
X367889Y296263D01*
X368038Y296875D01*
X368145Y297538D01*
X368209Y298250D01*
X368230Y299013D01*
X373230D01*
X373251Y298250D01*
D02*
G37*
G36*
X111772Y524590D02*
X111722Y525065D01*
X111571Y525490D01*
X111319Y525865D01*
X110967Y526190D01*
X110514Y526465D01*
X109961Y526690D01*
X109307Y526865D01*
X108585Y526985D01*
X107863Y526865D01*
X107209Y526690D01*
X106656Y526465D01*
X106203Y526190D01*
X105851Y525865D01*
X105599Y525490D01*
X105448Y525065D01*
X105398Y524590D01*
Y534590D01*
X105448Y534115D01*
X105599Y533690D01*
X105851Y533315D01*
X106203Y532990D01*
X106656Y532715D01*
X107209Y532490D01*
X107863Y532315D01*
X108585Y532195D01*
X109307Y532315D01*
X109961Y532490D01*
X110514Y532715D01*
X110967Y532990D01*
X111319Y533315D01*
X111571Y533690D01*
X111722Y534115D01*
X111772Y534590D01*
Y524590D01*
D02*
G37*
G36*
X374831Y309494D02*
X374518Y308953D01*
X374242Y308371D01*
X374003Y307748D01*
X373800Y307085D01*
X373634Y306381D01*
X373506Y305636D01*
X373414Y304850D01*
X373340Y303157D01*
X368340D01*
X368322Y304024D01*
X368174Y305636D01*
X368046Y306381D01*
X367880Y307085D01*
X367677Y307748D01*
X367438Y308371D01*
X367162Y308953D01*
X366849Y309494D01*
X366499Y309994D01*
X375181D01*
X374831Y309494D01*
D02*
G37*
G36*
X226121Y555496D02*
X226713Y555385D01*
X227234Y555239D01*
X227691Y555062D01*
X228089Y554857D01*
X228438Y554626D01*
X228749Y554364D01*
X229031Y554066D01*
X229372Y553611D01*
X229416Y553572D01*
X229587Y553317D01*
X230036Y553017D01*
X230113Y552947D01*
X230169Y552928D01*
X230744Y552543D01*
X232110Y552271D01*
X238110D01*
X240520Y549907D01*
Y530526D01*
X223092Y513098D01*
X205472D01*
X197940Y520630D01*
X199182Y523630D01*
X205850D01*
X206294Y523333D01*
X207660Y523061D01*
X213660D01*
X215026Y523333D01*
X216183Y524107D01*
X216957Y525264D01*
X217229Y526630D01*
Y537630D01*
X216957Y538996D01*
X216496Y539686D01*
X216967Y540824D01*
X217225Y542782D01*
Y546656D01*
X217234Y546700D01*
Y555528D01*
X225810D01*
X226121Y555496D01*
D02*
G37*
G36*
X44631Y533014D02*
X44318Y532473D01*
X44042Y531891D01*
X43803Y531268D01*
X43600Y530605D01*
X43435Y529901D01*
X43306Y529156D01*
X43214Y528370D01*
X43140Y526677D01*
X38140D01*
X38122Y527544D01*
X37974Y529156D01*
X37845Y529901D01*
X37680Y530605D01*
X37477Y531268D01*
X37238Y531891D01*
X36962Y532473D01*
X36649Y533014D01*
X36299Y533514D01*
X44981D01*
X44631Y533014D01*
D02*
G37*
D10*
X255110Y129540D02*
D03*
X235110D02*
D03*
X210660Y99060D02*
D03*
X190660D02*
D03*
X115730D02*
D03*
X135730D02*
D03*
X101440D02*
D03*
X81440D02*
D03*
X255110Y345440D02*
D03*
X235110D02*
D03*
X210660Y316230D02*
D03*
X190660D02*
D03*
X102710Y314960D02*
D03*
X82710D02*
D03*
X117000D02*
D03*
X137000D02*
D03*
X255110Y561340D02*
D03*
X235110D02*
D03*
X210660Y532130D02*
D03*
X190660D02*
D03*
X115730Y529590D02*
D03*
X135730D02*
D03*
X101440D02*
D03*
X81440D02*
D03*
D12*
X234950Y153710D02*
X235110D01*
X234950D02*
Y156210D01*
Y151040D02*
Y153710D01*
X209660Y542782D02*
Y552450D01*
X234950Y574708D02*
Y588010D01*
Y574708D02*
X235110Y574548D01*
X209660Y109712D02*
Y119380D01*
Y326882D02*
Y336550D01*
X234950Y358808D02*
Y372110D01*
Y358808D02*
X235110Y358648D01*
X383540Y520048D02*
Y532130D01*
X387460Y504190D02*
Y516128D01*
X152400Y336440D02*
X172720D01*
X182228Y336550D02*
X191660D01*
X35560Y588010D02*
X101600D01*
X27940Y595630D02*
X35560Y588010D01*
X36830Y156210D02*
X101600D01*
X29210Y163830D02*
X36830Y156210D01*
Y372110D02*
X101600D01*
X29210Y379730D02*
X36830Y372110D01*
X101600Y570340D02*
Y588010D01*
X468630Y250300D02*
Y267970D01*
X101600Y138540D02*
Y156210D01*
X311150Y232410D02*
X329040Y250300D01*
X101600Y354440D02*
Y372110D01*
X210660Y279146D02*
X236822Y252984D01*
X290576D01*
X311150Y232410D01*
X152400Y295910D02*
Y336440D01*
D13*
X358140Y509380D02*
Y532130D01*
X44290Y91600D02*
X81440D01*
X44450Y308102D02*
X82710D01*
X327152Y593250D02*
Y597408D01*
X190660Y524670D02*
Y532130D01*
Y520700D02*
Y524670D01*
X327152Y161450D02*
Y165608D01*
X190660Y76200D02*
Y83345D01*
X350520Y509380D02*
X358140D01*
X127000Y500998D02*
Y511810D01*
X126890Y500888D02*
X127000Y500998D01*
X126890Y490220D02*
Y500888D01*
X127000Y69198D02*
Y80010D01*
X126890Y69088D02*
X127000Y69198D01*
X126890Y58420D02*
Y69088D01*
X127000Y285098D02*
Y295910D01*
X126890Y284988D02*
X127000Y285098D01*
X126890Y274320D02*
Y284988D01*
X370840Y518778D02*
Y532130D01*
X369460Y517398D02*
X370840Y518778D01*
X369460Y504190D02*
Y517398D01*
X370840Y302116D02*
Y317500D01*
X370730Y302006D02*
X370840Y302116D01*
X370730Y287020D02*
Y302006D01*
X369570Y87486D02*
Y102870D01*
X369460Y87376D02*
X369570Y87486D01*
X369460Y72390D02*
Y87376D01*
X82710Y308102D02*
Y314960D01*
X40640Y311912D02*
X44450Y308102D01*
X40640Y311912D02*
Y325120D01*
X327152Y593250D02*
X332740D01*
X323850Y600710D02*
X327152Y597408D01*
X265176Y600710D02*
X323850D01*
X245618Y581152D02*
X265176Y600710D01*
X245618Y528414D02*
Y581152D01*
X225204Y508000D02*
X245618Y528414D01*
X203360Y508000D02*
X225204D01*
X190660Y520700D02*
X203360Y508000D01*
X327152Y161450D02*
X332740D01*
X323850Y168910D02*
X327152Y165608D01*
X265176Y168910D02*
X323850D01*
X245110Y148844D02*
X265176Y168910D01*
X245110Y70104D02*
Y148844D01*
X196756Y70104D02*
X245110D01*
X190660Y76200D02*
X196756Y70104D01*
X190660Y90020D02*
Y99060D01*
Y83345D02*
Y90020D01*
X187325Y80010D02*
X190660Y83345D01*
X177800Y80010D02*
X187325D01*
X330200Y377350D02*
X332740D01*
X322740Y384810D02*
X330200Y377350D01*
X266700Y384810D02*
X322740D01*
X358140Y297290D02*
Y317500D01*
X351790Y290940D02*
X358140Y297290D01*
X135730Y520540D02*
Y529590D01*
X127000Y511810D02*
X135730Y520540D01*
X177800Y575420D02*
Y588010D01*
X172720Y570340D02*
X177800Y575420D01*
X135730Y88740D02*
Y99060D01*
X127000Y80010D02*
X135730Y88740D01*
X177800Y143620D02*
Y156210D01*
X172720Y138540D02*
X177800Y143620D01*
X137000Y305910D02*
Y314960D01*
X127000Y295910D02*
X137000Y305910D01*
X177800Y359520D02*
Y372110D01*
X172720Y354440D02*
X177800Y359520D01*
X52940Y238360D02*
X100730D01*
X29210Y214630D02*
X52940Y238360D01*
X54210Y455530D02*
X100730D01*
X29210Y430530D02*
X54210Y455530D01*
X356870Y82660D02*
Y102870D01*
X350520Y76310D02*
X356870Y82660D01*
X321978Y638970D02*
X332740D01*
X321818Y638810D02*
X321978Y638970D01*
X311150Y638810D02*
X321818D01*
X321978Y207170D02*
X332740D01*
X321818Y207010D02*
X321978Y207170D01*
X311150Y207010D02*
X321818D01*
X321978Y423070D02*
X332740D01*
X321818Y422910D02*
X321978Y423070D01*
X311150Y422910D02*
X321818D01*
X234950Y664210D02*
X251350D01*
X321978Y613250D02*
X332740D01*
X321818Y613410D02*
X321978Y613250D01*
X311150Y613410D02*
X321818D01*
X251350Y628650D02*
Y638810D01*
Y628650D02*
X266590Y613410D01*
X311150D01*
X234950Y638810D02*
X251350D01*
X234950Y232410D02*
X251350D01*
X128270Y609346D02*
Y629810D01*
X127000Y608076D02*
X128270Y609346D01*
X127000Y588010D02*
Y608076D01*
X321978Y181450D02*
X332740D01*
X321818Y181610D02*
X321978Y181450D01*
X311150Y181610D02*
X321818D01*
X251350Y196850D02*
Y207010D01*
Y196850D02*
X266590Y181610D01*
X311150D01*
X234950Y207010D02*
X251350D01*
X152400Y570340D02*
Y588010D01*
X128270Y177038D02*
Y196740D01*
X127000Y175768D02*
X128270Y177038D01*
X127000Y156210D02*
Y175768D01*
X152400Y138540D02*
Y156210D01*
X234950Y448310D02*
X251350D01*
X321978Y397350D02*
X332740D01*
X321818Y397510D02*
X321978Y397350D01*
X311150Y397510D02*
X321818D01*
X266700D02*
X311150D01*
X251350Y412860D02*
X266700Y397510D01*
X251350Y412860D02*
Y422910D01*
X234950D02*
X251350D01*
X128270Y392938D02*
Y412640D01*
X127000Y391668D02*
X128270Y392938D01*
X127000Y372110D02*
Y391668D01*
X152400Y354440D02*
Y372110D01*
X255110Y561340D02*
X354330D01*
X358140Y565150D01*
Y575310D01*
X255110Y345440D02*
X354330D01*
X358140Y349250D01*
Y359410D01*
X258920Y143510D02*
X356870D01*
X255110Y139700D02*
X258920Y143510D01*
X255110Y129540D02*
Y139700D01*
X27940Y646430D02*
X74460D01*
X100730Y672700D01*
X40640Y520700D02*
Y541020D01*
Y520700D02*
X41242Y520098D01*
X81440D01*
Y529590D01*
X40640Y95250D02*
Y109220D01*
Y95250D02*
X44290Y91600D01*
X81440D02*
Y99060D01*
X370840Y575310D02*
Y620870D01*
X332740Y658970D02*
X370840Y620870D01*
Y359410D02*
Y427830D01*
X355600Y443070D02*
X370840Y427830D01*
X332740Y443070D02*
X355600D01*
X369570Y143510D02*
Y190340D01*
X332740Y227170D02*
X369570Y190340D01*
X177800Y511810D02*
X190660Y524670D01*
X101440Y520606D02*
Y529590D01*
Y520606D02*
X101600Y520446D01*
Y511810D02*
Y520446D01*
X101440Y529590D02*
X115730D01*
X101440Y89568D02*
Y99060D01*
Y89568D02*
X101600Y89408D01*
Y80010D02*
Y89408D01*
X101440Y99060D02*
X115730D01*
X190660Y308770D02*
Y316230D01*
X177800Y295910D02*
X190660Y308770D01*
X102710Y305910D02*
Y314960D01*
X101600Y304800D02*
X102710Y305910D01*
X101600Y295910D02*
Y304800D01*
X102710Y314960D02*
X117000D01*
X139302Y647700D02*
X150730D01*
X139192Y647810D02*
X139302Y647700D01*
X128270Y647810D02*
X139192D01*
X140064Y213360D02*
X150730D01*
X138684Y214740D02*
X140064Y213360D01*
X128270Y214740D02*
X138684D01*
X139302Y430530D02*
X150730D01*
X139192Y430640D02*
X139302Y430530D01*
X128270Y430640D02*
X139192D01*
D14*
X27940Y27940D02*
D03*
X472440Y671830D02*
D03*
Y114300D02*
D03*
D15*
X311150Y588010D02*
D03*
Y156210D02*
D03*
Y372110D02*
D03*
D16*
Y613410D02*
D03*
Y638810D02*
D03*
Y664210D02*
D03*
X234950Y588010D02*
D03*
Y613410D02*
D03*
Y638810D02*
D03*
Y664210D02*
D03*
X311150Y181610D02*
D03*
Y207010D02*
D03*
Y232410D02*
D03*
X234950Y156210D02*
D03*
Y181610D02*
D03*
Y207010D02*
D03*
Y232410D02*
D03*
X27940Y621030D02*
D03*
Y646430D02*
D03*
X152400Y588010D02*
D03*
X127000D02*
D03*
X101600D02*
D03*
X177800Y511810D02*
D03*
X152400D02*
D03*
X127000D02*
D03*
X101600D02*
D03*
X29210Y189230D02*
D03*
Y214630D02*
D03*
X152400Y156210D02*
D03*
X127000D02*
D03*
X101600D02*
D03*
X177800Y80010D02*
D03*
X152400D02*
D03*
X127000D02*
D03*
X101600D02*
D03*
X311150Y397510D02*
D03*
Y422910D02*
D03*
Y448310D02*
D03*
X234950Y372110D02*
D03*
Y397510D02*
D03*
Y422910D02*
D03*
Y448310D02*
D03*
X29210Y405130D02*
D03*
Y430530D02*
D03*
X152400Y372110D02*
D03*
X127000D02*
D03*
X101600D02*
D03*
X177800Y295910D02*
D03*
X152400D02*
D03*
X127000D02*
D03*
X101600D02*
D03*
X468630Y369570D02*
D03*
Y344170D02*
D03*
Y318770D02*
D03*
Y293370D02*
D03*
D17*
X27940Y595630D02*
D03*
X177800Y588010D02*
D03*
X29210Y163830D02*
D03*
X177800Y156210D02*
D03*
X29210Y379730D02*
D03*
X177800Y372110D02*
D03*
X468630Y267970D02*
D03*
D18*
X27940Y541020D02*
D03*
X40640D02*
D03*
X27940Y109220D02*
D03*
X40640D02*
D03*
X27940Y325120D02*
D03*
X40640D02*
D03*
X382270Y102870D02*
D03*
X369570D02*
D03*
X383540Y317500D02*
D03*
X370840D02*
D03*
X383540Y532130D02*
D03*
X370840D02*
D03*
X356870Y143510D02*
D03*
X369570D02*
D03*
X358140Y359410D02*
D03*
X370840D02*
D03*
X358140Y575310D02*
D03*
X370840D02*
D03*
D19*
X53340Y541020D02*
D03*
Y109220D02*
D03*
Y325120D02*
D03*
X356870Y102870D02*
D03*
X358140Y317500D02*
D03*
Y532130D02*
D03*
X382270Y143510D02*
D03*
X383540Y359410D02*
D03*
Y575310D02*
D03*
D20*
X100730Y622700D02*
D03*
Y672700D02*
D03*
X150730Y647700D02*
D03*
X100730Y188360D02*
D03*
Y238360D02*
D03*
X150730Y213360D02*
D03*
X100730Y405530D02*
D03*
Y455530D02*
D03*
X150730Y430530D02*
D03*
D21*
X266700Y384810D02*
D03*
D22*
X350520Y58310D02*
D03*
Y76310D02*
D03*
X152400Y120540D02*
D03*
Y138540D02*
D03*
X172720Y120540D02*
D03*
Y138540D02*
D03*
X101600Y120540D02*
D03*
Y138540D02*
D03*
X128270Y214740D02*
D03*
Y196740D02*
D03*
X351790Y272940D02*
D03*
Y290940D02*
D03*
X152400Y336440D02*
D03*
Y354440D02*
D03*
X172720Y336440D02*
D03*
Y354440D02*
D03*
X101600Y336440D02*
D03*
Y354440D02*
D03*
X128270Y430640D02*
D03*
Y412640D02*
D03*
X468630Y232300D02*
D03*
Y250300D02*
D03*
X350520Y491380D02*
D03*
Y509380D02*
D03*
X101600Y552340D02*
D03*
Y570340D02*
D03*
X152400Y552340D02*
D03*
Y570340D02*
D03*
X172720Y552340D02*
D03*
Y570340D02*
D03*
X128270Y647810D02*
D03*
Y629810D02*
D03*
D23*
X387460Y72390D02*
D03*
X369460D02*
D03*
X269350Y207010D02*
D03*
X251350D02*
D03*
X269350Y232410D02*
D03*
X251350D02*
D03*
X191660Y119380D02*
D03*
X209660D02*
D03*
X144890Y58420D02*
D03*
X126890D02*
D03*
X388730Y287020D02*
D03*
X370730D02*
D03*
X269350Y448310D02*
D03*
X251350D02*
D03*
X269350Y422910D02*
D03*
X251350D02*
D03*
X144890Y274320D02*
D03*
X126890D02*
D03*
X191660Y336550D02*
D03*
X209660D02*
D03*
X387460Y504190D02*
D03*
X369460D02*
D03*
X269350Y664210D02*
D03*
X251350D02*
D03*
X191660Y552450D02*
D03*
X209660D02*
D03*
X144890Y490220D02*
D03*
X126890D02*
D03*
X269350Y638810D02*
D03*
X251350D02*
D03*
D24*
X332740Y207170D02*
D03*
Y227170D02*
D03*
Y181450D02*
D03*
Y161450D02*
D03*
Y397350D02*
D03*
Y377350D02*
D03*
Y423070D02*
D03*
Y443070D02*
D03*
Y638970D02*
D03*
Y658970D02*
D03*
Y613250D02*
D03*
Y593250D02*
D03*
D25*
X209660Y345440D02*
X235110D01*
X209660Y123190D02*
X235110D01*
X209660Y561340D02*
X235110D01*
X209660Y542782D02*
X210660Y541782D01*
Y532130D02*
Y541782D01*
X235110Y561340D02*
Y574548D01*
X209660Y109712D02*
X210660Y108712D01*
Y99060D02*
Y108712D01*
X209660Y326882D02*
X210660Y325882D01*
Y316230D02*
Y325882D01*
X235110Y345440D02*
Y358648D01*
Y129540D02*
Y153710D01*
Y123190D02*
Y129540D01*
X210660Y279146D02*
Y316230D01*
D26*
X209660Y552450D02*
Y561340D01*
Y336550D02*
Y345440D01*
X383540Y520048D02*
X387460Y516128D01*
X182118Y336440D02*
X182228Y336550D01*
X172720Y336440D02*
X182118D01*
X329040Y250300D02*
X468630D01*
X209660Y119380D02*
Y123190D01*
M02*
