G04 Layer_Color=16711935*
%FSLAX44Y44*%
%MOMM*%
G71*
G01*
G75*
%ADD31C,0.2540*%
%ADD46C,0.3000*%
%ADD47C,0.1524*%
D31*
X-104140Y687000D02*
X13000D01*
X-104140Y13000D02*
X13000D01*
X-101600Y419827D02*
Y687000D01*
Y13000D02*
Y272045D01*
X-106680Y671760D02*
X-101600Y687000D01*
X-96520Y671760D01*
X-101600Y13000D02*
X-96520Y28240D01*
X-106680D02*
X-101600Y13000D01*
X487000Y-71120D02*
Y13000D01*
X13000Y-71120D02*
Y13000D01*
X319827Y-68580D02*
X487000D01*
X13000D02*
X172045D01*
X471760Y-63500D02*
X487000Y-68580D01*
X471760Y-73660D02*
X487000Y-68580D01*
X13000D02*
X28240Y-73660D01*
X13000Y-68580D02*
X28240Y-63500D01*
D46*
X0Y0D02*
X500000D01*
X0D02*
Y700000D01*
X500000Y0D02*
Y700000D01*
X0D02*
X500000D01*
D47*
X-105154Y286265D02*
X-102615Y281187D01*
X-97537Y276109D01*
X-92458D01*
X-89919Y278648D01*
Y283726D01*
X-92458Y286265D01*
X-94998D01*
X-97537Y283726D01*
Y276109D01*
X-105154Y291344D02*
Y301500D01*
X-102615D01*
X-92458Y291344D01*
X-89919D01*
X-87380Y309118D02*
X-89919Y311657D01*
X-92458D01*
Y309118D01*
X-89919D01*
Y311657D01*
X-87380Y309118D01*
X-84841Y306579D01*
X-89919Y329431D02*
X-105154D01*
X-97537Y321814D01*
Y331971D01*
X-102615Y337049D02*
X-105154Y339588D01*
Y344666D01*
X-102615Y347206D01*
X-92458D01*
X-89919Y344666D01*
Y339588D01*
X-92458Y337049D01*
X-102615D01*
X-89919Y372597D02*
X-94998Y367519D01*
X-100076D01*
X-105154Y372597D01*
X-89919Y380215D02*
X-100076D01*
Y382754D01*
X-97537Y385293D01*
X-89919D01*
X-97537D01*
X-100076Y387832D01*
X-97537Y390372D01*
X-89919D01*
Y395450D02*
X-100076D01*
Y397989D01*
X-97537Y400528D01*
X-89919D01*
X-97537D01*
X-100076Y403068D01*
X-97537Y405607D01*
X-89919D01*
Y410685D02*
X-94998Y415764D01*
X-100076D01*
X-105154Y410685D01*
X183726Y-80261D02*
Y-65026D01*
X176109Y-72643D01*
X186265D01*
X191344Y-65026D02*
X201500D01*
Y-67565D01*
X191344Y-77722D01*
Y-80261D01*
X209118Y-82800D02*
X211657Y-80261D01*
Y-77722D01*
X209118D01*
Y-80261D01*
X211657D01*
X209118Y-82800D01*
X206579Y-85339D01*
X229431Y-80261D02*
Y-65026D01*
X221814Y-72643D01*
X231971D01*
X237049Y-67565D02*
X239588Y-65026D01*
X244666D01*
X247206Y-67565D01*
Y-77722D01*
X244666Y-80261D01*
X239588D01*
X237049Y-77722D01*
Y-67565D01*
X272597Y-80261D02*
X267519Y-75182D01*
Y-70104D01*
X272597Y-65026D01*
X280215Y-80261D02*
Y-70104D01*
X282754D01*
X285293Y-72643D01*
Y-80261D01*
Y-72643D01*
X287832Y-70104D01*
X290372Y-72643D01*
Y-80261D01*
X295450D02*
Y-70104D01*
X297989D01*
X300528Y-72643D01*
Y-80261D01*
Y-72643D01*
X303067Y-70104D01*
X305607Y-72643D01*
Y-80261D01*
X310685D02*
X315763Y-75182D01*
Y-70104D01*
X310685Y-65026D01*
M02*
