G04 Layer_Physical_Order=1*
G04 Layer_Color=255*
%FSLAX44Y44*%
%MOMM*%
G71*
G01*
G75*
G04:AMPARAMS|DCode=10|XSize=1.3mm|YSize=0.8mm|CornerRadius=0.1mm|HoleSize=0mm|Usage=FLASHONLY|Rotation=270.000|XOffset=0mm|YOffset=0mm|HoleType=Round|Shape=RoundedRectangle|*
%AMROUNDEDRECTD10*
21,1,1.3000,0.6000,0,0,270.0*
21,1,1.1000,0.8000,0,0,270.0*
1,1,0.2000,-0.3000,-0.5500*
1,1,0.2000,-0.3000,0.5500*
1,1,0.2000,0.3000,0.5500*
1,1,0.2000,0.3000,-0.5500*
%
%ADD10ROUNDEDRECTD10*%
G04:AMPARAMS|DCode=11|XSize=1.27mm|YSize=1.27mm|CornerRadius=0.1588mm|HoleSize=0mm|Usage=FLASHONLY|Rotation=270.000|XOffset=0mm|YOffset=0mm|HoleType=Round|Shape=RoundedRectangle|*
%AMROUNDEDRECTD11*
21,1,1.2700,0.9525,0,0,270.0*
21,1,0.9525,1.2700,0,0,270.0*
1,1,0.3175,-0.4763,-0.4763*
1,1,0.3175,-0.4763,0.4763*
1,1,0.3175,0.4763,0.4763*
1,1,0.3175,0.4763,-0.4763*
%
%ADD11ROUNDEDRECTD11*%
%ADD12C,1.0000*%
%ADD13C,0.5000*%
%ADD14C,5.0000*%
%ADD15R,1.5000X1.5000*%
%ADD16C,1.5000*%
%ADD17R,1.5000X1.5000*%
%ADD18O,1.0000X2.0000*%
%ADD19O,1.0000X2.0000*%
%ADD20C,2.0000*%
%ADD21C,0.9000*%
G36*
X444997Y682280D02*
X446101Y679921D01*
X445195Y676145D01*
X444855Y671830D01*
X445195Y667515D01*
X446205Y663306D01*
X447862Y659307D01*
X450123Y655616D01*
X452934Y652324D01*
X456226Y649513D01*
X459917Y647252D01*
X463916Y645595D01*
X468125Y644585D01*
X472440Y644245D01*
X476755Y644585D01*
X479921Y645345D01*
X482921Y643591D01*
Y142539D01*
X479921Y140785D01*
X476755Y141545D01*
X472440Y141885D01*
X468125Y141545D01*
X463916Y140535D01*
X459917Y138878D01*
X456226Y136617D01*
X452934Y133806D01*
X450123Y130514D01*
X447862Y126823D01*
X446205Y122824D01*
X445195Y118615D01*
X444855Y114300D01*
X445195Y109985D01*
X446205Y105776D01*
X447862Y101777D01*
X450123Y98086D01*
X452934Y94794D01*
X456226Y91983D01*
X459917Y89722D01*
X463916Y88065D01*
X468125Y87055D01*
X472440Y86715D01*
X476755Y87055D01*
X479921Y87815D01*
X482921Y86061D01*
Y17079D01*
X55903D01*
X54334Y20079D01*
X55185Y23625D01*
X55525Y27940D01*
X55185Y32255D01*
X54175Y36464D01*
X52518Y40463D01*
X50257Y44154D01*
X47446Y47446D01*
X44154Y50257D01*
X40463Y52518D01*
X36464Y54175D01*
X32255Y55185D01*
X27940Y55525D01*
X23625Y55185D01*
X20079Y54334D01*
X17079Y55903D01*
Y151733D01*
X19210Y153830D01*
X20079Y153830D01*
X30754D01*
X31902Y151058D01*
X22591Y141747D01*
X21389Y140180D01*
X20633Y138356D01*
X20375Y136398D01*
Y114220D01*
Y104220D01*
X20633Y102262D01*
X21389Y100438D01*
X22591Y98871D01*
X24158Y97669D01*
X25982Y96913D01*
X27940Y96655D01*
X29898Y96913D01*
X31722Y97669D01*
X32169Y98012D01*
X34290Y98595D01*
X36411Y98012D01*
X36858Y97669D01*
X38682Y96913D01*
X40640Y96655D01*
X42598Y96913D01*
X44422Y97669D01*
X45989Y98871D01*
X49087Y97980D01*
X49538Y97634D01*
X51372Y96874D01*
X52070Y96782D01*
Y109220D01*
Y121658D01*
X51372Y121566D01*
X49538Y120806D01*
X49087Y120460D01*
X45989Y119569D01*
X44422Y120771D01*
X42598Y121527D01*
X40640Y121785D01*
X38682Y121527D01*
X38505Y121454D01*
X35505Y123338D01*
Y133265D01*
X50053Y147813D01*
X51255Y149380D01*
X52011Y151204D01*
X52140Y152183D01*
X52269Y153162D01*
X52269Y153162D01*
Y182626D01*
X52269Y182626D01*
X52011Y184584D01*
X51255Y186408D01*
X50053Y187975D01*
X50053Y187975D01*
X43449Y194579D01*
X41882Y195781D01*
X40058Y196537D01*
X38100Y196795D01*
X35778D01*
X34253Y197965D01*
X31820Y198973D01*
X29210Y199316D01*
X26600Y198973D01*
X24167Y197965D01*
X22078Y196362D01*
X20475Y194273D01*
X20079Y193316D01*
X17079Y193913D01*
Y209947D01*
X20079Y210544D01*
X20475Y209587D01*
X22078Y207498D01*
X24167Y205895D01*
X26600Y204887D01*
X29210Y204544D01*
X31820Y204887D01*
X34253Y205895D01*
X36342Y207498D01*
X37945Y209587D01*
X38953Y212020D01*
X39296Y214630D01*
X38953Y217241D01*
X37945Y219673D01*
X36342Y221762D01*
X34253Y223365D01*
X31820Y224373D01*
X29210Y224716D01*
X26600Y224373D01*
X24167Y223365D01*
X22078Y221762D01*
X20475Y219673D01*
X20079Y218716D01*
X17079Y219313D01*
Y367633D01*
X19210Y369730D01*
X20079Y369730D01*
X30754D01*
X31902Y366958D01*
X22591Y357647D01*
X21389Y356080D01*
X20633Y354256D01*
X20375Y352298D01*
Y330120D01*
Y320120D01*
X20633Y318162D01*
X21389Y316338D01*
X22591Y314771D01*
X24158Y313569D01*
X25982Y312813D01*
X27940Y312555D01*
X29898Y312813D01*
X31722Y313569D01*
X32169Y313911D01*
X34290Y314495D01*
X36411Y313911D01*
X36858Y313569D01*
X38682Y312813D01*
X40640Y312555D01*
X42598Y312813D01*
X44422Y313569D01*
X45989Y314771D01*
X49087Y313880D01*
X49538Y313534D01*
X51372Y312774D01*
X52070Y312682D01*
Y325120D01*
Y337558D01*
X51372Y337466D01*
X49538Y336706D01*
X49087Y336360D01*
X45989Y335469D01*
X44422Y336671D01*
X42598Y337427D01*
X40640Y337685D01*
X38682Y337427D01*
X38505Y337354D01*
X35505Y339238D01*
Y349165D01*
X50053Y363713D01*
X51255Y365280D01*
X52011Y367104D01*
X52140Y368083D01*
X52269Y369062D01*
X52269Y369062D01*
Y398526D01*
X52269Y398526D01*
X52011Y400484D01*
X51255Y402308D01*
X50053Y403875D01*
X50053Y403875D01*
X43449Y410479D01*
X41882Y411681D01*
X40058Y412437D01*
X38100Y412695D01*
X35778D01*
X34253Y413865D01*
X31820Y414873D01*
X29210Y415216D01*
X26600Y414873D01*
X24167Y413865D01*
X22078Y412262D01*
X20475Y410173D01*
X20079Y409216D01*
X17079Y409813D01*
Y425847D01*
X20079Y426444D01*
X20475Y425487D01*
X22078Y423398D01*
X24167Y421795D01*
X26600Y420787D01*
X29210Y420444D01*
X31820Y420787D01*
X34253Y421795D01*
X36342Y423398D01*
X37945Y425487D01*
X38953Y427920D01*
X39296Y430530D01*
X38953Y433140D01*
X37945Y435573D01*
X36342Y437662D01*
X34253Y439265D01*
X31820Y440273D01*
X29210Y440616D01*
X26600Y440273D01*
X24167Y439265D01*
X22078Y437662D01*
X20475Y435573D01*
X20079Y434616D01*
X17079Y435213D01*
Y582987D01*
X17940Y585630D01*
X20079Y585630D01*
X30754D01*
X31902Y582858D01*
X22591Y573547D01*
X21389Y571980D01*
X20633Y570156D01*
X20375Y568198D01*
Y546020D01*
Y536020D01*
X20633Y534062D01*
X21389Y532238D01*
X22591Y530671D01*
X24158Y529469D01*
X25982Y528713D01*
X27940Y528455D01*
X29898Y528713D01*
X31722Y529469D01*
X32169Y529812D01*
X34290Y530395D01*
X36411Y529812D01*
X36858Y529469D01*
X38682Y528713D01*
X40640Y528455D01*
X42598Y528713D01*
X44422Y529469D01*
X45989Y530671D01*
X49087Y529780D01*
X49538Y529434D01*
X51372Y528674D01*
X52070Y528582D01*
Y541020D01*
Y553458D01*
X51372Y553366D01*
X49538Y552606D01*
X49087Y552260D01*
X45989Y551369D01*
X44422Y552571D01*
X42598Y553327D01*
X40640Y553585D01*
X38682Y553327D01*
X38505Y553254D01*
X35505Y555138D01*
Y565065D01*
X48783Y578343D01*
X48783Y578343D01*
X49985Y579910D01*
X50741Y581734D01*
X50999Y583692D01*
Y615696D01*
X50999Y615696D01*
X50870Y616675D01*
X50741Y617654D01*
X49985Y619478D01*
X48783Y621045D01*
X43449Y626379D01*
X41882Y627581D01*
X40058Y628337D01*
X38100Y628595D01*
X34508D01*
X32983Y629765D01*
X30550Y630773D01*
X27940Y631116D01*
X25329Y630773D01*
X22897Y629765D01*
X20808Y628162D01*
X20079Y627211D01*
X17079Y628230D01*
Y639230D01*
X20079Y640248D01*
X20808Y639298D01*
X22897Y637695D01*
X25329Y636687D01*
X27940Y636344D01*
X30550Y636687D01*
X32983Y637695D01*
X35072Y639298D01*
X36675Y641387D01*
X37683Y643820D01*
X38026Y646430D01*
X37683Y649041D01*
X36675Y651473D01*
X35072Y653562D01*
X32983Y655165D01*
X30550Y656173D01*
X27940Y656516D01*
X25329Y656173D01*
X22897Y655165D01*
X20808Y653562D01*
X20079Y652611D01*
X17079Y653630D01*
Y682922D01*
X89036D01*
X90515Y679922D01*
X89811Y679004D01*
X88552Y675963D01*
X88122Y672700D01*
X88552Y669437D01*
X89811Y666396D01*
X91815Y663785D01*
X94426Y661781D01*
X97467Y660522D01*
X100730Y660092D01*
X103993Y660522D01*
X107034Y661781D01*
X109645Y663785D01*
X111649Y666396D01*
X112908Y669437D01*
X113338Y672700D01*
X112908Y675963D01*
X111649Y679004D01*
X110945Y679922D01*
X112424Y682922D01*
X444569D01*
X444997Y682280D01*
D02*
G37*
%LPC*%
G36*
X384810Y329938D02*
Y318770D01*
X391145D01*
Y322500D01*
X390886Y324468D01*
X390126Y326302D01*
X388918Y327878D01*
X387342Y329086D01*
X385508Y329846D01*
X384810Y329938D01*
D02*
G37*
G36*
X60945Y323850D02*
X54610D01*
Y312682D01*
X55308Y312774D01*
X57143Y313534D01*
X58718Y314742D01*
X59926Y316318D01*
X60686Y318152D01*
X60945Y320120D01*
Y323850D01*
D02*
G37*
G36*
X54610Y337558D02*
Y326390D01*
X60945D01*
Y330120D01*
X60686Y332088D01*
X59926Y333923D01*
X58718Y335498D01*
X57143Y336706D01*
X55308Y337466D01*
X54610Y337558D01*
D02*
G37*
G36*
X478589Y368300D02*
X469900D01*
Y359611D01*
X471251Y359788D01*
X473693Y360800D01*
X475791Y362409D01*
X477400Y364507D01*
X478412Y366949D01*
X478589Y368300D01*
D02*
G37*
G36*
X391145Y358140D02*
X384810D01*
Y346972D01*
X385508Y347064D01*
X387342Y347824D01*
X388918Y349032D01*
X390126Y350607D01*
X390886Y352442D01*
X391145Y354410D01*
Y358140D01*
D02*
G37*
G36*
X153670Y305869D02*
Y297180D01*
X162359D01*
X162182Y298531D01*
X161170Y300973D01*
X159561Y303071D01*
X157463Y304680D01*
X155021Y305692D01*
X153670Y305869D01*
D02*
G37*
G36*
X127000Y305996D02*
X124389Y305653D01*
X121957Y304645D01*
X119868Y303042D01*
X118265Y300953D01*
X117257Y298521D01*
X116914Y295910D01*
X117257Y293300D01*
X118265Y290867D01*
X119868Y288778D01*
X121957Y287175D01*
X124389Y286167D01*
X127000Y285824D01*
X129611Y286167D01*
X132043Y287175D01*
X134132Y288778D01*
X135735Y290867D01*
X136743Y293300D01*
X137086Y295910D01*
X136743Y298521D01*
X135735Y300953D01*
X134132Y303042D01*
X132043Y304645D01*
X129611Y305653D01*
X127000Y305996D01*
D02*
G37*
G36*
X234950Y242496D02*
X232339Y242153D01*
X229907Y241145D01*
X227818Y239542D01*
X226215Y237453D01*
X225207Y235021D01*
X224864Y232410D01*
X225207Y229799D01*
X226215Y227367D01*
X227818Y225278D01*
X229907Y223675D01*
X232339Y222667D01*
X234950Y222324D01*
X237561Y222667D01*
X239993Y223675D01*
X242082Y225278D01*
X243685Y227367D01*
X244693Y229799D01*
X245036Y232410D01*
X244693Y235021D01*
X243685Y237453D01*
X242082Y239542D01*
X239993Y241145D01*
X237561Y242153D01*
X234950Y242496D01*
D02*
G37*
G36*
X151130Y294640D02*
X142441D01*
X142618Y293289D01*
X143630Y290847D01*
X145239Y288749D01*
X147337Y287140D01*
X149779Y286128D01*
X151130Y285951D01*
Y294640D01*
D02*
G37*
G36*
Y305869D02*
X149779Y305692D01*
X147337Y304680D01*
X145239Y303071D01*
X143630Y300973D01*
X142618Y298531D01*
X142441Y297180D01*
X151130D01*
Y305869D01*
D02*
G37*
G36*
X162359Y294640D02*
X153670D01*
Y285951D01*
X155021Y286128D01*
X157463Y287140D01*
X159561Y288749D01*
X161170Y290847D01*
X162182Y293289D01*
X162359Y294640D01*
D02*
G37*
G36*
X384810Y371848D02*
Y360680D01*
X391145D01*
Y364410D01*
X390886Y366378D01*
X390126Y368213D01*
X388918Y369788D01*
X387342Y370996D01*
X385508Y371756D01*
X384810Y371848D01*
D02*
G37*
G36*
X469900Y379529D02*
Y370840D01*
X478589D01*
X478412Y372191D01*
X477400Y374633D01*
X475791Y376731D01*
X473693Y378340D01*
X471251Y379352D01*
X469900Y379529D01*
D02*
G37*
G36*
X467360D02*
X466009Y379352D01*
X463567Y378340D01*
X461469Y376731D01*
X459860Y374633D01*
X458848Y372191D01*
X458671Y370840D01*
X467360D01*
Y379529D01*
D02*
G37*
G36*
X309880Y382150D02*
X301110D01*
Y373380D01*
X309880D01*
Y382150D01*
D02*
G37*
G36*
X311150Y407596D02*
X308540Y407253D01*
X306107Y406245D01*
X304018Y404642D01*
X302415Y402553D01*
X301407Y400121D01*
X301064Y397510D01*
X301407Y394899D01*
X302415Y392467D01*
X304018Y390378D01*
X306107Y388775D01*
X308540Y387767D01*
X311150Y387424D01*
X313761Y387767D01*
X316193Y388775D01*
X318282Y390378D01*
X319885Y392467D01*
X320893Y394899D01*
X321236Y397510D01*
X320893Y400121D01*
X319885Y402553D01*
X318282Y404642D01*
X316193Y406245D01*
X313761Y407253D01*
X311150Y407596D01*
D02*
G37*
G36*
X321190Y382150D02*
X312420D01*
Y373380D01*
X321190D01*
Y382150D01*
D02*
G37*
G36*
X370840Y371975D02*
X368882Y371717D01*
X367058Y370961D01*
X366611Y370619D01*
X364490Y370035D01*
X362369Y370619D01*
X361922Y370961D01*
X360098Y371717D01*
X358140Y371975D01*
X356182Y371717D01*
X354358Y370961D01*
X352791Y369759D01*
X351589Y368192D01*
X350833Y366368D01*
X350575Y364410D01*
Y354410D01*
X350833Y352452D01*
X351426Y351021D01*
X351444Y350928D01*
X351497Y350849D01*
X351589Y350628D01*
X351683Y350505D01*
X351710Y350443D01*
X351997Y350033D01*
X352204Y349676D01*
X352394Y349276D01*
X352566Y348828D01*
X352718Y348330D01*
X352847Y347781D01*
X352945Y347212D01*
X353042Y346152D01*
Y342138D01*
X353430Y340187D01*
X354535Y338533D01*
X358345Y334723D01*
X359999Y333618D01*
X360143Y332819D01*
X358497Y330556D01*
X357715Y330009D01*
X356182Y329807D01*
X354358Y329051D01*
X352791Y327849D01*
X351589Y326282D01*
X350833Y324458D01*
X350575Y322500D01*
Y312500D01*
X350833Y310542D01*
X351589Y308718D01*
X352791Y307151D01*
X352982Y307004D01*
X353042Y305760D01*
Y304800D01*
X353430Y302849D01*
X354535Y301195D01*
X357837Y297893D01*
X359491Y296788D01*
X361442Y296400D01*
X451358D01*
X453309Y296788D01*
X454963Y297893D01*
X458194Y301125D01*
X460455Y299142D01*
X459895Y298413D01*
X458887Y295980D01*
X458544Y293370D01*
X458574Y293140D01*
X458559Y292741D01*
X458490Y292216D01*
X458371Y291690D01*
X458197Y291156D01*
X457966Y290612D01*
X457674Y290054D01*
X457315Y289484D01*
X456888Y288900D01*
X456569Y288518D01*
X388825Y220775D01*
X387720Y219121D01*
X387332Y217170D01*
Y157756D01*
X384332Y155817D01*
X384238Y155856D01*
X383540Y155948D01*
Y143510D01*
Y131072D01*
X384238Y131164D01*
X384332Y131203D01*
X387332Y129264D01*
Y117116D01*
X384332Y115177D01*
X384238Y115216D01*
X383540Y115308D01*
Y102870D01*
X381000D01*
Y115308D01*
X380302Y115216D01*
X378467Y114456D01*
X378017Y114110D01*
X377427Y113940D01*
X375659Y114370D01*
X375452Y114489D01*
X374668Y115164D01*
Y115570D01*
X374280Y117521D01*
X373175Y119175D01*
X365555Y126795D01*
X363901Y127900D01*
X363001Y128079D01*
X362609Y128471D01*
X362515Y129566D01*
X362681Y130581D01*
X364605Y131772D01*
X365638Y132074D01*
X365788Y131959D01*
X367612Y131203D01*
X369570Y130945D01*
X371528Y131203D01*
X373352Y131959D01*
X374919Y133161D01*
X378017Y132270D01*
X378467Y131924D01*
X380302Y131164D01*
X381000Y131072D01*
Y143510D01*
Y155948D01*
X380302Y155856D01*
X378467Y155096D01*
X378017Y154750D01*
X374919Y153859D01*
X373352Y155061D01*
X371528Y155817D01*
X369570Y156075D01*
X367612Y155817D01*
X365788Y155061D01*
X365341Y154719D01*
X363220Y154135D01*
X361099Y154719D01*
X360652Y155061D01*
X358828Y155817D01*
X356870Y156075D01*
X354912Y155817D01*
X353088Y155061D01*
X351521Y153859D01*
X350319Y152292D01*
X349563Y150468D01*
X349305Y148510D01*
Y138510D01*
X349563Y136552D01*
X350156Y135121D01*
X350174Y135028D01*
X350227Y134950D01*
X350319Y134728D01*
X350413Y134605D01*
X350440Y134543D01*
X350727Y134133D01*
X350934Y133776D01*
X351124Y133376D01*
X351296Y132928D01*
X351448Y132430D01*
X351577Y131881D01*
X351675Y131312D01*
X351772Y130252D01*
Y127000D01*
X352160Y125049D01*
X353265Y123395D01*
X357075Y119585D01*
X358461Y118659D01*
X358515Y118244D01*
X356870Y115435D01*
X354912Y115177D01*
X353088Y114421D01*
X351521Y113219D01*
X350319Y111652D01*
X349563Y109828D01*
X349305Y107870D01*
Y97870D01*
X349563Y95912D01*
X350319Y94088D01*
X351521Y92521D01*
X351595Y92464D01*
X351611Y92381D01*
X351772Y90369D01*
Y88900D01*
X352160Y86949D01*
X353265Y85295D01*
X363933Y74627D01*
X365587Y73522D01*
X367538Y73134D01*
X381762D01*
X383713Y73522D01*
X385367Y74627D01*
X396035Y85295D01*
X397140Y86949D01*
X397528Y88900D01*
Y215058D01*
X455858Y273389D01*
X458630Y272241D01*
Y257970D01*
X478630D01*
Y277970D01*
X464359D01*
X463211Y280742D01*
X463778Y281309D01*
X464159Y281628D01*
X464744Y282055D01*
X465314Y282414D01*
X465872Y282706D01*
X466416Y282937D01*
X466950Y283111D01*
X467476Y283230D01*
X468001Y283299D01*
X468400Y283314D01*
X468630Y283284D01*
X471241Y283627D01*
X473673Y284635D01*
X475762Y286238D01*
X477365Y288327D01*
X478373Y290760D01*
X478716Y293370D01*
X478373Y295980D01*
X477365Y298413D01*
X475762Y300502D01*
X473673Y302105D01*
X471241Y303113D01*
X468630Y303456D01*
X466020Y303113D01*
X463587Y302105D01*
X462858Y301545D01*
X460875Y303806D01*
X463778Y306709D01*
X464159Y307028D01*
X464744Y307456D01*
X465314Y307814D01*
X465872Y308106D01*
X466416Y308337D01*
X466950Y308511D01*
X467476Y308631D01*
X468001Y308699D01*
X468400Y308714D01*
X468630Y308684D01*
X471241Y309027D01*
X473673Y310035D01*
X475762Y311638D01*
X477365Y313727D01*
X478373Y316159D01*
X478716Y318770D01*
X478373Y321381D01*
X477365Y323813D01*
X475762Y325902D01*
X473673Y327505D01*
X471241Y328513D01*
X468630Y328856D01*
X466020Y328513D01*
X463587Y327505D01*
X461498Y325902D01*
X459895Y323813D01*
X458887Y321381D01*
X458544Y318770D01*
X458574Y318540D01*
X458559Y318141D01*
X458490Y317616D01*
X458371Y317090D01*
X458197Y316556D01*
X457966Y316012D01*
X457674Y315455D01*
X457315Y314884D01*
X456888Y314300D01*
X456569Y313918D01*
X449246Y306596D01*
X392295D01*
X391637Y307234D01*
X390498Y309596D01*
X390886Y310532D01*
X391145Y312500D01*
Y316230D01*
X383540D01*
Y317500D01*
X382270D01*
Y329938D01*
X381572Y329846D01*
X379738Y329086D01*
X379287Y328740D01*
X378697Y328571D01*
X376929Y329000D01*
X376722Y329119D01*
X375938Y329794D01*
Y330200D01*
X375550Y332151D01*
X374445Y333805D01*
X366317Y341933D01*
X364663Y343038D01*
X364397Y343091D01*
X363315Y344172D01*
X363386Y346700D01*
X365954Y348261D01*
X366243Y348253D01*
X366661Y348158D01*
X366674Y348153D01*
X367058Y347859D01*
X368882Y347103D01*
X370840Y346845D01*
X372798Y347103D01*
X374622Y347859D01*
X376189Y349061D01*
X379287Y348170D01*
X379738Y347824D01*
X381572Y347064D01*
X382270Y346972D01*
Y359410D01*
Y371848D01*
X381572Y371756D01*
X379738Y370996D01*
X379287Y370650D01*
X376189Y369759D01*
X374622Y370961D01*
X372798Y371717D01*
X370840Y371975D01*
D02*
G37*
G36*
X152400Y382196D02*
X149789Y381853D01*
X147357Y380845D01*
X145268Y379242D01*
X143665Y377153D01*
X142657Y374720D01*
X142314Y372110D01*
X142657Y369500D01*
X143665Y367067D01*
X145268Y364978D01*
X147357Y363375D01*
X149789Y362367D01*
X152400Y362024D01*
X155010Y362367D01*
X157443Y363375D01*
X159532Y364978D01*
X161135Y367067D01*
X162143Y369500D01*
X162486Y372110D01*
X162143Y374720D01*
X161135Y377153D01*
X159532Y379242D01*
X157443Y380845D01*
X155010Y381853D01*
X152400Y382196D01*
D02*
G37*
G36*
X127000D02*
X124389Y381853D01*
X121957Y380845D01*
X119868Y379242D01*
X118265Y377153D01*
X117257Y374720D01*
X116914Y372110D01*
X117257Y369500D01*
X118265Y367067D01*
X119868Y364978D01*
X121957Y363375D01*
X124389Y362367D01*
X127000Y362024D01*
X129611Y362367D01*
X132043Y363375D01*
X134132Y364978D01*
X135735Y367067D01*
X136743Y369500D01*
X137086Y372110D01*
X136743Y374720D01*
X135735Y377153D01*
X134132Y379242D01*
X132043Y380845D01*
X129611Y381853D01*
X127000Y382196D01*
D02*
G37*
G36*
X309880Y370840D02*
X301110D01*
Y362070D01*
X309880D01*
Y370840D01*
D02*
G37*
G36*
X187800Y382110D02*
X167800D01*
Y362110D01*
X187800D01*
Y382110D01*
D02*
G37*
G36*
X321190Y370840D02*
X312420D01*
Y362070D01*
X321190D01*
Y370840D01*
D02*
G37*
G36*
X150730Y225968D02*
X147467Y225538D01*
X144426Y224279D01*
X141815Y222275D01*
X139811Y219664D01*
X138552Y216623D01*
X138122Y213360D01*
X138552Y210097D01*
X139811Y207056D01*
X141815Y204445D01*
X144426Y202441D01*
X147467Y201182D01*
X150730Y200752D01*
X153993Y201182D01*
X157034Y202441D01*
X159645Y204445D01*
X161649Y207056D01*
X162908Y210097D01*
X163338Y213360D01*
X162908Y216623D01*
X161649Y219664D01*
X159645Y222275D01*
X157034Y224279D01*
X153993Y225538D01*
X150730Y225968D01*
D02*
G37*
G36*
X60945Y107950D02*
X54610D01*
Y96782D01*
X55308Y96874D01*
X57143Y97634D01*
X58718Y98842D01*
X59926Y100417D01*
X60686Y102252D01*
X60945Y104220D01*
Y107950D01*
D02*
G37*
G36*
X153670Y89969D02*
Y81280D01*
X162359D01*
X162182Y82631D01*
X161170Y85073D01*
X159561Y87171D01*
X157463Y88780D01*
X155021Y89792D01*
X153670Y89969D01*
D02*
G37*
G36*
X54610Y121658D02*
Y110490D01*
X60945D01*
Y114220D01*
X60686Y116188D01*
X59926Y118022D01*
X58718Y119598D01*
X57143Y120806D01*
X55308Y121566D01*
X54610Y121658D01*
D02*
G37*
G36*
X152400Y166296D02*
X149789Y165953D01*
X147357Y164945D01*
X145268Y163342D01*
X143665Y161253D01*
X142657Y158820D01*
X142314Y156210D01*
X142657Y153600D01*
X143665Y151167D01*
X145268Y149078D01*
X147357Y147475D01*
X149789Y146467D01*
X152400Y146124D01*
X155010Y146467D01*
X157443Y147475D01*
X159532Y149078D01*
X161135Y151167D01*
X162143Y153600D01*
X162486Y156210D01*
X162143Y158820D01*
X161135Y161253D01*
X159532Y163342D01*
X157443Y164945D01*
X155010Y165953D01*
X152400Y166296D01*
D02*
G37*
G36*
X127000D02*
X124389Y165953D01*
X121957Y164945D01*
X119868Y163342D01*
X118265Y161253D01*
X117257Y158820D01*
X116914Y156210D01*
X117257Y153600D01*
X118265Y151167D01*
X119868Y149078D01*
X121957Y147475D01*
X124389Y146467D01*
X127000Y146124D01*
X129611Y146467D01*
X132043Y147475D01*
X134132Y149078D01*
X135735Y151167D01*
X136743Y153600D01*
X137086Y156210D01*
X136743Y158820D01*
X135735Y161253D01*
X134132Y163342D01*
X132043Y164945D01*
X129611Y165953D01*
X127000Y166296D01*
D02*
G37*
G36*
X151130Y89969D02*
X149779Y89792D01*
X147337Y88780D01*
X145239Y87171D01*
X143630Y85073D01*
X142618Y82631D01*
X142441Y81280D01*
X151130D01*
Y89969D01*
D02*
G37*
G36*
X127000Y90096D02*
X124389Y89753D01*
X121957Y88745D01*
X119868Y87142D01*
X118265Y85053D01*
X117257Y82620D01*
X116914Y80010D01*
X117257Y77400D01*
X118265Y74967D01*
X119868Y72878D01*
X121957Y71275D01*
X124389Y70267D01*
X127000Y69924D01*
X129611Y70267D01*
X132043Y71275D01*
X134132Y72878D01*
X135735Y74967D01*
X136743Y77400D01*
X137086Y80010D01*
X136743Y82620D01*
X135735Y85053D01*
X134132Y87142D01*
X132043Y88745D01*
X129611Y89753D01*
X127000Y90096D01*
D02*
G37*
G36*
X101600D02*
X98989Y89753D01*
X96557Y88745D01*
X94468Y87142D01*
X92865Y85053D01*
X91857Y82620D01*
X91514Y80010D01*
X91857Y77400D01*
X92865Y74967D01*
X94468Y72878D01*
X96557Y71275D01*
X98989Y70267D01*
X101600Y69924D01*
X104211Y70267D01*
X106643Y71275D01*
X108732Y72878D01*
X110335Y74967D01*
X111343Y77400D01*
X111686Y80010D01*
X111343Y82620D01*
X110335Y85053D01*
X108732Y87142D01*
X106643Y88745D01*
X104211Y89753D01*
X101600Y90096D01*
D02*
G37*
G36*
X177800D02*
X175189Y89753D01*
X172757Y88745D01*
X170668Y87142D01*
X169065Y85053D01*
X168057Y82620D01*
X167714Y80010D01*
X168057Y77400D01*
X169065Y74967D01*
X170668Y72878D01*
X172757Y71275D01*
X175189Y70267D01*
X177800Y69924D01*
X180410Y70267D01*
X182843Y71275D01*
X184932Y72878D01*
X186535Y74967D01*
X187543Y77400D01*
X187886Y80010D01*
X187543Y82620D01*
X186535Y85053D01*
X184932Y87142D01*
X182843Y88745D01*
X180410Y89753D01*
X177800Y90096D01*
D02*
G37*
G36*
X162359Y78740D02*
X153670D01*
Y70051D01*
X155021Y70228D01*
X157463Y71240D01*
X159561Y72849D01*
X161170Y74947D01*
X162182Y77389D01*
X162359Y78740D01*
D02*
G37*
G36*
X151130D02*
X142441D01*
X142618Y77389D01*
X143630Y74947D01*
X145239Y72849D01*
X147337Y71240D01*
X149779Y70228D01*
X151130Y70051D01*
Y78740D01*
D02*
G37*
G36*
X309880Y154940D02*
X301110D01*
Y146170D01*
X309880D01*
Y154940D01*
D02*
G37*
G36*
X381081Y187325D02*
X373380D01*
Y179624D01*
X376872D01*
X378483Y179944D01*
X379848Y180857D01*
X380760Y182222D01*
X381081Y183832D01*
Y187325D01*
D02*
G37*
G36*
X370840D02*
X363139D01*
Y183832D01*
X363460Y182222D01*
X364372Y180857D01*
X365737Y179944D01*
X367347Y179624D01*
X370840D01*
Y187325D01*
D02*
G37*
G36*
X102000Y200841D02*
Y189630D01*
X113211D01*
X112947Y191633D01*
X111684Y194684D01*
X109673Y197303D01*
X107054Y199314D01*
X104003Y200577D01*
X102000Y200841D01*
D02*
G37*
G36*
X234950Y217096D02*
X232339Y216753D01*
X229907Y215745D01*
X227818Y214142D01*
X226215Y212053D01*
X225207Y209620D01*
X224864Y207010D01*
X225207Y204400D01*
X226215Y201967D01*
X227818Y199878D01*
X229907Y198275D01*
X232339Y197267D01*
X234950Y196924D01*
X237561Y197267D01*
X239993Y198275D01*
X242082Y199878D01*
X243685Y201967D01*
X244693Y204400D01*
X245036Y207010D01*
X244693Y209620D01*
X243685Y212053D01*
X242082Y214142D01*
X239993Y215745D01*
X237561Y216753D01*
X234950Y217096D01*
D02*
G37*
G36*
X311150Y242496D02*
X308540Y242153D01*
X306107Y241145D01*
X304018Y239542D01*
X302415Y237453D01*
X301407Y235021D01*
X301199Y233437D01*
X297847Y229805D01*
X247821Y179779D01*
X244980Y181180D01*
X245036Y181610D01*
X244693Y184221D01*
X243685Y186653D01*
X242082Y188742D01*
X239993Y190345D01*
X237561Y191353D01*
X234950Y191696D01*
X232339Y191353D01*
X229907Y190345D01*
X227818Y188742D01*
X226215Y186653D01*
X225207Y184221D01*
X224864Y181610D01*
X225207Y179000D01*
X226215Y176567D01*
X227818Y174478D01*
X229907Y172875D01*
X232339Y171867D01*
X234950Y171524D01*
X235380Y171580D01*
X236781Y168739D01*
X236728Y168686D01*
X235095Y167086D01*
X234101Y166185D01*
X232339Y165953D01*
X229907Y164945D01*
X227818Y163342D01*
X226215Y161253D01*
X225207Y158820D01*
X224864Y156210D01*
X225207Y153600D01*
X226215Y151167D01*
X227818Y149078D01*
X229907Y147475D01*
X232339Y146467D01*
X234950Y146124D01*
X237561Y146467D01*
X239993Y147475D01*
X242082Y149078D01*
X243685Y151167D01*
X244693Y153600D01*
X244901Y155183D01*
X248253Y158815D01*
X298279Y208841D01*
X301120Y207439D01*
X301064Y207010D01*
X301407Y204400D01*
X302415Y201967D01*
X304018Y199878D01*
X306107Y198275D01*
X308540Y197267D01*
X311150Y196924D01*
X313761Y197267D01*
X316193Y198275D01*
X318282Y199878D01*
X318423Y200062D01*
X318716Y200334D01*
X319135Y200656D01*
X319593Y200944D01*
X320093Y201198D01*
X320641Y201420D01*
X321241Y201607D01*
X321898Y201758D01*
X322614Y201868D01*
X323109Y201912D01*
X325029D01*
X325402Y201879D01*
X325938Y201791D01*
X326318Y201689D01*
X326331Y201684D01*
Y201510D01*
X326603Y200144D01*
X327377Y198987D01*
X328534Y198213D01*
X329900Y197941D01*
X335900D01*
X337266Y198213D01*
X337710Y198510D01*
X348090D01*
X348534Y198213D01*
X349900Y197941D01*
X355900D01*
X357266Y198213D01*
X358423Y198987D01*
X359197Y200144D01*
X359468Y201510D01*
Y201684D01*
X359482Y201689D01*
X359862Y201791D01*
X360398Y201879D01*
X360770Y201912D01*
X361950D01*
X362368Y201995D01*
X364490Y199634D01*
Y196412D01*
X364372Y196333D01*
X363460Y194968D01*
X363139Y193358D01*
Y189865D01*
X381081D01*
Y193358D01*
X380760Y194968D01*
X379848Y196333D01*
X379730Y196412D01*
Y199876D01*
X379819Y199936D01*
X380723Y201288D01*
X381040Y202882D01*
Y212407D01*
X380723Y214002D01*
X379819Y215354D01*
X378467Y216258D01*
X376872Y216575D01*
X367347D01*
X365753Y216258D01*
X364401Y215354D01*
X363497Y214002D01*
X363247Y212743D01*
X362585D01*
X362388Y212704D01*
X360447Y212575D01*
X358676Y214655D01*
X358423Y215033D01*
X357266Y215807D01*
X355900Y216079D01*
X349900D01*
X348534Y215807D01*
X348090Y215510D01*
X337710D01*
X337266Y215807D01*
X335900Y216079D01*
X329900D01*
X328534Y215807D01*
X327377Y215033D01*
X326603Y213876D01*
X326331Y212510D01*
Y212337D01*
X326318Y212331D01*
X325938Y212229D01*
X325402Y212141D01*
X325029Y212108D01*
X323109D01*
X322614Y212152D01*
X321898Y212262D01*
X321241Y212413D01*
X320641Y212600D01*
X320093Y212822D01*
X319593Y213076D01*
X319135Y213364D01*
X318716Y213686D01*
X318423Y213958D01*
X318282Y214142D01*
X316193Y215745D01*
X313761Y216753D01*
X311150Y217096D01*
X310721Y217040D01*
X309319Y219881D01*
X309371Y219933D01*
X311005Y221534D01*
X311999Y222435D01*
X313761Y222667D01*
X316193Y223675D01*
X318282Y225278D01*
X319885Y227367D01*
X320893Y229799D01*
X321236Y232410D01*
X320893Y235021D01*
X319885Y237453D01*
X318282Y239542D01*
X316193Y241145D01*
X313761Y242153D01*
X311150Y242496D01*
D02*
G37*
G36*
X113211Y187090D02*
X102000D01*
Y175879D01*
X104003Y176143D01*
X107054Y177406D01*
X109673Y179416D01*
X111684Y182036D01*
X112947Y185086D01*
X113211Y187090D01*
D02*
G37*
G36*
X187800Y166210D02*
X167800D01*
Y146210D01*
X187800D01*
Y166210D01*
D02*
G37*
G36*
X321190Y154940D02*
X312420D01*
Y146170D01*
X321190D01*
Y154940D01*
D02*
G37*
G36*
X309880Y166250D02*
X301110D01*
Y157480D01*
X309880D01*
Y166250D01*
D02*
G37*
G36*
X311150Y191696D02*
X308540Y191353D01*
X306107Y190345D01*
X304018Y188742D01*
X302415Y186653D01*
X301407Y184221D01*
X301064Y181610D01*
X301407Y179000D01*
X302415Y176567D01*
X304018Y174478D01*
X306107Y172875D01*
X308540Y171867D01*
X311150Y171524D01*
X313761Y171867D01*
X316193Y172875D01*
X318282Y174478D01*
X319885Y176567D01*
X320893Y179000D01*
X321236Y181610D01*
X320893Y184221D01*
X319885Y186653D01*
X318282Y188742D01*
X316193Y190345D01*
X313761Y191353D01*
X311150Y191696D01*
D02*
G37*
G36*
X321190Y166250D02*
X312420D01*
Y157480D01*
X321190D01*
Y166250D01*
D02*
G37*
G36*
X113211Y404260D02*
X102000D01*
Y393049D01*
X104003Y393313D01*
X107054Y394576D01*
X109673Y396586D01*
X111684Y399206D01*
X112947Y402256D01*
X113211Y404260D01*
D02*
G37*
G36*
X321190Y586740D02*
X312420D01*
Y577970D01*
X321190D01*
Y586740D01*
D02*
G37*
G36*
X309880D02*
X301110D01*
Y577970D01*
X309880D01*
Y586740D01*
D02*
G37*
G36*
X370840Y587875D02*
X368882Y587617D01*
X367058Y586861D01*
X366611Y586519D01*
X364490Y585935D01*
X362369Y586519D01*
X361922Y586861D01*
X360098Y587617D01*
X358140Y587875D01*
X356182Y587617D01*
X354358Y586861D01*
X352791Y585659D01*
X351589Y584092D01*
X350833Y582268D01*
X350575Y580310D01*
Y570310D01*
X350833Y568352D01*
X351426Y566921D01*
X351444Y566828D01*
X351497Y566749D01*
X351589Y566528D01*
X351683Y566405D01*
X351710Y566343D01*
X351997Y565933D01*
X352204Y565576D01*
X352394Y565176D01*
X352566Y564728D01*
X352718Y564230D01*
X352847Y563681D01*
X352945Y563112D01*
X353042Y562052D01*
Y557530D01*
X353430Y555579D01*
X354535Y553925D01*
X358345Y550115D01*
X359999Y549010D01*
X360899Y548831D01*
X363640Y546090D01*
X361922Y543681D01*
X360098Y544437D01*
X358140Y544695D01*
X356182Y544437D01*
X354358Y543681D01*
X352791Y542479D01*
X351589Y540912D01*
X350833Y539088D01*
X350575Y537130D01*
Y527130D01*
X350833Y525172D01*
X351426Y523741D01*
X351444Y523648D01*
X351497Y523570D01*
X351589Y523348D01*
X351683Y523225D01*
X351710Y523163D01*
X351997Y522753D01*
X352204Y522396D01*
X352394Y521996D01*
X352566Y521548D01*
X352718Y521050D01*
X352847Y520501D01*
X352945Y519932D01*
X353042Y518872D01*
Y467614D01*
X353430Y465663D01*
X354535Y464009D01*
X438640Y379904D01*
Y369062D01*
X439028Y367111D01*
X440133Y365457D01*
X456569Y349022D01*
X456888Y348641D01*
X457315Y348056D01*
X457674Y347486D01*
X457966Y346928D01*
X458197Y346384D01*
X458371Y345850D01*
X458490Y345324D01*
X458559Y344799D01*
X458574Y344400D01*
X458544Y344170D01*
X458887Y341559D01*
X459895Y339127D01*
X461498Y337038D01*
X463587Y335435D01*
X466020Y334427D01*
X468630Y334084D01*
X471241Y334427D01*
X473673Y335435D01*
X475762Y337038D01*
X477365Y339127D01*
X478373Y341559D01*
X478716Y344170D01*
X478373Y346781D01*
X477365Y349213D01*
X475762Y351302D01*
X473673Y352905D01*
X471241Y353913D01*
X468630Y354256D01*
X468400Y354226D01*
X468001Y354241D01*
X467476Y354310D01*
X466950Y354429D01*
X466416Y354603D01*
X465872Y354834D01*
X465314Y355126D01*
X464744Y355485D01*
X464160Y355912D01*
X463778Y356231D01*
X461092Y358918D01*
X463074Y361178D01*
X463567Y360800D01*
X466009Y359788D01*
X467360Y359611D01*
Y368300D01*
X458671D01*
X458848Y366949D01*
X459860Y364507D01*
X460238Y364014D01*
X457977Y362032D01*
X448836Y371174D01*
Y382016D01*
X448448Y383967D01*
X447343Y385621D01*
X363238Y469726D01*
Y518858D01*
X363256Y519276D01*
X363321Y519833D01*
X363620Y520102D01*
X365161Y520863D01*
X365755Y520987D01*
X366243Y520973D01*
X366661Y520878D01*
X366674Y520873D01*
X367058Y520579D01*
X368882Y519823D01*
X370840Y519565D01*
X372798Y519823D01*
X374622Y520579D01*
X376189Y521781D01*
X379287Y520890D01*
X379738Y520544D01*
X381572Y519784D01*
X382270Y519692D01*
Y532130D01*
Y544568D01*
X381572Y544476D01*
X379738Y543716D01*
X379287Y543370D01*
X378890Y543256D01*
X376287Y544142D01*
X375954Y544433D01*
X375938Y544631D01*
Y546100D01*
X375550Y548051D01*
X374445Y549705D01*
X366825Y557325D01*
X365171Y558430D01*
X364271Y558609D01*
X363238Y559642D01*
Y562038D01*
X363256Y562456D01*
X363321Y563013D01*
X363620Y563282D01*
X365161Y564043D01*
X365755Y564167D01*
X366243Y564153D01*
X366661Y564058D01*
X366674Y564053D01*
X367058Y563759D01*
X368882Y563003D01*
X370840Y562745D01*
X372798Y563003D01*
X374622Y563759D01*
X376189Y564961D01*
X379287Y564070D01*
X379738Y563724D01*
X381572Y562964D01*
X382270Y562872D01*
Y575310D01*
Y587748D01*
X381572Y587656D01*
X379738Y586896D01*
X379287Y586550D01*
X376189Y585659D01*
X374622Y586861D01*
X372798Y587617D01*
X370840Y587875D01*
D02*
G37*
G36*
X321190Y598050D02*
X312420D01*
Y589280D01*
X321190D01*
Y598050D01*
D02*
G37*
G36*
X309880D02*
X301110D01*
Y589280D01*
X309880D01*
Y598050D01*
D02*
G37*
G36*
X384810Y587748D02*
Y576580D01*
X391145D01*
Y580310D01*
X390886Y582278D01*
X390126Y584113D01*
X388918Y585688D01*
X387342Y586896D01*
X385508Y587656D01*
X384810Y587748D01*
D02*
G37*
G36*
X60945Y539750D02*
X54610D01*
Y528582D01*
X55308Y528674D01*
X57143Y529434D01*
X58718Y530642D01*
X59926Y532217D01*
X60686Y534052D01*
X60945Y536020D01*
Y539750D01*
D02*
G37*
G36*
X391145Y530860D02*
X384810D01*
Y519692D01*
X385508Y519784D01*
X387342Y520544D01*
X388918Y521752D01*
X390126Y523327D01*
X390886Y525162D01*
X391145Y527130D01*
Y530860D01*
D02*
G37*
G36*
X384810Y544568D02*
Y533400D01*
X391145D01*
Y537130D01*
X390886Y539098D01*
X390126Y540933D01*
X388918Y542508D01*
X387342Y543716D01*
X385508Y544476D01*
X384810Y544568D01*
D02*
G37*
G36*
X391145Y574040D02*
X384810D01*
Y562872D01*
X385508Y562964D01*
X387342Y563724D01*
X388918Y564932D01*
X390126Y566507D01*
X390886Y568342D01*
X391145Y570310D01*
Y574040D01*
D02*
G37*
G36*
X54610Y553458D02*
Y542290D01*
X60945D01*
Y546020D01*
X60686Y547988D01*
X59926Y549823D01*
X58718Y551398D01*
X57143Y552606D01*
X55308Y553366D01*
X54610Y553458D01*
D02*
G37*
G36*
X102000Y635181D02*
Y623970D01*
X113211D01*
X112947Y625973D01*
X111684Y629024D01*
X109673Y631643D01*
X107054Y633653D01*
X104003Y634917D01*
X102000Y635181D01*
D02*
G37*
G36*
X99460D02*
X97456Y634917D01*
X94406Y633653D01*
X91786Y631643D01*
X89776Y629024D01*
X88513Y625973D01*
X88249Y623970D01*
X99460D01*
Y635181D01*
D02*
G37*
G36*
X234950Y648896D02*
X232339Y648553D01*
X229907Y647545D01*
X227818Y645942D01*
X226215Y643853D01*
X225207Y641421D01*
X224864Y638810D01*
X225207Y636199D01*
X226215Y633767D01*
X227818Y631678D01*
X229907Y630075D01*
X232339Y629067D01*
X234950Y628724D01*
X237561Y629067D01*
X239993Y630075D01*
X242082Y631678D01*
X243685Y633767D01*
X244693Y636199D01*
X245036Y638810D01*
X244693Y641421D01*
X243685Y643853D01*
X242082Y645942D01*
X239993Y647545D01*
X237561Y648553D01*
X234950Y648896D01*
D02*
G37*
G36*
Y674296D02*
X232339Y673953D01*
X229907Y672945D01*
X227818Y671342D01*
X226215Y669253D01*
X225207Y666821D01*
X224864Y664210D01*
X225207Y661600D01*
X226215Y659167D01*
X227818Y657078D01*
X229907Y655475D01*
X232339Y654467D01*
X234950Y654124D01*
X237561Y654467D01*
X239993Y655475D01*
X242082Y657078D01*
X243685Y659167D01*
X244693Y661600D01*
X245036Y664210D01*
X244693Y666821D01*
X243685Y669253D01*
X242082Y671342D01*
X239993Y672945D01*
X237561Y673953D01*
X234950Y674296D01*
D02*
G37*
G36*
X150730Y660308D02*
X147467Y659878D01*
X144426Y658619D01*
X141815Y656615D01*
X139811Y654004D01*
X138552Y650963D01*
X138122Y647700D01*
X138552Y644437D01*
X139811Y641396D01*
X141815Y638785D01*
X144426Y636781D01*
X147467Y635522D01*
X150730Y635092D01*
X153993Y635522D01*
X157034Y636781D01*
X159645Y638785D01*
X161649Y641396D01*
X162908Y644437D01*
X163338Y647700D01*
X162908Y650963D01*
X161649Y654004D01*
X159645Y656615D01*
X157034Y658619D01*
X153993Y659878D01*
X150730Y660308D01*
D02*
G37*
G36*
X311150Y674296D02*
X308540Y673953D01*
X306107Y672945D01*
X304018Y671342D01*
X302415Y669253D01*
X301407Y666821D01*
X301199Y665237D01*
X297847Y661605D01*
X247821Y611579D01*
X244980Y612980D01*
X245036Y613410D01*
X244693Y616021D01*
X243685Y618453D01*
X242082Y620542D01*
X239993Y622145D01*
X237561Y623153D01*
X234950Y623496D01*
X232339Y623153D01*
X229907Y622145D01*
X227818Y620542D01*
X226215Y618453D01*
X225207Y616021D01*
X224864Y613410D01*
X225207Y610799D01*
X226215Y608367D01*
X227818Y606278D01*
X229907Y604675D01*
X232339Y603667D01*
X234950Y603324D01*
X235380Y603380D01*
X236781Y600539D01*
X234245Y598004D01*
X232339Y597753D01*
X229907Y596745D01*
X227818Y595142D01*
X226215Y593053D01*
X225207Y590620D01*
X225121Y589967D01*
X221458Y586692D01*
X220098Y585571D01*
X219019Y584738D01*
X217549Y583752D01*
X216046Y582887D01*
X214506Y582139D01*
X212926Y581507D01*
X211305Y580990D01*
X209641Y580587D01*
X207930Y580299D01*
X206169Y580125D01*
X204807Y580081D01*
X187800D01*
Y598010D01*
X167800D01*
Y580081D01*
X162702D01*
X161135Y582967D01*
X162143Y585400D01*
X162486Y588010D01*
X162143Y590620D01*
X161135Y593053D01*
X159532Y595142D01*
X157443Y596745D01*
X155010Y597753D01*
X152400Y598096D01*
X149789Y597753D01*
X147357Y596745D01*
X145268Y595142D01*
X143665Y593053D01*
X142657Y590620D01*
X142314Y588010D01*
X142657Y585400D01*
X143665Y582967D01*
X142098Y580081D01*
X137302D01*
X135735Y582967D01*
X136743Y585400D01*
X137086Y588010D01*
X136743Y590620D01*
X135735Y593053D01*
X134132Y595142D01*
X132043Y596745D01*
X129611Y597753D01*
X127000Y598096D01*
X124389Y597753D01*
X121957Y596745D01*
X119868Y595142D01*
X118265Y593053D01*
X117257Y590620D01*
X116914Y588010D01*
X116970Y587580D01*
X114129Y586179D01*
X114077Y586231D01*
X112476Y587865D01*
X111574Y588859D01*
X111343Y590620D01*
X110335Y593053D01*
X108732Y595142D01*
X106643Y596745D01*
X104211Y597753D01*
X101600Y598096D01*
X98989Y597753D01*
X96557Y596745D01*
X94468Y595142D01*
X92865Y593053D01*
X91857Y590620D01*
X91649Y589037D01*
X88297Y585405D01*
X77455Y574563D01*
X76253Y572996D01*
X75497Y571172D01*
X75239Y569214D01*
Y390906D01*
X75497Y388948D01*
X76253Y387124D01*
X77455Y385557D01*
X89124Y373888D01*
X90724Y372255D01*
X90779Y372194D01*
X88297Y369505D01*
X77455Y358663D01*
X76253Y357096D01*
X75497Y355272D01*
X75239Y353314D01*
Y175006D01*
X75497Y173048D01*
X76253Y171224D01*
X77455Y169657D01*
X89124Y157988D01*
X90724Y156355D01*
X91625Y155361D01*
X91857Y153600D01*
X92865Y151167D01*
X94468Y149078D01*
X96557Y147475D01*
X98989Y146467D01*
X101600Y146124D01*
X104211Y146467D01*
X106643Y147475D01*
X108732Y149078D01*
X110335Y151167D01*
X111343Y153600D01*
X111686Y156210D01*
X111343Y158820D01*
X110335Y161253D01*
X108732Y163342D01*
X106643Y164945D01*
X104211Y165953D01*
X102627Y166161D01*
X98995Y169513D01*
X94309Y174199D01*
X96009Y176742D01*
X97456Y176143D01*
X99460Y175879D01*
Y188360D01*
Y200841D01*
X97456Y200577D01*
X94406Y199314D01*
X93369Y198518D01*
X90369Y199997D01*
Y226773D01*
X93369Y228253D01*
X94426Y227442D01*
X97467Y226182D01*
X100730Y225752D01*
X103993Y226182D01*
X107034Y227442D01*
X109645Y229445D01*
X111649Y232056D01*
X112908Y235097D01*
X113338Y238360D01*
X112908Y241623D01*
X111649Y244664D01*
X109645Y247275D01*
X107034Y249279D01*
X103993Y250539D01*
X100730Y250968D01*
X97467Y250539D01*
X94426Y249279D01*
X93369Y248468D01*
X90369Y249947D01*
Y289443D01*
X90464Y289498D01*
X93369Y290210D01*
X94468Y288778D01*
X96557Y287175D01*
X98989Y286167D01*
X101600Y285824D01*
X104211Y286167D01*
X106643Y287175D01*
X108732Y288778D01*
X110335Y290867D01*
X111343Y293300D01*
X111686Y295910D01*
X111343Y298521D01*
X110335Y300953D01*
X108732Y303042D01*
X106643Y304645D01*
X104211Y305653D01*
X101600Y305996D01*
X98989Y305653D01*
X96557Y304645D01*
X94468Y303042D01*
X93369Y301609D01*
X90464Y302322D01*
X90369Y302376D01*
Y350181D01*
X99822Y359634D01*
X101455Y361234D01*
X102449Y362136D01*
X104211Y362367D01*
X106643Y363375D01*
X108732Y364978D01*
X110335Y367067D01*
X111343Y369500D01*
X111686Y372110D01*
X111343Y374720D01*
X110335Y377153D01*
X108732Y379242D01*
X106643Y380845D01*
X104211Y381853D01*
X102627Y382061D01*
X98995Y385413D01*
X92279Y392129D01*
X92355Y392368D01*
X92673Y392710D01*
X96000Y393916D01*
X97456Y393313D01*
X99460Y393049D01*
Y405530D01*
Y418011D01*
X97456Y417747D01*
X94406Y416483D01*
X93369Y415688D01*
X90369Y417167D01*
Y443943D01*
X93369Y445423D01*
X94426Y444612D01*
X97467Y443352D01*
X100730Y442922D01*
X103993Y443352D01*
X107034Y444612D01*
X109645Y446615D01*
X111649Y449226D01*
X112908Y452267D01*
X113338Y455530D01*
X112908Y458793D01*
X111649Y461834D01*
X109645Y464445D01*
X107034Y466449D01*
X103993Y467709D01*
X100730Y468138D01*
X97467Y467709D01*
X94426Y466449D01*
X93369Y465638D01*
X90369Y467117D01*
Y505344D01*
X90464Y505398D01*
X93369Y506110D01*
X94468Y504678D01*
X96557Y503075D01*
X98989Y502067D01*
X101600Y501724D01*
X104211Y502067D01*
X106643Y503075D01*
X108732Y504678D01*
X110335Y506767D01*
X111343Y509199D01*
X111686Y511810D01*
X111343Y514421D01*
X110335Y516853D01*
X108732Y518942D01*
X106643Y520545D01*
X104211Y521553D01*
X101600Y521896D01*
X98989Y521553D01*
X96557Y520545D01*
X94468Y518942D01*
X93369Y517509D01*
X90464Y518222D01*
X90369Y518276D01*
Y566081D01*
X99822Y575534D01*
X101455Y577134D01*
X101516Y577189D01*
X104205Y574707D01*
X111745Y567167D01*
X111745Y567167D01*
X113312Y565965D01*
X115136Y565209D01*
X117094Y564951D01*
X201386D01*
X202764Y564879D01*
X204126Y564638D01*
X205239Y564267D01*
X206130Y563788D01*
X206843Y563205D01*
X207426Y562492D01*
X207905Y561601D01*
X208276Y560488D01*
X208517Y559126D01*
X208589Y557748D01*
Y390906D01*
X208847Y388948D01*
X209603Y387124D01*
X210805Y385557D01*
X222474Y373888D01*
X224074Y372255D01*
X224975Y371261D01*
X225207Y369500D01*
X226215Y367067D01*
X227818Y364978D01*
X229907Y363375D01*
X232339Y362367D01*
X232751Y362313D01*
X233826Y359146D01*
X182652Y307971D01*
X182271Y307652D01*
X181686Y307225D01*
X181115Y306866D01*
X180558Y306574D01*
X180014Y306343D01*
X179480Y306169D01*
X178954Y306049D01*
X178429Y305981D01*
X178030Y305966D01*
X177800Y305996D01*
X175189Y305653D01*
X172757Y304645D01*
X170668Y303042D01*
X169065Y300953D01*
X168057Y298521D01*
X167714Y295910D01*
X168057Y293300D01*
X169065Y290867D01*
X170668Y288778D01*
X172757Y287175D01*
X175189Y286167D01*
X177800Y285824D01*
X180410Y286167D01*
X182843Y287175D01*
X184932Y288778D01*
X186535Y290867D01*
X187543Y293300D01*
X187886Y295910D01*
X187856Y296140D01*
X187871Y296539D01*
X187939Y297064D01*
X188059Y297590D01*
X188233Y298124D01*
X188464Y298668D01*
X188756Y299226D01*
X189114Y299796D01*
X189542Y300380D01*
X189861Y300762D01*
X266222Y377122D01*
X266276Y377172D01*
X266875Y377651D01*
X267047Y377770D01*
X267103Y377803D01*
X268527Y377990D01*
X270230Y378695D01*
X271692Y379818D01*
X272815Y381280D01*
X273520Y382983D01*
X273760Y384810D01*
X273520Y386637D01*
X272815Y388340D01*
X271692Y389802D01*
X270230Y390924D01*
X269152Y391371D01*
X268363Y393344D01*
X268233Y394695D01*
X298279Y424741D01*
X301120Y423340D01*
X301064Y422910D01*
X301407Y420299D01*
X302415Y417867D01*
X304018Y415778D01*
X306107Y414175D01*
X308540Y413167D01*
X311150Y412824D01*
X313761Y413167D01*
X316193Y414175D01*
X318282Y415778D01*
X318423Y415962D01*
X318716Y416234D01*
X319135Y416556D01*
X319593Y416844D01*
X320093Y417098D01*
X320641Y417320D01*
X321241Y417507D01*
X321898Y417658D01*
X322614Y417768D01*
X323109Y417812D01*
X325029D01*
X325402Y417779D01*
X325938Y417691D01*
X326318Y417589D01*
X326331Y417584D01*
Y417410D01*
X326603Y416044D01*
X327377Y414887D01*
X328534Y414113D01*
X329900Y413841D01*
X335900D01*
X337266Y414113D01*
X337710Y414410D01*
X348090D01*
X348534Y414113D01*
X349900Y413841D01*
X355900D01*
X357266Y414113D01*
X358423Y414887D01*
X359197Y416044D01*
X359468Y417410D01*
Y417584D01*
X359482Y417589D01*
X359862Y417691D01*
X360398Y417779D01*
X360770Y417812D01*
X361950D01*
X362368Y417895D01*
X364490Y415533D01*
Y412312D01*
X364372Y412233D01*
X363460Y410868D01*
X363139Y409258D01*
Y405765D01*
X381081D01*
Y409258D01*
X380760Y410868D01*
X379848Y412233D01*
X379730Y412312D01*
Y415776D01*
X379819Y415836D01*
X380723Y417188D01*
X381040Y418783D01*
Y428307D01*
X380723Y429902D01*
X379819Y431254D01*
X378467Y432158D01*
X376872Y432475D01*
X367347D01*
X365753Y432158D01*
X364401Y431254D01*
X363497Y429902D01*
X363247Y428643D01*
X362585D01*
X362388Y428604D01*
X360447Y428475D01*
X358676Y430555D01*
X358423Y430933D01*
X357266Y431707D01*
X355900Y431979D01*
X349900D01*
X348534Y431707D01*
X348090Y431410D01*
X337710D01*
X337266Y431707D01*
X335900Y431979D01*
X329900D01*
X328534Y431707D01*
X327377Y430933D01*
X326603Y429776D01*
X326331Y428410D01*
Y428237D01*
X326318Y428231D01*
X325938Y428129D01*
X325402Y428041D01*
X325029Y428008D01*
X323109D01*
X322614Y428052D01*
X321898Y428162D01*
X321241Y428313D01*
X320641Y428500D01*
X320093Y428722D01*
X319593Y428976D01*
X319135Y429264D01*
X318716Y429586D01*
X318423Y429858D01*
X318282Y430042D01*
X316193Y431645D01*
X313761Y432653D01*
X311150Y432996D01*
X310721Y432940D01*
X309319Y435781D01*
X309371Y435833D01*
X311005Y437434D01*
X311999Y438335D01*
X313761Y438567D01*
X316193Y439575D01*
X318282Y441178D01*
X319885Y443267D01*
X320893Y445700D01*
X321236Y448310D01*
X320893Y450920D01*
X319885Y453353D01*
X318282Y455442D01*
X316193Y457045D01*
X313761Y458053D01*
X311150Y458396D01*
X308540Y458053D01*
X306107Y457045D01*
X304018Y455442D01*
X302415Y453353D01*
X301407Y450920D01*
X301199Y449337D01*
X297847Y445705D01*
X247821Y395679D01*
X244980Y397080D01*
X245036Y397510D01*
X244693Y400121D01*
X243685Y402553D01*
X242082Y404642D01*
X239993Y406245D01*
X237561Y407253D01*
X234950Y407596D01*
X232339Y407253D01*
X229907Y406245D01*
X227818Y404642D01*
X226719Y403209D01*
X223814Y403922D01*
X223719Y403977D01*
Y416443D01*
X223814Y416498D01*
X226719Y417211D01*
X227818Y415778D01*
X229907Y414175D01*
X232339Y413167D01*
X234950Y412824D01*
X237561Y413167D01*
X239993Y414175D01*
X242082Y415778D01*
X243685Y417867D01*
X244693Y420299D01*
X245036Y422910D01*
X244693Y425521D01*
X243685Y427953D01*
X242082Y430042D01*
X239993Y431645D01*
X237561Y432653D01*
X234950Y432996D01*
X232339Y432653D01*
X229907Y431645D01*
X227818Y430042D01*
X226719Y428610D01*
X223814Y429322D01*
X223719Y429376D01*
Y441843D01*
X223814Y441898D01*
X226719Y442611D01*
X227818Y441178D01*
X229907Y439575D01*
X232339Y438567D01*
X234950Y438224D01*
X237561Y438567D01*
X239993Y439575D01*
X242082Y441178D01*
X243685Y443267D01*
X244693Y445700D01*
X245036Y448310D01*
X244693Y450920D01*
X243685Y453353D01*
X242082Y455442D01*
X239993Y457045D01*
X237561Y458053D01*
X234950Y458396D01*
X232339Y458053D01*
X229907Y457045D01*
X227818Y455442D01*
X226719Y454010D01*
X223814Y454722D01*
X223719Y454776D01*
Y566333D01*
X224805Y567167D01*
X233171Y575533D01*
X234805Y577134D01*
X235799Y578036D01*
X237561Y578267D01*
X239993Y579275D01*
X242082Y580878D01*
X243685Y582967D01*
X244693Y585400D01*
X244944Y587305D01*
X298279Y640641D01*
X301120Y639240D01*
X301064Y638810D01*
X301407Y636199D01*
X302415Y633767D01*
X304018Y631678D01*
X306107Y630075D01*
X308540Y629067D01*
X311150Y628724D01*
X313761Y629067D01*
X316193Y630075D01*
X318282Y631678D01*
X318423Y631862D01*
X318716Y632134D01*
X319135Y632456D01*
X319593Y632744D01*
X320093Y632998D01*
X320641Y633220D01*
X321241Y633407D01*
X321898Y633558D01*
X322614Y633668D01*
X323109Y633712D01*
X325029D01*
X325402Y633679D01*
X325938Y633591D01*
X326318Y633489D01*
X326331Y633484D01*
Y633310D01*
X326603Y631944D01*
X327377Y630787D01*
X328534Y630013D01*
X329900Y629741D01*
X335900D01*
X337266Y630013D01*
X337710Y630310D01*
X348090D01*
X348534Y630013D01*
X349900Y629741D01*
X355900D01*
X357266Y630013D01*
X358423Y630787D01*
X359197Y631944D01*
X359468Y633310D01*
Y633484D01*
X359482Y633489D01*
X359862Y633591D01*
X360398Y633679D01*
X360770Y633712D01*
X361950D01*
X362368Y633795D01*
X364490Y631433D01*
Y628212D01*
X364372Y628133D01*
X363460Y626768D01*
X363139Y625158D01*
Y621665D01*
X381081D01*
Y625158D01*
X380760Y626768D01*
X379848Y628133D01*
X379730Y628212D01*
Y631676D01*
X379819Y631736D01*
X380723Y633088D01*
X381040Y634683D01*
Y644208D01*
X380723Y645802D01*
X379819Y647154D01*
X378467Y648058D01*
X376872Y648375D01*
X367347D01*
X365753Y648058D01*
X364401Y647154D01*
X363497Y645802D01*
X363247Y644543D01*
X362585D01*
X362388Y644504D01*
X360447Y644375D01*
X358676Y646455D01*
X358423Y646833D01*
X357266Y647607D01*
X355900Y647879D01*
X349900D01*
X348534Y647607D01*
X348090Y647310D01*
X337710D01*
X337266Y647607D01*
X335900Y647879D01*
X329900D01*
X328534Y647607D01*
X327377Y646833D01*
X326603Y645676D01*
X326331Y644310D01*
Y644137D01*
X326318Y644131D01*
X325938Y644029D01*
X325402Y643941D01*
X325029Y643908D01*
X323109D01*
X322614Y643952D01*
X321898Y644062D01*
X321241Y644213D01*
X320641Y644400D01*
X320093Y644622D01*
X319593Y644876D01*
X319135Y645164D01*
X318716Y645486D01*
X318423Y645758D01*
X318282Y645942D01*
X316193Y647545D01*
X313761Y648553D01*
X311150Y648896D01*
X310721Y648840D01*
X309319Y651681D01*
X309371Y651733D01*
X311005Y653334D01*
X311999Y654236D01*
X313761Y654467D01*
X316193Y655475D01*
X318282Y657078D01*
X319885Y659167D01*
X320893Y661600D01*
X321236Y664210D01*
X320893Y666821D01*
X319885Y669253D01*
X318282Y671342D01*
X316193Y672945D01*
X313761Y673953D01*
X311150Y674296D01*
D02*
G37*
G36*
X99460Y621430D02*
X88249D01*
X88513Y619426D01*
X89776Y616376D01*
X91786Y613756D01*
X94406Y611746D01*
X97456Y610483D01*
X99460Y610219D01*
Y621430D01*
D02*
G37*
G36*
X311150Y623496D02*
X308540Y623153D01*
X306107Y622145D01*
X304018Y620542D01*
X302415Y618453D01*
X301407Y616021D01*
X301064Y613410D01*
X301407Y610799D01*
X302415Y608367D01*
X304018Y606278D01*
X306107Y604675D01*
X308540Y603667D01*
X311150Y603324D01*
X313761Y603667D01*
X316193Y604675D01*
X318282Y606278D01*
X319885Y608367D01*
X320893Y610799D01*
X321236Y613410D01*
X320893Y616021D01*
X319885Y618453D01*
X318282Y620542D01*
X316193Y622145D01*
X313761Y623153D01*
X311150Y623496D01*
D02*
G37*
G36*
X113211Y621430D02*
X102000D01*
Y610219D01*
X104003Y610483D01*
X107054Y611746D01*
X109673Y613756D01*
X111684Y616376D01*
X112947Y619426D01*
X113211Y621430D01*
D02*
G37*
G36*
X381081Y619125D02*
X373380D01*
Y611424D01*
X376872D01*
X378483Y611744D01*
X379848Y612657D01*
X380760Y614022D01*
X381081Y615633D01*
Y619125D01*
D02*
G37*
G36*
X370840D02*
X363139D01*
Y615633D01*
X363460Y614022D01*
X364372Y612657D01*
X365737Y611744D01*
X367347Y611424D01*
X370840D01*
Y619125D01*
D02*
G37*
G36*
X151130Y510540D02*
X142441D01*
X142618Y509189D01*
X143630Y506747D01*
X145239Y504649D01*
X147337Y503040D01*
X149779Y502028D01*
X151130Y501851D01*
Y510540D01*
D02*
G37*
G36*
X177800Y521896D02*
X175189Y521553D01*
X172757Y520545D01*
X170668Y518942D01*
X169065Y516853D01*
X168057Y514421D01*
X167714Y511810D01*
X168057Y509199D01*
X169065Y506767D01*
X170668Y504678D01*
X172757Y503075D01*
X175189Y502067D01*
X177800Y501724D01*
X180410Y502067D01*
X182843Y503075D01*
X184932Y504678D01*
X186535Y506767D01*
X187543Y509199D01*
X187886Y511810D01*
X187543Y514421D01*
X186535Y516853D01*
X184932Y518942D01*
X182843Y520545D01*
X180410Y521553D01*
X177800Y521896D01*
D02*
G37*
G36*
X162359Y510540D02*
X153670D01*
Y501851D01*
X155021Y502028D01*
X157463Y503040D01*
X159561Y504649D01*
X161170Y506747D01*
X162182Y509189D01*
X162359Y510540D01*
D02*
G37*
G36*
X153670Y521769D02*
Y513080D01*
X162359D01*
X162182Y514431D01*
X161170Y516873D01*
X159561Y518971D01*
X157463Y520580D01*
X155021Y521592D01*
X153670Y521769D01*
D02*
G37*
G36*
X151130D02*
X149779Y521592D01*
X147337Y520580D01*
X145239Y518971D01*
X143630Y516873D01*
X142618Y514431D01*
X142441Y513080D01*
X151130D01*
Y521769D01*
D02*
G37*
G36*
X381081Y403225D02*
X373380D01*
Y395524D01*
X376872D01*
X378483Y395844D01*
X379848Y396757D01*
X380760Y398122D01*
X381081Y399733D01*
Y403225D01*
D02*
G37*
G36*
X370840D02*
X363139D01*
Y399733D01*
X363460Y398122D01*
X364372Y396757D01*
X365737Y395844D01*
X367347Y395524D01*
X370840D01*
Y403225D01*
D02*
G37*
G36*
X102000Y418011D02*
Y406800D01*
X113211D01*
X112947Y408803D01*
X111684Y411854D01*
X109673Y414473D01*
X107054Y416483D01*
X104003Y417747D01*
X102000Y418011D01*
D02*
G37*
G36*
X127000Y521896D02*
X124389Y521553D01*
X121957Y520545D01*
X119868Y518942D01*
X118265Y516853D01*
X117257Y514421D01*
X116914Y511810D01*
X117257Y509199D01*
X118265Y506767D01*
X119868Y504678D01*
X121957Y503075D01*
X124389Y502067D01*
X127000Y501724D01*
X129611Y502067D01*
X132043Y503075D01*
X134132Y504678D01*
X135735Y506767D01*
X136743Y509199D01*
X137086Y511810D01*
X136743Y514421D01*
X135735Y516853D01*
X134132Y518942D01*
X132043Y520545D01*
X129611Y521553D01*
X127000Y521896D01*
D02*
G37*
G36*
X150730Y443138D02*
X147467Y442708D01*
X144426Y441449D01*
X141815Y439445D01*
X139811Y436834D01*
X138552Y433793D01*
X138122Y430530D01*
X138552Y427267D01*
X139811Y424226D01*
X141815Y421615D01*
X144426Y419611D01*
X147467Y418352D01*
X150730Y417922D01*
X153993Y418352D01*
X157034Y419611D01*
X159645Y421615D01*
X161649Y424226D01*
X162908Y427267D01*
X163338Y430530D01*
X162908Y433793D01*
X161649Y436834D01*
X159645Y439445D01*
X157034Y441449D01*
X153993Y442708D01*
X150730Y443138D01*
D02*
G37*
%LPD*%
G36*
X360861Y135504D02*
X360548Y134963D01*
X360272Y134381D01*
X360033Y133758D01*
X359830Y133095D01*
X359664Y132391D01*
X359536Y131646D01*
X359444Y130860D01*
X359370Y129167D01*
X354370D01*
X354352Y130034D01*
X354204Y131646D01*
X354076Y132391D01*
X353910Y133095D01*
X353707Y133758D01*
X353468Y134381D01*
X353192Y134963D01*
X352879Y135504D01*
X352529Y136004D01*
X361211D01*
X360861Y135504D01*
D02*
G37*
G36*
X101525Y379610D02*
X94100Y372185D01*
X94059Y372294D01*
X93932Y372480D01*
X93721Y372745D01*
X92579Y374004D01*
X89869Y376770D01*
X96940Y383841D01*
X101525Y379610D01*
D02*
G37*
G36*
X234875D02*
X227450Y372185D01*
X227409Y372294D01*
X227282Y372480D01*
X227071Y372745D01*
X225929Y374004D01*
X223219Y376770D01*
X230290Y383841D01*
X234875Y379610D01*
D02*
G37*
G36*
X372239Y112048D02*
X366901D01*
X366933Y112083D01*
X366962Y112188D01*
X366987Y112365D01*
X367009Y112611D01*
X367063Y114302D01*
X367070Y115570D01*
X372070D01*
X372239Y112048D01*
D02*
G37*
G36*
X360777Y308287D02*
X360748Y308182D01*
X360723Y308006D01*
X360701Y307759D01*
X360647Y306068D01*
X360640Y304800D01*
X355640D01*
X355471Y308323D01*
X360809D01*
X360777Y308287D01*
D02*
G37*
G36*
X365790Y420370D02*
X365758Y420498D01*
X365662Y420613D01*
X365502Y420714D01*
X365278Y420802D01*
X364989Y420876D01*
X364636Y420937D01*
X364220Y420984D01*
X363194Y421038D01*
X362585Y421045D01*
Y426045D01*
X363194Y426052D01*
X364636Y426153D01*
X364989Y426214D01*
X365278Y426288D01*
X365502Y426376D01*
X365662Y426477D01*
X365758Y426592D01*
X365790Y426720D01*
Y420370D01*
D02*
G37*
G36*
X317068Y427637D02*
X317677Y427170D01*
X318333Y426758D01*
X319034Y426400D01*
X319783Y426097D01*
X320577Y425850D01*
X321418Y425658D01*
X322306Y425520D01*
X323240Y425438D01*
X324072Y425414D01*
X324867Y425435D01*
X325723Y425510D01*
X326477Y425635D01*
X327131Y425810D01*
X327684Y426035D01*
X328137Y426310D01*
X328489Y426635D01*
X328741Y427010D01*
X328892Y427435D01*
X328942Y427910D01*
Y417910D01*
X328892Y418385D01*
X328741Y418810D01*
X328489Y419185D01*
X328137Y419510D01*
X327684Y419785D01*
X327131Y420010D01*
X326477Y420185D01*
X325723Y420310D01*
X324867Y420385D01*
X324072Y420406D01*
X323240Y420382D01*
X322306Y420300D01*
X321418Y420163D01*
X320577Y419970D01*
X319783Y419723D01*
X319034Y419420D01*
X318333Y419062D01*
X317677Y418650D01*
X317068Y418182D01*
X316506Y417660D01*
Y428160D01*
X317068Y427637D01*
D02*
G37*
G36*
X356908Y427435D02*
X357059Y427010D01*
X357311Y426635D01*
X357663Y426310D01*
X358116Y426035D01*
X358669Y425810D01*
X359323Y425635D01*
X360078Y425510D01*
X360933Y425435D01*
X361889Y425410D01*
Y420410D01*
X360933Y420385D01*
X360078Y420310D01*
X359323Y420185D01*
X358669Y420010D01*
X358116Y419785D01*
X357663Y419510D01*
X357311Y419185D01*
X357059Y418810D01*
X356908Y418385D01*
X356858Y417910D01*
Y427910D01*
X356908Y427435D01*
D02*
G37*
G36*
X468555Y311270D02*
X467788Y311242D01*
X467027Y311142D01*
X466272Y310971D01*
X465523Y310727D01*
X464780Y310412D01*
X464043Y310025D01*
X463312Y309566D01*
X462587Y309036D01*
X461868Y308434D01*
X461155Y307760D01*
X457620Y311295D01*
X458294Y312008D01*
X458896Y312727D01*
X459426Y313452D01*
X459885Y314183D01*
X460272Y314920D01*
X460587Y315663D01*
X460831Y316412D01*
X461002Y317167D01*
X461102Y317928D01*
X461130Y318695D01*
X468555Y311270D01*
D02*
G37*
G36*
X365790Y636270D02*
X365758Y636398D01*
X365662Y636513D01*
X365502Y636614D01*
X365278Y636702D01*
X364989Y636776D01*
X364636Y636837D01*
X364220Y636884D01*
X363194Y636938D01*
X362585Y636945D01*
Y641945D01*
X363194Y641952D01*
X364636Y642053D01*
X364989Y642114D01*
X365278Y642188D01*
X365502Y642276D01*
X365662Y642377D01*
X365758Y642492D01*
X365790Y642620D01*
Y636270D01*
D02*
G37*
G36*
X266655Y380310D02*
X266457Y380287D01*
X266229Y380215D01*
X265969Y380093D01*
X265678Y379921D01*
X265355Y379700D01*
X264617Y379109D01*
X263755Y378320D01*
X263276Y377851D01*
X259741Y381386D01*
X260210Y381865D01*
X261590Y383465D01*
X261811Y383787D01*
X261983Y384079D01*
X262105Y384339D01*
X262177Y384567D01*
X262200Y384765D01*
X266655Y380310D01*
D02*
G37*
G36*
X362131Y524124D02*
X361818Y523583D01*
X361542Y523001D01*
X361303Y522378D01*
X361100Y521715D01*
X360934Y521011D01*
X360806Y520266D01*
X360714Y519480D01*
X360640Y517787D01*
X355640D01*
X355622Y518654D01*
X355474Y520266D01*
X355345Y521011D01*
X355180Y521715D01*
X354977Y522378D01*
X354738Y523001D01*
X354462Y523583D01*
X354149Y524124D01*
X353799Y524624D01*
X362481D01*
X362131Y524124D01*
D02*
G37*
G36*
X311075Y656710D02*
X310966Y656669D01*
X310780Y656542D01*
X310515Y656331D01*
X309256Y655189D01*
X306490Y652479D01*
X299419Y659550D01*
X303650Y664135D01*
X311075Y656710D01*
D02*
G37*
G36*
X373509Y326678D02*
X368171D01*
X368203Y326713D01*
X368232Y326818D01*
X368257Y326995D01*
X368279Y327241D01*
X368333Y328932D01*
X368340Y330200D01*
X373340D01*
X373509Y326678D01*
D02*
G37*
G36*
X360531Y94823D02*
X360287Y94644D01*
X360072Y94345D01*
X359886Y93926D01*
X359728Y93387D01*
X359599Y92729D01*
X359499Y91951D01*
X359384Y90037D01*
X359370Y88900D01*
X354370D01*
X354356Y90037D01*
X354141Y92729D01*
X354012Y93387D01*
X353854Y93926D01*
X353668Y94345D01*
X353453Y94644D01*
X353209Y94823D01*
X352937Y94883D01*
X360803D01*
X360531Y94823D01*
D02*
G37*
G36*
X356908Y643335D02*
X357059Y642910D01*
X357311Y642535D01*
X357663Y642210D01*
X358116Y641935D01*
X358669Y641710D01*
X359323Y641535D01*
X360078Y641410D01*
X360933Y641335D01*
X361889Y641310D01*
Y636310D01*
X360933Y636285D01*
X360078Y636210D01*
X359323Y636085D01*
X358669Y635910D01*
X358116Y635685D01*
X357663Y635410D01*
X357311Y635085D01*
X357059Y634710D01*
X356908Y634285D01*
X356858Y633810D01*
Y643810D01*
X356908Y643335D01*
D02*
G37*
G36*
X317068Y643538D02*
X317677Y643070D01*
X318333Y642657D01*
X319034Y642300D01*
X319783Y641998D01*
X320577Y641750D01*
X321418Y641557D01*
X322306Y641420D01*
X323240Y641338D01*
X324072Y641314D01*
X324867Y641335D01*
X325723Y641410D01*
X326477Y641535D01*
X327131Y641710D01*
X327684Y641935D01*
X328137Y642210D01*
X328489Y642535D01*
X328741Y642910D01*
X328892Y643335D01*
X328942Y643810D01*
Y633810D01*
X328892Y634285D01*
X328741Y634710D01*
X328489Y635085D01*
X328137Y635410D01*
X327684Y635685D01*
X327131Y635910D01*
X326477Y636085D01*
X325723Y636210D01*
X324867Y636285D01*
X324072Y636306D01*
X323240Y636283D01*
X322306Y636200D01*
X321418Y636063D01*
X320577Y635870D01*
X319783Y635622D01*
X319034Y635320D01*
X318333Y634963D01*
X317677Y634550D01*
X317068Y634082D01*
X316506Y633560D01*
Y644060D01*
X317068Y643538D01*
D02*
G37*
G36*
X101525Y163710D02*
X94100Y156285D01*
X94059Y156394D01*
X93932Y156580D01*
X93721Y156845D01*
X92579Y158104D01*
X89869Y160870D01*
X96940Y167941D01*
X101525Y163710D01*
D02*
G37*
G36*
X317068Y211737D02*
X317677Y211270D01*
X318333Y210858D01*
X319034Y210500D01*
X319783Y210198D01*
X320577Y209950D01*
X321418Y209757D01*
X322306Y209620D01*
X323240Y209538D01*
X324072Y209514D01*
X324867Y209535D01*
X325723Y209610D01*
X326477Y209735D01*
X327131Y209910D01*
X327684Y210135D01*
X328137Y210410D01*
X328489Y210735D01*
X328741Y211110D01*
X328892Y211535D01*
X328942Y212010D01*
Y202010D01*
X328892Y202485D01*
X328741Y202910D01*
X328489Y203285D01*
X328137Y203610D01*
X327684Y203885D01*
X327131Y204110D01*
X326477Y204285D01*
X325723Y204410D01*
X324867Y204485D01*
X324072Y204506D01*
X323240Y204482D01*
X322306Y204400D01*
X321418Y204263D01*
X320577Y204070D01*
X319783Y203822D01*
X319034Y203520D01*
X318333Y203162D01*
X317677Y202750D01*
X317068Y202283D01*
X316506Y201760D01*
Y212260D01*
X317068Y211737D01*
D02*
G37*
G36*
X356908Y211535D02*
X357059Y211110D01*
X357311Y210735D01*
X357663Y210410D01*
X358116Y210135D01*
X358669Y209910D01*
X359323Y209735D01*
X360078Y209610D01*
X360933Y209535D01*
X361889Y209510D01*
Y204510D01*
X360933Y204485D01*
X360078Y204410D01*
X359323Y204285D01*
X358669Y204110D01*
X358116Y203885D01*
X357663Y203610D01*
X357311Y203285D01*
X357059Y202910D01*
X356908Y202485D01*
X356858Y202010D01*
Y212010D01*
X356908Y211535D01*
D02*
G37*
G36*
X109141Y587826D02*
X109268Y587640D01*
X109479Y587375D01*
X110621Y586116D01*
X113331Y583350D01*
X106260Y576279D01*
X101675Y580510D01*
X109100Y587935D01*
X109141Y587826D01*
D02*
G37*
G36*
X101525Y580510D02*
X101416Y580469D01*
X101230Y580342D01*
X100965Y580131D01*
X99706Y578989D01*
X96940Y576279D01*
X89869Y583350D01*
X94100Y587935D01*
X101525Y580510D01*
D02*
G37*
G36*
X362131Y567304D02*
X361818Y566763D01*
X361542Y566181D01*
X361303Y565558D01*
X361100Y564895D01*
X360934Y564191D01*
X360806Y563446D01*
X360714Y562660D01*
X360640Y560967D01*
X355640D01*
X355622Y561834D01*
X355474Y563446D01*
X355345Y564191D01*
X355180Y564895D01*
X354977Y565558D01*
X354738Y566181D01*
X354462Y566763D01*
X354149Y567304D01*
X353799Y567804D01*
X362481D01*
X362131Y567304D01*
D02*
G37*
G36*
X468555Y285870D02*
X467788Y285842D01*
X467027Y285742D01*
X466272Y285571D01*
X465523Y285327D01*
X464780Y285012D01*
X464043Y284625D01*
X463312Y284166D01*
X462587Y283636D01*
X461868Y283034D01*
X461155Y282360D01*
X457620Y285895D01*
X458294Y286608D01*
X458896Y287327D01*
X459426Y288052D01*
X459885Y288783D01*
X460272Y289520D01*
X460587Y290263D01*
X460831Y291012D01*
X461002Y291767D01*
X461102Y292528D01*
X461130Y293295D01*
X468555Y285870D01*
D02*
G37*
G36*
X365790Y204470D02*
X365758Y204598D01*
X365662Y204713D01*
X365502Y204814D01*
X365278Y204902D01*
X364989Y204976D01*
X364636Y205037D01*
X364220Y205084D01*
X363194Y205138D01*
X362585Y205145D01*
Y210145D01*
X363194Y210152D01*
X364636Y210253D01*
X364989Y210314D01*
X365278Y210388D01*
X365502Y210476D01*
X365662Y210577D01*
X365758Y210692D01*
X365790Y210820D01*
Y204470D01*
D02*
G37*
G36*
X311075Y224910D02*
X310966Y224869D01*
X310780Y224742D01*
X310515Y224531D01*
X309256Y223389D01*
X306490Y220679D01*
X299419Y227750D01*
X303650Y232335D01*
X311075Y224910D01*
D02*
G37*
G36*
X230981Y584405D02*
X234875Y580510D01*
X234766Y580469D01*
X234580Y580342D01*
X234315Y580131D01*
X233056Y578989D01*
X230290Y576279D01*
X229520Y577049D01*
X229187Y576780D01*
X226361Y580208D01*
X223219Y583350D01*
X223510Y583666D01*
X222826Y584496D01*
X227478Y588654D01*
X230981Y584405D01*
D02*
G37*
G36*
X461868Y354506D02*
X462587Y353904D01*
X463312Y353374D01*
X464043Y352915D01*
X464780Y352528D01*
X465523Y352213D01*
X466272Y351969D01*
X467027Y351798D01*
X467788Y351698D01*
X468555Y351670D01*
X461130Y344245D01*
X461102Y345012D01*
X461002Y345773D01*
X460831Y346528D01*
X460587Y347277D01*
X460272Y348020D01*
X459885Y348757D01*
X459426Y349488D01*
X458896Y350213D01*
X458294Y350932D01*
X457620Y351645D01*
X461155Y355180D01*
X461868Y354506D01*
D02*
G37*
G36*
X373354Y544963D02*
X373569Y542271D01*
X373698Y541613D01*
X373856Y541074D01*
X374042Y540656D01*
X374257Y540356D01*
X374501Y540177D01*
X374773Y540117D01*
X366907D01*
X367179Y540177D01*
X367423Y540356D01*
X367638Y540656D01*
X367824Y541074D01*
X367982Y541613D01*
X368111Y542271D01*
X368211Y543049D01*
X368326Y544963D01*
X368340Y546100D01*
X373340D01*
X373354Y544963D01*
D02*
G37*
G36*
X246681Y160870D02*
X242450Y156285D01*
X235025Y163710D01*
X235134Y163751D01*
X235320Y163878D01*
X235585Y164089D01*
X236844Y165231D01*
X239610Y167941D01*
X246681Y160870D01*
D02*
G37*
G36*
X311075Y440810D02*
X310966Y440769D01*
X310780Y440642D01*
X310515Y440431D01*
X309256Y439289D01*
X306490Y436579D01*
X299419Y443650D01*
X303650Y448235D01*
X311075Y440810D01*
D02*
G37*
G36*
X101525Y364610D02*
X101416Y364569D01*
X101230Y364442D01*
X100965Y364231D01*
X99706Y363089D01*
X96940Y360379D01*
X89869Y367450D01*
X94100Y372035D01*
X101525Y364610D01*
D02*
G37*
G36*
X216154Y572516D02*
X211154Y557516D01*
X211054Y559416D01*
X210754Y561116D01*
X210254Y562616D01*
X209554Y563916D01*
X208654Y565016D01*
X207554Y565916D01*
X206254Y566616D01*
X204754Y567116D01*
X203054Y567416D01*
X201154Y567516D01*
X204359Y577516D01*
X206336Y577580D01*
X208267Y577770D01*
X210153Y578088D01*
X211993Y578534D01*
X213788Y579106D01*
X215537Y579806D01*
X217240Y580633D01*
X218897Y581587D01*
X220509Y582668D01*
X222075Y583877D01*
X216154Y572516D01*
D02*
G37*
G36*
X188810Y303385D02*
X188136Y302672D01*
X187534Y301953D01*
X187004Y301228D01*
X186545Y300497D01*
X186158Y299760D01*
X185843Y299017D01*
X185599Y298268D01*
X185428Y297513D01*
X185328Y296752D01*
X185300Y295985D01*
X177875Y303410D01*
X178642Y303438D01*
X179403Y303538D01*
X180158Y303709D01*
X180907Y303953D01*
X181650Y304268D01*
X182387Y304655D01*
X183118Y305114D01*
X183843Y305644D01*
X184562Y306246D01*
X185275Y306920D01*
X188810Y303385D01*
D02*
G37*
G36*
X362131Y351404D02*
X361818Y350863D01*
X361542Y350281D01*
X361303Y349658D01*
X361100Y348995D01*
X360934Y348291D01*
X360806Y347546D01*
X360714Y346760D01*
X360640Y345067D01*
X355640D01*
X355622Y345934D01*
X355474Y347546D01*
X355345Y348291D01*
X355180Y348995D01*
X354977Y349658D01*
X354738Y350281D01*
X354462Y350863D01*
X354149Y351404D01*
X353799Y351904D01*
X362481D01*
X362131Y351404D01*
D02*
G37*
D10*
X352900Y207010D02*
D03*
X332900D02*
D03*
X352900Y422910D02*
D03*
X332900D02*
D03*
X352900Y638810D02*
D03*
X332900D02*
D03*
D11*
X372110Y188595D02*
D03*
Y207645D02*
D03*
Y404495D02*
D03*
Y423545D02*
D03*
Y620395D02*
D03*
Y639445D02*
D03*
D12*
X216154Y572516D02*
X219456D01*
X117094D02*
X216154D01*
X82804Y390906D02*
X101600Y372110D01*
X82804Y390906D02*
Y569214D01*
X101600Y588010D01*
X216154Y390906D02*
X234950Y372110D01*
X216154Y390906D02*
Y572516D01*
X234950Y588010D01*
X101600D02*
X117094Y572516D01*
X219456D02*
X234950Y588010D01*
X311150Y664210D01*
X234950Y156210D02*
X311150Y232410D01*
X82804Y175006D02*
X101600Y156210D01*
X82804Y175006D02*
Y353314D01*
X101600Y372110D01*
X234950D02*
X311150Y448310D01*
X27940Y621030D02*
X38100D01*
X43434Y615696D01*
Y583692D02*
Y615696D01*
X27940Y568198D02*
X43434Y583692D01*
X27940Y541020D02*
Y568198D01*
X29210Y189230D02*
X38100D01*
X44704Y182626D01*
Y153162D02*
Y182626D01*
X27940Y136398D02*
X44704Y153162D01*
X27940Y109220D02*
Y136398D01*
X29210Y405130D02*
X38100D01*
X44704Y398526D01*
Y369062D02*
Y398526D01*
X27940Y352298D02*
X44704Y369062D01*
X27940Y325120D02*
Y352298D01*
D13*
X356870Y127000D02*
Y143510D01*
Y127000D02*
X360680Y123190D01*
X361950D01*
X369570Y115570D01*
Y102870D02*
Y115570D01*
X177800Y295910D02*
X266700Y384810D01*
X358140Y557530D02*
Y575310D01*
Y557530D02*
X361950Y553720D01*
X363220D01*
X370840Y546100D01*
Y532130D02*
Y546100D01*
X358140Y342138D02*
Y359410D01*
Y342138D02*
X361950Y338328D01*
X362712D01*
X370840Y330200D01*
Y317500D02*
Y330200D01*
X311150Y638810D02*
X332900D01*
X311150Y207010D02*
X332900D01*
X311150Y422910D02*
X332900D01*
X358140Y467614D02*
Y532130D01*
Y467614D02*
X443738Y382016D01*
Y369062D02*
Y382016D01*
Y369062D02*
X468630Y344170D01*
X451358Y301498D02*
X468630Y318770D01*
X361442Y301498D02*
X451358D01*
X358140Y304800D02*
X361442Y301498D01*
X358140Y304800D02*
Y317500D01*
X362585Y207645D02*
X372110D01*
X361950Y207010D02*
X362585Y207645D01*
X352900Y207010D02*
X361950D01*
X362585Y423545D02*
X372110D01*
X361950Y422910D02*
X362585Y423545D01*
X352900Y422910D02*
X361950D01*
X362585Y639445D02*
X372110D01*
X361950Y638810D02*
X362585Y639445D01*
X352900Y638810D02*
X361950D01*
X356870Y88900D02*
Y102870D01*
Y88900D02*
X367538Y78232D01*
X381762D01*
X392430Y88900D01*
Y217170D01*
X468630Y293370D01*
D14*
X27940Y27940D02*
D03*
X472440Y671830D02*
D03*
Y114300D02*
D03*
D15*
X311150Y588010D02*
D03*
Y156210D02*
D03*
Y372110D02*
D03*
D16*
Y613410D02*
D03*
Y638810D02*
D03*
Y664210D02*
D03*
X234950Y588010D02*
D03*
Y613410D02*
D03*
Y638810D02*
D03*
Y664210D02*
D03*
X311150Y181610D02*
D03*
Y207010D02*
D03*
Y232410D02*
D03*
X234950Y156210D02*
D03*
Y181610D02*
D03*
Y207010D02*
D03*
Y232410D02*
D03*
X27940Y621030D02*
D03*
Y646430D02*
D03*
X152400Y588010D02*
D03*
X127000D02*
D03*
X101600D02*
D03*
X177800Y511810D02*
D03*
X152400D02*
D03*
X127000D02*
D03*
X101600D02*
D03*
X29210Y189230D02*
D03*
Y214630D02*
D03*
X152400Y156210D02*
D03*
X127000D02*
D03*
X101600D02*
D03*
X177800Y80010D02*
D03*
X152400D02*
D03*
X127000D02*
D03*
X101600D02*
D03*
X311150Y397510D02*
D03*
Y422910D02*
D03*
Y448310D02*
D03*
X234950Y372110D02*
D03*
Y397510D02*
D03*
Y422910D02*
D03*
Y448310D02*
D03*
X29210Y405130D02*
D03*
Y430530D02*
D03*
X152400Y372110D02*
D03*
X127000D02*
D03*
X101600D02*
D03*
X177800Y295910D02*
D03*
X152400D02*
D03*
X127000D02*
D03*
X101600D02*
D03*
X468630Y369570D02*
D03*
Y344170D02*
D03*
Y318770D02*
D03*
Y293370D02*
D03*
D17*
X27940Y595630D02*
D03*
X177800Y588010D02*
D03*
X29210Y163830D02*
D03*
X177800Y156210D02*
D03*
X29210Y379730D02*
D03*
X177800Y372110D02*
D03*
X468630Y267970D02*
D03*
D18*
X27940Y541020D02*
D03*
X40640D02*
D03*
X27940Y109220D02*
D03*
X40640D02*
D03*
X27940Y325120D02*
D03*
X40640D02*
D03*
X382270Y102870D02*
D03*
X369570D02*
D03*
X383540Y317500D02*
D03*
X370840D02*
D03*
X383540Y532130D02*
D03*
X370840D02*
D03*
X356870Y143510D02*
D03*
X369570D02*
D03*
X358140Y359410D02*
D03*
X370840D02*
D03*
X358140Y575310D02*
D03*
X370840D02*
D03*
D19*
X53340Y541020D02*
D03*
Y109220D02*
D03*
Y325120D02*
D03*
X356870Y102870D02*
D03*
X358140Y317500D02*
D03*
Y532130D02*
D03*
X382270Y143510D02*
D03*
X383540Y359410D02*
D03*
Y575310D02*
D03*
D20*
X100730Y622700D02*
D03*
Y672700D02*
D03*
X150730Y647700D02*
D03*
X100730Y188360D02*
D03*
Y238360D02*
D03*
X150730Y213360D02*
D03*
X100730Y405530D02*
D03*
Y455530D02*
D03*
X150730Y430530D02*
D03*
D21*
X266700Y384810D02*
D03*
M02*
