G04 Layer_Color=65535*
%FSLAX44Y44*%
%MOMM*%
G71*
G01*
G75*
%ADD27C,0.2000*%
%ADD28C,0.2500*%
%ADD29C,0.6000*%
%ADD30C,0.4000*%
%ADD31C,0.2540*%
%ADD32C,0.1270*%
G36*
X384756Y38038D02*
X385020D01*
X385284Y38009D01*
X385606Y37950D01*
X385928Y37892D01*
X386631Y37745D01*
X387392Y37511D01*
X388095Y37189D01*
X388417Y36984D01*
X388710Y36750D01*
X388739D01*
X388769Y36691D01*
X388857Y36603D01*
X388944Y36515D01*
X389062Y36369D01*
X389208Y36222D01*
X389501Y35812D01*
X389764Y35256D01*
X390028Y34612D01*
X390204Y33879D01*
X390233Y33440D01*
X390262Y33001D01*
Y32972D01*
Y32942D01*
Y32767D01*
X390233Y32503D01*
X390174Y32181D01*
X390087Y31800D01*
X389969Y31419D01*
X389794Y31010D01*
X389559Y30600D01*
X389530Y30570D01*
X389442Y30424D01*
X389267Y30248D01*
X389032Y30043D01*
X388739Y29779D01*
X388388Y29516D01*
X387978Y29252D01*
X387480Y29018D01*
X387509D01*
X387539Y28989D01*
X387714Y28930D01*
X387978Y28813D01*
X388300Y28637D01*
X388652Y28432D01*
X389003Y28169D01*
X389325Y27847D01*
X389589Y27466D01*
X389618Y27407D01*
X389677Y27290D01*
X389794Y27056D01*
X389911Y26734D01*
X390028Y26353D01*
X390145Y25914D01*
X390204Y25387D01*
X390233Y24830D01*
Y23161D01*
Y23131D01*
Y23014D01*
Y22868D01*
X390262Y22663D01*
Y22429D01*
X390321Y22194D01*
X390409Y21667D01*
Y21638D01*
X390438Y21550D01*
X390496Y21433D01*
X390555Y21286D01*
X390731Y20964D01*
X391024Y20613D01*
Y20320D01*
X388564D01*
X388534Y20349D01*
X388476Y20408D01*
X388417Y20496D01*
X388300Y20613D01*
X388212Y20789D01*
X388095Y20994D01*
X388007Y21257D01*
X387949Y21521D01*
Y21550D01*
X387919Y21667D01*
Y21814D01*
X387890Y22048D01*
X387861Y22282D01*
Y22575D01*
X387831Y23190D01*
Y24801D01*
Y24830D01*
Y24859D01*
Y25035D01*
X387802Y25299D01*
X387714Y25621D01*
X387626Y26002D01*
X387480Y26382D01*
X387275Y26763D01*
X386982Y27114D01*
X386953Y27144D01*
X386836Y27261D01*
X386631Y27407D01*
X386396Y27554D01*
X386045Y27729D01*
X385664Y27847D01*
X385225Y27964D01*
X384727Y27993D01*
X380598D01*
Y20320D01*
X378196D01*
Y38067D01*
X384581D01*
X384756Y38038D01*
D02*
G37*
G36*
X406575D02*
X406809D01*
X407072Y38009D01*
X407365Y37980D01*
X407687Y37921D01*
X408390Y37775D01*
X409123Y37570D01*
X409825Y37277D01*
X410470Y36867D01*
X410499D01*
X410528Y36808D01*
X410704Y36632D01*
X410968Y36369D01*
X411260Y35959D01*
X411553Y35461D01*
X411817Y34846D01*
X411993Y34114D01*
X412022Y33704D01*
X412051Y33265D01*
Y33206D01*
Y33059D01*
X412022Y32854D01*
X411963Y32591D01*
X411875Y32269D01*
X411729Y31917D01*
X411553Y31566D01*
X411319Y31214D01*
X411290Y31185D01*
X411202Y31068D01*
X411026Y30892D01*
X410821Y30687D01*
X410558Y30482D01*
X410235Y30248D01*
X409855Y30014D01*
X409445Y29809D01*
X409533D01*
X409620Y29779D01*
X409738Y29750D01*
X410060Y29662D01*
X410440Y29545D01*
X410880Y29340D01*
X411348Y29077D01*
X411788Y28725D01*
X412198Y28286D01*
X412256Y28227D01*
X412373Y28052D01*
X412520Y27788D01*
X412725Y27436D01*
X412901Y26997D01*
X413076Y26499D01*
X413193Y25943D01*
X413223Y25328D01*
Y25299D01*
Y25211D01*
Y25094D01*
X413193Y24918D01*
X413164Y24713D01*
X413135Y24479D01*
X413018Y23951D01*
X412842Y23337D01*
X412549Y22722D01*
X412373Y22399D01*
X412168Y22106D01*
X411934Y21843D01*
X411641Y21579D01*
X411612D01*
X411583Y21521D01*
X411465Y21462D01*
X411348Y21374D01*
X411202Y21286D01*
X410997Y21169D01*
X410763Y21081D01*
X410528Y20964D01*
X410235Y20847D01*
X409913Y20730D01*
X409562Y20613D01*
X409181Y20525D01*
X408332Y20379D01*
X407863Y20349D01*
X407365Y20320D01*
X400307D01*
Y38067D01*
X406370D01*
X406575Y38038D01*
D02*
G37*
G36*
X305332Y38302D02*
X305567Y38272D01*
X305830Y38243D01*
X306152Y38185D01*
X306474Y38126D01*
X307207Y37950D01*
X307939Y37657D01*
X308319Y37482D01*
X308671Y37247D01*
X309022Y37013D01*
X309345Y36720D01*
X309374Y36691D01*
X309403Y36662D01*
X309491Y36574D01*
X309608Y36427D01*
X309725Y36281D01*
X309872Y36105D01*
X310165Y35666D01*
X310487Y35139D01*
X310721Y34495D01*
X310838Y34143D01*
X310897Y33792D01*
X310955Y33411D01*
Y33030D01*
X310926Y32942D01*
X308642D01*
Y32972D01*
Y33001D01*
Y33089D01*
X308612Y33206D01*
X308583Y33470D01*
X308524Y33821D01*
X308378Y34231D01*
X308202Y34641D01*
X307939Y35051D01*
X307587Y35432D01*
X307529Y35461D01*
X307412Y35578D01*
X307177Y35754D01*
X306855Y35930D01*
X306474Y36105D01*
X306006Y36281D01*
X305449Y36398D01*
X304864Y36427D01*
X304600D01*
X304278Y36398D01*
X303927Y36340D01*
X303487Y36222D01*
X303077Y36076D01*
X302667Y35871D01*
X302286Y35607D01*
X302257Y35578D01*
X302140Y35461D01*
X302023Y35285D01*
X301847Y35051D01*
X301701Y34729D01*
X301554Y34377D01*
X301437Y33967D01*
X301408Y33499D01*
Y33440D01*
X301437Y33294D01*
X301467Y33089D01*
X301525Y32825D01*
X301642Y32503D01*
X301818Y32181D01*
X302052Y31859D01*
X302374Y31537D01*
X302433Y31507D01*
X302579Y31419D01*
X302814Y31273D01*
X303136Y31097D01*
X303604Y30863D01*
X304132Y30658D01*
X304805Y30424D01*
X305567Y30189D01*
X305596D01*
X305684Y30160D01*
X305830Y30131D01*
X306006Y30072D01*
X306240Y29984D01*
X306504Y29897D01*
X307089Y29692D01*
X307763Y29399D01*
X308437Y29047D01*
X309081Y28637D01*
X309403Y28403D01*
X309667Y28139D01*
X309696Y28110D01*
X309725Y28081D01*
X309784Y27993D01*
X309901Y27905D01*
X310106Y27612D01*
X310369Y27232D01*
X310633Y26734D01*
X310867Y26177D01*
X311014Y25504D01*
X311043Y25182D01*
X311072Y24801D01*
Y24771D01*
Y24713D01*
Y24596D01*
X311043Y24449D01*
X311014Y24274D01*
X310984Y24069D01*
X310867Y23571D01*
X310662Y23014D01*
X310516Y22751D01*
X310369Y22458D01*
X310165Y22165D01*
X309930Y21902D01*
X309667Y21638D01*
X309374Y21374D01*
X309345D01*
X309286Y21316D01*
X309198Y21257D01*
X309081Y21169D01*
X308905Y21081D01*
X308700Y20964D01*
X308466Y20847D01*
X308173Y20730D01*
X307880Y20613D01*
X307558Y20496D01*
X307177Y20379D01*
X306797Y20291D01*
X305918Y20144D01*
X305449Y20115D01*
X304951Y20086D01*
X304688D01*
X304512Y20115D01*
X304307D01*
X304044Y20174D01*
X303751Y20203D01*
X303429Y20261D01*
X302726Y20437D01*
X301964Y20671D01*
X301174Y21023D01*
X300793Y21257D01*
X300412Y21491D01*
X300383Y21521D01*
X300324Y21550D01*
X300236Y21638D01*
X300119Y21755D01*
X299973Y21902D01*
X299797Y22077D01*
X299621Y22282D01*
X299446Y22517D01*
X299094Y23073D01*
X298772Y23717D01*
X298655Y24098D01*
X298567Y24508D01*
X298509Y24918D01*
Y25357D01*
X298538Y25416D01*
X300822D01*
Y25387D01*
Y25357D01*
Y25269D01*
X300851Y25152D01*
X300881Y24830D01*
X300969Y24479D01*
X301144Y24039D01*
X301349Y23629D01*
X301672Y23219D01*
X301847Y23014D01*
X302082Y22839D01*
X302111D01*
X302140Y22809D01*
X302316Y22692D01*
X302579Y22546D01*
X302931Y22399D01*
X303341Y22224D01*
X303839Y22077D01*
X304366Y21960D01*
X304951Y21931D01*
X305244D01*
X305537Y21960D01*
X305947Y22019D01*
X306387Y22106D01*
X306826Y22253D01*
X307265Y22429D01*
X307675Y22692D01*
X307704Y22722D01*
X307822Y22839D01*
X307997Y23014D01*
X308173Y23249D01*
X308349Y23542D01*
X308524Y23893D01*
X308642Y24303D01*
X308671Y24771D01*
Y24830D01*
Y24976D01*
X308612Y25211D01*
X308554Y25474D01*
X308466Y25796D01*
X308290Y26148D01*
X308085Y26470D01*
X307792Y26792D01*
X307763Y26821D01*
X307617Y26939D01*
X307412Y27085D01*
X307089Y27290D01*
X306650Y27495D01*
X306152Y27729D01*
X305508Y27964D01*
X305127Y28081D01*
X304746Y28198D01*
X304717D01*
X304629Y28227D01*
X304483Y28257D01*
X304307Y28315D01*
X304073Y28403D01*
X303809Y28491D01*
X303517Y28579D01*
X303194Y28696D01*
X302521Y28959D01*
X301818Y29311D01*
X301115Y29721D01*
X300500Y30160D01*
X300471Y30189D01*
X300441Y30219D01*
X300266Y30394D01*
X300032Y30687D01*
X299768Y31068D01*
X299475Y31537D01*
X299241Y32093D01*
X299065Y32737D01*
X299036Y33089D01*
X299006Y33440D01*
Y33470D01*
Y33528D01*
Y33645D01*
X299036Y33792D01*
X299065Y33967D01*
X299094Y34172D01*
X299211Y34670D01*
X299387Y35227D01*
X299680Y35812D01*
X299885Y36105D01*
X300090Y36369D01*
X300324Y36662D01*
X300617Y36925D01*
X300646Y36955D01*
X300705Y36984D01*
X300793Y37042D01*
X300910Y37160D01*
X301086Y37247D01*
X301262Y37365D01*
X301496Y37511D01*
X301759Y37628D01*
X302052Y37775D01*
X302374Y37892D01*
X303106Y38126D01*
X303927Y38272D01*
X304395Y38302D01*
X304864Y38331D01*
X305127D01*
X305332Y38302D01*
D02*
G37*
G36*
X325276Y36164D02*
X316871D01*
Y30424D01*
X324163D01*
Y28549D01*
X316871D01*
Y22194D01*
X325423D01*
Y20320D01*
X314470D01*
Y38067D01*
X325276D01*
Y36164D01*
D02*
G37*
G36*
X455570Y38038D02*
X455834D01*
X456098Y38009D01*
X456420Y37950D01*
X456742Y37892D01*
X457445Y37745D01*
X458206Y37511D01*
X458909Y37189D01*
X459231Y36984D01*
X459524Y36750D01*
X459553D01*
X459583Y36691D01*
X459670Y36603D01*
X459758Y36515D01*
X459875Y36369D01*
X460022Y36222D01*
X460315Y35812D01*
X460578Y35256D01*
X460842Y34612D01*
X461018Y33879D01*
X461047Y33440D01*
X461076Y33001D01*
Y32972D01*
Y32942D01*
Y32767D01*
X461047Y32503D01*
X460988Y32181D01*
X460901Y31800D01*
X460783Y31419D01*
X460608Y31010D01*
X460373Y30600D01*
X460344Y30570D01*
X460256Y30424D01*
X460080Y30248D01*
X459846Y30043D01*
X459553Y29779D01*
X459202Y29516D01*
X458792Y29252D01*
X458294Y29018D01*
X458323D01*
X458353Y28989D01*
X458528Y28930D01*
X458792Y28813D01*
X459114Y28637D01*
X459465Y28432D01*
X459817Y28169D01*
X460139Y27847D01*
X460403Y27466D01*
X460432Y27407D01*
X460490Y27290D01*
X460608Y27056D01*
X460725Y26734D01*
X460842Y26353D01*
X460959Y25914D01*
X461018Y25387D01*
X461047Y24830D01*
Y23161D01*
Y23131D01*
Y23014D01*
Y22868D01*
X461076Y22663D01*
Y22429D01*
X461135Y22194D01*
X461223Y21667D01*
Y21638D01*
X461252Y21550D01*
X461311Y21433D01*
X461369Y21286D01*
X461545Y20964D01*
X461838Y20613D01*
Y20320D01*
X459378D01*
X459348Y20349D01*
X459290Y20408D01*
X459231Y20496D01*
X459114Y20613D01*
X459026Y20789D01*
X458909Y20994D01*
X458821Y21257D01*
X458763Y21521D01*
Y21550D01*
X458733Y21667D01*
Y21814D01*
X458704Y22048D01*
X458675Y22282D01*
Y22575D01*
X458646Y23190D01*
Y24801D01*
Y24830D01*
Y24859D01*
Y25035D01*
X458616Y25299D01*
X458528Y25621D01*
X458441Y26002D01*
X458294Y26382D01*
X458089Y26763D01*
X457796Y27114D01*
X457767Y27144D01*
X457650Y27261D01*
X457445Y27407D01*
X457211Y27554D01*
X456859Y27729D01*
X456478Y27847D01*
X456039Y27964D01*
X455541Y27993D01*
X451412D01*
Y20320D01*
X449010D01*
Y38067D01*
X455395D01*
X455570Y38038D01*
D02*
G37*
G36*
X471092D02*
X471385Y38009D01*
X471707Y37950D01*
X472088Y37892D01*
X472527Y37804D01*
X472937Y37687D01*
X473406Y37540D01*
X473874Y37365D01*
X474343Y37160D01*
X474812Y36925D01*
X475251Y36632D01*
X475690Y36310D01*
X476100Y35930D01*
X476129Y35900D01*
X476188Y35842D01*
X476305Y35724D01*
X476422Y35549D01*
X476598Y35344D01*
X476774Y35080D01*
X476949Y34787D01*
X477154Y34436D01*
X477359Y34055D01*
X477535Y33645D01*
X477711Y33177D01*
X477887Y32708D01*
X478004Y32181D01*
X478121Y31595D01*
X478179Y31010D01*
X478209Y30394D01*
Y27964D01*
Y27934D01*
Y27817D01*
Y27641D01*
X478179Y27407D01*
X478150Y27114D01*
X478092Y26763D01*
X478033Y26411D01*
X477945Y26002D01*
X477828Y25562D01*
X477682Y25123D01*
X477535Y24654D01*
X477330Y24186D01*
X477066Y23747D01*
X476803Y23278D01*
X476481Y22839D01*
X476100Y22429D01*
X476071Y22399D01*
X476012Y22341D01*
X475895Y22224D01*
X475719Y22106D01*
X475514Y21931D01*
X475251Y21755D01*
X474958Y21579D01*
X474607Y21374D01*
X474226Y21169D01*
X473816Y20994D01*
X473347Y20818D01*
X472849Y20642D01*
X472322Y20525D01*
X471736Y20408D01*
X471151Y20349D01*
X470506Y20320D01*
X464913D01*
Y38067D01*
X470829D01*
X471092Y38038D01*
D02*
G37*
G36*
X446433Y20320D02*
X443973D01*
X442421Y24889D01*
X435714D01*
X434133Y20320D01*
X431673D01*
X438087Y38067D01*
X440137D01*
X446433Y20320D01*
D02*
G37*
G36*
X341706D02*
X339304D01*
X330753Y33879D01*
X330665Y33850D01*
Y20320D01*
X328263D01*
Y38067D01*
X330665D01*
X339216Y24508D01*
X339304Y24537D01*
Y38067D01*
X341706D01*
Y20320D01*
D02*
G37*
G36*
X423033Y38302D02*
X423326Y38272D01*
X423619Y38214D01*
X423971Y38155D01*
X424381Y38067D01*
X424761Y37950D01*
X425201Y37804D01*
X425640Y37628D01*
X426079Y37423D01*
X426489Y37160D01*
X426929Y36867D01*
X427339Y36545D01*
X427719Y36164D01*
X427749Y36135D01*
X427807Y36076D01*
X427895Y35959D01*
X428041Y35783D01*
X428188Y35578D01*
X428364Y35315D01*
X428539Y35022D01*
X428744Y34699D01*
X428920Y34319D01*
X429096Y33909D01*
X429272Y33470D01*
X429418Y32972D01*
X429564Y32474D01*
X429652Y31917D01*
X429711Y31361D01*
X429740Y30746D01*
Y27612D01*
Y27583D01*
Y27466D01*
Y27290D01*
X429711Y27056D01*
X429682Y26792D01*
X429623Y26470D01*
X429564Y26089D01*
X429477Y25709D01*
X429389Y25299D01*
X429242Y24859D01*
X429096Y24391D01*
X428891Y23951D01*
X428656Y23483D01*
X428393Y23044D01*
X428071Y22604D01*
X427719Y22194D01*
X427690Y22165D01*
X427631Y22106D01*
X427514Y21989D01*
X427368Y21872D01*
X427163Y21697D01*
X426929Y21521D01*
X426636Y21345D01*
X426314Y21140D01*
X425962Y20935D01*
X425581Y20759D01*
X425142Y20584D01*
X424674Y20408D01*
X424176Y20291D01*
X423648Y20174D01*
X423092Y20115D01*
X422506Y20086D01*
X422360D01*
X422214Y20115D01*
X421979D01*
X421716Y20144D01*
X421423Y20203D01*
X421071Y20261D01*
X420691Y20349D01*
X420310Y20466D01*
X419900Y20613D01*
X419461Y20759D01*
X419051Y20964D01*
X418641Y21228D01*
X418201Y21491D01*
X417821Y21814D01*
X417440Y22194D01*
X417411Y22224D01*
X417352Y22282D01*
X417264Y22429D01*
X417147Y22575D01*
X417001Y22780D01*
X416825Y23044D01*
X416649Y23337D01*
X416473Y23688D01*
X416298Y24039D01*
X416122Y24449D01*
X415946Y24889D01*
X415800Y25387D01*
X415683Y25884D01*
X415595Y26441D01*
X415536Y26997D01*
X415507Y27612D01*
Y30746D01*
Y30775D01*
Y30892D01*
Y31068D01*
X415536Y31302D01*
X415565Y31566D01*
X415624Y31888D01*
X415683Y32239D01*
X415741Y32650D01*
X415975Y33499D01*
X416122Y33938D01*
X416327Y34407D01*
X416532Y34846D01*
X416796Y35315D01*
X417088Y35754D01*
X417440Y36164D01*
X417469Y36193D01*
X417528Y36252D01*
X417645Y36369D01*
X417791Y36515D01*
X417996Y36662D01*
X418231Y36837D01*
X418494Y37042D01*
X418787Y37247D01*
X419138Y37452D01*
X419519Y37657D01*
X419929Y37833D01*
X420398Y37980D01*
X420866Y38126D01*
X421394Y38243D01*
X421921Y38302D01*
X422506Y38331D01*
X422828D01*
X423033Y38302D01*
D02*
G37*
G36*
X224377Y30269D02*
Y30220D01*
Y30025D01*
Y29781D01*
X224328Y29439D01*
X224280Y29000D01*
X224182Y28512D01*
X224084Y27975D01*
X223938Y27389D01*
X223792Y26754D01*
X223547Y26120D01*
X223255Y25436D01*
X222962Y24753D01*
X222522Y24118D01*
X222083Y23483D01*
X221546Y22898D01*
X220960Y22312D01*
X220911Y22263D01*
X220814Y22214D01*
X220618Y22068D01*
X220374Y21872D01*
X220033Y21677D01*
X219593Y21433D01*
X219154Y21140D01*
X218617Y20896D01*
X217982Y20652D01*
X217347Y20359D01*
X216615Y20115D01*
X215834Y19920D01*
X215004Y19724D01*
X214125Y19627D01*
X213149Y19529D01*
X212173Y19480D01*
X211636D01*
X211245Y19529D01*
X210806Y19578D01*
X210269Y19627D01*
X209683Y19724D01*
X208999Y19822D01*
X207584Y20164D01*
X206851Y20408D01*
X206119Y20701D01*
X205387Y20994D01*
X204655Y21384D01*
X203971Y21824D01*
X203288Y22312D01*
X203239Y22361D01*
X203141Y22458D01*
X202995Y22605D01*
X202751Y22849D01*
X202507Y23142D01*
X202214Y23483D01*
X201921Y23923D01*
X201628Y24411D01*
X201286Y24948D01*
X200993Y25534D01*
X200700Y26168D01*
X200456Y26901D01*
X200212Y27633D01*
X200066Y28463D01*
X199968Y29342D01*
X199919Y30269D01*
Y49455D01*
X206803D01*
Y30269D01*
Y30220D01*
Y30172D01*
Y30025D01*
Y29830D01*
X206900Y29342D01*
X206998Y28707D01*
X207144Y28072D01*
X207388Y27389D01*
X207730Y26706D01*
X208218Y26120D01*
X208267Y26071D01*
X208511Y25924D01*
X208804Y25680D01*
X209244Y25436D01*
X209829Y25143D01*
X210513Y24948D01*
X211294Y24753D01*
X212173Y24704D01*
X212563D01*
X213051Y24801D01*
X213588Y24899D01*
X214223Y25046D01*
X214858Y25290D01*
X215492Y25631D01*
X216078Y26071D01*
X216127Y26120D01*
X216322Y26315D01*
X216518Y26657D01*
X216810Y27145D01*
X217055Y27731D01*
X217299Y28463D01*
X217445Y29293D01*
X217494Y30269D01*
Y49455D01*
X224377D01*
Y30269D01*
D02*
G37*
G36*
X368005Y38302D02*
X368298Y38272D01*
X368590Y38214D01*
X368942Y38155D01*
X369352Y38067D01*
X369733Y37950D01*
X370172Y37804D01*
X370611Y37628D01*
X371050Y37423D01*
X371460Y37160D01*
X371900Y36867D01*
X372310Y36545D01*
X372691Y36164D01*
X372720Y36135D01*
X372778Y36076D01*
X372866Y35959D01*
X373013Y35783D01*
X373159Y35578D01*
X373335Y35315D01*
X373511Y35022D01*
X373716Y34699D01*
X373891Y34319D01*
X374067Y33909D01*
X374243Y33470D01*
X374389Y32972D01*
X374535Y32474D01*
X374623Y31917D01*
X374682Y31361D01*
X374711Y30746D01*
Y27612D01*
Y27583D01*
Y27466D01*
Y27290D01*
X374682Y27056D01*
X374653Y26792D01*
X374594Y26470D01*
X374535Y26089D01*
X374448Y25709D01*
X374360Y25299D01*
X374213Y24859D01*
X374067Y24391D01*
X373862Y23951D01*
X373628Y23483D01*
X373364Y23044D01*
X373042Y22604D01*
X372691Y22194D01*
X372661Y22165D01*
X372603Y22106D01*
X372486Y21989D01*
X372339Y21872D01*
X372134Y21697D01*
X371900Y21521D01*
X371607Y21345D01*
X371285Y21140D01*
X370933Y20935D01*
X370553Y20759D01*
X370113Y20584D01*
X369645Y20408D01*
X369147Y20291D01*
X368620Y20174D01*
X368063Y20115D01*
X367478Y20086D01*
X367331D01*
X367185Y20115D01*
X366950D01*
X366687Y20144D01*
X366394Y20203D01*
X366043Y20261D01*
X365662Y20349D01*
X365281Y20466D01*
X364871Y20613D01*
X364432Y20759D01*
X364022Y20964D01*
X363612Y21228D01*
X363172Y21491D01*
X362792Y21814D01*
X362411Y22194D01*
X362382Y22224D01*
X362323Y22282D01*
X362235Y22429D01*
X362118Y22575D01*
X361972Y22780D01*
X361796Y23044D01*
X361620Y23337D01*
X361445Y23688D01*
X361269Y24039D01*
X361093Y24449D01*
X360918Y24889D01*
X360771Y25387D01*
X360654Y25884D01*
X360566Y26441D01*
X360508Y26997D01*
X360478Y27612D01*
Y30746D01*
Y30775D01*
Y30892D01*
Y31068D01*
X360508Y31302D01*
X360537Y31566D01*
X360595Y31888D01*
X360654Y32239D01*
X360713Y32650D01*
X360947Y33499D01*
X361093Y33938D01*
X361298Y34407D01*
X361503Y34846D01*
X361767Y35315D01*
X362060Y35754D01*
X362411Y36164D01*
X362440Y36193D01*
X362499Y36252D01*
X362616Y36369D01*
X362762Y36515D01*
X362967Y36662D01*
X363202Y36837D01*
X363465Y37042D01*
X363758Y37247D01*
X364110Y37452D01*
X364490Y37657D01*
X364900Y37833D01*
X365369Y37980D01*
X365838Y38126D01*
X366365Y38243D01*
X366892Y38302D01*
X367478Y38331D01*
X367800D01*
X368005Y38302D01*
D02*
G37*
G36*
X253864Y19871D02*
X246443D01*
X236924Y49455D01*
X244100D01*
X249861Y27877D01*
X250056Y26803D01*
X250203D01*
X250398Y27780D01*
X256256Y49455D01*
X263481D01*
X253864Y19871D01*
D02*
G37*
G36*
X160864Y49406D02*
X161304D01*
X161840Y49357D01*
X162426Y49309D01*
X163061Y49211D01*
X164477Y48967D01*
X165892Y48576D01*
X167259Y48088D01*
X167943Y47746D01*
X168529Y47405D01*
X168577D01*
X168675Y47307D01*
X168822Y47209D01*
X169017Y47014D01*
X169505Y46526D01*
X170091Y45891D01*
X170677Y45012D01*
X171165Y43987D01*
X171360Y43353D01*
X171507Y42718D01*
X171604Y42035D01*
X171653Y41302D01*
Y41205D01*
Y40960D01*
X171604Y40570D01*
X171555Y40033D01*
X171409Y39447D01*
X171262Y38812D01*
X171018Y38178D01*
X170677Y37543D01*
X170628Y37494D01*
X170481Y37299D01*
X170237Y37006D01*
X169944Y36616D01*
X169505Y36225D01*
X168968Y35835D01*
X168333Y35444D01*
X167601Y35102D01*
X167650D01*
X167699Y35054D01*
X167845D01*
X168041Y35005D01*
X168480Y34809D01*
X169066Y34565D01*
X169700Y34272D01*
X170384Y33833D01*
X170970Y33345D01*
X171507Y32710D01*
X171555Y32613D01*
X171702Y32417D01*
X171897Y32027D01*
X172141Y31539D01*
X172385Y30953D01*
X172581Y30220D01*
X172727Y29439D01*
X172776Y28609D01*
Y28561D01*
Y28414D01*
Y28219D01*
X172727Y27877D01*
X172678Y27535D01*
X172629Y27096D01*
X172434Y26168D01*
X172044Y25094D01*
X171848Y24557D01*
X171555Y24020D01*
X171214Y23483D01*
X170823Y22995D01*
X170384Y22507D01*
X169847Y22068D01*
X169798D01*
X169700Y21970D01*
X169554Y21872D01*
X169310Y21726D01*
X169017Y21579D01*
X168675Y21384D01*
X168236Y21189D01*
X167747Y20994D01*
X167162Y20750D01*
X166576Y20554D01*
X165892Y20359D01*
X165111Y20213D01*
X164330Y20066D01*
X163451Y19969D01*
X162524Y19920D01*
X161548Y19871D01*
X150270D01*
Y49455D01*
X160473D01*
X160864Y49406D01*
D02*
G37*
G36*
X352015Y38302D02*
X352249Y38272D01*
X352512Y38243D01*
X352835Y38185D01*
X353157Y38126D01*
X353889Y37950D01*
X354621Y37657D01*
X355002Y37482D01*
X355353Y37247D01*
X355704Y37013D01*
X356027Y36720D01*
X356056Y36691D01*
X356085Y36662D01*
X356173Y36574D01*
X356290Y36427D01*
X356407Y36281D01*
X356554Y36105D01*
X356847Y35666D01*
X357169Y35139D01*
X357403Y34495D01*
X357520Y34143D01*
X357579Y33792D01*
X357637Y33411D01*
Y33030D01*
X357608Y32942D01*
X355324D01*
Y32972D01*
Y33001D01*
Y33089D01*
X355294Y33206D01*
X355265Y33470D01*
X355207Y33821D01*
X355060Y34231D01*
X354884Y34641D01*
X354621Y35051D01*
X354269Y35432D01*
X354211Y35461D01*
X354094Y35578D01*
X353859Y35754D01*
X353537Y35930D01*
X353157Y36105D01*
X352688Y36281D01*
X352132Y36398D01*
X351546Y36427D01*
X351282D01*
X350960Y36398D01*
X350609Y36340D01*
X350169Y36222D01*
X349759Y36076D01*
X349349Y35871D01*
X348969Y35607D01*
X348939Y35578D01*
X348822Y35461D01*
X348705Y35285D01*
X348529Y35051D01*
X348383Y34729D01*
X348237Y34377D01*
X348119Y33967D01*
X348090Y33499D01*
Y33440D01*
X348119Y33294D01*
X348149Y33089D01*
X348207Y32825D01*
X348324Y32503D01*
X348500Y32181D01*
X348734Y31859D01*
X349057Y31537D01*
X349115Y31507D01*
X349262Y31419D01*
X349496Y31273D01*
X349818Y31097D01*
X350287Y30863D01*
X350814Y30658D01*
X351487Y30424D01*
X352249Y30189D01*
X352278D01*
X352366Y30160D01*
X352512Y30131D01*
X352688Y30072D01*
X352922Y29984D01*
X353186Y29897D01*
X353772Y29692D01*
X354445Y29399D01*
X355119Y29047D01*
X355763Y28637D01*
X356085Y28403D01*
X356349Y28139D01*
X356378Y28110D01*
X356407Y28081D01*
X356466Y27993D01*
X356583Y27905D01*
X356788Y27612D01*
X357052Y27232D01*
X357315Y26734D01*
X357550Y26177D01*
X357696Y25504D01*
X357725Y25182D01*
X357755Y24801D01*
Y24771D01*
Y24713D01*
Y24596D01*
X357725Y24449D01*
X357696Y24274D01*
X357667Y24069D01*
X357550Y23571D01*
X357345Y23014D01*
X357198Y22751D01*
X357052Y22458D01*
X356847Y22165D01*
X356612Y21902D01*
X356349Y21638D01*
X356056Y21374D01*
X356027D01*
X355968Y21316D01*
X355880Y21257D01*
X355763Y21169D01*
X355587Y21081D01*
X355382Y20964D01*
X355148Y20847D01*
X354855Y20730D01*
X354562Y20613D01*
X354240Y20496D01*
X353859Y20379D01*
X353479Y20291D01*
X352600Y20144D01*
X352132Y20115D01*
X351634Y20086D01*
X351370D01*
X351194Y20115D01*
X350989D01*
X350726Y20174D01*
X350433Y20203D01*
X350111Y20261D01*
X349408Y20437D01*
X348647Y20671D01*
X347856Y21023D01*
X347475Y21257D01*
X347094Y21491D01*
X347065Y21521D01*
X347006Y21550D01*
X346919Y21638D01*
X346801Y21755D01*
X346655Y21902D01*
X346479Y22077D01*
X346304Y22282D01*
X346128Y22517D01*
X345776Y23073D01*
X345454Y23717D01*
X345337Y24098D01*
X345249Y24508D01*
X345191Y24918D01*
Y25357D01*
X345220Y25416D01*
X347504D01*
Y25387D01*
Y25357D01*
Y25269D01*
X347534Y25152D01*
X347563Y24830D01*
X347651Y24479D01*
X347826Y24039D01*
X348032Y23629D01*
X348354Y23219D01*
X348529Y23014D01*
X348764Y22839D01*
X348793D01*
X348822Y22809D01*
X348998Y22692D01*
X349262Y22546D01*
X349613Y22399D01*
X350023Y22224D01*
X350521Y22077D01*
X351048Y21960D01*
X351634Y21931D01*
X351927D01*
X352220Y21960D01*
X352630Y22019D01*
X353069Y22106D01*
X353508Y22253D01*
X353947Y22429D01*
X354357Y22692D01*
X354387Y22722D01*
X354504Y22839D01*
X354679Y23014D01*
X354855Y23249D01*
X355031Y23542D01*
X355207Y23893D01*
X355324Y24303D01*
X355353Y24771D01*
Y24830D01*
Y24976D01*
X355294Y25211D01*
X355236Y25474D01*
X355148Y25796D01*
X354972Y26148D01*
X354767Y26470D01*
X354474Y26792D01*
X354445Y26821D01*
X354299Y26939D01*
X354094Y27085D01*
X353772Y27290D01*
X353332Y27495D01*
X352835Y27729D01*
X352190Y27964D01*
X351810Y28081D01*
X351429Y28198D01*
X351399D01*
X351312Y28227D01*
X351165Y28257D01*
X350989Y28315D01*
X350755Y28403D01*
X350492Y28491D01*
X350199Y28579D01*
X349877Y28696D01*
X349203Y28959D01*
X348500Y29311D01*
X347797Y29721D01*
X347182Y30160D01*
X347153Y30189D01*
X347124Y30219D01*
X346948Y30394D01*
X346714Y30687D01*
X346450Y31068D01*
X346157Y31537D01*
X345923Y32093D01*
X345747Y32737D01*
X345718Y33089D01*
X345689Y33440D01*
Y33470D01*
Y33528D01*
Y33645D01*
X345718Y33792D01*
X345747Y33967D01*
X345776Y34172D01*
X345894Y34670D01*
X346069Y35227D01*
X346362Y35812D01*
X346567Y36105D01*
X346772Y36369D01*
X347006Y36662D01*
X347299Y36925D01*
X347329Y36955D01*
X347387Y36984D01*
X347475Y37042D01*
X347592Y37160D01*
X347768Y37247D01*
X347944Y37365D01*
X348178Y37511D01*
X348442Y37628D01*
X348734Y37775D01*
X349057Y37892D01*
X349789Y38126D01*
X350609Y38272D01*
X351077Y38302D01*
X351546Y38331D01*
X351810D01*
X352015Y38302D01*
D02*
G37*
G36*
X275735Y49846D02*
X276125D01*
X276614Y49748D01*
X277102Y49699D01*
X277687Y49601D01*
X278908Y49309D01*
X280128Y48869D01*
X280763Y48625D01*
X281349Y48283D01*
X281886Y47942D01*
X282423Y47502D01*
X282472Y47453D01*
X282521Y47405D01*
X282667Y47258D01*
X282813Y47063D01*
X283057Y46819D01*
X283253Y46526D01*
X283497Y46184D01*
X283741Y45794D01*
X283985Y45354D01*
X284229Y44866D01*
X284669Y43694D01*
X284961Y42425D01*
X285010Y41693D01*
X285059Y40912D01*
Y40863D01*
Y40765D01*
Y40619D01*
Y40423D01*
X284961Y39935D01*
X284864Y39252D01*
X284717Y38471D01*
X284424Y37641D01*
X284083Y36762D01*
X283595Y35932D01*
X283546Y35835D01*
X283448Y35688D01*
X283302Y35542D01*
X283155Y35298D01*
X282911Y35054D01*
X282667Y34712D01*
X282374Y34321D01*
X282032Y33882D01*
X281642Y33442D01*
X281202Y32905D01*
X280714Y32320D01*
X280177Y31685D01*
X279591Y31050D01*
X278908Y30318D01*
X278225Y29537D01*
X274612Y25241D01*
X274661Y25143D01*
X286084D01*
Y19871D01*
X265532D01*
Y24313D01*
X274612Y34321D01*
Y34370D01*
X274709Y34419D01*
X274905Y34663D01*
X275247Y35054D01*
X275637Y35591D01*
X276077Y36128D01*
X276516Y36762D01*
X276955Y37397D01*
X277297Y38031D01*
X277346Y38080D01*
X277443Y38324D01*
X277590Y38617D01*
X277736Y39008D01*
X277883Y39447D01*
X278029Y39887D01*
X278127Y40375D01*
X278176Y40863D01*
Y40960D01*
Y41156D01*
X278127Y41449D01*
X278078Y41839D01*
X277980Y42279D01*
X277834Y42718D01*
X277639Y43157D01*
X277395Y43548D01*
X277346Y43597D01*
X277248Y43694D01*
X277053Y43890D01*
X276809Y44085D01*
X276467Y44231D01*
X276028Y44427D01*
X275491Y44524D01*
X274905Y44573D01*
X274661D01*
X274368Y44524D01*
X273977Y44427D01*
X273587Y44231D01*
X273196Y44036D01*
X272757Y43694D01*
X272415Y43255D01*
X272366Y43206D01*
X272269Y43011D01*
X272122Y42767D01*
X271976Y42376D01*
X271829Y41888D01*
X271683Y41302D01*
X271585Y40668D01*
X271536Y39935D01*
X264799D01*
X264750Y40082D01*
Y40131D01*
Y40277D01*
Y40472D01*
X264799Y40765D01*
Y41107D01*
X264848Y41546D01*
X264946Y41986D01*
X265043Y42474D01*
X265385Y43597D01*
X265580Y44134D01*
X265825Y44720D01*
X266166Y45305D01*
X266508Y45891D01*
X266947Y46477D01*
X267435Y47014D01*
X267484Y47063D01*
X267582Y47161D01*
X267728Y47258D01*
X267973Y47453D01*
X268217Y47698D01*
X268558Y47942D01*
X268998Y48186D01*
X269437Y48479D01*
X269925Y48723D01*
X270511Y48967D01*
X271097Y49211D01*
X271780Y49455D01*
X272513Y49650D01*
X273245Y49748D01*
X274075Y49846D01*
X274905Y49894D01*
X275393D01*
X275735Y49846D01*
D02*
G37*
G36*
X183711Y25143D02*
X196404D01*
Y19871D01*
X176828D01*
Y49455D01*
X183711D01*
Y25143D01*
D02*
G37*
%LPC*%
G36*
X367478Y36340D02*
X367273D01*
X367126Y36310D01*
X366950Y36281D01*
X366745Y36252D01*
X366277Y36135D01*
X365720Y35959D01*
X365164Y35695D01*
X364900Y35519D01*
X364608Y35315D01*
X364344Y35051D01*
X364110Y34787D01*
Y34758D01*
X364051Y34729D01*
X363993Y34641D01*
X363905Y34495D01*
X363817Y34348D01*
X363729Y34172D01*
X363612Y33938D01*
X363495Y33704D01*
X363260Y33118D01*
X363085Y32445D01*
X362938Y31654D01*
X362880Y30775D01*
Y27612D01*
Y27583D01*
Y27495D01*
Y27378D01*
X362909Y27202D01*
Y26997D01*
X362938Y26734D01*
X363026Y26177D01*
X363172Y25533D01*
X363407Y24859D01*
X363700Y24186D01*
X364110Y23571D01*
X364139Y23542D01*
X364168Y23512D01*
X364344Y23337D01*
X364608Y23073D01*
X365018Y22809D01*
X365486Y22517D01*
X366072Y22253D01*
X366716Y22077D01*
X367097Y22048D01*
X367478Y22019D01*
X367683D01*
X367858Y22048D01*
X368034Y22077D01*
X368239Y22106D01*
X368766Y22224D01*
X369323Y22399D01*
X369908Y22663D01*
X370201Y22839D01*
X370465Y23073D01*
X370728Y23307D01*
X370992Y23571D01*
X371021Y23600D01*
X371050Y23629D01*
X371109Y23717D01*
X371197Y23864D01*
X371285Y24010D01*
X371402Y24186D01*
X371519Y24420D01*
X371665Y24654D01*
X371900Y25240D01*
X372105Y25943D01*
X372251Y26734D01*
X372310Y27144D01*
Y27612D01*
Y30775D01*
Y30805D01*
Y30892D01*
Y31010D01*
X372281Y31185D01*
Y31390D01*
X372251Y31625D01*
X372134Y32210D01*
X371988Y32825D01*
X371753Y33499D01*
X371431Y34172D01*
X371226Y34495D01*
X370992Y34787D01*
Y34817D01*
X370933Y34846D01*
X370845Y34934D01*
X370758Y35022D01*
X370465Y35285D01*
X370055Y35578D01*
X369557Y35842D01*
X368942Y36105D01*
X368268Y36281D01*
X367888Y36310D01*
X367478Y36340D01*
D02*
G37*
G36*
X406106Y36164D02*
X402709D01*
Y30512D01*
X406838D01*
X407072Y30541D01*
X407395Y30600D01*
X407746Y30687D01*
X408097Y30834D01*
X408449Y31010D01*
X408800Y31244D01*
X408830Y31273D01*
X408947Y31390D01*
X409064Y31566D01*
X409240Y31800D01*
X409386Y32093D01*
X409533Y32445D01*
X409620Y32854D01*
X409650Y33323D01*
Y33352D01*
Y33382D01*
Y33557D01*
X409591Y33821D01*
X409533Y34143D01*
X409415Y34465D01*
X409269Y34846D01*
X409035Y35168D01*
X408713Y35461D01*
X408683Y35490D01*
X408537Y35578D01*
X408332Y35695D01*
X408039Y35812D01*
X407687Y35930D01*
X407219Y36047D01*
X406721Y36135D01*
X406106Y36164D01*
D02*
G37*
G36*
X455102D02*
X451412D01*
Y29897D01*
X455160D01*
X455541Y29926D01*
X455980Y29984D01*
X456449Y30072D01*
X456947Y30219D01*
X457386Y30394D01*
X457767Y30658D01*
X457796Y30687D01*
X457913Y30805D01*
X458060Y30980D01*
X458236Y31244D01*
X458382Y31595D01*
X458528Y32005D01*
X458646Y32474D01*
X458675Y33030D01*
Y33059D01*
Y33089D01*
Y33265D01*
X458616Y33557D01*
X458558Y33879D01*
X458470Y34260D01*
X458294Y34641D01*
X458089Y35022D01*
X457796Y35344D01*
X457767Y35373D01*
X457650Y35461D01*
X457445Y35607D01*
X457152Y35754D01*
X456771Y35900D01*
X456303Y36047D01*
X455746Y36135D01*
X455102Y36164D01*
D02*
G37*
G36*
X159937Y44183D02*
X157154D01*
Y37104D01*
X160229D01*
X160669Y37153D01*
X161255Y37201D01*
X161840Y37299D01*
X162475Y37494D01*
X163061Y37690D01*
X163549Y37983D01*
X163598Y38031D01*
X163744Y38129D01*
X163940Y38373D01*
X164184Y38617D01*
X164379Y39008D01*
X164574Y39447D01*
X164721Y39984D01*
X164770Y40570D01*
Y40668D01*
Y40863D01*
X164721Y41205D01*
X164623Y41595D01*
X164477Y42035D01*
X164233Y42523D01*
X163940Y42913D01*
X163549Y43304D01*
X163500Y43353D01*
X163354Y43450D01*
X163061Y43597D01*
X162670Y43743D01*
X162133Y43890D01*
X161548Y44036D01*
X160815Y44134D01*
X159937Y44183D01*
D02*
G37*
G36*
X161792Y32564D02*
X157154D01*
Y25143D01*
X161889D01*
X162280Y25192D01*
X162768Y25241D01*
X163305Y25338D01*
X163842Y25485D01*
X164379Y25680D01*
X164818Y25973D01*
X164867Y26022D01*
X165014Y26120D01*
X165160Y26364D01*
X165404Y26657D01*
X165599Y26998D01*
X165746Y27487D01*
X165892Y28024D01*
X165941Y28658D01*
Y28756D01*
Y28951D01*
X165892Y29293D01*
X165844Y29732D01*
X165697Y30220D01*
X165551Y30660D01*
X165307Y31148D01*
X164965Y31539D01*
X164916Y31587D01*
X164770Y31685D01*
X164526Y31831D01*
X164184Y32027D01*
X163744Y32222D01*
X163207Y32368D01*
X162573Y32515D01*
X161792Y32564D01*
D02*
G37*
G36*
X384288Y36164D02*
X380598D01*
Y29897D01*
X384346D01*
X384727Y29926D01*
X385166Y29984D01*
X385635Y30072D01*
X386133Y30219D01*
X386572Y30394D01*
X386953Y30658D01*
X386982Y30687D01*
X387099Y30805D01*
X387246Y30980D01*
X387421Y31244D01*
X387568Y31595D01*
X387714Y32005D01*
X387831Y32474D01*
X387861Y33030D01*
Y33059D01*
Y33089D01*
Y33265D01*
X387802Y33557D01*
X387744Y33879D01*
X387656Y34260D01*
X387480Y34641D01*
X387275Y35022D01*
X386982Y35344D01*
X386953Y35373D01*
X386836Y35461D01*
X386631Y35607D01*
X386338Y35754D01*
X385957Y35900D01*
X385489Y36047D01*
X384932Y36135D01*
X384288Y36164D01*
D02*
G37*
G36*
X407395Y28637D02*
X402709D01*
Y22194D01*
X407629D01*
X407922Y22224D01*
X408302Y22282D01*
X408713Y22399D01*
X409123Y22517D01*
X409533Y22722D01*
X409913Y22985D01*
X409943Y23014D01*
X410060Y23131D01*
X410206Y23337D01*
X410382Y23571D01*
X410528Y23922D01*
X410675Y24303D01*
X410792Y24771D01*
X410821Y25299D01*
Y25328D01*
Y25357D01*
Y25533D01*
X410763Y25796D01*
X410704Y26148D01*
X410587Y26529D01*
X410440Y26909D01*
X410206Y27319D01*
X409884Y27671D01*
X409855Y27700D01*
X409708Y27817D01*
X409503Y27964D01*
X409240Y28139D01*
X408888Y28315D01*
X408449Y28462D01*
X407951Y28579D01*
X407395Y28637D01*
D02*
G37*
G36*
X422506Y36340D02*
X422301D01*
X422155Y36310D01*
X421979Y36281D01*
X421774Y36252D01*
X421306Y36135D01*
X420749Y35959D01*
X420193Y35695D01*
X419929Y35519D01*
X419636Y35315D01*
X419373Y35051D01*
X419138Y34787D01*
Y34758D01*
X419080Y34729D01*
X419021Y34641D01*
X418933Y34495D01*
X418846Y34348D01*
X418758Y34172D01*
X418641Y33938D01*
X418523Y33704D01*
X418289Y33118D01*
X418113Y32445D01*
X417967Y31654D01*
X417908Y30775D01*
Y27612D01*
Y27583D01*
Y27495D01*
Y27378D01*
X417938Y27202D01*
Y26997D01*
X417967Y26734D01*
X418055Y26177D01*
X418201Y25533D01*
X418436Y24859D01*
X418728Y24186D01*
X419138Y23571D01*
X419168Y23542D01*
X419197Y23512D01*
X419373Y23337D01*
X419636Y23073D01*
X420046Y22809D01*
X420515Y22517D01*
X421101Y22253D01*
X421745Y22077D01*
X422126Y22048D01*
X422506Y22019D01*
X422711D01*
X422887Y22048D01*
X423063Y22077D01*
X423268Y22106D01*
X423795Y22224D01*
X424351Y22399D01*
X424937Y22663D01*
X425230Y22839D01*
X425494Y23073D01*
X425757Y23307D01*
X426021Y23571D01*
X426050Y23600D01*
X426079Y23629D01*
X426138Y23717D01*
X426226Y23864D01*
X426314Y24010D01*
X426431Y24186D01*
X426548Y24420D01*
X426694Y24654D01*
X426929Y25240D01*
X427134Y25943D01*
X427280Y26734D01*
X427339Y27144D01*
Y27612D01*
Y30775D01*
Y30805D01*
Y30892D01*
Y31010D01*
X427309Y31185D01*
Y31390D01*
X427280Y31625D01*
X427163Y32210D01*
X427016Y32825D01*
X426782Y33499D01*
X426460Y34172D01*
X426255Y34495D01*
X426021Y34787D01*
Y34817D01*
X425962Y34846D01*
X425874Y34934D01*
X425786Y35022D01*
X425494Y35285D01*
X425084Y35578D01*
X424586Y35842D01*
X423971Y36105D01*
X423297Y36281D01*
X422916Y36310D01*
X422506Y36340D01*
D02*
G37*
G36*
X439141Y34524D02*
X439053D01*
X436417Y26880D01*
X441718D01*
X439141Y34524D01*
D02*
G37*
G36*
X470506Y36164D02*
X467314D01*
Y22194D01*
X470741D01*
X470916Y22224D01*
X471121Y22253D01*
X471356Y22282D01*
X471912Y22399D01*
X472527Y22575D01*
X473172Y22868D01*
X473494Y23073D01*
X473816Y23278D01*
X474109Y23512D01*
X474372Y23805D01*
X474402Y23834D01*
X474431Y23893D01*
X474519Y23981D01*
X474607Y24098D01*
X474694Y24244D01*
X474841Y24449D01*
X474958Y24684D01*
X475104Y24918D01*
X475221Y25211D01*
X475368Y25533D01*
X475573Y26236D01*
X475749Y27056D01*
X475778Y27495D01*
X475807Y27964D01*
Y30424D01*
Y30453D01*
Y30541D01*
Y30658D01*
X475778Y30834D01*
Y31068D01*
X475719Y31302D01*
X475631Y31888D01*
X475456Y32532D01*
X475192Y33235D01*
X475046Y33587D01*
X474841Y33909D01*
X474636Y34231D01*
X474372Y34553D01*
X474343Y34582D01*
X474314Y34612D01*
X474226Y34699D01*
X474109Y34817D01*
X473962Y34934D01*
X473787Y35051D01*
X473582Y35197D01*
X473377Y35373D01*
X472820Y35666D01*
X472146Y35900D01*
X471385Y36105D01*
X470946Y36135D01*
X470506Y36164D01*
D02*
G37*
%LPD*%
D27*
X279400Y574610D02*
G03*
X266700Y574610I-6350J0D01*
G01*
X279400Y142810D02*
G03*
X266700Y142810I-6350J0D01*
G01*
X191200Y556260D02*
G03*
X191200Y543560I0J-6350D01*
G01*
X62347Y525820D02*
G03*
X18932Y525820I-21707J15200D01*
G01*
X191200Y124460D02*
G03*
X191200Y111760I0J-6350D01*
G01*
X62347Y94020D02*
G03*
X18932Y94020I-21707J15200D01*
G01*
X279400Y358710D02*
G03*
X266700Y358710I-6350J0D01*
G01*
X191200Y340360D02*
G03*
X191200Y327660I0J-6350D01*
G01*
X62347Y309920D02*
G03*
X18932Y309920I-21707J15200D01*
G01*
X347863Y118070D02*
G03*
X391278Y118070I21707J-15200D01*
G01*
X349132Y332700D02*
G03*
X392547Y332700I21707J-15200D01*
G01*
X349132Y547330D02*
G03*
X392547Y547330I21707J-15200D01*
G01*
X391278Y128310D02*
G03*
X347863Y128310I-21707J15200D01*
G01*
X392547Y344210D02*
G03*
X349132Y344210I-21707J15200D01*
G01*
X392547Y560110D02*
G03*
X349132Y560110I-21707J15200D01*
G01*
X299550Y574610D02*
Y677610D01*
X246550Y574610D02*
Y677610D01*
X279400Y574610D02*
X299550D01*
X246550D02*
X266700D01*
X246550Y677610D02*
X299550D01*
Y142810D02*
Y245810D01*
X246550Y142810D02*
Y245810D01*
X279400Y142810D02*
X299550D01*
X246550D02*
X266700D01*
X246550Y245810D02*
X299550D01*
X40640Y582930D02*
Y659130D01*
X15240D02*
X40640D01*
X15240Y582930D02*
Y659130D01*
Y582930D02*
X40640D01*
X88200Y576410D02*
X191200D01*
X88200Y523410D02*
X191200D01*
Y556260D02*
Y576410D01*
Y523410D02*
Y543560D01*
X88200Y523410D02*
Y576410D01*
X18933Y525820D02*
X62347D01*
X41910Y151130D02*
Y227330D01*
X16510D02*
X41910D01*
X16510Y151130D02*
Y227330D01*
Y151130D02*
X41910D01*
X88200Y144610D02*
X191200D01*
X88200Y91610D02*
X191200D01*
Y124460D02*
Y144610D01*
Y91610D02*
Y111760D01*
X88200Y91610D02*
Y144610D01*
X78730Y681700D02*
X87730D01*
X78730Y666700D02*
Y681700D01*
Y666700D02*
X83730D01*
Y647700D02*
Y666700D01*
Y628700D02*
Y647700D01*
X78730Y628700D02*
X83730D01*
X78730Y613700D02*
Y628700D01*
Y613700D02*
X87730D01*
X18933Y94020D02*
X62347D01*
X78730Y247360D02*
X87730D01*
X78730Y232360D02*
Y247360D01*
Y232360D02*
X83730D01*
Y213360D02*
Y232360D01*
Y194360D02*
Y213360D01*
X78730Y194360D02*
X83730D01*
X78730Y179360D02*
Y194360D01*
Y179360D02*
X87730D01*
X299550Y358710D02*
Y461710D01*
X246550Y358710D02*
Y461710D01*
X279400Y358710D02*
X299550D01*
X246550D02*
X266700D01*
X246550Y461710D02*
X299550D01*
X41910Y367030D02*
Y443230D01*
X16510D02*
X41910D01*
X16510Y367030D02*
Y443230D01*
Y367030D02*
X41910D01*
X88200Y360510D02*
X191200D01*
X88200Y307510D02*
X191200D01*
Y340360D02*
Y360510D01*
Y307510D02*
Y327660D01*
X88200Y307510D02*
Y360510D01*
X18933Y309920D02*
X62347D01*
X78730Y464530D02*
X87730D01*
X78730Y449530D02*
Y464530D01*
Y449530D02*
X83730D01*
Y430530D02*
Y449530D01*
Y411530D02*
Y430530D01*
X78730Y411530D02*
X83730D01*
X78730Y396530D02*
Y411530D01*
Y396530D02*
X87730D01*
X347863Y118070D02*
X391277D01*
X349133Y332700D02*
X392547D01*
X349133Y547330D02*
X392547D01*
X455930Y255270D02*
X481330D01*
X455930D02*
Y382270D01*
X481330Y255270D02*
Y382270D01*
X455930D02*
X481330D01*
X347863Y128310D02*
X391277D01*
X349133Y344210D02*
X392547D01*
X349133Y560110D02*
X392547D01*
D28*
X312400Y575010D02*
G03*
X312400Y575010I-1250J0D01*
G01*
Y143210D02*
G03*
X312400Y143210I-1250J0D01*
G01*
X192050Y588010D02*
G03*
X192050Y588010I-1250J0D01*
G01*
X11860Y527310D02*
G03*
X11860Y527310I-1250J0D01*
G01*
X192050Y156210D02*
G03*
X192050Y156210I-1250J0D01*
G01*
X11860Y95510D02*
G03*
X11860Y95510I-1250J0D01*
G01*
X312400Y359110D02*
G03*
X312400Y359110I-1250J0D01*
G01*
X192050Y372110D02*
G03*
X192050Y372110I-1250J0D01*
G01*
X11860Y311410D02*
G03*
X11860Y311410I-1250J0D01*
G01*
X400850Y116580D02*
G03*
X400850Y116580I-1250J0D01*
G01*
X402120Y331210D02*
G03*
X402120Y331210I-1250J0D01*
G01*
Y545840D02*
G03*
X402120Y545840I-1250J0D01*
G01*
X340790Y129800D02*
G03*
X340790Y129800I-1250J0D01*
G01*
X342060Y345700D02*
G03*
X342060Y345700I-1250J0D01*
G01*
Y561600D02*
G03*
X342060Y561600I-1250J0D01*
G01*
D29*
X292550Y584610D02*
G03*
X292550Y584610I-3000J0D01*
G01*
Y152810D02*
G03*
X292550Y152810I-3000J0D01*
G01*
X184200Y566410D02*
G03*
X184200Y566410I-3000J0D01*
G01*
Y134610D02*
G03*
X184200Y134610I-3000J0D01*
G01*
X292550Y368710D02*
G03*
X292550Y368710I-3000J0D01*
G01*
X184200Y350510D02*
G03*
X184200Y350510I-3000J0D01*
G01*
D30*
X14270Y269240D02*
X435610D01*
X13000Y487680D02*
X434340D01*
D31*
X114730Y681700D02*
X150730D01*
Y664700D02*
Y681700D01*
Y613700D02*
Y630700D01*
X114730Y613700D02*
X150730D01*
X114730Y247360D02*
X150730D01*
Y230360D02*
Y247360D01*
Y179360D02*
Y196360D01*
X114730Y179360D02*
X150730D01*
X114730Y464530D02*
X150730D01*
Y447530D02*
Y464530D01*
Y396530D02*
Y413530D01*
X114730Y396530D02*
X150730D01*
X319156Y77851D02*
X331852D01*
X334391Y80390D01*
Y85469D01*
X331852Y88008D01*
X319156D01*
X331852Y93086D02*
X334391Y95625D01*
Y100704D01*
X331852Y103243D01*
X321695D01*
X319156Y100704D01*
Y95625D01*
X321695Y93086D01*
X324234D01*
X326773Y95625D01*
Y103243D01*
X320426Y292481D02*
X333122D01*
X335661Y295020D01*
Y300098D01*
X333122Y302638D01*
X320426D01*
X322965Y307716D02*
X320426Y310255D01*
Y315334D01*
X322965Y317873D01*
X325504D01*
X328044Y315334D01*
X330583Y317873D01*
X333122D01*
X335661Y315334D01*
Y310255D01*
X333122Y307716D01*
X330583D01*
X328044Y310255D01*
X325504Y307716D01*
X322965D01*
X328044Y310255D02*
Y315334D01*
X320426Y507111D02*
X333122D01*
X335661Y509650D01*
Y514729D01*
X333122Y517268D01*
X320426D01*
Y522346D02*
Y532503D01*
X322965D01*
X333122Y522346D01*
X335661D01*
X216276Y378079D02*
X203580D01*
X201041Y375540D01*
Y370462D01*
X203580Y367922D01*
X216276D01*
Y352687D02*
X213737Y357766D01*
X208659Y362844D01*
X203580D01*
X201041Y360305D01*
Y355226D01*
X203580Y352687D01*
X206119D01*
X208659Y355226D01*
Y362844D01*
X238760Y349245D02*
Y336549D01*
X241299Y334010D01*
X246378D01*
X248917Y336549D01*
Y349245D01*
X264152D02*
X253995D01*
Y341628D01*
X259073Y344167D01*
X261613D01*
X264152Y341628D01*
Y336549D01*
X261613Y334010D01*
X256534D01*
X253995Y336549D01*
X216276Y162179D02*
X203580D01*
X201041Y159640D01*
Y154562D01*
X203580Y152022D01*
X216276D01*
X201041Y139326D02*
X216276D01*
X208659Y146944D01*
Y136787D01*
X216276Y593979D02*
X203580D01*
X201041Y591440D01*
Y586362D01*
X203580Y583822D01*
X216276D01*
X213737Y578744D02*
X216276Y576205D01*
Y571126D01*
X213737Y568587D01*
X211198D01*
X208659Y571126D01*
Y573666D01*
Y571126D01*
X206119Y568587D01*
X203580D01*
X201041Y571126D01*
Y576205D01*
X203580Y578744D01*
X238760Y134615D02*
Y121919D01*
X241299Y119380D01*
X246378D01*
X248917Y121919D01*
Y134615D01*
X264152Y119380D02*
X253995D01*
X264152Y129537D01*
Y132076D01*
X261613Y134615D01*
X256534D01*
X253995Y132076D01*
X238760Y565145D02*
Y552449D01*
X241299Y549910D01*
X246378D01*
X248917Y552449D01*
Y565145D01*
X253995Y549910D02*
X259073D01*
X256534D01*
Y565145D01*
X253995Y562606D01*
X350520Y222250D02*
X335285D01*
Y229867D01*
X337824Y232407D01*
X342902D01*
X345442Y229867D01*
Y222250D01*
Y227328D02*
X350520Y232407D01*
Y247642D02*
Y237485D01*
X340363Y247642D01*
X337824D01*
X335285Y245103D01*
Y240024D01*
X337824Y237485D01*
X350520Y260338D02*
X335285D01*
X342902Y252720D01*
Y262877D01*
X350520Y436880D02*
X335285D01*
Y444497D01*
X337824Y447037D01*
X342902D01*
X345442Y444497D01*
Y436880D01*
Y441958D02*
X350520Y447037D01*
Y462272D02*
Y452115D01*
X340363Y462272D01*
X337824D01*
X335285Y459733D01*
Y454654D01*
X337824Y452115D01*
Y467350D02*
X335285Y469889D01*
Y474968D01*
X337824Y477507D01*
X340363D01*
X342902Y474968D01*
Y472429D01*
Y474968D01*
X345442Y477507D01*
X347981D01*
X350520Y474968D01*
Y469889D01*
X347981Y467350D01*
X350520Y652780D02*
X335285D01*
Y660397D01*
X337824Y662937D01*
X342902D01*
X345442Y660397D01*
Y652780D01*
Y657858D02*
X350520Y662937D01*
Y678172D02*
Y668015D01*
X340363Y678172D01*
X337824D01*
X335285Y675633D01*
Y670554D01*
X337824Y668015D01*
X350520Y693407D02*
Y683250D01*
X340363Y693407D01*
X337824D01*
X335285Y690868D01*
Y685789D01*
X337824Y683250D01*
X171323Y463931D02*
X186558D01*
Y456314D01*
X184019Y453774D01*
X178941D01*
X176401Y456314D01*
Y463931D01*
Y458853D02*
X171323Y453774D01*
Y448696D02*
Y443618D01*
Y446157D01*
X186558D01*
X184019Y448696D01*
X186558Y425843D02*
Y436000D01*
X178941D01*
X181480Y430922D01*
Y428382D01*
X178941Y425843D01*
X173862D01*
X171323Y428382D01*
Y433461D01*
X173862Y436000D01*
X171323Y246761D02*
X186558D01*
Y239144D01*
X184019Y236604D01*
X178941D01*
X176401Y239144D01*
Y246761D01*
Y241683D02*
X171323Y236604D01*
Y231526D02*
Y226448D01*
Y228987D01*
X186558D01*
X184019Y231526D01*
Y218830D02*
X186558Y216291D01*
Y211213D01*
X184019Y208673D01*
X173862D01*
X171323Y211213D01*
Y216291D01*
X173862Y218830D01*
X184019D01*
X171323Y681101D02*
X186558D01*
Y673484D01*
X184019Y670944D01*
X178941D01*
X176401Y673484D01*
Y681101D01*
Y676023D02*
X171323Y670944D01*
X186558Y665866D02*
Y655709D01*
X184019D01*
X173862Y665866D01*
X171323D01*
X318767Y121919D02*
Y132076D01*
X316227Y134615D01*
X311149D01*
X308610Y132076D01*
Y121919D01*
X311149Y119380D01*
X316227D01*
X313688Y124458D02*
X318767Y119380D01*
X316227D02*
X318767Y121919D01*
X334002Y134615D02*
X328923Y132076D01*
X323845Y126997D01*
Y121919D01*
X326384Y119380D01*
X331463D01*
X334002Y121919D01*
Y124458D01*
X331463Y126997D01*
X323845D01*
X316227Y335279D02*
Y345436D01*
X313687Y347975D01*
X308609D01*
X306070Y345436D01*
Y335279D01*
X308609Y332740D01*
X313687D01*
X311148Y337818D02*
X316227Y332740D01*
X313687D02*
X316227Y335279D01*
X331462Y347975D02*
X321305D01*
Y340358D01*
X326383Y342897D01*
X328923D01*
X331462Y340358D01*
Y335279D01*
X328923Y332740D01*
X323844D01*
X321305Y335279D01*
X321307Y553719D02*
Y563876D01*
X318768Y566415D01*
X313689D01*
X311150Y563876D01*
Y553719D01*
X313689Y551180D01*
X318768D01*
X316228Y556258D02*
X321307Y551180D01*
X318768D02*
X321307Y553719D01*
X334003Y551180D02*
Y566415D01*
X326385Y558797D01*
X336542D01*
X30477Y289559D02*
Y299716D01*
X27938Y302255D01*
X22859D01*
X20320Y299716D01*
Y289559D01*
X22859Y287020D01*
X27938D01*
X25398Y292098D02*
X30477Y287020D01*
X27938D02*
X30477Y289559D01*
X35555Y299716D02*
X38094Y302255D01*
X43173D01*
X45712Y299716D01*
Y297177D01*
X43173Y294638D01*
X40633D01*
X43173D01*
X45712Y292098D01*
Y289559D01*
X43173Y287020D01*
X38094D01*
X35555Y289559D01*
X31747Y73659D02*
Y83816D01*
X29207Y86355D01*
X24129D01*
X21590Y83816D01*
Y73659D01*
X24129Y71120D01*
X29207D01*
X26668Y76198D02*
X31747Y71120D01*
X29207D02*
X31747Y73659D01*
X46982Y71120D02*
X36825D01*
X46982Y81277D01*
Y83816D01*
X44443Y86355D01*
X39364D01*
X36825Y83816D01*
X31747Y506729D02*
Y516886D01*
X29207Y519425D01*
X24129D01*
X21590Y516886D01*
Y506729D01*
X24129Y504190D01*
X29207D01*
X26668Y509268D02*
X31747Y504190D01*
X29207D02*
X31747Y506729D01*
X36825Y504190D02*
X41903D01*
X39364D01*
Y519425D01*
X36825Y516886D01*
X455930Y231140D02*
Y246375D01*
X463548D01*
X466087Y243836D01*
Y238757D01*
X463548Y236218D01*
X455930D01*
X478783Y231140D02*
Y246375D01*
X471165Y238757D01*
X481322D01*
X18161Y451739D02*
Y466974D01*
X25779D01*
X28318Y464435D01*
Y459356D01*
X25779Y456817D01*
X18161D01*
X33396Y464435D02*
X35935Y466974D01*
X41014D01*
X43553Y464435D01*
Y461896D01*
X41014Y459356D01*
X38474D01*
X41014D01*
X43553Y456817D01*
Y454278D01*
X41014Y451739D01*
X35935D01*
X33396Y454278D01*
X18161Y235839D02*
Y251074D01*
X25779D01*
X28318Y248535D01*
Y243456D01*
X25779Y240917D01*
X18161D01*
X43553Y235839D02*
X33396D01*
X43553Y245996D01*
Y248535D01*
X41014Y251074D01*
X35935D01*
X33396Y248535D01*
X16891Y667639D02*
Y682874D01*
X24509D01*
X27048Y680335D01*
Y675257D01*
X24509Y672717D01*
X16891D01*
X32126Y667639D02*
X37204D01*
X34665D01*
Y682874D01*
X32126Y680335D01*
X363220Y242565D02*
Y227330D01*
X370838D01*
X373377Y229869D01*
Y240026D01*
X370838Y242565D01*
X363220D01*
X378455Y240026D02*
X380994Y242565D01*
X386073D01*
X388612Y240026D01*
Y237487D01*
X386073Y234947D01*
X383533D01*
X386073D01*
X388612Y232408D01*
Y229869D01*
X386073Y227330D01*
X380994D01*
X378455Y229869D01*
X364490Y455925D02*
Y440690D01*
X372108D01*
X374647Y443229D01*
Y453386D01*
X372108Y455925D01*
X364490D01*
X389882Y440690D02*
X379725D01*
X389882Y450847D01*
Y453386D01*
X387343Y455925D01*
X382264D01*
X379725Y453386D01*
X365760Y671825D02*
Y656590D01*
X373377D01*
X375917Y659129D01*
Y669286D01*
X373377Y671825D01*
X365760D01*
X380995Y656590D02*
X386073D01*
X383534D01*
Y671825D01*
X380995Y669286D01*
X414346Y575310D02*
X434340D01*
Y588639D01*
X414346Y608633D02*
Y595304D01*
X434340D01*
Y608633D01*
X424343Y595304D02*
Y601968D01*
X414346Y628626D02*
Y615297D01*
X424343D01*
Y621962D01*
Y615297D01*
X434340D01*
X414346Y635291D02*
Y648620D01*
Y641955D01*
X434340D01*
X433070Y344170D02*
X413076D01*
Y354167D01*
X416409Y357499D01*
X423073D01*
X426405Y354167D01*
Y344170D01*
Y350835D02*
X433070Y357499D01*
X413076Y364164D02*
Y370828D01*
Y367496D01*
X433070D01*
Y364164D01*
Y370828D01*
X416409Y394154D02*
X413076Y390822D01*
Y384157D01*
X416409Y380825D01*
X429738D01*
X433070Y384157D01*
Y390822D01*
X429738Y394154D01*
X423073D01*
Y387489D01*
X413076Y400818D02*
X433070D01*
X423073D01*
Y414147D01*
X413076D01*
X433070D01*
X413076Y420812D02*
Y434141D01*
Y427477D01*
X433070D01*
X414346Y143510D02*
X434340D01*
Y153507D01*
X431008Y156839D01*
X427676D01*
X424343Y153507D01*
Y143510D01*
Y153507D01*
X421011Y156839D01*
X417679D01*
X414346Y153507D01*
Y143510D01*
X434340Y163504D02*
X421011D01*
X414346Y170168D01*
X421011Y176833D01*
X434340D01*
X424343D01*
Y163504D01*
X414346Y183497D02*
X434340D01*
Y196826D01*
X414346Y203491D02*
X434340D01*
Y216820D01*
X462129Y404489D02*
X458796Y401157D01*
Y394492D01*
X462129Y391160D01*
X465461D01*
X468793Y394492D01*
Y401157D01*
X472126Y404489D01*
X475458D01*
X478790Y401157D01*
Y394492D01*
X475458Y391160D01*
X458796Y411154D02*
Y417818D01*
Y414486D01*
X478790D01*
Y411154D01*
Y417818D01*
X462129Y441144D02*
X458796Y437812D01*
Y431147D01*
X462129Y427815D01*
X475458D01*
X478790Y431147D01*
Y437812D01*
X475458Y441144D01*
X468793D01*
Y434479D01*
X478790Y447808D02*
X458796D01*
X478790Y461137D01*
X458796D01*
X478790Y467802D02*
X465461D01*
X458796Y474467D01*
X465461Y481131D01*
X478790D01*
X468793D01*
Y467802D01*
X458796Y487795D02*
X478790D01*
Y501125D01*
D32*
X339090Y200660D02*
X346710D01*
X339090Y213360D02*
X346710D01*
X339090Y416560D02*
X346710D01*
X339090Y429260D02*
X346710D01*
X339090Y632460D02*
X346710D01*
X339090Y645160D02*
X346710D01*
X363220Y182372D02*
X367030Y178562D01*
X377190D01*
X381000Y182372D01*
Y206375D02*
Y216535D01*
Y182372D02*
Y188595D01*
X363220Y206375D02*
Y216535D01*
X381000D01*
X363220Y182372D02*
Y188595D01*
X366014Y179578D02*
X378206D01*
X363220Y398272D02*
X367030Y394462D01*
X377190D01*
X381000Y398272D01*
Y422275D02*
Y432435D01*
Y398272D02*
Y404495D01*
X363220Y422275D02*
Y432435D01*
X381000D01*
X363220Y398272D02*
Y404495D01*
X366014Y395478D02*
X378206D01*
X363220Y614172D02*
X367030Y610362D01*
X377190D01*
X381000Y614172D01*
Y638175D02*
Y648335D01*
Y614172D02*
Y620395D01*
X363220Y638175D02*
Y648335D01*
X381000D01*
X363220Y614172D02*
Y620395D01*
X366014Y611378D02*
X378206D01*
M02*
