M48
;Layer_Color=9474304
;FILE_FORMAT=4:4
METRIC,LZ
;TYPE=PLATED
T1F00S00C0.4000
T2F00S00C0.9000
T3F00S00C1.0160
T4F00S00C3.4000
%
T01
X002667Y0038481
T02
X0002794Y0010922
X0004064
X0005334
X001016Y0008001
X00127
X001524
X001778
Y0015621
X001524
X00127
X001016
X0002921Y0016383
Y0018923
Y0021463
X0002794Y0032512
X0004064
X0005334
X001016Y0029591
X00127
X001524
X001778
Y0037211
X001524
X00127
X001016
X0002921Y0037973
Y0040513
X0023495Y0039751
Y0037211
Y0042291
Y0023241
Y0020701
Y0018161
Y0015621
X0031115
Y0018161
Y0020701
Y0023241
X0035814Y003175
X0037084
X0038354
Y0035941
X0037084
X0035814
X0031115Y0037211
Y0039751
Y0042291
X0046863Y0036957
Y0034417
Y0031877
Y0029337
Y0026797
X0038227Y0014351
X0036957
X0035687
Y0010287
X0036957
X0038227
X0031115Y0044831
X0035814Y0053213
X0037084
X0038354
Y0057531
X0037084
X0035814
X0031115Y0058801
Y0061341
Y0063881
Y0066421
X0023495
Y0063881
Y0061341
Y0058801
X001778
X001524
X00127
X001016
Y0051181
X00127
X001524
X001778
X0023495Y0044831
X0002921Y0043053
X0002794Y0054102
X0004064
X0005334
X0002794Y0059563
Y0062103
Y0064643
T03
X0010073Y0018836
Y0023836
X0015073Y0021336
X0010073Y0040553
Y0045553
X0015073Y0043053
Y006477
X0010073Y006227
Y006727
T04
X0002794Y0002794
X0047244Y001143
Y0067183
M30
