G04 Layer_Color=8388736*
%FSLAX44Y44*%
%MOMM*%
G71*
G01*
G75*
G04:AMPARAMS|DCode=41|XSize=1.5032mm|YSize=1.0032mm|CornerRadius=0.2016mm|HoleSize=0mm|Usage=FLASHONLY|Rotation=180.000|XOffset=0mm|YOffset=0mm|HoleType=Round|Shape=RoundedRectangle|*
%AMROUNDEDRECTD41*
21,1,1.5032,0.6000,0,0,180.0*
21,1,1.1000,1.0032,0,0,180.0*
1,1,0.4032,-0.5500,0.3000*
1,1,0.4032,0.5500,0.3000*
1,1,0.4032,0.5500,-0.3000*
1,1,0.4032,-0.5500,-0.3000*
%
%ADD41ROUNDEDRECTD41*%
%ADD42R,1.7032X2.8032*%
%ADD43C,5.2032*%
%ADD44C,1.8032*%
%ADD45R,1.8032X1.8032*%
%ADD46R,1.7032X1.7032*%
%ADD47C,1.7032*%
%ADD48C,2.2032*%
G04:AMPARAMS|DCode=49|XSize=2.2032mm|YSize=2.2032mm|CornerRadius=0.3516mm|HoleSize=0mm|Usage=FLASHONLY|Rotation=0.000|XOffset=0mm|YOffset=0mm|HoleType=Round|Shape=RoundedRectangle|*
%AMROUNDEDRECTD49*
21,1,2.2032,1.5000,0,0,0.0*
21,1,1.5000,2.2032,0,0,0.0*
1,1,0.7032,0.7500,-0.7500*
1,1,0.7032,-0.7500,-0.7500*
1,1,0.7032,-0.7500,0.7500*
1,1,0.7032,0.7500,0.7500*
%
%ADD49ROUNDEDRECTD49*%
%ADD50O,2.2032X1.2032*%
%ADD51O,2.2032X1.2032*%
%ADD52O,1.4032X2.7032*%
%ADD53R,1.4032X2.7032*%
%ADD54R,1.7032X1.7032*%
%ADD55C,1.1032*%
D41*
X317500Y381160D02*
D03*
Y401160D02*
D03*
D42*
X401080Y302260D02*
D03*
X371080D02*
D03*
D43*
X521970Y27940D02*
D03*
X27940D02*
D03*
X521970Y472440D02*
D03*
X27940D02*
D03*
D44*
X358140Y406400D02*
D03*
Y381000D02*
D03*
D45*
Y355600D02*
D03*
D46*
X521970Y374650D02*
D03*
X327660Y66040D02*
D03*
D47*
X521970Y349250D02*
D03*
X327660Y91440D02*
D03*
X180340Y200660D02*
D03*
X339090Y187960D02*
D03*
Y213360D02*
D03*
X364490Y187960D02*
D03*
Y213360D02*
D03*
X389890Y187960D02*
D03*
Y213360D02*
D03*
X415290Y187960D02*
D03*
Y213360D02*
D03*
X440690Y187960D02*
D03*
Y213360D02*
D03*
X466090Y187960D02*
D03*
X179070Y471170D02*
D03*
X153670Y274320D02*
D03*
D48*
X458070Y381000D02*
D03*
D49*
X408070D02*
D03*
D50*
X414020Y64770D02*
D03*
Y52070D02*
D03*
D51*
Y39370D02*
D03*
D52*
X78740Y60960D02*
D03*
X104140D02*
D03*
X129540D02*
D03*
X154940D02*
D03*
X180340D02*
D03*
X205740D02*
D03*
X231140D02*
D03*
X256540D02*
D03*
X78740Y137160D02*
D03*
X104140D02*
D03*
X129540D02*
D03*
X154940D02*
D03*
X180340D02*
D03*
X205740D02*
D03*
X231140D02*
D03*
X255270Y410210D02*
D03*
X229870D02*
D03*
X204470D02*
D03*
X179070D02*
D03*
X153670D02*
D03*
X128270D02*
D03*
X102870D02*
D03*
X77470D02*
D03*
X255270Y334010D02*
D03*
X229870D02*
D03*
X204470D02*
D03*
X179070D02*
D03*
X153670D02*
D03*
X128270D02*
D03*
X102870D02*
D03*
D53*
X256540Y137160D02*
D03*
X77470Y334010D02*
D03*
D54*
X154940Y200660D02*
D03*
X466090Y213360D02*
D03*
X153670Y471170D02*
D03*
X179070Y274320D02*
D03*
D55*
X401160Y322834D02*
D03*
M02*
