G04 Layer_Physical_Order=1*
G04 Layer_Color=255*
%FSLAX44Y44*%
%MOMM*%
G71*
G01*
G75*
G04:AMPARAMS|DCode=10|XSize=1.3mm|YSize=0.8mm|CornerRadius=0.1mm|HoleSize=0mm|Usage=FLASHONLY|Rotation=180.000|XOffset=0mm|YOffset=0mm|HoleType=Round|Shape=RoundedRectangle|*
%AMROUNDEDRECTD10*
21,1,1.3000,0.6000,0,0,180.0*
21,1,1.1000,0.8000,0,0,180.0*
1,1,0.2000,-0.5500,0.3000*
1,1,0.2000,0.5500,0.3000*
1,1,0.2000,0.5500,-0.3000*
1,1,0.2000,-0.5500,-0.3000*
%
%ADD10ROUNDEDRECTD10*%
%ADD11R,1.5000X2.6000*%
%ADD12C,1.0000*%
%ADD13C,1.5000*%
%ADD14C,0.5000*%
%ADD15C,1.7000*%
%ADD16C,0.2540*%
%ADD17C,5.0000*%
%ADD18C,1.6000*%
%ADD19R,1.6000X1.6000*%
%ADD20R,1.5000X1.5000*%
%ADD21C,1.5000*%
%ADD22C,2.0000*%
G04:AMPARAMS|DCode=23|XSize=2mm|YSize=2mm|CornerRadius=0.25mm|HoleSize=0mm|Usage=FLASHONLY|Rotation=0.000|XOffset=0mm|YOffset=0mm|HoleType=Round|Shape=RoundedRectangle|*
%AMROUNDEDRECTD23*
21,1,2.0000,1.5000,0,0,0.0*
21,1,1.5000,2.0000,0,0,0.0*
1,1,0.5000,0.7500,-0.7500*
1,1,0.5000,-0.7500,-0.7500*
1,1,0.5000,-0.7500,0.7500*
1,1,0.5000,0.7500,0.7500*
%
%ADD23ROUNDEDRECTD23*%
%ADD24O,2.0000X1.0000*%
%ADD25O,2.0000X1.0000*%
%ADD26O,1.2000X2.5000*%
%ADD27R,1.2000X2.5000*%
%ADD28R,1.5000X1.5000*%
%ADD29C,0.9000*%
G36*
X495485Y479921D02*
X494725Y476755D01*
X494385Y472440D01*
X494725Y468125D01*
X495735Y463916D01*
X497392Y459917D01*
X499653Y456226D01*
X502464Y452934D01*
X505756Y450123D01*
X509447Y447862D01*
X513446Y446205D01*
X517655Y445195D01*
X521970Y444855D01*
X526285Y445195D01*
X529922Y446068D01*
X532922Y444543D01*
Y387312D01*
X532010Y384690D01*
X529922Y384690D01*
X523240D01*
Y374650D01*
Y364610D01*
X529922D01*
X532010Y364610D01*
X532922Y361988D01*
Y356332D01*
X529922Y355314D01*
X529102Y356382D01*
X527013Y357985D01*
X524580Y358993D01*
X521970Y359336D01*
X519360Y358993D01*
X516927Y357985D01*
X514838Y356382D01*
X513235Y354293D01*
X512227Y351861D01*
X511884Y349250D01*
X512227Y346640D01*
X513235Y344207D01*
X514838Y342118D01*
X516927Y340515D01*
X519360Y339507D01*
X521970Y339164D01*
X524580Y339507D01*
X527013Y340515D01*
X529102Y342118D01*
X529922Y343186D01*
X532922Y342168D01*
Y55837D01*
X529922Y54312D01*
X526285Y55185D01*
X521970Y55525D01*
X517655Y55185D01*
X513446Y54175D01*
X509447Y52518D01*
X505756Y50257D01*
X502464Y47446D01*
X499653Y44154D01*
X497392Y40463D01*
X495735Y36464D01*
X494725Y32255D01*
X494385Y27940D01*
X494725Y23625D01*
X495576Y20079D01*
X494007Y17079D01*
X55903D01*
X54334Y20079D01*
X55185Y23625D01*
X55525Y27940D01*
X55185Y32255D01*
X54175Y36464D01*
X52518Y40463D01*
X50257Y44154D01*
X47446Y47446D01*
X44154Y50257D01*
X40463Y52518D01*
X36464Y54175D01*
X32255Y55185D01*
X27940Y55525D01*
X23625Y55185D01*
X20079Y54334D01*
X17079Y55903D01*
Y62270D01*
X53603D01*
Y92344D01*
X17079D01*
Y444477D01*
X20079Y446046D01*
X23625Y445195D01*
X27940Y444855D01*
X32255Y445195D01*
X36464Y446205D01*
X40463Y447862D01*
X44154Y450123D01*
X47446Y452934D01*
X50257Y456226D01*
X52518Y459917D01*
X54175Y463916D01*
X55185Y468125D01*
X55525Y472440D01*
X55185Y476755D01*
X54425Y479921D01*
X56179Y482921D01*
X141396D01*
X142375Y482167D01*
X143670Y479703D01*
X142728Y477093D01*
X142266Y476422D01*
X134880Y468070D01*
X120425Y453615D01*
X118661Y451317D01*
X117553Y448642D01*
X117175Y445770D01*
Y410210D01*
X117553Y407338D01*
X118661Y404663D01*
X119760Y403232D01*
X119989Y401491D01*
X120845Y399423D01*
X122208Y397648D01*
X123983Y396285D01*
X126051Y395429D01*
X128270Y395137D01*
X130489Y395429D01*
X132557Y396285D01*
X134332Y397648D01*
X135695Y399423D01*
X136551Y401491D01*
X136780Y403232D01*
X137879Y404663D01*
X138987Y407338D01*
X139365Y410210D01*
Y441174D01*
X149565Y451375D01*
X154309Y455923D01*
X157557Y458719D01*
X158851Y459717D01*
X159593Y460228D01*
X162203Y461170D01*
X163670Y461170D01*
X163689Y463700D01*
X163670Y463793D01*
X163670Y464170D01*
Y466568D01*
X164387Y468298D01*
X164765Y471170D01*
X164387Y474042D01*
X163670Y475772D01*
X163670Y481170D01*
X165944Y482921D01*
X171387D01*
X172406Y479921D01*
X171225Y479015D01*
X169461Y476717D01*
X168353Y474042D01*
X167975Y471170D01*
X168353Y468298D01*
X169461Y465623D01*
X171225Y463325D01*
X193375Y441174D01*
Y410210D01*
X193753Y407338D01*
X194862Y404663D01*
X195960Y403232D01*
X196189Y401491D01*
X197045Y399423D01*
X198408Y397648D01*
X200183Y396285D01*
X202251Y395429D01*
X204470Y395137D01*
X206689Y395429D01*
X208757Y396285D01*
X210532Y397648D01*
X211895Y399423D01*
X212751Y401491D01*
X212980Y403232D01*
X214079Y404663D01*
X215187Y407338D01*
X215565Y410210D01*
Y445770D01*
X215187Y448642D01*
X214079Y451317D01*
X212315Y453615D01*
X186915Y479015D01*
X185734Y479921D01*
X186753Y482921D01*
X493731D01*
X495485Y479921D01*
D02*
G37*
G36*
X161140Y463700D02*
X160465Y463580D01*
X159608Y463220D01*
X158569Y462619D01*
X157348Y461777D01*
X155946Y460695D01*
X152594Y457810D01*
X146201Y451680D01*
X134180Y463700D01*
X136464Y466014D01*
X144277Y474849D01*
X145119Y476069D01*
X145720Y477108D01*
X146080Y477965D01*
X146201Y478639D01*
X161140Y463700D01*
D02*
G37*
%LPC*%
G36*
X188954Y59690D02*
X181610D01*
Y46013D01*
X182569Y46140D01*
X184647Y47000D01*
X186431Y48369D01*
X187800Y50153D01*
X188660Y52231D01*
X188954Y54460D01*
Y59690D01*
D02*
G37*
G36*
X337660Y76040D02*
X317660D01*
Y56040D01*
X337660D01*
Y76040D01*
D02*
G37*
G36*
X154940Y211755D02*
X152069Y211377D01*
X150338Y210660D01*
X147940D01*
X147563Y210660D01*
X147471Y210679D01*
X144940Y210660D01*
Y209193D01*
X143998Y206583D01*
X143536Y205912D01*
X136150Y197560D01*
X121695Y183105D01*
X119931Y180807D01*
X118823Y178132D01*
X118445Y175260D01*
Y137160D01*
X118823Y134288D01*
X119931Y131613D01*
X121030Y130182D01*
X121259Y128441D01*
X122115Y126373D01*
X123478Y124598D01*
X125253Y123235D01*
X127321Y122379D01*
X129540Y122087D01*
X131759Y122379D01*
X133827Y123235D01*
X135602Y124598D01*
X136965Y126373D01*
X137821Y128441D01*
X138050Y130182D01*
X139149Y131613D01*
X140257Y134288D01*
X140635Y137160D01*
Y170664D01*
X150836Y180865D01*
X155578Y185413D01*
X158827Y188209D01*
X160121Y189207D01*
X160863Y189718D01*
X163473Y190660D01*
X164940Y190660D01*
X164958Y193190D01*
X164940Y193283D01*
X164940Y193660D01*
Y196058D01*
X165657Y197789D01*
X166035Y200660D01*
X165657Y203532D01*
X164940Y205262D01*
Y210660D01*
X159542D01*
X157812Y211377D01*
X154940Y211755D01*
D02*
G37*
G36*
X364490Y223446D02*
X361880Y223103D01*
X359447Y222095D01*
X357358Y220492D01*
X355755Y218403D01*
X354747Y215970D01*
X354404Y213360D01*
X354747Y210749D01*
X355755Y208317D01*
X357358Y206228D01*
X359447Y204625D01*
X361880Y203617D01*
X364490Y203274D01*
X367100Y203617D01*
X369533Y204625D01*
X371622Y206228D01*
X373225Y208317D01*
X374233Y210749D01*
X374576Y213360D01*
X374233Y215970D01*
X373225Y218403D01*
X371622Y220492D01*
X369533Y222095D01*
X367100Y223103D01*
X364490Y223446D01*
D02*
G37*
G36*
X389890Y198046D02*
X387280Y197703D01*
X384847Y196695D01*
X382758Y195092D01*
X381155Y193003D01*
X380147Y190571D01*
X379804Y187960D01*
X380147Y185350D01*
X381155Y182917D01*
X382758Y180828D01*
X384847Y179225D01*
X387280Y178217D01*
X389890Y177874D01*
X392500Y178217D01*
X394933Y179225D01*
X397022Y180828D01*
X398625Y182917D01*
X399633Y185350D01*
X399976Y187960D01*
X399633Y190571D01*
X398625Y193003D01*
X397022Y195092D01*
X394933Y196695D01*
X392500Y197703D01*
X389890Y198046D01*
D02*
G37*
G36*
X364490D02*
X361880Y197703D01*
X359447Y196695D01*
X357358Y195092D01*
X355755Y193003D01*
X354747Y190571D01*
X354404Y187960D01*
X354747Y185350D01*
X355755Y182917D01*
X357358Y180828D01*
X359447Y179225D01*
X361880Y178217D01*
X364490Y177874D01*
X367100Y178217D01*
X369533Y179225D01*
X371622Y180828D01*
X373225Y182917D01*
X374233Y185350D01*
X374576Y187960D01*
X374233Y190571D01*
X373225Y193003D01*
X371622Y195092D01*
X369533Y196695D01*
X367100Y197703D01*
X364490Y198046D01*
D02*
G37*
G36*
X415290D02*
X412679Y197703D01*
X410247Y196695D01*
X408158Y195092D01*
X406555Y193003D01*
X405547Y190571D01*
X405204Y187960D01*
X405547Y185350D01*
X406555Y182917D01*
X408158Y180828D01*
X410247Y179225D01*
X412679Y178217D01*
X415290Y177874D01*
X417901Y178217D01*
X420333Y179225D01*
X422422Y180828D01*
X424025Y182917D01*
X425033Y185350D01*
X425376Y187960D01*
X425033Y190571D01*
X424025Y193003D01*
X422422Y195092D01*
X420333Y196695D01*
X417901Y197703D01*
X415290Y198046D01*
D02*
G37*
G36*
X464820Y186690D02*
X456131D01*
X456308Y185339D01*
X457320Y182897D01*
X458929Y180799D01*
X461027Y179190D01*
X463469Y178178D01*
X464820Y178001D01*
Y186690D01*
D02*
G37*
G36*
X440690Y198046D02*
X438079Y197703D01*
X435647Y196695D01*
X433558Y195092D01*
X431955Y193003D01*
X430947Y190571D01*
X430604Y187960D01*
X430947Y185350D01*
X431955Y182917D01*
X433558Y180828D01*
X435647Y179225D01*
X438079Y178217D01*
X440690Y177874D01*
X443301Y178217D01*
X445733Y179225D01*
X447822Y180828D01*
X449425Y182917D01*
X450433Y185350D01*
X450776Y187960D01*
X450433Y190571D01*
X449425Y193003D01*
X447822Y195092D01*
X445733Y196695D01*
X443301Y197703D01*
X440690Y198046D01*
D02*
G37*
G36*
X204470Y349083D02*
X202251Y348791D01*
X200183Y347935D01*
X198408Y346572D01*
X197045Y344797D01*
X196189Y342729D01*
X195960Y340989D01*
X194862Y339557D01*
X193753Y336882D01*
X193375Y334010D01*
Y304316D01*
X183174Y294115D01*
X178431Y289567D01*
X175183Y286771D01*
X173889Y285773D01*
X173147Y285262D01*
X170537Y284320D01*
X169070Y284320D01*
X169051Y281789D01*
X169070Y281697D01*
X169070Y281320D01*
Y278922D01*
X168353Y277192D01*
X167975Y274320D01*
X168353Y271448D01*
X169070Y269718D01*
Y264320D01*
X174468D01*
X176198Y263603D01*
X179070Y263225D01*
X181942Y263603D01*
X183672Y264320D01*
X186070D01*
X186447Y264320D01*
X186539Y264301D01*
X189070Y264320D01*
Y265787D01*
X190012Y268397D01*
X190474Y269068D01*
X197860Y277420D01*
X212315Y291875D01*
X214079Y294172D01*
X215187Y296849D01*
X215565Y299720D01*
Y334010D01*
X215187Y336882D01*
X214079Y339557D01*
X212980Y340989D01*
X212751Y342729D01*
X211895Y344797D01*
X210532Y346572D01*
X208757Y347935D01*
X206689Y348791D01*
X204470Y349083D01*
D02*
G37*
G36*
X128270D02*
X126051Y348791D01*
X123983Y347935D01*
X122208Y346572D01*
X120845Y344797D01*
X119989Y342729D01*
X119760Y340989D01*
X118661Y339557D01*
X117553Y336882D01*
X117175Y334010D01*
Y299720D01*
X117553Y296848D01*
X118661Y294172D01*
X120425Y291875D01*
X145825Y266475D01*
X148123Y264711D01*
X150799Y263603D01*
X153670Y263225D01*
X156542Y263603D01*
X159218Y264711D01*
X161515Y266475D01*
X163279Y268773D01*
X164387Y271448D01*
X164765Y274320D01*
X164387Y277192D01*
X163279Y279867D01*
X161515Y282165D01*
X139365Y304316D01*
Y334010D01*
X138987Y336882D01*
X137879Y339557D01*
X136780Y340989D01*
X136551Y342729D01*
X135695Y344797D01*
X134332Y346572D01*
X132557Y347935D01*
X130489Y348791D01*
X128270Y349083D01*
D02*
G37*
G36*
X399810Y300990D02*
X391040D01*
Y286720D01*
X399810D01*
Y300990D01*
D02*
G37*
G36*
X231140Y76033D02*
X228921Y75741D01*
X226853Y74885D01*
X225078Y73522D01*
X223715Y71747D01*
X222859Y69679D01*
X222567Y67460D01*
Y54460D01*
X222859Y52241D01*
X223715Y50173D01*
X225078Y48398D01*
X226853Y47035D01*
X228921Y46179D01*
X231140Y45887D01*
X233359Y46179D01*
X235427Y47035D01*
X237202Y48398D01*
X238565Y50173D01*
X239421Y52241D01*
X239713Y54460D01*
Y67460D01*
X239421Y69679D01*
X238565Y71747D01*
X237202Y73522D01*
X235427Y74885D01*
X233359Y75741D01*
X231140Y76033D01*
D02*
G37*
G36*
X77470Y59690D02*
X70126D01*
Y54460D01*
X70420Y52231D01*
X71280Y50153D01*
X72649Y48369D01*
X74433Y47000D01*
X76511Y46140D01*
X77470Y46013D01*
Y59690D01*
D02*
G37*
G36*
X163554D02*
X156210D01*
Y46013D01*
X157169Y46140D01*
X159247Y47000D01*
X161031Y48369D01*
X162400Y50153D01*
X163260Y52231D01*
X163554Y54460D01*
Y59690D01*
D02*
G37*
G36*
X179070D02*
X171726D01*
Y54460D01*
X172020Y52231D01*
X172880Y50153D01*
X174249Y48369D01*
X176033Y47000D01*
X178111Y46140D01*
X179070Y46013D01*
Y59690D01*
D02*
G37*
G36*
X87354D02*
X80010D01*
Y46013D01*
X80969Y46140D01*
X83047Y47000D01*
X84831Y48369D01*
X86200Y50153D01*
X87060Y52231D01*
X87354Y54460D01*
Y59690D01*
D02*
G37*
G36*
X153670D02*
X146326D01*
Y54460D01*
X146620Y52231D01*
X147480Y50153D01*
X148849Y48369D01*
X150633Y47000D01*
X152711Y46140D01*
X153670Y46013D01*
Y59690D01*
D02*
G37*
G36*
X104140Y152233D02*
X101921Y151941D01*
X99853Y151085D01*
X98078Y149722D01*
X96715Y147947D01*
X95859Y145879D01*
X95567Y143660D01*
Y130660D01*
X95859Y128441D01*
X96715Y126373D01*
X98078Y124598D01*
X99853Y123235D01*
X101921Y122379D01*
X104140Y122087D01*
X106359Y122379D01*
X108427Y123235D01*
X110202Y124598D01*
X111565Y126373D01*
X112421Y128441D01*
X112713Y130660D01*
Y143660D01*
X112421Y145879D01*
X111565Y147947D01*
X110202Y149722D01*
X108427Y151085D01*
X106359Y151941D01*
X104140Y152233D01*
D02*
G37*
G36*
X77470Y75907D02*
X76511Y75780D01*
X74433Y74920D01*
X72649Y73551D01*
X71280Y71767D01*
X70420Y69689D01*
X70126Y67460D01*
Y62230D01*
X77470D01*
Y75907D01*
D02*
G37*
G36*
X231140Y152233D02*
X228921Y151941D01*
X226853Y151085D01*
X225078Y149722D01*
X223715Y147947D01*
X222859Y145879D01*
X222567Y143660D01*
Y130660D01*
X222859Y128441D01*
X223715Y126373D01*
X225078Y124598D01*
X226853Y123235D01*
X228921Y122379D01*
X231140Y122087D01*
X233359Y122379D01*
X235427Y123235D01*
X237202Y124598D01*
X238565Y126373D01*
X239421Y128441D01*
X239713Y130660D01*
Y143660D01*
X239421Y145879D01*
X238565Y147947D01*
X237202Y149722D01*
X235427Y151085D01*
X233359Y151941D01*
X231140Y152233D01*
D02*
G37*
G36*
X180340Y211755D02*
X177468Y211377D01*
X174793Y210268D01*
X172495Y208505D01*
X170732Y206207D01*
X169623Y203532D01*
X169245Y200660D01*
X169623Y197788D01*
X170732Y195113D01*
X172495Y192815D01*
X194645Y170664D01*
Y137160D01*
X195023Y134288D01*
X196131Y131613D01*
X197230Y130182D01*
X197459Y128441D01*
X198315Y126373D01*
X199678Y124598D01*
X201453Y123235D01*
X203521Y122379D01*
X205740Y122087D01*
X207959Y122379D01*
X210027Y123235D01*
X211802Y124598D01*
X213165Y126373D01*
X214021Y128441D01*
X214250Y130182D01*
X215348Y131613D01*
X216457Y134288D01*
X216835Y137160D01*
Y175260D01*
X216457Y178132D01*
X215348Y180807D01*
X213585Y183105D01*
X188185Y208505D01*
X185887Y210268D01*
X183212Y211377D01*
X180340Y211755D01*
D02*
G37*
G36*
X181610Y75907D02*
Y62230D01*
X188954D01*
Y67460D01*
X188660Y69689D01*
X187800Y71767D01*
X186431Y73551D01*
X184647Y74920D01*
X182569Y75780D01*
X181610Y75907D01*
D02*
G37*
G36*
X153670D02*
X152711Y75780D01*
X150633Y74920D01*
X148849Y73551D01*
X147480Y71767D01*
X146620Y69689D01*
X146326Y67460D01*
Y62230D01*
X153670D01*
Y75907D01*
D02*
G37*
G36*
X80010D02*
Y62230D01*
X87354D01*
Y67460D01*
X87060Y69689D01*
X86200Y71767D01*
X84831Y73551D01*
X83047Y74920D01*
X80969Y75780D01*
X80010Y75907D01*
D02*
G37*
G36*
X179070D02*
X178111Y75780D01*
X176033Y74920D01*
X174249Y73551D01*
X172880Y71767D01*
X172020Y69689D01*
X171726Y67460D01*
Y62230D01*
X179070D01*
Y75907D01*
D02*
G37*
G36*
X156210D02*
Y62230D01*
X163554D01*
Y67460D01*
X163260Y69689D01*
X162400Y71767D01*
X161031Y73551D01*
X159247Y74920D01*
X157169Y75780D01*
X156210Y75907D01*
D02*
G37*
G36*
X179070Y152107D02*
X178111Y151980D01*
X176033Y151120D01*
X174249Y149751D01*
X172880Y147967D01*
X172020Y145889D01*
X171726Y143660D01*
Y138430D01*
X179070D01*
Y152107D01*
D02*
G37*
G36*
X156210D02*
Y138430D01*
X163554D01*
Y143660D01*
X163260Y145889D01*
X162400Y147967D01*
X161031Y149751D01*
X159247Y151120D01*
X157169Y151980D01*
X156210Y152107D01*
D02*
G37*
G36*
X339090Y198046D02*
X336479Y197703D01*
X334047Y196695D01*
X331958Y195092D01*
X330355Y193003D01*
X329347Y190571D01*
X329004Y187960D01*
X329347Y185350D01*
X330355Y182917D01*
X331958Y180828D01*
X334047Y179225D01*
X336479Y178217D01*
X339090Y177874D01*
X341701Y178217D01*
X344133Y179225D01*
X346222Y180828D01*
X347825Y182917D01*
X348833Y185350D01*
X349176Y187960D01*
X348833Y190571D01*
X347825Y193003D01*
X346222Y195092D01*
X344133Y196695D01*
X341701Y197703D01*
X339090Y198046D01*
D02*
G37*
G36*
X181610Y152107D02*
Y138430D01*
X188954D01*
Y143660D01*
X188660Y145889D01*
X187800Y147967D01*
X186431Y149751D01*
X184647Y151120D01*
X182569Y151980D01*
X181610Y152107D01*
D02*
G37*
G36*
X153670D02*
X152711Y151980D01*
X150633Y151120D01*
X148849Y149751D01*
X147480Y147967D01*
X146620Y145889D01*
X146326Y143660D01*
Y138430D01*
X153670D01*
Y152107D01*
D02*
G37*
G36*
X163554Y135890D02*
X156210D01*
Y122213D01*
X157169Y122340D01*
X159247Y123200D01*
X161031Y124569D01*
X162400Y126353D01*
X163260Y128431D01*
X163554Y130660D01*
Y135890D01*
D02*
G37*
G36*
X153670D02*
X146326D01*
Y130660D01*
X146620Y128431D01*
X147480Y126353D01*
X148849Y124569D01*
X150633Y123200D01*
X152711Y122340D01*
X153670Y122213D01*
Y135890D01*
D02*
G37*
G36*
X188954D02*
X181610D01*
Y122213D01*
X182569Y122340D01*
X184647Y123200D01*
X186431Y124569D01*
X187800Y126353D01*
X188660Y128431D01*
X188954Y130660D01*
Y135890D01*
D02*
G37*
G36*
X179070D02*
X171726D01*
Y130660D01*
X172020Y128431D01*
X172880Y126353D01*
X174249Y124569D01*
X176033Y123200D01*
X178111Y122340D01*
X179070Y122213D01*
Y135890D01*
D02*
G37*
G36*
X411120Y300990D02*
X402350D01*
Y286720D01*
X411120D01*
Y300990D01*
D02*
G37*
G36*
X104140Y76033D02*
X101921Y75741D01*
X99853Y74885D01*
X98078Y73522D01*
X96715Y71747D01*
X95859Y69679D01*
X95567Y67460D01*
Y54460D01*
X95859Y52241D01*
X96715Y50173D01*
X98078Y48398D01*
X99853Y47035D01*
X101921Y46179D01*
X104140Y45887D01*
X106359Y46179D01*
X108427Y47035D01*
X110202Y48398D01*
X111565Y50173D01*
X112421Y52241D01*
X112713Y54460D01*
Y67460D01*
X112421Y69679D01*
X111565Y71747D01*
X110202Y73522D01*
X108427Y74885D01*
X106359Y75741D01*
X104140Y76033D01*
D02*
G37*
G36*
X129540D02*
X127321Y75741D01*
X125253Y74885D01*
X123478Y73522D01*
X122115Y71747D01*
X121259Y69679D01*
X120967Y67460D01*
Y54460D01*
X121259Y52241D01*
X122115Y50173D01*
X123478Y48398D01*
X125253Y47035D01*
X127321Y46179D01*
X129540Y45887D01*
X131759Y46179D01*
X133827Y47035D01*
X135602Y48398D01*
X136965Y50173D01*
X137821Y52241D01*
X138113Y54460D01*
Y67460D01*
X137821Y69679D01*
X136965Y71747D01*
X135602Y73522D01*
X133827Y74885D01*
X131759Y75741D01*
X129540Y76033D01*
D02*
G37*
G36*
X412750Y38100D02*
X401582D01*
X401674Y37402D01*
X402434Y35568D01*
X403642Y33992D01*
X405218Y32784D01*
X407052Y32024D01*
X409020Y31765D01*
X412750D01*
Y38100D01*
D02*
G37*
G36*
X426458D02*
X415290D01*
Y31765D01*
X419020D01*
X420988Y32024D01*
X422822Y32784D01*
X424398Y33992D01*
X425606Y35568D01*
X426366Y37402D01*
X426458Y38100D01*
D02*
G37*
G36*
X255270Y425283D02*
X253051Y424991D01*
X250983Y424135D01*
X249208Y422772D01*
X247845Y420997D01*
X246989Y418929D01*
X246697Y416710D01*
Y403710D01*
X246989Y401491D01*
X247845Y399423D01*
X248181Y398985D01*
X248260Y398827D01*
X248679Y398279D01*
X249005Y397789D01*
X249289Y397287D01*
X249534Y396773D01*
X249741Y396244D01*
X249911Y395696D01*
X250045Y395128D01*
X250141Y394537D01*
X250172Y394213D01*
Y387684D01*
X247172Y386253D01*
X236818Y394634D01*
X235932Y397648D01*
X237295Y399423D01*
X238151Y401491D01*
X238443Y403710D01*
Y416710D01*
X238151Y418929D01*
X237295Y420997D01*
X235932Y422772D01*
X234157Y424135D01*
X232089Y424991D01*
X229870Y425283D01*
X227651Y424991D01*
X225583Y424135D01*
X223808Y422772D01*
X222445Y420997D01*
X221589Y418929D01*
X221297Y416710D01*
Y403710D01*
X221589Y401491D01*
X222445Y399423D01*
X223808Y397648D01*
X224571Y397062D01*
X224621Y396833D01*
X224699Y396292D01*
X224772Y395192D01*
Y393700D01*
X224825Y393435D01*
X224800Y393166D01*
X225017Y392467D01*
X225160Y391749D01*
X225310Y391525D01*
X225390Y391267D01*
X225858Y390704D01*
X226265Y390095D01*
X226490Y389945D01*
X226662Y389738D01*
X253125Y368316D01*
X255685Y365756D01*
X254537Y362984D01*
X128096D01*
X107968Y383112D01*
Y394213D01*
X107999Y394537D01*
X108095Y395128D01*
X108229Y395696D01*
X108399Y396243D01*
X108606Y396773D01*
X108851Y397287D01*
X109135Y397789D01*
X109461Y398279D01*
X109881Y398827D01*
X109958Y398985D01*
X110295Y399423D01*
X111151Y401491D01*
X111443Y403710D01*
Y416710D01*
X111151Y418929D01*
X110295Y420997D01*
X108932Y422772D01*
X107157Y424135D01*
X105089Y424991D01*
X102870Y425283D01*
X100651Y424991D01*
X98583Y424135D01*
X96808Y422772D01*
X95445Y420997D01*
X94589Y418929D01*
X94297Y416710D01*
Y403710D01*
X94589Y401491D01*
X95445Y399423D01*
X95781Y398985D01*
X95859Y398827D01*
X96279Y398279D01*
X96605Y397789D01*
X96889Y397287D01*
X97134Y396773D01*
X97341Y396244D01*
X97511Y395696D01*
X97645Y395128D01*
X97741Y394537D01*
X97772Y394213D01*
Y381000D01*
X98160Y379049D01*
X99265Y377395D01*
X122379Y354281D01*
X124033Y353176D01*
X125984Y352788D01*
X254552D01*
X255032Y352017D01*
X253470Y348846D01*
X253051Y348791D01*
X250983Y347935D01*
X249208Y346572D01*
X247845Y344797D01*
X246989Y342729D01*
X246760Y340989D01*
X245662Y339557D01*
X244553Y336882D01*
X244175Y334010D01*
Y173228D01*
X244553Y170356D01*
X245662Y167680D01*
X247425Y165383D01*
X257876Y154932D01*
X256728Y152160D01*
X248040D01*
Y122160D01*
X265040D01*
Y143848D01*
X267812Y144996D01*
X316565Y96242D01*
Y91440D01*
X316943Y88568D01*
X318051Y85892D01*
X319815Y83595D01*
X322113Y81832D01*
X324788Y80723D01*
X327660Y80345D01*
X330532Y80723D01*
X333208Y81832D01*
X335505Y83595D01*
X337268Y85892D01*
X338377Y88568D01*
X338755Y91440D01*
Y100838D01*
X338377Y103710D01*
X337268Y106385D01*
X335505Y108683D01*
X266365Y177824D01*
Y274956D01*
X269137Y276104D01*
X327029Y218212D01*
X327348Y217831D01*
X327775Y217246D01*
X328134Y216675D01*
X328426Y216118D01*
X328657Y215574D01*
X328831Y215040D01*
X328951Y214514D01*
X329019Y213989D01*
X329034Y213590D01*
X329004Y213360D01*
X329347Y210749D01*
X330355Y208317D01*
X331958Y206228D01*
X334047Y204625D01*
X336479Y203617D01*
X339090Y203274D01*
X341701Y203617D01*
X344133Y204625D01*
X346222Y206228D01*
X347825Y208317D01*
X348833Y210749D01*
X349176Y213360D01*
X348833Y215970D01*
X347825Y218403D01*
X346222Y220492D01*
X344133Y222095D01*
X341701Y223103D01*
X339090Y223446D01*
X338860Y223416D01*
X338461Y223431D01*
X337936Y223500D01*
X337410Y223619D01*
X336876Y223793D01*
X336332Y224024D01*
X335774Y224316D01*
X335204Y224674D01*
X334620Y225102D01*
X334238Y225421D01*
X274338Y285322D01*
Y343183D01*
X277110Y344331D01*
X397645Y223796D01*
X395662Y221535D01*
X394933Y222095D01*
X392500Y223103D01*
X389890Y223446D01*
X387280Y223103D01*
X384847Y222095D01*
X382758Y220492D01*
X381155Y218403D01*
X380147Y215970D01*
X379804Y213360D01*
X380147Y210749D01*
X381155Y208317D01*
X382758Y206228D01*
X384847Y204625D01*
X387280Y203617D01*
X389890Y203274D01*
X392500Y203617D01*
X394933Y204625D01*
X397022Y206228D01*
X398625Y208317D01*
X399633Y210749D01*
X399976Y213360D01*
X399633Y215970D01*
X398625Y218403D01*
X398065Y219132D01*
X400326Y221115D01*
X403229Y218212D01*
X403548Y217831D01*
X403975Y217246D01*
X404334Y216675D01*
X404626Y216118D01*
X404857Y215574D01*
X405031Y215040D01*
X405150Y214514D01*
X405219Y213989D01*
X405234Y213590D01*
X405204Y213360D01*
X405547Y210749D01*
X406555Y208317D01*
X408158Y206228D01*
X410247Y204625D01*
X412679Y203617D01*
X415290Y203274D01*
X417901Y203617D01*
X420333Y204625D01*
X422422Y206228D01*
X424025Y208317D01*
X425033Y210749D01*
X425376Y213360D01*
X425033Y215970D01*
X424025Y218403D01*
X423465Y219132D01*
X425726Y221115D01*
X428629Y218212D01*
X428948Y217831D01*
X429375Y217246D01*
X429734Y216675D01*
X430026Y216118D01*
X430257Y215574D01*
X430431Y215040D01*
X430550Y214514D01*
X430619Y213989D01*
X430634Y213590D01*
X430604Y213360D01*
X430947Y210749D01*
X431955Y208317D01*
X433558Y206228D01*
X435647Y204625D01*
X438079Y203617D01*
X440690Y203274D01*
X443301Y203617D01*
X445733Y204625D01*
X447822Y206228D01*
X449425Y208317D01*
X450433Y210749D01*
X450776Y213360D01*
X450433Y215970D01*
X449425Y218403D01*
X447822Y220492D01*
X445733Y222095D01*
X443301Y223103D01*
X440690Y223446D01*
X440460Y223416D01*
X440061Y223431D01*
X439536Y223500D01*
X439010Y223619D01*
X438476Y223793D01*
X437932Y224024D01*
X437374Y224316D01*
X436804Y224674D01*
X436220Y225102D01*
X435838Y225421D01*
X377500Y283760D01*
X378742Y286760D01*
X381080D01*
Y317760D01*
X376025D01*
X375790Y318943D01*
X374685Y320597D01*
X373031Y321702D01*
X371080Y322090D01*
X344946D01*
X310914Y356122D01*
Y373700D01*
X312000Y374591D01*
X313759D01*
X315542Y373853D01*
X317500Y373595D01*
X346822D01*
X349364Y373512D01*
X350594Y373398D01*
X350854Y373356D01*
X352845Y371828D01*
X355399Y370770D01*
X358140Y370409D01*
X360881Y370770D01*
X363435Y371828D01*
X365530Y373435D01*
X366437D01*
X458525Y281347D01*
Y229636D01*
X458517Y229024D01*
X458333Y226038D01*
X457557Y223360D01*
X456090Y223360D01*
X456072Y220830D01*
X456090Y220737D01*
X456090Y220360D01*
Y203360D01*
X459324D01*
X459417Y203342D01*
X459510Y203360D01*
X464011D01*
X464843Y202885D01*
X466277Y201887D01*
X467396Y200941D01*
X466131Y198081D01*
X466090Y198087D01*
X463469Y197742D01*
X461027Y196730D01*
X458929Y195121D01*
X457320Y193023D01*
X456308Y190581D01*
X456131Y189230D01*
X466090D01*
Y187960D01*
X467360D01*
Y178001D01*
X468711Y178178D01*
X471153Y179190D01*
X474019Y177608D01*
Y161375D01*
X360087Y47443D01*
X264105D01*
Y50511D01*
X264821Y52241D01*
X265113Y54460D01*
Y67460D01*
X264821Y69679D01*
X264613Y70182D01*
X264105Y80512D01*
Y83820D01*
X263847Y85778D01*
X263091Y87602D01*
X261889Y89169D01*
X246649Y104409D01*
X245082Y105611D01*
X243258Y106367D01*
X241300Y106625D01*
X82127D01*
X71319Y117433D01*
Y121859D01*
X74319Y123339D01*
X74453Y123235D01*
X76521Y122379D01*
X78740Y122087D01*
X80959Y122379D01*
X83027Y123235D01*
X84802Y124598D01*
X86165Y126373D01*
X87021Y128441D01*
X87313Y130660D01*
Y143660D01*
X87021Y145879D01*
X86165Y147947D01*
X84802Y149722D01*
X83027Y151085D01*
X80959Y151941D01*
X78740Y152233D01*
X76521Y151941D01*
X74453Y151085D01*
X74319Y150981D01*
X71319Y152461D01*
Y319010D01*
X85970D01*
Y349010D01*
X71319D01*
Y368977D01*
X82819Y380477D01*
X82819Y380477D01*
X84021Y382044D01*
X84777Y383868D01*
X85035Y385826D01*
Y391280D01*
X85153Y398043D01*
X85273Y399750D01*
X85335Y400247D01*
X85375Y400452D01*
X85416Y400569D01*
X85441Y400742D01*
X85751Y401491D01*
X86043Y403710D01*
Y416710D01*
X85751Y418929D01*
X84895Y420997D01*
X83532Y422772D01*
X81757Y424135D01*
X79689Y424991D01*
X77470Y425283D01*
X75251Y424991D01*
X73183Y424135D01*
X71408Y422772D01*
X70045Y420997D01*
X69189Y418929D01*
X68897Y416710D01*
Y403710D01*
X69189Y401491D01*
X69397Y400988D01*
X69905Y390658D01*
Y388959D01*
X58405Y377459D01*
X57203Y375892D01*
X56447Y374068D01*
X56189Y372110D01*
Y114300D01*
X56447Y112342D01*
X57203Y110518D01*
X58405Y108951D01*
X73645Y93711D01*
X75212Y92509D01*
X77036Y91753D01*
X78994Y91495D01*
X238167D01*
X248975Y80687D01*
Y79890D01*
X248857Y73127D01*
X248737Y71420D01*
X248675Y70923D01*
X248635Y70718D01*
X248594Y70602D01*
X248569Y70428D01*
X248259Y69679D01*
X247967Y67460D01*
Y54460D01*
X248259Y52241D01*
X248975Y50511D01*
Y43688D01*
X249233Y41730D01*
X249989Y39906D01*
X251191Y38339D01*
X255001Y34529D01*
X256568Y33327D01*
X258392Y32571D01*
X260350Y32313D01*
X363220D01*
X365178Y32571D01*
X367002Y33327D01*
X368569Y34529D01*
X398504Y64464D01*
X401641Y63358D01*
X401713Y62812D01*
X402469Y60988D01*
X402812Y60541D01*
X403395Y58420D01*
X402812Y56299D01*
X402469Y55852D01*
X401713Y54028D01*
X401455Y52070D01*
X401713Y50112D01*
X402469Y48288D01*
X403671Y46721D01*
X402780Y43623D01*
X402434Y43172D01*
X401674Y41338D01*
X401582Y40640D01*
X426458D01*
X426366Y41338D01*
X425606Y43172D01*
X425260Y43623D01*
X424369Y46721D01*
X425571Y48288D01*
X426327Y50112D01*
X426585Y52070D01*
X426327Y54028D01*
X425571Y55852D01*
X425229Y56299D01*
X424645Y58420D01*
X425229Y60541D01*
X425571Y60988D01*
X426327Y62812D01*
X426585Y64770D01*
X426327Y66728D01*
X425571Y68552D01*
X424369Y70119D01*
X422802Y71321D01*
X420978Y72077D01*
X419020Y72335D01*
X410617D01*
X409375Y75335D01*
X486933Y152893D01*
X488135Y154460D01*
X488891Y156284D01*
X489149Y158242D01*
Y197866D01*
X488891Y199824D01*
X488135Y201648D01*
X486933Y203215D01*
X486933Y203215D01*
X482177Y207971D01*
X478885Y211516D01*
X477583Y213144D01*
X476565Y214607D01*
X476090Y215439D01*
Y219940D01*
X476109Y220033D01*
X476090Y220126D01*
X476090Y220737D01*
X476109Y220830D01*
X476090Y223360D01*
X474623D01*
X473908Y226064D01*
X473662Y229051D01*
X473655Y229636D01*
Y284480D01*
X473655Y284480D01*
X473397Y286438D01*
X472641Y288262D01*
X471439Y289829D01*
X471439Y289829D01*
X374919Y386349D01*
X373352Y387551D01*
X371528Y388307D01*
X369570Y388565D01*
X365530D01*
X363435Y390172D01*
X360881Y391230D01*
X358140Y391591D01*
X355399Y391230D01*
X352845Y390172D01*
X351343Y389019D01*
X346908Y388725D01*
X326000D01*
Y396350D01*
X326297Y396794D01*
X326569Y398160D01*
Y404160D01*
X326297Y405526D01*
X325523Y406683D01*
X324366Y407457D01*
X323000Y407729D01*
X312000D01*
X310634Y407457D01*
X309477Y406683D01*
X309053Y406049D01*
X308150Y405870D01*
X306496Y404765D01*
X302211Y400480D01*
X301106Y398826D01*
X300718Y396875D01*
Y354010D01*
X301106Y352059D01*
X302211Y350405D01*
X339229Y313387D01*
X340883Y312282D01*
X342834Y311894D01*
X361080D01*
Y289629D01*
X358080Y288387D01*
X260368Y386099D01*
Y394213D01*
X260399Y394537D01*
X260495Y395128D01*
X260629Y395696D01*
X260799Y396243D01*
X261006Y396773D01*
X261251Y397287D01*
X261535Y397789D01*
X261861Y398279D01*
X262281Y398827D01*
X262358Y398985D01*
X262695Y399423D01*
X263551Y401491D01*
X263843Y403710D01*
Y416710D01*
X263551Y418929D01*
X262695Y420997D01*
X261332Y422772D01*
X259557Y424135D01*
X257489Y424991D01*
X255270Y425283D01*
D02*
G37*
G36*
X520700Y384690D02*
X511930D01*
Y375920D01*
X520700D01*
Y384690D01*
D02*
G37*
G36*
X205740Y76033D02*
X203521Y75741D01*
X201453Y74885D01*
X199678Y73522D01*
X198315Y71747D01*
X197459Y69679D01*
X197167Y67460D01*
Y54460D01*
X197459Y52241D01*
X198315Y50173D01*
X199678Y48398D01*
X201453Y47035D01*
X203521Y46179D01*
X205740Y45887D01*
X207959Y46179D01*
X210027Y47035D01*
X211802Y48398D01*
X213165Y50173D01*
X214021Y52241D01*
X214313Y54460D01*
Y67460D01*
X214021Y69679D01*
X213165Y71747D01*
X211802Y73522D01*
X210027Y74885D01*
X207959Y75741D01*
X205740Y76033D01*
D02*
G37*
G36*
X459340Y393481D02*
Y382270D01*
X470551D01*
X470287Y384274D01*
X469024Y387324D01*
X467014Y389944D01*
X464394Y391954D01*
X461344Y393217D01*
X459340Y393481D01*
D02*
G37*
G36*
X456800D02*
X454797Y393217D01*
X451746Y391954D01*
X449127Y389944D01*
X447117Y387324D01*
X445853Y384274D01*
X445589Y382270D01*
X456800D01*
Y393481D01*
D02*
G37*
G36*
X154940Y425157D02*
Y411480D01*
X162284D01*
Y416710D01*
X161990Y418939D01*
X161130Y421017D01*
X159761Y422801D01*
X157977Y424170D01*
X155899Y425030D01*
X154940Y425157D01*
D02*
G37*
G36*
X152400D02*
X151441Y425030D01*
X149363Y424170D01*
X147579Y422801D01*
X146210Y421017D01*
X145350Y418939D01*
X145056Y416710D01*
Y411480D01*
X152400D01*
Y425157D01*
D02*
G37*
G36*
X180340D02*
Y411480D01*
X187684D01*
Y416710D01*
X187390Y418939D01*
X186530Y421017D01*
X185161Y422801D01*
X183377Y424170D01*
X181299Y425030D01*
X180340Y425157D01*
D02*
G37*
G36*
X177800D02*
X176841Y425030D01*
X174763Y424170D01*
X172979Y422801D01*
X171610Y421017D01*
X170750Y418939D01*
X170456Y416710D01*
Y411480D01*
X177800D01*
Y425157D01*
D02*
G37*
G36*
X358140Y416991D02*
X355399Y416630D01*
X352845Y415572D01*
X350651Y413889D01*
X348968Y411695D01*
X347910Y409141D01*
X347549Y406400D01*
X347910Y403659D01*
X348968Y401105D01*
X350651Y398911D01*
X352845Y397228D01*
X355399Y396170D01*
X358140Y395809D01*
X360881Y396170D01*
X363435Y397228D01*
X365629Y398911D01*
X367312Y401105D01*
X368370Y403659D01*
X368731Y406400D01*
X368370Y409141D01*
X367312Y411695D01*
X365629Y413889D01*
X363435Y415572D01*
X360881Y416630D01*
X358140Y416991D01*
D02*
G37*
G36*
X162284Y408940D02*
X154940D01*
Y395263D01*
X155899Y395390D01*
X157977Y396250D01*
X159761Y397619D01*
X161130Y399403D01*
X161990Y401481D01*
X162284Y403710D01*
Y408940D01*
D02*
G37*
G36*
X152400D02*
X145056D01*
Y403710D01*
X145350Y401481D01*
X146210Y399403D01*
X147579Y397619D01*
X149363Y396250D01*
X151441Y395390D01*
X152400Y395263D01*
Y408940D01*
D02*
G37*
G36*
X187684D02*
X180340D01*
Y395263D01*
X181299Y395390D01*
X183377Y396250D01*
X185161Y397619D01*
X186530Y399403D01*
X187390Y401481D01*
X187684Y403710D01*
Y408940D01*
D02*
G37*
G36*
X177800D02*
X170456D01*
Y403710D01*
X170750Y401481D01*
X171610Y399403D01*
X172979Y397619D01*
X174763Y396250D01*
X176841Y395390D01*
X177800Y395263D01*
Y408940D01*
D02*
G37*
G36*
X187684Y332740D02*
X180340D01*
Y319063D01*
X181299Y319190D01*
X183377Y320050D01*
X185161Y321419D01*
X186530Y323203D01*
X187390Y325281D01*
X187684Y327510D01*
Y332740D01*
D02*
G37*
G36*
X177800D02*
X170456D01*
Y327510D01*
X170750Y325281D01*
X171610Y323203D01*
X172979Y321419D01*
X174763Y320050D01*
X176841Y319190D01*
X177800Y319063D01*
Y332740D01*
D02*
G37*
G36*
X402430Y329767D02*
Y324104D01*
X408093D01*
X408019Y324672D01*
X407309Y326384D01*
X406181Y327855D01*
X404710Y328983D01*
X402998Y329693D01*
X402430Y329767D01*
D02*
G37*
G36*
X399890D02*
X399322Y329693D01*
X397610Y328983D01*
X396139Y327855D01*
X395011Y326384D01*
X394301Y324672D01*
X394226Y324104D01*
X399890D01*
Y329767D01*
D02*
G37*
G36*
X162284Y332740D02*
X154940D01*
Y319063D01*
X155899Y319190D01*
X157977Y320050D01*
X159761Y321419D01*
X161130Y323203D01*
X161990Y325281D01*
X162284Y327510D01*
Y332740D01*
D02*
G37*
G36*
X102870Y349083D02*
X100651Y348791D01*
X98583Y347935D01*
X96808Y346572D01*
X95445Y344797D01*
X94589Y342729D01*
X94297Y340510D01*
Y327510D01*
X94589Y325291D01*
X95445Y323223D01*
X96808Y321448D01*
X98583Y320085D01*
X100651Y319229D01*
X102870Y318937D01*
X105089Y319229D01*
X107157Y320085D01*
X108932Y321448D01*
X110295Y323223D01*
X111151Y325291D01*
X111443Y327510D01*
Y340510D01*
X111151Y342729D01*
X110295Y344797D01*
X108932Y346572D01*
X107157Y347935D01*
X105089Y348791D01*
X102870Y349083D01*
D02*
G37*
G36*
X408093Y321564D02*
X394226D01*
X394301Y320996D01*
X394382Y320800D01*
X392595Y317834D01*
X392539Y317800D01*
X391040D01*
Y303530D01*
X411120D01*
Y317800D01*
X409781D01*
X409725Y317834D01*
X407938Y320800D01*
X408019Y320996D01*
X408093Y321564D01*
D02*
G37*
G36*
X152400Y332740D02*
X145056D01*
Y327510D01*
X145350Y325281D01*
X146210Y323203D01*
X147579Y321419D01*
X149363Y320050D01*
X151441Y319190D01*
X152400Y319063D01*
Y332740D01*
D02*
G37*
G36*
X229870Y349083D02*
X227651Y348791D01*
X225583Y347935D01*
X223808Y346572D01*
X222445Y344797D01*
X221589Y342729D01*
X221297Y340510D01*
Y327510D01*
X221589Y325291D01*
X222445Y323223D01*
X223808Y321448D01*
X225583Y320085D01*
X227651Y319229D01*
X229870Y318937D01*
X232089Y319229D01*
X234157Y320085D01*
X235932Y321448D01*
X237295Y323223D01*
X238151Y325291D01*
X238443Y327510D01*
Y340510D01*
X238151Y342729D01*
X237295Y344797D01*
X235932Y346572D01*
X234157Y347935D01*
X232089Y348791D01*
X229870Y349083D01*
D02*
G37*
G36*
X415570Y393598D02*
X400570D01*
X398619Y393210D01*
X396965Y392105D01*
X395860Y390451D01*
X395472Y388500D01*
Y373500D01*
X395860Y371549D01*
X396965Y369895D01*
X398619Y368790D01*
X400570Y368402D01*
X415570D01*
X417521Y368790D01*
X419175Y369895D01*
X420280Y371549D01*
X420668Y373500D01*
Y388500D01*
X420280Y390451D01*
X419175Y392105D01*
X417521Y393210D01*
X415570Y393598D01*
D02*
G37*
G36*
X520700Y373380D02*
X511930D01*
Y364610D01*
X520700D01*
Y373380D01*
D02*
G37*
G36*
X470551Y379730D02*
X459340D01*
Y368519D01*
X461344Y368783D01*
X464394Y370046D01*
X467014Y372056D01*
X469024Y374676D01*
X470287Y377726D01*
X470551Y379730D01*
D02*
G37*
G36*
X456800D02*
X445589D01*
X445853Y377726D01*
X447117Y374676D01*
X449127Y372056D01*
X451746Y370046D01*
X454797Y368783D01*
X456800Y368519D01*
Y379730D01*
D02*
G37*
G36*
X368640Y366100D02*
X347640D01*
Y345100D01*
X368640D01*
Y366100D01*
D02*
G37*
G36*
X154940Y348956D02*
Y335280D01*
X162284D01*
Y340510D01*
X161990Y342739D01*
X161130Y344817D01*
X159761Y346601D01*
X157977Y347970D01*
X155899Y348830D01*
X154940Y348956D01*
D02*
G37*
G36*
X152400D02*
X151441Y348830D01*
X149363Y347970D01*
X147579Y346601D01*
X146210Y344817D01*
X145350Y342739D01*
X145056Y340510D01*
Y335280D01*
X152400D01*
Y348956D01*
D02*
G37*
G36*
X180340D02*
Y335280D01*
X187684D01*
Y340510D01*
X187390Y342739D01*
X186530Y344817D01*
X185161Y346601D01*
X183377Y347970D01*
X181299Y348830D01*
X180340Y348956D01*
D02*
G37*
G36*
X177800D02*
X176841Y348830D01*
X174763Y347970D01*
X172979Y346601D01*
X171610Y344817D01*
X170750Y342739D01*
X170456Y340510D01*
Y335280D01*
X177800D01*
Y348956D01*
D02*
G37*
%LPD*%
G36*
X352316Y375515D02*
X352137Y375638D01*
X351844Y375747D01*
X351436Y375844D01*
X350913Y375928D01*
X349524Y376057D01*
X346581Y376154D01*
X345370Y376160D01*
X345627Y386160D01*
X346839Y386166D01*
X352083Y386514D01*
X352369Y386608D01*
X352540Y386713D01*
X352316Y375515D01*
D02*
G37*
G36*
X198560Y281789D02*
X196276Y279476D01*
X188463Y270641D01*
X187621Y269421D01*
X187020Y268382D01*
X186660Y267525D01*
X186539Y266850D01*
X171600Y281789D01*
X172275Y281910D01*
X173132Y282270D01*
X174171Y282871D01*
X175392Y283713D01*
X176794Y284795D01*
X180146Y287680D01*
X186539Y293810D01*
X198560Y281789D01*
D02*
G37*
G36*
X423045Y223796D02*
X421062Y221535D01*
X420333Y222095D01*
X417901Y223103D01*
X415290Y223446D01*
X415060Y223416D01*
X414661Y223431D01*
X414136Y223500D01*
X413610Y223619D01*
X413076Y223793D01*
X412532Y224024D01*
X411974Y224316D01*
X411404Y224674D01*
X410820Y225102D01*
X410438Y225421D01*
X362297Y273562D01*
X363445Y276334D01*
X370506D01*
X423045Y223796D01*
D02*
G37*
G36*
X82909Y401122D02*
X82817Y400650D01*
X82736Y399998D01*
X82605Y398154D01*
X82470Y390401D01*
X72470D01*
X71928Y401414D01*
X83012D01*
X82909Y401122D01*
D02*
G37*
G36*
X233579Y399247D02*
X233325Y399079D01*
X233101Y398799D01*
X232907Y398407D01*
X232743Y397902D01*
X232609Y397286D01*
X232504Y396558D01*
X232430Y395717D01*
X232370Y393700D01*
X227370D01*
X227355Y394765D01*
X227236Y396558D01*
X227131Y397286D01*
X226997Y397902D01*
X226833Y398407D01*
X226639Y398799D01*
X226415Y399079D01*
X226161Y399247D01*
X225878Y399303D01*
X233862D01*
X233579Y399247D01*
D02*
G37*
G36*
X259785Y399761D02*
X259362Y399123D01*
X258989Y398465D01*
X258666Y397787D01*
X258392Y397087D01*
X258168Y396367D01*
X257994Y395625D01*
X257869Y394864D01*
X257795Y394081D01*
X257770Y393278D01*
X252770D01*
X252745Y394081D01*
X252670Y394864D01*
X252546Y395625D01*
X252372Y396367D01*
X252148Y397087D01*
X251875Y397787D01*
X251551Y398465D01*
X251178Y399123D01*
X250755Y399761D01*
X250282Y400378D01*
X260257D01*
X259785Y399761D01*
D02*
G37*
G36*
X107385D02*
X106962Y399123D01*
X106589Y398465D01*
X106265Y397787D01*
X105992Y397087D01*
X105768Y396367D01*
X105594Y395625D01*
X105470Y394864D01*
X105395Y394081D01*
X105370Y393278D01*
X100370D01*
X100345Y394081D01*
X100271Y394864D01*
X100146Y395625D01*
X99972Y396367D01*
X99748Y397087D01*
X99474Y397787D01*
X99151Y398465D01*
X98778Y399123D01*
X98355Y399761D01*
X97882Y400378D01*
X107858D01*
X107385Y399761D01*
D02*
G37*
G36*
X472994Y219255D02*
X472711Y218336D01*
Y217275D01*
X472994Y216073D01*
X473559Y214729D01*
X474408Y213244D01*
X475539Y211618D01*
X476954Y209850D01*
X480631Y205891D01*
X473559Y198819D01*
X471509Y200799D01*
X467832Y203911D01*
X466206Y205042D01*
X464721Y205891D01*
X463377Y206456D01*
X462175Y206739D01*
X461114D01*
X460195Y206456D01*
X459417Y205891D01*
X473559Y220033D01*
X472994Y219255D01*
D02*
G37*
G36*
X162409Y193190D02*
X161735Y193070D01*
X160878Y192710D01*
X159839Y192109D01*
X158618Y191267D01*
X157216Y190185D01*
X153864Y187300D01*
X147471Y181170D01*
X135450Y193190D01*
X137734Y195504D01*
X145547Y204338D01*
X146389Y205559D01*
X146990Y206598D01*
X147350Y207455D01*
X147471Y208130D01*
X162409Y193190D01*
D02*
G37*
G36*
X262082Y69756D02*
X250998D01*
X251101Y70048D01*
X251193Y70520D01*
X251275Y71172D01*
X251405Y73016D01*
X251540Y80769D01*
X261540D01*
X262082Y69756D01*
D02*
G37*
G36*
X332328Y223696D02*
X333047Y223094D01*
X333772Y222564D01*
X334503Y222105D01*
X335240Y221718D01*
X335983Y221403D01*
X336732Y221159D01*
X337487Y220988D01*
X338248Y220888D01*
X339015Y220860D01*
X331590Y213435D01*
X331562Y214202D01*
X331462Y214963D01*
X331291Y215718D01*
X331047Y216467D01*
X330732Y217210D01*
X330345Y217947D01*
X329886Y218678D01*
X329356Y219403D01*
X328754Y220122D01*
X328080Y220835D01*
X331615Y224370D01*
X332328Y223696D01*
D02*
G37*
G36*
X471115Y228930D02*
X471485Y224429D01*
X471707Y223330D01*
X471979Y222430D01*
X472300Y221730D01*
X472671Y221229D01*
X473090Y220930D01*
X473559Y220830D01*
X458620D01*
X459090Y220930D01*
X459510Y221229D01*
X459880Y221730D01*
X460201Y222430D01*
X460473Y223330D01*
X460695Y224429D01*
X460868Y225730D01*
X461065Y228930D01*
X461090Y230830D01*
X471090D01*
X471115Y228930D01*
D02*
G37*
G36*
X433928Y223696D02*
X434647Y223094D01*
X435372Y222564D01*
X436103Y222105D01*
X436840Y221718D01*
X437583Y221403D01*
X438332Y221159D01*
X439087Y220988D01*
X439848Y220888D01*
X440615Y220860D01*
X433190Y213435D01*
X433162Y214202D01*
X433062Y214963D01*
X432891Y215718D01*
X432647Y216467D01*
X432332Y217210D01*
X431945Y217947D01*
X431486Y218678D01*
X430956Y219403D01*
X430354Y220122D01*
X429680Y220835D01*
X433215Y224370D01*
X433928Y223696D01*
D02*
G37*
G36*
X408528D02*
X409247Y223094D01*
X409972Y222564D01*
X410703Y222105D01*
X411440Y221718D01*
X412183Y221403D01*
X412932Y221159D01*
X413687Y220988D01*
X414448Y220888D01*
X415215Y220860D01*
X407790Y213435D01*
X407762Y214202D01*
X407662Y214963D01*
X407491Y215718D01*
X407247Y216467D01*
X406932Y217210D01*
X406545Y217947D01*
X406086Y218678D01*
X405556Y219403D01*
X404954Y220122D01*
X404280Y220835D01*
X407815Y224370D01*
X408528Y223696D01*
D02*
G37*
D10*
X317500Y381160D02*
D03*
Y401160D02*
D03*
D11*
X401080Y302260D02*
D03*
X371080D02*
D03*
D12*
X466090Y213360D02*
X481584Y197866D01*
Y158242D02*
Y197866D01*
X363220Y39878D02*
X481584Y158242D01*
X260350Y39878D02*
X363220D01*
X256540Y43688D02*
X260350Y39878D01*
X256540Y43688D02*
Y60960D01*
X358140Y381000D02*
X369570D01*
X466090Y284480D01*
Y213360D02*
Y284480D01*
X357980Y381160D02*
X358140Y381000D01*
X317500Y381160D02*
X357980D01*
X256540Y60960D02*
Y83820D01*
X241300Y99060D02*
X256540Y83820D01*
X78994Y99060D02*
X241300D01*
X63754Y114300D02*
X78994Y99060D01*
X63754Y114300D02*
Y372110D01*
X77470Y385826D01*
Y410210D01*
D13*
X401080Y322754D02*
X401160Y322834D01*
X401080Y302260D02*
Y322754D01*
D14*
X310101Y401160D02*
X317500D01*
X305816Y396875D02*
X310101Y401160D01*
X305816Y354010D02*
Y396875D01*
Y354010D02*
X342834Y316992D01*
X371080Y302260D02*
Y316992D01*
X372618Y281432D02*
X440690Y213360D01*
X357825Y281432D02*
X372618D01*
X255270Y383987D02*
X357825Y281432D01*
X255270Y383987D02*
Y410210D01*
X269240Y283210D02*
X339090Y213360D01*
X269240Y283210D02*
Y347218D01*
X258572Y357886D02*
X269240Y347218D01*
X125984Y357886D02*
X258572D01*
X102870Y381000D02*
X125984Y357886D01*
X102870Y381000D02*
Y410210D01*
X229870Y393700D02*
Y410210D01*
Y393700D02*
X256540Y372110D01*
X415290Y213360D01*
X342834Y316992D02*
X371080D01*
D15*
X179070Y274320D02*
X204470Y299720D01*
Y334010D01*
X128270Y299720D02*
X153670Y274320D01*
X128270Y299720D02*
Y334010D01*
Y445770D02*
X153670Y471170D01*
X128270Y410210D02*
Y445770D01*
X179070Y471170D02*
X204470Y445770D01*
Y410210D02*
Y445770D01*
X129540Y175260D02*
X154940Y200660D01*
X129540Y137160D02*
Y175260D01*
X180340Y200660D02*
X205740Y175260D01*
Y137160D02*
Y175260D01*
X255270Y173228D02*
Y334010D01*
Y173228D02*
X327660Y100838D01*
Y91440D02*
Y100838D01*
D16*
X28569Y83971D02*
X25237Y87304D01*
X18572D01*
X15240Y83971D01*
Y70642D01*
X18572Y67310D01*
X25237D01*
X28569Y70642D01*
X48563Y83971D02*
X45230Y87304D01*
X38566D01*
X35234Y83971D01*
Y80639D01*
X38566Y77307D01*
X45230D01*
X48563Y73974D01*
Y70642D01*
X45230Y67310D01*
X38566D01*
X35234Y70642D01*
D17*
X521970Y27940D02*
D03*
X27940D02*
D03*
X521970Y472440D02*
D03*
X27940D02*
D03*
D18*
X358140Y406400D02*
D03*
Y381000D02*
D03*
D19*
Y355600D02*
D03*
D20*
X521970Y374650D02*
D03*
X327660Y66040D02*
D03*
D21*
X521970Y349250D02*
D03*
X327660Y91440D02*
D03*
X180340Y200660D02*
D03*
X339090Y187960D02*
D03*
Y213360D02*
D03*
X364490Y187960D02*
D03*
Y213360D02*
D03*
X389890Y187960D02*
D03*
Y213360D02*
D03*
X415290Y187960D02*
D03*
Y213360D02*
D03*
X440690Y187960D02*
D03*
Y213360D02*
D03*
X466090Y187960D02*
D03*
X179070Y471170D02*
D03*
X153670Y274320D02*
D03*
D22*
X458070Y381000D02*
D03*
D23*
X408070D02*
D03*
D24*
X414020Y64770D02*
D03*
Y52070D02*
D03*
D25*
Y39370D02*
D03*
D26*
X78740Y60960D02*
D03*
X104140D02*
D03*
X129540D02*
D03*
X154940D02*
D03*
X180340D02*
D03*
X205740D02*
D03*
X231140D02*
D03*
X256540D02*
D03*
X78740Y137160D02*
D03*
X104140D02*
D03*
X129540D02*
D03*
X154940D02*
D03*
X180340D02*
D03*
X205740D02*
D03*
X231140D02*
D03*
X255270Y410210D02*
D03*
X229870D02*
D03*
X204470D02*
D03*
X179070D02*
D03*
X153670D02*
D03*
X128270D02*
D03*
X102870D02*
D03*
X77470D02*
D03*
X255270Y334010D02*
D03*
X229870D02*
D03*
X204470D02*
D03*
X179070D02*
D03*
X153670D02*
D03*
X128270D02*
D03*
X102870D02*
D03*
D27*
X256540Y137160D02*
D03*
X77470Y334010D02*
D03*
D28*
X154940Y200660D02*
D03*
X466090Y213360D02*
D03*
X153670Y471170D02*
D03*
X179070Y274320D02*
D03*
D29*
X401160Y322834D02*
D03*
M02*
