G04 Layer_Color=16711935*
%FSLAX44Y44*%
%MOMM*%
G71*
G01*
G75*
%ADD16C,0.2540*%
%ADD37C,0.1524*%
%ADD60C,0.3000*%
%ADD61C,0.1000*%
D16*
X-104140Y500000D02*
X-4040D01*
X-104140Y0D02*
X-4040D01*
X-101600Y319827D02*
Y500000D01*
Y0D02*
Y172045D01*
X-106680Y484760D02*
X-101600Y500000D01*
X-96520Y484760D01*
X-101600Y0D02*
X-96520Y15240D01*
X-106680D02*
X-101600Y0D01*
X550000Y-71120D02*
Y-4040D01*
X0Y-71120D02*
Y-4040D01*
X344827Y-68580D02*
X550000D01*
X0D02*
X197045D01*
X534760Y-63500D02*
X550000Y-68580D01*
X534760Y-73660D02*
X550000Y-68580D01*
X0D02*
X15240Y-73660D01*
X0Y-68580D02*
X15240Y-63500D01*
D37*
X-105154Y186265D02*
Y176109D01*
X-97537D01*
X-100076Y181187D01*
Y183726D01*
X-97537Y186265D01*
X-92458D01*
X-89919Y183726D01*
Y178648D01*
X-92458Y176109D01*
X-102615Y191344D02*
X-105154Y193883D01*
Y198961D01*
X-102615Y201500D01*
X-92458D01*
X-89919Y198961D01*
Y193883D01*
X-92458Y191344D01*
X-102615D01*
X-87380Y209118D02*
X-89919Y211657D01*
X-92458D01*
Y209118D01*
X-89919D01*
Y211657D01*
X-87380Y209118D01*
X-84841Y206579D01*
X-102615Y221814D02*
X-105154Y224353D01*
Y229431D01*
X-102615Y231971D01*
X-92458D01*
X-89919Y229431D01*
Y224353D01*
X-92458Y221814D01*
X-102615D01*
Y237049D02*
X-105154Y239588D01*
Y244666D01*
X-102615Y247206D01*
X-92458D01*
X-89919Y244666D01*
Y239588D01*
X-92458Y237049D01*
X-102615D01*
X-89919Y272597D02*
X-94998Y267519D01*
X-100076D01*
X-105154Y272597D01*
X-89919Y280215D02*
X-100076D01*
Y282754D01*
X-97537Y285293D01*
X-89919D01*
X-97537D01*
X-100076Y287832D01*
X-97537Y290372D01*
X-89919D01*
Y295450D02*
X-100076D01*
Y297989D01*
X-97537Y300528D01*
X-89919D01*
X-97537D01*
X-100076Y303067D01*
X-97537Y305607D01*
X-89919D01*
Y310685D02*
X-94998Y315763D01*
X-100076D01*
X-105154Y310685D01*
X211265Y-65026D02*
X201109D01*
Y-72643D01*
X206187Y-70104D01*
X208726D01*
X211265Y-72643D01*
Y-77722D01*
X208726Y-80261D01*
X203648D01*
X201109Y-77722D01*
X226500Y-65026D02*
X216344D01*
Y-72643D01*
X221422Y-70104D01*
X223961D01*
X226500Y-72643D01*
Y-77722D01*
X223961Y-80261D01*
X218883D01*
X216344Y-77722D01*
X234118Y-82800D02*
X236657Y-80261D01*
Y-77722D01*
X234118D01*
Y-80261D01*
X236657D01*
X234118Y-82800D01*
X231579Y-85339D01*
X246814Y-67565D02*
X249353Y-65026D01*
X254431D01*
X256971Y-67565D01*
Y-77722D01*
X254431Y-80261D01*
X249353D01*
X246814Y-77722D01*
Y-67565D01*
X262049D02*
X264588Y-65026D01*
X269666D01*
X272206Y-67565D01*
Y-77722D01*
X269666Y-80261D01*
X264588D01*
X262049Y-77722D01*
Y-67565D01*
X297597Y-80261D02*
X292519Y-75182D01*
Y-70104D01*
X297597Y-65026D01*
X305215Y-80261D02*
Y-70104D01*
X307754D01*
X310293Y-72643D01*
Y-80261D01*
Y-72643D01*
X312832Y-70104D01*
X315372Y-72643D01*
Y-80261D01*
X320450D02*
Y-70104D01*
X322989D01*
X325528Y-72643D01*
Y-80261D01*
Y-72643D01*
X328068Y-70104D01*
X330607Y-72643D01*
Y-80261D01*
X335685D02*
X340763Y-75182D01*
Y-70104D01*
X335685Y-65026D01*
D60*
X0Y0D02*
Y500000D01*
Y0D02*
X550000D01*
Y500000D01*
X0D02*
X550000D01*
D61*
X386080Y300260D02*
Y304260D01*
X384080Y302260D02*
X388080D01*
M02*
