M48
;Layer_Color=9474304
;FILE_FORMAT=4:4
METRIC,LZ
;TYPE=PLATED
T1F00S00C0.4000
T2F00S00C0.6000
T3F00S00C0.9000
T4F00S00C1.0000
T5F00S00C3.4000
%
T01
X0040116Y00322834
T02
X0007874Y0006096
X0010414
X0012954
X0015494
X0018034
X0020574
X0023114
X0025654
Y0013716
X0023114
X0020574
X0018034
X0015494
X0012954
X0010414
X0007874
X0007747Y0033401
X0010287
X0012827
X0015367
X0017907
X0020447
X0022987
X0025527
Y0041021
X0022987
X0020447
X0017907
X0015367
X0012827
X0010287
X0007747
T03
X0015494Y0020066
X0018034
X0017907Y0027432
X0015367
X0033909Y0021336
Y0018796
X0036449
Y0021336
X0038989
Y0018796
X0041529
Y0021336
X0044069
Y0018796
X0046609
Y0021336
X0045807Y00381
X0040807
X0052197Y0037465
Y0034925
X0041402Y0006477
Y0005207
Y0003937
X0032766Y0006604
Y0009144
X0017907Y0047117
X0015367
T04
X0035814Y003556
Y00381
Y004064
T05
X0052197Y0002794
X0002794
X0052197Y0047244
X0002794
M30
