G04 Layer_Color=32896*
%FSLAX44Y44*%
%MOMM*%
G71*
G01*
G75*
%ADD16C,0.2540*%
%ADD39C,0.1270*%
G36*
X524510Y113634D02*
X518741D01*
Y97790D01*
X516339D01*
Y113634D01*
X510482D01*
Y115537D01*
X524510D01*
Y113634D01*
D02*
G37*
G36*
X507963Y97790D02*
X497010D01*
Y99664D01*
X505562D01*
Y106019D01*
X498270D01*
Y107894D01*
X505562D01*
Y113634D01*
X497157D01*
Y115537D01*
X507963D01*
Y97790D01*
D02*
G37*
G36*
X495722D02*
X493262D01*
X491680Y102359D01*
X484974D01*
X483422Y97790D01*
X480961D01*
X487258Y115537D01*
X489308D01*
X495722Y97790D01*
D02*
G37*
G36*
X478384D02*
X475983D01*
Y111525D01*
X475895D01*
X470360Y97790D01*
X468690D01*
X463302Y111086D01*
X463243D01*
Y97790D01*
X460842D01*
Y115537D01*
X463829D01*
X469481Y101099D01*
X469569D01*
X475221Y115537D01*
X478384D01*
Y97790D01*
D02*
G37*
G36*
X450152Y115127D02*
Y113282D01*
X446287Y113312D01*
Y97790D01*
X443885D01*
Y115801D01*
X450152Y115127D01*
D02*
G37*
G36*
X431790Y115772D02*
X432229Y115742D01*
X433020Y115567D01*
X433723Y115362D01*
X434279Y115098D01*
X434543Y114952D01*
X434748Y114835D01*
X434953Y114688D01*
X435099Y114600D01*
X435216Y114512D01*
X435304Y114425D01*
X435363Y114395D01*
X435392Y114366D01*
X435656Y114102D01*
X435890Y113810D01*
X436095Y113546D01*
X436271Y113253D01*
X436534Y112667D01*
X436710Y112140D01*
X436827Y111672D01*
X436856Y111467D01*
Y111291D01*
X436886Y111174D01*
Y111057D01*
Y110998D01*
Y110969D01*
X436856Y110881D01*
X434572D01*
X434543Y111349D01*
X434426Y111760D01*
X434279Y112111D01*
X434104Y112433D01*
X433957Y112697D01*
X433811Y112872D01*
X433694Y112990D01*
X433664Y113019D01*
X433313Y113312D01*
X432932Y113517D01*
X432522Y113692D01*
X432171Y113780D01*
X431848Y113839D01*
X431585Y113897D01*
X431351D01*
X430853Y113868D01*
X430413Y113780D01*
X430062Y113634D01*
X429740Y113487D01*
X429506Y113341D01*
X429359Y113195D01*
X429242Y113107D01*
X429213Y113077D01*
X428978Y112755D01*
X428803Y112404D01*
X428656Y112023D01*
X428568Y111701D01*
X428510Y111379D01*
X428481Y111145D01*
Y110969D01*
Y110940D01*
Y110910D01*
X428510Y110412D01*
X428598Y109944D01*
X428686Y109563D01*
X428803Y109241D01*
X428949Y108977D01*
X429037Y108802D01*
X429125Y108685D01*
X429154Y108655D01*
X429447Y108392D01*
X429769Y108187D01*
X430150Y108069D01*
X430531Y107952D01*
X430853Y107894D01*
X431146Y107865D01*
X433401D01*
Y106019D01*
X431409D01*
X430823Y105990D01*
X430355Y105902D01*
X429916Y105756D01*
X429593Y105609D01*
X429330Y105434D01*
X429154Y105317D01*
X429037Y105199D01*
X429008Y105170D01*
X428744Y104819D01*
X428539Y104438D01*
X428422Y104028D01*
X428305Y103618D01*
X428246Y103266D01*
X428217Y102944D01*
Y102827D01*
Y102769D01*
Y102710D01*
Y102681D01*
X428246Y102154D01*
X428334Y101685D01*
X428481Y101275D01*
X428627Y100953D01*
X428803Y100660D01*
X428920Y100484D01*
X429037Y100338D01*
X429066Y100309D01*
X429388Y100016D01*
X429769Y99782D01*
X430150Y99635D01*
X430501Y99518D01*
X430853Y99459D01*
X431116Y99430D01*
X431292Y99401D01*
X431351D01*
X431878Y99430D01*
X432346Y99547D01*
X432786Y99694D01*
X433137Y99840D01*
X433401Y100016D01*
X433606Y100133D01*
X433723Y100250D01*
X433781Y100279D01*
X434074Y100631D01*
X434309Y100982D01*
X434455Y101363D01*
X434572Y101685D01*
X434631Y102007D01*
X434660Y102241D01*
X434689Y102388D01*
Y102446D01*
X437003D01*
X437032Y102388D01*
Y101978D01*
X436973Y101597D01*
X436886Y101246D01*
X436798Y100924D01*
X436534Y100309D01*
X436212Y99811D01*
X435919Y99401D01*
X435626Y99108D01*
X435509Y99020D01*
X435421Y98932D01*
X435392Y98903D01*
X435363Y98874D01*
X435041Y98639D01*
X434689Y98434D01*
X434016Y98112D01*
X433342Y97878D01*
X432698Y97731D01*
X432171Y97614D01*
X431936Y97585D01*
X431731D01*
X431585Y97556D01*
X431351D01*
X430911Y97585D01*
X430472Y97614D01*
X429681Y97761D01*
X429008Y97995D01*
X428422Y98229D01*
X428188Y98346D01*
X427983Y98464D01*
X427807Y98581D01*
X427631Y98698D01*
X427514Y98786D01*
X427426Y98844D01*
X427397Y98903D01*
X427368D01*
X427104Y99166D01*
X426841Y99459D01*
X426636Y99782D01*
X426460Y100074D01*
X426196Y100719D01*
X426021Y101334D01*
X425903Y101890D01*
X425874Y102124D01*
X425845Y102329D01*
X425816Y102505D01*
Y102622D01*
Y102710D01*
Y102739D01*
X425845Y103296D01*
X425933Y103794D01*
X426050Y104262D01*
X426167Y104643D01*
X426284Y104965D01*
X426401Y105170D01*
X426489Y105317D01*
X426518Y105375D01*
X426811Y105756D01*
X427133Y106078D01*
X427455Y106371D01*
X427778Y106576D01*
X428070Y106752D01*
X428334Y106898D01*
X428481Y106957D01*
X428510Y106986D01*
X428539D01*
X428129Y107220D01*
X427748Y107484D01*
X427455Y107747D01*
X427192Y108011D01*
X426987Y108245D01*
X426841Y108421D01*
X426753Y108538D01*
X426723Y108597D01*
X426518Y108977D01*
X426343Y109387D01*
X426226Y109768D01*
X426167Y110119D01*
X426108Y110412D01*
X426079Y110647D01*
Y110793D01*
Y110852D01*
X426108Y111291D01*
X426138Y111701D01*
X426284Y112462D01*
X426518Y113077D01*
X426782Y113604D01*
X427046Y114015D01*
X427251Y114307D01*
X427426Y114483D01*
X427455Y114542D01*
X427485D01*
X427748Y114776D01*
X428041Y114952D01*
X428686Y115274D01*
X429330Y115508D01*
X429945Y115655D01*
X430501Y115742D01*
X430736Y115772D01*
X430941D01*
X431116Y115801D01*
X431351D01*
X431790Y115772D01*
D02*
G37*
%LPC*%
G36*
X488341Y111994D02*
X488254D01*
X485676Y104350D01*
X490977D01*
X488341Y111994D01*
D02*
G37*
%LPD*%
D16*
X471170Y64770D02*
Y80005D01*
X463553D01*
X461013Y77466D01*
Y72387D01*
X463553Y69848D01*
X471170D01*
X466092D02*
X461013Y64770D01*
X448317D02*
Y80005D01*
X455935Y72387D01*
X445778D01*
X386080Y309880D02*
Y325115D01*
X378462D01*
X375923Y322576D01*
Y317498D01*
X378462Y314958D01*
X386080D01*
X381002D02*
X375923Y309880D01*
X370845Y322576D02*
X368306Y325115D01*
X363227D01*
X360688Y322576D01*
Y320037D01*
X363227Y317498D01*
X365767D01*
X363227D01*
X360688Y314958D01*
Y312419D01*
X363227Y309880D01*
X368306D01*
X370845Y312419D01*
X373380Y388620D02*
X388615D01*
Y396237D01*
X386076Y398777D01*
X380998D01*
X378458Y396237D01*
Y388620D01*
Y393698D02*
X373380Y398777D01*
Y403855D02*
Y408933D01*
Y406394D01*
X388615D01*
X386076Y403855D01*
X491493Y316226D02*
X494033Y318765D01*
X499111D01*
X501650Y316226D01*
Y306069D01*
X499111Y303530D01*
X494033D01*
X491493Y306069D01*
X476258Y318765D02*
X486415D01*
Y311147D01*
X481337Y313687D01*
X478797D01*
X476258Y311147D01*
Y306069D01*
X478797Y303530D01*
X483876D01*
X486415Y306069D01*
X311153Y450846D02*
X313692Y453385D01*
X318771D01*
X321310Y450846D01*
Y440689D01*
X318771Y438150D01*
X313692D01*
X311153Y440689D01*
X298457Y438150D02*
Y453385D01*
X306075Y445768D01*
X295918D01*
X474983Y417826D02*
X477523Y420365D01*
X482601D01*
X485140Y417826D01*
Y407669D01*
X482601Y405130D01*
X477523D01*
X474983Y407669D01*
X469905Y417826D02*
X467366Y420365D01*
X462287D01*
X459748Y417826D01*
Y415287D01*
X462287Y412747D01*
X464827D01*
X462287D01*
X459748Y410208D01*
Y407669D01*
X462287Y405130D01*
X467366D01*
X469905Y407669D01*
X467363Y449576D02*
X469902Y452115D01*
X474981D01*
X477520Y449576D01*
Y439419D01*
X474981Y436880D01*
X469902D01*
X467363Y439419D01*
X452128Y436880D02*
X462285D01*
X452128Y447037D01*
Y449576D01*
X454667Y452115D01*
X459746D01*
X462285Y449576D01*
D39*
X374650Y361950D02*
Y369570D01*
X387350Y361950D02*
Y369570D01*
X445580Y303658D02*
Y321182D01*
X453580Y303658D02*
Y321182D01*
X454660Y45720D02*
X462280D01*
X454660Y58420D02*
X462280D01*
X387350Y331470D02*
X394970D01*
X387350Y344170D02*
X394970D01*
X432026Y437988D02*
Y451012D01*
X429034Y437988D02*
Y451012D01*
X427800Y403988D02*
Y421512D01*
X435800Y403988D02*
Y421512D01*
X308738Y406210D02*
X326262D01*
X308738Y414210D02*
X326262D01*
M02*
