G04 Layer_Physical_Order=2*
G04 Layer_Color=16711680*
%FSLAX44Y44*%
%MOMM*%
G71*
G01*
G75*
G04:AMPARAMS|DCode=10|XSize=1.3mm|YSize=0.8mm|CornerRadius=0.1mm|HoleSize=0mm|Usage=FLASHONLY|Rotation=180.000|XOffset=0mm|YOffset=0mm|HoleType=Round|Shape=RoundedRectangle|*
%AMROUNDEDRECTD10*
21,1,1.3000,0.6000,0,0,180.0*
21,1,1.1000,0.8000,0,0,180.0*
1,1,0.2000,-0.5500,0.3000*
1,1,0.2000,0.5500,0.3000*
1,1,0.2000,0.5500,-0.3000*
1,1,0.2000,-0.5500,-0.3000*
%
%ADD10ROUNDEDRECTD10*%
%ADD12C,1.0000*%
%ADD14C,0.5000*%
%ADD15C,1.7000*%
%ADD16C,0.2540*%
%ADD17C,5.0000*%
%ADD18C,1.6000*%
%ADD19R,1.6000X1.6000*%
%ADD20R,1.5000X1.5000*%
%ADD21C,1.5000*%
%ADD22C,2.0000*%
G04:AMPARAMS|DCode=23|XSize=2mm|YSize=2mm|CornerRadius=0.25mm|HoleSize=0mm|Usage=FLASHONLY|Rotation=0.000|XOffset=0mm|YOffset=0mm|HoleType=Round|Shape=RoundedRectangle|*
%AMROUNDEDRECTD23*
21,1,2.0000,1.5000,0,0,0.0*
21,1,1.5000,2.0000,0,0,0.0*
1,1,0.5000,0.7500,-0.7500*
1,1,0.5000,-0.7500,-0.7500*
1,1,0.5000,-0.7500,0.7500*
1,1,0.5000,0.7500,0.7500*
%
%ADD23ROUNDEDRECTD23*%
%ADD24O,2.0000X1.0000*%
%ADD25O,2.0000X1.0000*%
%ADD26O,1.2000X2.5000*%
%ADD27R,1.2000X2.5000*%
%ADD28R,1.5000X1.5000*%
%ADD29C,0.9000*%
G04:AMPARAMS|DCode=30|XSize=1.8mm|YSize=1.15mm|CornerRadius=0.1437mm|HoleSize=0mm|Usage=FLASHONLY|Rotation=270.000|XOffset=0mm|YOffset=0mm|HoleType=Round|Shape=RoundedRectangle|*
%AMROUNDEDRECTD30*
21,1,1.8000,0.8625,0,0,270.0*
21,1,1.5125,1.1500,0,0,270.0*
1,1,0.2875,-0.4313,-0.7562*
1,1,0.2875,-0.4313,0.7562*
1,1,0.2875,0.4313,0.7562*
1,1,0.2875,0.4313,-0.7562*
%
%ADD30ROUNDEDRECTD30*%
G04:AMPARAMS|DCode=31|XSize=1.3mm|YSize=0.8mm|CornerRadius=0.1mm|HoleSize=0mm|Usage=FLASHONLY|Rotation=270.000|XOffset=0mm|YOffset=0mm|HoleType=Round|Shape=RoundedRectangle|*
%AMROUNDEDRECTD31*
21,1,1.3000,0.6000,0,0,270.0*
21,1,1.1000,0.8000,0,0,270.0*
1,1,0.2000,-0.3000,-0.5500*
1,1,0.2000,-0.3000,0.5500*
1,1,0.2000,0.3000,0.5500*
1,1,0.2000,0.3000,-0.5500*
%
%ADD31ROUNDEDRECTD31*%
G04:AMPARAMS|DCode=32|XSize=1.4mm|YSize=1mm|CornerRadius=0.125mm|HoleSize=0mm|Usage=FLASHONLY|Rotation=270.000|XOffset=0mm|YOffset=0mm|HoleType=Round|Shape=RoundedRectangle|*
%AMROUNDEDRECTD32*
21,1,1.4000,0.7500,0,0,270.0*
21,1,1.1500,1.0000,0,0,270.0*
1,1,0.2500,-0.3750,-0.5750*
1,1,0.2500,-0.3750,0.5750*
1,1,0.2500,0.3750,0.5750*
1,1,0.2500,0.3750,-0.5750*
%
%ADD32ROUNDEDRECTD32*%
G04:AMPARAMS|DCode=33|XSize=1.8mm|YSize=1.15mm|CornerRadius=0.1437mm|HoleSize=0mm|Usage=FLASHONLY|Rotation=0.000|XOffset=0mm|YOffset=0mm|HoleType=Round|Shape=RoundedRectangle|*
%AMROUNDEDRECTD33*
21,1,1.8000,0.8625,0,0,0.0*
21,1,1.5125,1.1500,0,0,0.0*
1,1,0.2875,0.7562,-0.4313*
1,1,0.2875,-0.7562,-0.4313*
1,1,0.2875,-0.7562,0.4313*
1,1,0.2875,0.7562,0.4313*
%
%ADD33ROUNDEDRECTD33*%
%ADD34C,0.8000*%
%ADD35C,1.1500*%
G36*
X337071Y397323D02*
X335444Y396600D01*
X331265Y394403D01*
X330107Y393661D01*
X329066Y392915D01*
X328143Y392164D01*
X327337Y391408D01*
X326648Y390648D01*
X326077Y389883D01*
X317500Y395768D01*
Y389460D01*
X315088Y389451D01*
X304109Y388751D01*
X303775Y388585D01*
Y401835D01*
X304109Y401669D01*
X304673Y401520D01*
X305468Y401389D01*
X306494Y401275D01*
X310958Y401039D01*
X311557Y401031D01*
X312657Y401138D01*
X314142Y401364D01*
X317365Y402087D01*
X319102Y402584D01*
X324817Y404618D01*
X326890Y405477D01*
X337071Y397323D01*
D02*
G37*
G36*
X421806Y429687D02*
X422317Y421140D01*
X422438Y420862D01*
X411473D01*
Y404173D01*
X411014Y404710D01*
X410392Y405191D01*
X409607Y405615D01*
X408659Y405982D01*
X407548Y406293D01*
X406275Y406548D01*
X404839Y406746D01*
X401478Y406972D01*
X399553Y407000D01*
Y418500D01*
X401478Y418528D01*
X404839Y418754D01*
X406275Y418952D01*
X407548Y419207D01*
X408659Y419518D01*
X409607Y419885D01*
X410392Y420309D01*
X411014Y420790D01*
X411252Y421068D01*
X411283Y421140D01*
X411391Y421594D01*
X411487Y422224D01*
X411640Y424010D01*
X411793Y429687D01*
X411800Y431545D01*
X421800D01*
X421806Y429687D01*
D02*
G37*
G36*
X370717Y418714D02*
X371271Y418669D01*
X374942Y418566D01*
X387750Y418500D01*
Y407000D01*
X370497Y406736D01*
Y418764D01*
X370717Y418714D01*
D02*
G37*
G36*
X420866Y397094D02*
X420075Y396289D01*
X417698Y393568D01*
X417300Y393013D01*
X416981Y392507D01*
X416740Y392051D01*
X416577Y391644D01*
X416493Y391288D01*
X406928Y400853D01*
X407284Y400937D01*
X407691Y401100D01*
X408147Y401341D01*
X408653Y401660D01*
X409208Y402059D01*
X410469Y403090D01*
X411929Y404436D01*
X412734Y405226D01*
X420866Y397094D01*
D02*
G37*
G36*
X418298Y387870D02*
X418883Y386220D01*
X419649Y384514D01*
X420597Y382750D01*
X421727Y380930D01*
X423040Y379054D01*
X426210Y375131D01*
X428068Y373085D01*
X430108Y370982D01*
X418088Y358961D01*
X415985Y361001D01*
X410016Y366030D01*
X408139Y367342D01*
X406320Y368473D01*
X404556Y369421D01*
X402850Y370187D01*
X401200Y370771D01*
X399606Y371174D01*
X417896Y389464D01*
X418298Y387870D01*
D02*
G37*
G36*
X353039Y399601D02*
X352694Y399800D01*
X352217Y399978D01*
X351609Y400136D01*
X350870Y400272D01*
X348997Y400482D01*
X346599Y400608D01*
X343676Y400650D01*
Y412150D01*
X345203Y412160D01*
X350870Y412528D01*
X351609Y412664D01*
X352217Y412822D01*
X352694Y413000D01*
X353039Y413199D01*
Y399601D01*
D02*
G37*
G36*
X495485Y479921D02*
X494725Y476755D01*
X494385Y472440D01*
X494725Y468125D01*
X495735Y463916D01*
X497392Y459917D01*
X499653Y456226D01*
X502464Y452934D01*
X505756Y450123D01*
X509447Y447862D01*
X513446Y446205D01*
X517655Y445195D01*
X521970Y444855D01*
X526285Y445195D01*
X529922Y446068D01*
X532922Y444543D01*
Y387312D01*
X532010Y384690D01*
X529922Y384690D01*
X523240D01*
Y374650D01*
Y364610D01*
X529922D01*
X532010Y364610D01*
X532922Y361988D01*
Y357975D01*
X529922Y356956D01*
X529815Y357095D01*
X527518Y358858D01*
X524842Y359967D01*
X521970Y360345D01*
X444415D01*
X429892Y374869D01*
X428147Y376791D01*
X425078Y380587D01*
X423856Y382334D01*
X422805Y384027D01*
X421937Y385641D01*
X421251Y387169D01*
X420741Y388609D01*
X420367Y390088D01*
X420341Y390144D01*
X420280Y390451D01*
X419985Y390891D01*
X419940Y390986D01*
X419894Y391027D01*
X419469Y391664D01*
X419699Y391984D01*
X421820Y394413D01*
X422684Y395276D01*
X424006Y396999D01*
X424837Y399006D01*
X425121Y401160D01*
Y405158D01*
X425127Y405187D01*
Y420312D01*
X424830Y421803D01*
X424365Y429607D01*
Y434927D01*
X425280D01*
X426743Y435218D01*
X427166Y435500D01*
X433822D01*
X434301Y435180D01*
X435780Y434886D01*
X438260D01*
Y444500D01*
Y454114D01*
X435780D01*
X434301Y453820D01*
X433822Y453500D01*
X427166D01*
X426743Y453782D01*
X425280Y454073D01*
X417780D01*
X416317Y453782D01*
X415076Y452954D01*
X414247Y451713D01*
X413956Y450250D01*
Y447625D01*
X411451Y445119D01*
X410249Y443552D01*
X409493Y441728D01*
X409235Y439770D01*
Y429375D01*
X409094Y424153D01*
X408955Y422525D01*
X408939Y422422D01*
X408536Y422204D01*
X407853Y421939D01*
X406954Y421687D01*
X405851Y421467D01*
X404579Y421292D01*
X401373Y421076D01*
X401048Y421071D01*
X383448D01*
X374984Y421115D01*
X371532Y421212D01*
X370037Y422359D01*
X367361Y423467D01*
X364490Y423845D01*
X361618Y423467D01*
X358942Y422359D01*
X356645Y420595D01*
X351255Y415205D01*
X351058Y415154D01*
X350555Y415062D01*
X345302Y414721D01*
X343676D01*
X343089Y414644D01*
X342497Y414637D01*
X342017Y414503D01*
X341522Y414438D01*
X340975Y414211D01*
X340405Y414051D01*
X324062Y407065D01*
X323901Y406998D01*
X318323Y405013D01*
X316735Y404558D01*
X313671Y403870D01*
X312342Y403668D01*
X311450Y403582D01*
X311040Y403587D01*
X306702Y403816D01*
X305816Y403914D01*
X305206Y404015D01*
X305012Y404066D01*
X304913Y404116D01*
X304913Y404116D01*
X303997Y404818D01*
X301322Y405927D01*
X298450Y406305D01*
X295578Y405927D01*
X292903Y404818D01*
X290605Y403055D01*
X247425Y359875D01*
X245662Y357577D01*
X244553Y354901D01*
X244175Y352030D01*
Y334010D01*
X244553Y331138D01*
X245662Y328462D01*
X246760Y327032D01*
X246989Y325291D01*
X247845Y323223D01*
X249208Y321448D01*
X250983Y320085D01*
X253051Y319229D01*
X255270Y318937D01*
X257489Y319229D01*
X259557Y320085D01*
X261332Y321448D01*
X262695Y323223D01*
X263551Y325291D01*
X263780Y327032D01*
X264879Y328462D01*
X265987Y331138D01*
X266365Y334010D01*
Y347434D01*
X305197Y386266D01*
X314865Y386883D01*
X325062D01*
X326599Y387188D01*
X327323Y387672D01*
X327380Y387692D01*
X327419Y387727D01*
X327467Y387746D01*
X327538Y387816D01*
X327901Y388059D01*
X328074Y388317D01*
X328119Y388358D01*
X328618Y389026D01*
X329156Y389619D01*
X329821Y390243D01*
X330615Y390888D01*
X331538Y391550D01*
X332548Y392197D01*
X336556Y394305D01*
X336654Y394348D01*
X345375Y398076D01*
X346514Y398060D01*
X348788Y397941D01*
X350496Y397749D01*
X351058Y397646D01*
X351449Y397544D01*
X351602Y397487D01*
X351765Y397393D01*
X351843Y397367D01*
X352593Y396791D01*
X355268Y395683D01*
X358140Y395305D01*
X361012Y395683D01*
X363687Y396791D01*
X365985Y398555D01*
X371634Y404204D01*
X386317Y404429D01*
X401048D01*
X401482Y403366D01*
X401685Y401396D01*
X400224Y400275D01*
X398461Y397977D01*
X397353Y395302D01*
X396975Y392430D01*
Y392111D01*
X396965Y392105D01*
X395860Y390451D01*
X395472Y388500D01*
Y373500D01*
X395860Y371549D01*
X396965Y369895D01*
X398042Y369175D01*
X398084Y369129D01*
X398178Y369084D01*
X398619Y368790D01*
X398926Y368729D01*
X398982Y368702D01*
X400461Y368329D01*
X401901Y367819D01*
X403429Y367133D01*
X405042Y366265D01*
X406735Y365214D01*
X408461Y364007D01*
X414245Y359134D01*
X431974Y341405D01*
X434272Y339641D01*
X436948Y338533D01*
X439820Y338155D01*
X521970D01*
X524842Y338533D01*
X527518Y339641D01*
X529815Y341405D01*
X529922Y341544D01*
X532922Y340525D01*
Y55837D01*
X529922Y54312D01*
X526285Y55185D01*
X521970Y55525D01*
X517655Y55185D01*
X513446Y54175D01*
X509447Y52518D01*
X505756Y50257D01*
X502464Y47446D01*
X499653Y44154D01*
X497392Y40463D01*
X495735Y36464D01*
X494725Y32255D01*
X494385Y27940D01*
X494725Y23625D01*
X495576Y20079D01*
X494007Y17079D01*
X55903D01*
X54334Y20079D01*
X55185Y23625D01*
X55525Y27940D01*
X55185Y32255D01*
X54175Y36464D01*
X52518Y40463D01*
X50257Y44154D01*
X47446Y47446D01*
X44154Y50257D01*
X40463Y52518D01*
X36464Y54175D01*
X32255Y55185D01*
X27940Y55525D01*
X23625Y55185D01*
X20079Y54334D01*
X17079Y55903D01*
Y62270D01*
X53300D01*
Y92344D01*
X17079D01*
Y444477D01*
X20079Y446046D01*
X23625Y445195D01*
X27940Y444855D01*
X32255Y445195D01*
X36464Y446205D01*
X40463Y447862D01*
X44154Y450123D01*
X47446Y452934D01*
X50257Y456226D01*
X52518Y459917D01*
X54175Y463916D01*
X55185Y468125D01*
X55525Y472440D01*
X55185Y476755D01*
X54425Y479921D01*
X56179Y482921D01*
X141396D01*
X143670Y481170D01*
X143670Y479921D01*
Y461170D01*
X163670D01*
Y479921D01*
X163670Y481170D01*
X165944Y482921D01*
X173470D01*
X174067Y479921D01*
X174027Y479905D01*
X171938Y478302D01*
X170335Y476213D01*
X169327Y473781D01*
X168984Y471170D01*
X169327Y468559D01*
X170335Y466127D01*
X171938Y464038D01*
X174027Y462435D01*
X176460Y461427D01*
X179070Y461084D01*
X181681Y461427D01*
X184113Y462435D01*
X186202Y464038D01*
X187805Y466127D01*
X188813Y468559D01*
X189156Y471170D01*
X188813Y473781D01*
X187805Y476213D01*
X186202Y478302D01*
X184113Y479905D01*
X184073Y479921D01*
X184670Y482921D01*
X493731D01*
X495485Y479921D01*
D02*
G37*
%LPC*%
G36*
X415290Y198046D02*
X412679Y197703D01*
X410247Y196695D01*
X408158Y195092D01*
X406555Y193003D01*
X405547Y190571D01*
X405204Y187960D01*
X405547Y185350D01*
X406555Y182917D01*
X408158Y180828D01*
X410247Y179225D01*
X412679Y178217D01*
X415290Y177874D01*
X417901Y178217D01*
X420333Y179225D01*
X422422Y180828D01*
X424025Y182917D01*
X425033Y185350D01*
X425376Y187960D01*
X425033Y190571D01*
X424025Y193003D01*
X422422Y195092D01*
X420333Y196695D01*
X417901Y197703D01*
X415290Y198046D01*
D02*
G37*
G36*
X408093Y321564D02*
X402430D01*
Y315900D01*
X402998Y315975D01*
X404710Y316685D01*
X406181Y317813D01*
X407309Y319284D01*
X408019Y320996D01*
X408093Y321564D01*
D02*
G37*
G36*
X440690Y198046D02*
X438079Y197703D01*
X435647Y196695D01*
X433558Y195092D01*
X431955Y193003D01*
X430947Y190571D01*
X430604Y187960D01*
X430947Y185350D01*
X431955Y182917D01*
X433558Y180828D01*
X435647Y179225D01*
X438079Y178217D01*
X440690Y177874D01*
X440920Y177904D01*
X441319Y177889D01*
X441844Y177820D01*
X442370Y177701D01*
X442904Y177527D01*
X443448Y177296D01*
X444006Y177004D01*
X444576Y176646D01*
X445160Y176218D01*
X445542Y175899D01*
X463372Y158068D01*
Y62200D01*
X463324Y61445D01*
X463260Y60963D01*
X463186Y60570D01*
X453280D01*
X452836Y60867D01*
X451470Y61139D01*
X445470D01*
X444104Y60867D01*
X442947Y60093D01*
X442173Y58936D01*
X441902Y57570D01*
Y57396D01*
X441888Y57391D01*
X441508Y57289D01*
X440972Y57201D01*
X440600Y57168D01*
X427292D01*
X426874Y57186D01*
X426317Y57251D01*
X426049Y57550D01*
X425287Y59091D01*
X425163Y59685D01*
X425177Y60173D01*
X425272Y60591D01*
X425277Y60604D01*
X425571Y60988D01*
X426327Y62812D01*
X426585Y64770D01*
X426327Y66728D01*
X425571Y68552D01*
X424369Y70119D01*
X422802Y71321D01*
X420978Y72077D01*
X419020Y72335D01*
X409020D01*
X407062Y72077D01*
X405631Y71484D01*
X405538Y71466D01*
X405460Y71413D01*
X405238Y71321D01*
X405115Y71227D01*
X405053Y71200D01*
X404643Y70913D01*
X404286Y70706D01*
X403886Y70516D01*
X403438Y70344D01*
X402940Y70192D01*
X402391Y70063D01*
X401822Y69965D01*
X400762Y69868D01*
X374111D01*
X372791Y70750D01*
X370840Y71138D01*
X339011D01*
X338639Y71171D01*
X338103Y71259D01*
X337723Y71361D01*
X337660Y71387D01*
Y76040D01*
X317660D01*
Y56040D01*
X337660D01*
Y60693D01*
X337723Y60719D01*
X338103Y60821D01*
X338639Y60909D01*
X339011Y60942D01*
X368839D01*
X370159Y60060D01*
X372110Y59672D01*
X400748D01*
X401166Y59654D01*
X401723Y59589D01*
X401992Y59290D01*
X402753Y57749D01*
X402877Y57155D01*
X402863Y56667D01*
X402768Y56249D01*
X402763Y56236D01*
X402469Y55852D01*
X401713Y54028D01*
X401455Y52070D01*
X401713Y50112D01*
X402469Y48288D01*
X403671Y46721D01*
X402780Y43623D01*
X402434Y43172D01*
X401674Y41338D01*
X401582Y40640D01*
X426458D01*
X426366Y41338D01*
X425606Y43172D01*
X425314Y43553D01*
X425312Y43558D01*
X425228Y43904D01*
X425204Y44424D01*
X425310Y44983D01*
X426073Y46573D01*
X426362Y46888D01*
X427278Y46972D01*
X440600D01*
X440972Y46939D01*
X441508Y46851D01*
X441888Y46749D01*
X441902Y46743D01*
Y46570D01*
X442173Y45204D01*
X442947Y44047D01*
X444104Y43273D01*
X445470Y43001D01*
X451470D01*
X452836Y43273D01*
X453280Y43570D01*
X463660D01*
X464104Y43273D01*
X465470Y43001D01*
X471470D01*
X472836Y43273D01*
X473993Y44047D01*
X474767Y45204D01*
X475038Y46570D01*
Y57570D01*
X474767Y58936D01*
X473993Y60093D01*
X473870Y60176D01*
X473832Y60276D01*
X473756Y60561D01*
X473691Y60904D01*
X473568Y62364D01*
Y160180D01*
X473180Y162131D01*
X472075Y163785D01*
X458552Y177307D01*
X460534Y179568D01*
X461027Y179190D01*
X463469Y178178D01*
X464820Y178001D01*
Y186690D01*
X456131D01*
X456308Y185339D01*
X457320Y182897D01*
X457698Y182404D01*
X455438Y180422D01*
X452751Y183108D01*
X452432Y183489D01*
X452005Y184074D01*
X451646Y184645D01*
X451354Y185202D01*
X451123Y185746D01*
X450949Y186280D01*
X450830Y186806D01*
X450761Y187331D01*
X450746Y187730D01*
X450776Y187960D01*
X450433Y190571D01*
X449425Y193003D01*
X447822Y195092D01*
X445733Y196695D01*
X443301Y197703D01*
X440690Y198046D01*
D02*
G37*
G36*
X399890Y321564D02*
X394226D01*
X394301Y320996D01*
X395011Y319284D01*
X396139Y317813D01*
X397610Y316685D01*
X399322Y315975D01*
X399890Y315900D01*
Y321564D01*
D02*
G37*
G36*
X476049Y186690D02*
X467360D01*
Y178001D01*
X468711Y178178D01*
X471153Y179190D01*
X473251Y180799D01*
X474860Y182897D01*
X475872Y185339D01*
X476049Y186690D01*
D02*
G37*
G36*
X389890Y198046D02*
X387280Y197703D01*
X384847Y196695D01*
X382758Y195092D01*
X381155Y193003D01*
X380147Y190571D01*
X379804Y187960D01*
X380147Y185350D01*
X381155Y182917D01*
X382002Y181814D01*
X382099Y181616D01*
X382512Y181076D01*
X382827Y180587D01*
X383108Y180064D01*
X383356Y179503D01*
X383569Y178902D01*
X383748Y178257D01*
X383890Y177566D01*
X383993Y176828D01*
X384030Y176370D01*
Y164418D01*
X359635Y140022D01*
X266392D01*
X266019Y140055D01*
X265483Y140144D01*
X265103Y140246D01*
X265040Y140271D01*
Y152160D01*
X248040D01*
Y122160D01*
X265040D01*
Y129578D01*
X265103Y129603D01*
X265483Y129705D01*
X266019Y129794D01*
X266392Y129826D01*
X361746D01*
X363697Y130214D01*
X365351Y131320D01*
X392733Y158701D01*
X393838Y160355D01*
X394226Y162306D01*
Y175742D01*
X394275Y176259D01*
X394390Y176951D01*
X394545Y177572D01*
X394735Y178126D01*
X394957Y178617D01*
X395209Y179052D01*
X395491Y179440D01*
X395807Y179788D01*
X396262Y180193D01*
X396356Y180317D01*
X397022Y180828D01*
X398625Y182917D01*
X399633Y185350D01*
X399976Y187960D01*
X399633Y190571D01*
X398625Y193003D01*
X397022Y195092D01*
X394933Y196695D01*
X392500Y197703D01*
X389890Y198046D01*
D02*
G37*
G36*
X153670Y152107D02*
X152711Y151980D01*
X150633Y151120D01*
X148849Y149751D01*
X147480Y147967D01*
X146620Y145889D01*
X146326Y143660D01*
Y138430D01*
X153670D01*
Y152107D01*
D02*
G37*
G36*
X188954Y135890D02*
X181610D01*
Y122213D01*
X182569Y122340D01*
X184647Y123200D01*
X186431Y124569D01*
X187800Y126353D01*
X188660Y128431D01*
X188954Y130660D01*
Y135890D01*
D02*
G37*
G36*
X156210Y152107D02*
Y138430D01*
X163554D01*
Y143660D01*
X163260Y145889D01*
X162400Y147967D01*
X161031Y149751D01*
X159247Y151120D01*
X157169Y151980D01*
X156210Y152107D01*
D02*
G37*
G36*
X181610D02*
Y138430D01*
X188954D01*
Y143660D01*
X188660Y145889D01*
X187800Y147967D01*
X186431Y149751D01*
X184647Y151120D01*
X182569Y151980D01*
X181610Y152107D01*
D02*
G37*
G36*
X179070D02*
X178111Y151980D01*
X176033Y151120D01*
X174249Y149751D01*
X172880Y147967D01*
X172020Y145889D01*
X171726Y143660D01*
Y138430D01*
X179070D01*
Y152107D01*
D02*
G37*
G36*
X229870Y349083D02*
X227651Y348791D01*
X225583Y347935D01*
X223808Y346572D01*
X222445Y344797D01*
X221589Y342729D01*
X221297Y340510D01*
Y327510D01*
X221589Y325291D01*
X222445Y323223D01*
X222782Y322785D01*
X222859Y322627D01*
X223279Y322079D01*
X223605Y321589D01*
X223889Y321087D01*
X224134Y320573D01*
X224341Y320043D01*
X224511Y319496D01*
X224645Y318928D01*
X224741Y318337D01*
X224772Y318013D01*
Y266700D01*
X225160Y264749D01*
X226265Y263095D01*
X245779Y243582D01*
X244631Y240810D01*
X123270D01*
X107968Y256112D01*
Y318013D01*
X107999Y318337D01*
X108095Y318928D01*
X108229Y319496D01*
X108399Y320043D01*
X108606Y320573D01*
X108851Y321087D01*
X109135Y321589D01*
X109461Y322079D01*
X109881Y322627D01*
X109958Y322785D01*
X110295Y323223D01*
X111151Y325291D01*
X111443Y327510D01*
Y340510D01*
X111151Y342729D01*
X110295Y344797D01*
X108932Y346572D01*
X107157Y347935D01*
X105089Y348791D01*
X102870Y349083D01*
X100651Y348791D01*
X98583Y347935D01*
X96808Y346572D01*
X95445Y344797D01*
X94589Y342729D01*
X94297Y340510D01*
Y327510D01*
X94589Y325291D01*
X95445Y323223D01*
X95781Y322785D01*
X95859Y322627D01*
X96279Y322079D01*
X96605Y321589D01*
X96889Y321087D01*
X97134Y320573D01*
X97341Y320043D01*
X97511Y319496D01*
X97645Y318928D01*
X97741Y318337D01*
X97772Y318013D01*
Y254000D01*
X98160Y252049D01*
X99265Y250395D01*
X117553Y232107D01*
X119207Y231002D01*
X121158Y230614D01*
X340026D01*
X346845Y223796D01*
X344863Y221535D01*
X344133Y222095D01*
X341701Y223103D01*
X339090Y223446D01*
X336479Y223103D01*
X334047Y222095D01*
X331958Y220492D01*
X330355Y218403D01*
X329347Y215970D01*
X329004Y213360D01*
X329347Y210749D01*
X330355Y208317D01*
X331958Y206228D01*
X334047Y204625D01*
X336479Y203617D01*
X339090Y203274D01*
X341701Y203617D01*
X344133Y204625D01*
X346222Y206228D01*
X347825Y208317D01*
X348833Y210749D01*
X349176Y213360D01*
X348833Y215970D01*
X347825Y218403D01*
X347265Y219132D01*
X349526Y221115D01*
X352429Y218212D01*
X352748Y217831D01*
X353176Y217246D01*
X353534Y216675D01*
X353826Y216118D01*
X354057Y215574D01*
X354231Y215040D01*
X354351Y214514D01*
X354419Y213989D01*
X354434Y213590D01*
X354404Y213360D01*
X354747Y210749D01*
X355755Y208317D01*
X357358Y206228D01*
X359447Y204625D01*
X361880Y203617D01*
X364490Y203274D01*
X367100Y203617D01*
X369533Y204625D01*
X371622Y206228D01*
X373225Y208317D01*
X374233Y210749D01*
X374576Y213360D01*
X374233Y215970D01*
X373225Y218403D01*
X372665Y219132D01*
X374926Y221115D01*
X377829Y218212D01*
X378148Y217831D01*
X378576Y217246D01*
X378934Y216675D01*
X379226Y216118D01*
X379457Y215574D01*
X379631Y215040D01*
X379751Y214514D01*
X379819Y213989D01*
X379834Y213590D01*
X379804Y213360D01*
X380147Y210749D01*
X381155Y208317D01*
X382758Y206228D01*
X384847Y204625D01*
X387280Y203617D01*
X389890Y203274D01*
X392500Y203617D01*
X394933Y204625D01*
X397022Y206228D01*
X398625Y208317D01*
X399633Y210749D01*
X399976Y213360D01*
X399633Y215970D01*
X398625Y218403D01*
X397022Y220492D01*
X394933Y222095D01*
X392500Y223103D01*
X389890Y223446D01*
X389660Y223416D01*
X389261Y223431D01*
X388736Y223500D01*
X388210Y223619D01*
X387676Y223793D01*
X387132Y224024D01*
X386575Y224316D01*
X386004Y224674D01*
X385420Y225102D01*
X385038Y225421D01*
X363523Y246937D01*
X361869Y248042D01*
X359918Y248430D01*
X255350D01*
X234968Y268812D01*
Y318013D01*
X234999Y318337D01*
X235095Y318928D01*
X235229Y319496D01*
X235399Y320043D01*
X235606Y320573D01*
X235851Y321087D01*
X236135Y321589D01*
X236461Y322079D01*
X236880Y322627D01*
X236959Y322785D01*
X237295Y323223D01*
X238151Y325291D01*
X238443Y327510D01*
Y340510D01*
X238151Y342729D01*
X237295Y344797D01*
X235932Y346572D01*
X234157Y347935D01*
X232089Y348791D01*
X229870Y349083D01*
D02*
G37*
G36*
X438892Y323997D02*
X430267D01*
X428731Y323691D01*
X427429Y322821D01*
X426558Y321519D01*
X426253Y319982D01*
Y304858D01*
X426549Y303367D01*
X427015Y295563D01*
Y244870D01*
X427273Y242912D01*
X428029Y241088D01*
X429231Y239521D01*
X442521Y226231D01*
X441119Y223390D01*
X440690Y223446D01*
X438079Y223103D01*
X435647Y222095D01*
X433558Y220492D01*
X431955Y218403D01*
X430947Y215970D01*
X430604Y213360D01*
X430947Y210749D01*
X431955Y208317D01*
X433558Y206228D01*
X435647Y204625D01*
X438079Y203617D01*
X440690Y203274D01*
X443301Y203617D01*
X445733Y204625D01*
X447822Y206228D01*
X449425Y208317D01*
X450433Y210749D01*
X450776Y213360D01*
X453242Y214767D01*
X453611Y214812D01*
X454607Y213568D01*
X455629Y212103D01*
X456090Y211299D01*
Y203360D01*
X476090D01*
Y223360D01*
X468152D01*
X467347Y223821D01*
X465910Y224823D01*
X462385Y227809D01*
X461056Y229092D01*
X442145Y248004D01*
Y295795D01*
X442285Y301017D01*
X442425Y302645D01*
X442492Y303088D01*
X442518Y303197D01*
X442601Y303321D01*
X442907Y304858D01*
Y319982D01*
X442601Y321519D01*
X441731Y322821D01*
X440429Y323691D01*
X438892Y323997D01*
D02*
G37*
G36*
X415290Y223446D02*
X412679Y223103D01*
X410247Y222095D01*
X408158Y220492D01*
X406555Y218403D01*
X405547Y215970D01*
X405204Y213360D01*
X405547Y210749D01*
X406555Y208317D01*
X408158Y206228D01*
X410247Y204625D01*
X412679Y203617D01*
X415290Y203274D01*
X417901Y203617D01*
X420333Y204625D01*
X422422Y206228D01*
X424025Y208317D01*
X425033Y210749D01*
X425376Y213360D01*
X425033Y215970D01*
X424025Y218403D01*
X422422Y220492D01*
X420333Y222095D01*
X417901Y223103D01*
X415290Y223446D01*
D02*
G37*
G36*
X463310Y311150D02*
X456212D01*
Y304858D01*
X456521Y303306D01*
X457400Y301990D01*
X458716Y301111D01*
X460268Y300802D01*
X463310D01*
Y311150D01*
D02*
G37*
G36*
X189070Y284320D02*
X169070D01*
Y264320D01*
X189070D01*
Y284320D01*
D02*
G37*
G36*
X153670Y284406D02*
X151060Y284063D01*
X148627Y283055D01*
X146538Y281452D01*
X144935Y279363D01*
X143927Y276931D01*
X143584Y274320D01*
X143927Y271709D01*
X144935Y269277D01*
X146538Y267188D01*
X148627Y265585D01*
X151060Y264577D01*
X153670Y264234D01*
X156280Y264577D01*
X158713Y265585D01*
X160802Y267188D01*
X162405Y269277D01*
X163413Y271709D01*
X163756Y274320D01*
X163413Y276931D01*
X162405Y279363D01*
X160802Y281452D01*
X158713Y283055D01*
X156280Y284063D01*
X153670Y284406D01*
D02*
G37*
G36*
X467360Y197919D02*
Y189230D01*
X476049D01*
X475872Y190581D01*
X474860Y193023D01*
X473251Y195121D01*
X471153Y196730D01*
X468711Y197742D01*
X467360Y197919D01*
D02*
G37*
G36*
X464820D02*
X463469Y197742D01*
X461027Y196730D01*
X458929Y195121D01*
X457320Y193023D01*
X456308Y190581D01*
X456131Y189230D01*
X464820D01*
Y197919D01*
D02*
G37*
G36*
X468893Y324038D02*
X465850D01*
Y313690D01*
X472948D01*
Y319982D01*
X472639Y321534D01*
X471760Y322850D01*
X470445Y323729D01*
X468893Y324038D01*
D02*
G37*
G36*
X180340Y210746D02*
X177729Y210403D01*
X175297Y209395D01*
X173208Y207792D01*
X171605Y205703D01*
X170597Y203270D01*
X170254Y200660D01*
X170597Y198050D01*
X171422Y196058D01*
X170809Y194497D01*
X169787Y193058D01*
X164940D01*
Y210660D01*
X144940D01*
Y193058D01*
X127000D01*
X125049Y192670D01*
X123395Y191565D01*
X100535Y168705D01*
X99430Y167051D01*
X99042Y165100D01*
Y153157D01*
X99011Y152833D01*
X98915Y152242D01*
X98781Y151674D01*
X98611Y151127D01*
X98404Y150597D01*
X98159Y150083D01*
X97875Y149581D01*
X97549Y149091D01*
X97129Y148543D01*
X97051Y148385D01*
X96715Y147947D01*
X95859Y145879D01*
X95567Y143660D01*
Y130660D01*
X95859Y128441D01*
X96715Y126373D01*
X98078Y124598D01*
X99853Y123235D01*
X101921Y122379D01*
X104140Y122087D01*
X106359Y122379D01*
X108427Y123235D01*
X110202Y124598D01*
X111565Y126373D01*
X112421Y128441D01*
X112713Y130660D01*
Y143660D01*
X112421Y145879D01*
X111565Y147947D01*
X111229Y148385D01*
X111151Y148543D01*
X110731Y149091D01*
X110405Y149581D01*
X110121Y150083D01*
X109876Y150597D01*
X109669Y151126D01*
X109499Y151674D01*
X109365Y152242D01*
X109269Y152833D01*
X109238Y153157D01*
Y162988D01*
X129112Y182862D01*
X327131D01*
X327626Y182818D01*
X328342Y182708D01*
X328999Y182557D01*
X329599Y182370D01*
X330147Y182148D01*
X330647Y181894D01*
X331105Y181606D01*
X331524Y181284D01*
X331817Y181012D01*
X331958Y180828D01*
X334047Y179225D01*
X336479Y178217D01*
X339090Y177874D01*
X341701Y178217D01*
X344133Y179225D01*
X344862Y179785D01*
X346845Y177524D01*
X334946Y165626D01*
X239268D01*
X237317Y165238D01*
X235663Y164133D01*
X227535Y156005D01*
X226430Y154351D01*
X226042Y152400D01*
Y150462D01*
X225078Y149722D01*
X223715Y147947D01*
X222859Y145879D01*
X222567Y143660D01*
Y130660D01*
X222859Y128441D01*
X223715Y126373D01*
X225078Y124598D01*
X226853Y123235D01*
X228921Y122379D01*
X231140Y122087D01*
X233359Y122379D01*
X235427Y123235D01*
X237202Y124598D01*
X238565Y126373D01*
X239421Y128441D01*
X239713Y130660D01*
Y143660D01*
X239421Y145879D01*
X238565Y147947D01*
X237202Y149722D01*
X237108Y151159D01*
X241380Y155430D01*
X337058D01*
X339009Y155818D01*
X340663Y156923D01*
X359638Y175899D01*
X360019Y176218D01*
X360604Y176646D01*
X361175Y177004D01*
X361732Y177296D01*
X362276Y177527D01*
X362810Y177701D01*
X363336Y177820D01*
X363861Y177889D01*
X364260Y177904D01*
X364490Y177874D01*
X367100Y178217D01*
X369533Y179225D01*
X371622Y180828D01*
X373225Y182917D01*
X374233Y185350D01*
X374576Y187960D01*
X374233Y190571D01*
X373225Y193003D01*
X371622Y195092D01*
X369533Y196695D01*
X367100Y197703D01*
X364490Y198046D01*
X361880Y197703D01*
X359447Y196695D01*
X357358Y195092D01*
X355755Y193003D01*
X354747Y190571D01*
X354404Y187960D01*
X354434Y187730D01*
X354419Y187331D01*
X354351Y186806D01*
X354231Y186280D01*
X354057Y185746D01*
X353826Y185202D01*
X353534Y184645D01*
X353176Y184074D01*
X352748Y183490D01*
X352429Y183108D01*
X349526Y180205D01*
X347265Y182188D01*
X347825Y182917D01*
X348833Y185350D01*
X349176Y187960D01*
X348833Y190571D01*
X347825Y193003D01*
X346222Y195092D01*
X344133Y196695D01*
X341701Y197703D01*
X339090Y198046D01*
X336479Y197703D01*
X334047Y196695D01*
X331958Y195092D01*
X331817Y194908D01*
X331524Y194636D01*
X331105Y194314D01*
X330647Y194026D01*
X330148Y193772D01*
X329599Y193550D01*
X328999Y193363D01*
X328342Y193213D01*
X327626Y193102D01*
X327131Y193058D01*
X190893D01*
X189871Y194497D01*
X189258Y196058D01*
X190083Y198050D01*
X190426Y200660D01*
X190083Y203270D01*
X189075Y205703D01*
X187472Y207792D01*
X185383Y209395D01*
X182950Y210403D01*
X180340Y210746D01*
D02*
G37*
G36*
X472948Y311150D02*
X465850D01*
Y300802D01*
X468893D01*
X470445Y301111D01*
X471760Y301990D01*
X472639Y303306D01*
X472948Y304858D01*
Y311150D01*
D02*
G37*
G36*
X463310Y324038D02*
X460268D01*
X458716Y323729D01*
X457400Y322850D01*
X456521Y321534D01*
X456212Y319982D01*
Y313690D01*
X463310D01*
Y324038D01*
D02*
G37*
G36*
X179070Y135890D02*
X171726D01*
Y130660D01*
X172020Y128431D01*
X172880Y126353D01*
X174249Y124569D01*
X176033Y123200D01*
X178111Y122340D01*
X179070Y122213D01*
Y135890D01*
D02*
G37*
G36*
X87354Y59690D02*
X80010D01*
Y46013D01*
X80969Y46140D01*
X83047Y47000D01*
X84831Y48369D01*
X86200Y50153D01*
X87060Y52231D01*
X87354Y54460D01*
Y59690D01*
D02*
G37*
G36*
X77470D02*
X70126D01*
Y54460D01*
X70420Y52231D01*
X71280Y50153D01*
X72649Y48369D01*
X74433Y47000D01*
X76511Y46140D01*
X77470Y46013D01*
Y59690D01*
D02*
G37*
G36*
X256540Y76033D02*
X254321Y75741D01*
X252253Y74885D01*
X250478Y73522D01*
X249115Y71747D01*
X248259Y69679D01*
X247967Y67460D01*
Y54460D01*
X248259Y52241D01*
X249115Y50173D01*
X250478Y48398D01*
X252253Y47035D01*
X254321Y46179D01*
X256540Y45887D01*
X258759Y46179D01*
X260827Y47035D01*
X262602Y48398D01*
X263965Y50173D01*
X264821Y52241D01*
X265113Y54460D01*
Y67460D01*
X264821Y69679D01*
X263965Y71747D01*
X262602Y73522D01*
X260827Y74885D01*
X258759Y75741D01*
X256540Y76033D01*
D02*
G37*
G36*
X179070Y59690D02*
X171726D01*
Y54460D01*
X172020Y52231D01*
X172880Y50153D01*
X174249Y48369D01*
X176033Y47000D01*
X178111Y46140D01*
X179070Y46013D01*
Y59690D01*
D02*
G37*
G36*
X163554D02*
X156210D01*
Y46013D01*
X157169Y46140D01*
X159247Y47000D01*
X161031Y48369D01*
X162400Y50153D01*
X163260Y52231D01*
X163554Y54460D01*
Y59690D01*
D02*
G37*
G36*
X153670D02*
X146326D01*
Y54460D01*
X146620Y52231D01*
X147480Y50153D01*
X148849Y48369D01*
X150633Y47000D01*
X152711Y46140D01*
X153670Y46013D01*
Y59690D01*
D02*
G37*
G36*
X104140Y76033D02*
X101921Y75741D01*
X99853Y74885D01*
X98078Y73522D01*
X96715Y71747D01*
X95859Y69679D01*
X95567Y67460D01*
Y54460D01*
X95859Y52241D01*
X96715Y50173D01*
X98078Y48398D01*
X99853Y47035D01*
X101921Y46179D01*
X104140Y45887D01*
X106359Y46179D01*
X108427Y47035D01*
X110202Y48398D01*
X111565Y50173D01*
X112421Y52241D01*
X112713Y54460D01*
Y67460D01*
X112421Y69679D01*
X111565Y71747D01*
X110202Y73522D01*
X108427Y74885D01*
X106359Y75741D01*
X104140Y76033D01*
D02*
G37*
G36*
X426458Y38100D02*
X415290D01*
Y31765D01*
X419020D01*
X420988Y32024D01*
X422822Y32784D01*
X424398Y33992D01*
X425606Y35568D01*
X426366Y37402D01*
X426458Y38100D01*
D02*
G37*
G36*
X412750D02*
X401582D01*
X401674Y37402D01*
X402434Y35568D01*
X403642Y33992D01*
X405218Y32784D01*
X407052Y32024D01*
X409020Y31765D01*
X412750D01*
Y38100D01*
D02*
G37*
G36*
X231140Y76033D02*
X228921Y75741D01*
X226853Y74885D01*
X225078Y73522D01*
X223715Y71747D01*
X222859Y69679D01*
X222567Y67460D01*
Y54460D01*
X222859Y52241D01*
X223715Y50173D01*
X225078Y48398D01*
X226853Y47035D01*
X228921Y46179D01*
X231140Y45887D01*
X233359Y46179D01*
X235427Y47035D01*
X237202Y48398D01*
X238565Y50173D01*
X239421Y52241D01*
X239713Y54460D01*
Y67460D01*
X239421Y69679D01*
X238565Y71747D01*
X237202Y73522D01*
X235427Y74885D01*
X233359Y75741D01*
X231140Y76033D01*
D02*
G37*
G36*
X205740D02*
X203521Y75741D01*
X201453Y74885D01*
X199678Y73522D01*
X198315Y71747D01*
X197459Y69679D01*
X197167Y67460D01*
Y54460D01*
X197459Y52241D01*
X198315Y50173D01*
X199678Y48398D01*
X201453Y47035D01*
X203521Y46179D01*
X205740Y45887D01*
X207959Y46179D01*
X210027Y47035D01*
X211802Y48398D01*
X213165Y50173D01*
X214021Y52241D01*
X214313Y54460D01*
Y67460D01*
X214021Y69679D01*
X213165Y71747D01*
X211802Y73522D01*
X210027Y74885D01*
X207959Y75741D01*
X205740Y76033D01*
D02*
G37*
G36*
X129540D02*
X127321Y75741D01*
X125253Y74885D01*
X123478Y73522D01*
X122115Y71747D01*
X121259Y69679D01*
X120967Y67460D01*
Y54460D01*
X121259Y52241D01*
X122115Y50173D01*
X123478Y48398D01*
X125253Y47035D01*
X127321Y46179D01*
X129540Y45887D01*
X131759Y46179D01*
X133827Y47035D01*
X135602Y48398D01*
X136965Y50173D01*
X137821Y52241D01*
X138113Y54460D01*
Y67460D01*
X137821Y69679D01*
X136965Y71747D01*
X135602Y73522D01*
X133827Y74885D01*
X131759Y75741D01*
X129540Y76033D01*
D02*
G37*
G36*
Y152233D02*
X127321Y151941D01*
X125253Y151085D01*
X123478Y149722D01*
X122115Y147947D01*
X121259Y145879D01*
X120967Y143660D01*
Y130660D01*
X121259Y128441D01*
X122115Y126373D01*
X123478Y124598D01*
X125253Y123235D01*
X127321Y122379D01*
X129540Y122087D01*
X131759Y122379D01*
X133827Y123235D01*
X135602Y124598D01*
X136965Y126373D01*
X137821Y128441D01*
X138113Y130660D01*
Y143660D01*
X137821Y145879D01*
X136965Y147947D01*
X135602Y149722D01*
X133827Y151085D01*
X131759Y151941D01*
X129540Y152233D01*
D02*
G37*
G36*
X78740D02*
X76521Y151941D01*
X74453Y151085D01*
X72678Y149722D01*
X71315Y147947D01*
X70459Y145879D01*
X70230Y144138D01*
X69131Y142708D01*
X68023Y140032D01*
X67645Y137160D01*
Y114300D01*
X68023Y111428D01*
X69131Y108752D01*
X70895Y106455D01*
X93755Y83595D01*
X96053Y81832D01*
X98728Y80723D01*
X101600Y80345D01*
X327660D01*
X330532Y80723D01*
X333208Y81832D01*
X335505Y83595D01*
X337268Y85892D01*
X338377Y88568D01*
X338755Y91440D01*
X338377Y94312D01*
X337268Y96987D01*
X335505Y99285D01*
X333208Y101048D01*
X330532Y102157D01*
X327660Y102535D01*
X106196D01*
X89835Y118896D01*
Y137160D01*
X89457Y140032D01*
X88349Y142708D01*
X87250Y144138D01*
X87021Y145879D01*
X86165Y147947D01*
X84802Y149722D01*
X83027Y151085D01*
X80959Y151941D01*
X78740Y152233D01*
D02*
G37*
G36*
X181610Y75907D02*
Y62230D01*
X188954D01*
Y67460D01*
X188660Y69689D01*
X187800Y71767D01*
X186431Y73551D01*
X184647Y74920D01*
X182569Y75780D01*
X181610Y75907D01*
D02*
G37*
G36*
X163554Y135890D02*
X156210D01*
Y122213D01*
X157169Y122340D01*
X159247Y123200D01*
X161031Y124569D01*
X162400Y126353D01*
X163260Y128431D01*
X163554Y130660D01*
Y135890D01*
D02*
G37*
G36*
X153670D02*
X146326D01*
Y130660D01*
X146620Y128431D01*
X147480Y126353D01*
X148849Y124569D01*
X150633Y123200D01*
X152711Y122340D01*
X153670Y122213D01*
Y135890D01*
D02*
G37*
G36*
X205740Y152233D02*
X203521Y151941D01*
X201453Y151085D01*
X199678Y149722D01*
X198315Y147947D01*
X197459Y145879D01*
X197167Y143660D01*
Y130660D01*
X197459Y128441D01*
X198315Y126373D01*
X199678Y124598D01*
X201453Y123235D01*
X203521Y122379D01*
X205740Y122087D01*
X207959Y122379D01*
X210027Y123235D01*
X211802Y124598D01*
X213165Y126373D01*
X214021Y128441D01*
X214313Y130660D01*
Y143660D01*
X214021Y145879D01*
X213165Y147947D01*
X211802Y149722D01*
X210027Y151085D01*
X207959Y151941D01*
X205740Y152233D01*
D02*
G37*
G36*
X80010Y75907D02*
Y62230D01*
X87354D01*
Y67460D01*
X87060Y69689D01*
X86200Y71767D01*
X84831Y73551D01*
X83047Y74920D01*
X80969Y75780D01*
X80010Y75907D01*
D02*
G37*
G36*
X77470D02*
X76511Y75780D01*
X74433Y74920D01*
X72649Y73551D01*
X71280Y71767D01*
X70420Y69689D01*
X70126Y67460D01*
Y62230D01*
X77470D01*
Y75907D01*
D02*
G37*
G36*
X188954Y59690D02*
X181610D01*
Y46013D01*
X182569Y46140D01*
X184647Y47000D01*
X186431Y48369D01*
X187800Y50153D01*
X188660Y52231D01*
X188954Y54460D01*
Y59690D01*
D02*
G37*
G36*
X179070Y75907D02*
X178111Y75780D01*
X176033Y74920D01*
X174249Y73551D01*
X172880Y71767D01*
X172020Y69689D01*
X171726Y67460D01*
Y62230D01*
X179070D01*
Y75907D01*
D02*
G37*
G36*
X156210D02*
Y62230D01*
X163554D01*
Y67460D01*
X163260Y69689D01*
X162400Y71767D01*
X161031Y73551D01*
X159247Y74920D01*
X157169Y75780D01*
X156210Y75907D01*
D02*
G37*
G36*
X153670D02*
X152711Y75780D01*
X150633Y74920D01*
X148849Y73551D01*
X147480Y71767D01*
X146620Y69689D01*
X146326Y67460D01*
Y62230D01*
X153670D01*
Y75907D01*
D02*
G37*
G36*
X204470Y425283D02*
X202251Y424991D01*
X200183Y424135D01*
X198408Y422772D01*
X197045Y420997D01*
X196189Y418929D01*
X195897Y416710D01*
Y403710D01*
X196189Y401491D01*
X197045Y399423D01*
X198408Y397648D01*
X200183Y396285D01*
X202251Y395429D01*
X204470Y395137D01*
X206689Y395429D01*
X208757Y396285D01*
X210532Y397648D01*
X211895Y399423D01*
X212751Y401491D01*
X213043Y403710D01*
Y416710D01*
X212751Y418929D01*
X211895Y420997D01*
X210532Y422772D01*
X208757Y424135D01*
X206689Y424991D01*
X204470Y425283D01*
D02*
G37*
G36*
X128270D02*
X126051Y424991D01*
X123983Y424135D01*
X122208Y422772D01*
X120845Y420997D01*
X119989Y418929D01*
X119697Y416710D01*
Y403710D01*
X119989Y401491D01*
X120845Y399423D01*
X122208Y397648D01*
X123983Y396285D01*
X126051Y395429D01*
X128270Y395137D01*
X130489Y395429D01*
X132557Y396285D01*
X134332Y397648D01*
X135695Y399423D01*
X136551Y401491D01*
X136843Y403710D01*
Y416710D01*
X136551Y418929D01*
X135695Y420997D01*
X134332Y422772D01*
X132557Y424135D01*
X130489Y424991D01*
X128270Y425283D01*
D02*
G37*
G36*
X102870D02*
X100651Y424991D01*
X98583Y424135D01*
X96808Y422772D01*
X95445Y420997D01*
X94589Y418929D01*
X94297Y416710D01*
Y403710D01*
X94589Y401491D01*
X95445Y399423D01*
X96808Y397648D01*
X98583Y396285D01*
X100651Y395429D01*
X102870Y395137D01*
X105089Y395429D01*
X107157Y396285D01*
X108932Y397648D01*
X110295Y399423D01*
X111151Y401491D01*
X111443Y403710D01*
Y416710D01*
X111151Y418929D01*
X110295Y420997D01*
X108932Y422772D01*
X107157Y424135D01*
X105089Y424991D01*
X102870Y425283D01*
D02*
G37*
G36*
X229870D02*
X227651Y424991D01*
X225583Y424135D01*
X223808Y422772D01*
X222445Y420997D01*
X221589Y418929D01*
X221297Y416710D01*
Y403710D01*
X221589Y401491D01*
X222445Y399423D01*
X223808Y397648D01*
X225583Y396285D01*
X227651Y395429D01*
X229870Y395137D01*
X232089Y395429D01*
X234157Y396285D01*
X235932Y397648D01*
X237295Y399423D01*
X238151Y401491D01*
X238443Y403710D01*
Y416710D01*
X238151Y418929D01*
X237295Y420997D01*
X235932Y422772D01*
X234157Y424135D01*
X232089Y424991D01*
X229870Y425283D01*
D02*
G37*
G36*
X177800Y408940D02*
X170456D01*
Y403710D01*
X170750Y401481D01*
X171610Y399403D01*
X172979Y397619D01*
X174763Y396250D01*
X176841Y395390D01*
X177800Y395263D01*
Y408940D01*
D02*
G37*
G36*
X162284D02*
X154940D01*
Y395263D01*
X155899Y395390D01*
X157977Y396250D01*
X159761Y397619D01*
X161130Y399403D01*
X161990Y401481D01*
X162284Y403710D01*
Y408940D01*
D02*
G37*
G36*
X152400D02*
X145056D01*
Y403710D01*
X145350Y401481D01*
X146210Y399403D01*
X147579Y397619D01*
X149363Y396250D01*
X151441Y395390D01*
X152400Y395263D01*
Y408940D01*
D02*
G37*
G36*
X470551Y379730D02*
X459340D01*
Y368519D01*
X461344Y368783D01*
X464394Y370046D01*
X467014Y372056D01*
X469024Y374676D01*
X470287Y377726D01*
X470551Y379730D01*
D02*
G37*
G36*
X456800D02*
X445589D01*
X445853Y377726D01*
X447117Y374676D01*
X449127Y372056D01*
X451746Y370046D01*
X454797Y368783D01*
X456800Y368519D01*
Y379730D01*
D02*
G37*
G36*
X520700Y373380D02*
X511930D01*
Y364610D01*
X520700D01*
Y373380D01*
D02*
G37*
G36*
Y384690D02*
X511930D01*
Y375920D01*
X520700D01*
Y384690D01*
D02*
G37*
G36*
X77470Y425283D02*
X75251Y424991D01*
X73183Y424135D01*
X71408Y422772D01*
X70045Y420997D01*
X69189Y418929D01*
X68897Y416710D01*
Y403710D01*
X69189Y401491D01*
X70045Y399423D01*
X71408Y397648D01*
X73183Y396285D01*
X75251Y395429D01*
X77470Y395137D01*
X79689Y395429D01*
X81757Y396285D01*
X83532Y397648D01*
X84895Y399423D01*
X85751Y401491D01*
X86043Y403710D01*
Y416710D01*
X85751Y418929D01*
X84895Y420997D01*
X83532Y422772D01*
X81757Y424135D01*
X79689Y424991D01*
X77470Y425283D01*
D02*
G37*
G36*
X459340Y393481D02*
Y382270D01*
X470551D01*
X470287Y384274D01*
X469024Y387324D01*
X467014Y389944D01*
X464394Y391954D01*
X461344Y393217D01*
X459340Y393481D01*
D02*
G37*
G36*
X456800D02*
X454797Y393217D01*
X451746Y391954D01*
X449127Y389944D01*
X447117Y387324D01*
X445853Y384274D01*
X445589Y382270D01*
X456800D01*
Y393481D01*
D02*
G37*
G36*
X187684Y408940D02*
X180340D01*
Y395263D01*
X181299Y395390D01*
X183377Y396250D01*
X185161Y397619D01*
X186530Y399403D01*
X187390Y401481D01*
X187684Y403710D01*
Y408940D01*
D02*
G37*
G36*
X329118Y423940D02*
X318770D01*
Y416842D01*
X325062D01*
X326614Y417151D01*
X327930Y418030D01*
X328809Y419346D01*
X329118Y420898D01*
Y423940D01*
D02*
G37*
G36*
X316230D02*
X305882D01*
Y420898D01*
X306191Y419346D01*
X307070Y418030D01*
X308386Y417151D01*
X309937Y416842D01*
X316230D01*
Y423940D01*
D02*
G37*
G36*
X451113Y424368D02*
X448070D01*
Y414020D01*
X455168D01*
Y420312D01*
X454859Y421864D01*
X453980Y423180D01*
X452665Y424059D01*
X451113Y424368D01*
D02*
G37*
G36*
X316230Y433578D02*
X309937D01*
X308386Y433269D01*
X307070Y432390D01*
X306191Y431075D01*
X305882Y429523D01*
Y426480D01*
X316230D01*
Y433578D01*
D02*
G37*
G36*
X443280Y454114D02*
X440800D01*
Y445770D01*
X447145D01*
Y450250D01*
X446850Y451729D01*
X446013Y452982D01*
X444759Y453820D01*
X443280Y454114D01*
D02*
G37*
G36*
X447145Y443230D02*
X440800D01*
Y434886D01*
X443280D01*
X444759Y435180D01*
X446013Y436018D01*
X446850Y437271D01*
X447145Y438750D01*
Y443230D01*
D02*
G37*
G36*
X325062Y433578D02*
X318770D01*
Y426480D01*
X329118D01*
Y429523D01*
X328809Y431075D01*
X327930Y432390D01*
X326614Y433269D01*
X325062Y433578D01*
D02*
G37*
G36*
X152400Y425157D02*
X151441Y425030D01*
X149363Y424170D01*
X147579Y422801D01*
X146210Y421017D01*
X145350Y418939D01*
X145056Y416710D01*
Y411480D01*
X152400D01*
Y425157D01*
D02*
G37*
G36*
X455168Y411480D02*
X452616D01*
X453116Y401742D01*
X453980Y402320D01*
X454859Y403636D01*
X455168Y405187D01*
Y411480D01*
D02*
G37*
G36*
X441027D02*
X438432D01*
Y405187D01*
X438741Y403636D01*
X439620Y402320D01*
X440825Y401515D01*
X440857Y401940D01*
X441027Y411480D01*
D02*
G37*
G36*
X154940Y425157D02*
Y411480D01*
X162284D01*
Y416710D01*
X161990Y418939D01*
X161130Y421017D01*
X159761Y422801D01*
X157977Y424170D01*
X155899Y425030D01*
X154940Y425157D01*
D02*
G37*
G36*
X445530Y424368D02*
X442488D01*
X440936Y424059D01*
X439620Y423180D01*
X438741Y421864D01*
X438432Y420312D01*
Y414020D01*
X445530D01*
Y424368D01*
D02*
G37*
G36*
X180340Y425157D02*
Y411480D01*
X187684D01*
Y416710D01*
X187390Y418939D01*
X186530Y421017D01*
X185161Y422801D01*
X183377Y424170D01*
X181299Y425030D01*
X180340Y425157D01*
D02*
G37*
G36*
X177800D02*
X176841Y425030D01*
X174763Y424170D01*
X172979Y422801D01*
X171610Y421017D01*
X170750Y418939D01*
X170456Y416710D01*
Y411480D01*
X177800D01*
Y425157D01*
D02*
G37*
G36*
X152400Y348956D02*
X151441Y348830D01*
X149363Y347970D01*
X147579Y346601D01*
X146210Y344817D01*
X145350Y342739D01*
X145056Y340510D01*
Y335280D01*
X152400D01*
Y348956D01*
D02*
G37*
G36*
X187684Y332740D02*
X180340D01*
Y319063D01*
X181299Y319190D01*
X183377Y320050D01*
X185161Y321419D01*
X186530Y323203D01*
X187390Y325281D01*
X187684Y327510D01*
Y332740D01*
D02*
G37*
G36*
X177800D02*
X170456D01*
Y327510D01*
X170750Y325281D01*
X171610Y323203D01*
X172979Y321419D01*
X174763Y320050D01*
X176841Y319190D01*
X177800Y319063D01*
Y332740D01*
D02*
G37*
G36*
X154940Y348956D02*
Y335280D01*
X162284D01*
Y340510D01*
X161990Y342739D01*
X161130Y344817D01*
X159761Y346601D01*
X157977Y347970D01*
X155899Y348830D01*
X154940Y348956D01*
D02*
G37*
G36*
X177800D02*
X176841Y348830D01*
X174763Y347970D01*
X172979Y346601D01*
X171610Y344817D01*
X170750Y342739D01*
X170456Y340510D01*
Y335280D01*
X177800D01*
Y348956D01*
D02*
G37*
G36*
X180340D02*
Y335280D01*
X187684D01*
Y340510D01*
X187390Y342739D01*
X186530Y344817D01*
X185161Y346601D01*
X183377Y347970D01*
X181299Y348830D01*
X180340Y348956D01*
D02*
G37*
G36*
X404160Y346929D02*
X402430D01*
Y339090D01*
X407769D01*
Y343320D01*
X407495Y344701D01*
X406712Y345872D01*
X405541Y346655D01*
X404160Y346929D01*
D02*
G37*
G36*
X162284Y332740D02*
X154940D01*
Y319063D01*
X155899Y319190D01*
X157977Y320050D01*
X159761Y321419D01*
X161130Y323203D01*
X161990Y325281D01*
X162284Y327510D01*
Y332740D01*
D02*
G37*
G36*
X204470Y349083D02*
X202251Y348791D01*
X200183Y347935D01*
X198408Y346572D01*
X197045Y344797D01*
X196189Y342729D01*
X195897Y340510D01*
Y327510D01*
X196189Y325291D01*
X197045Y323223D01*
X198408Y321448D01*
X200183Y320085D01*
X202251Y319229D01*
X204470Y318937D01*
X206689Y319229D01*
X208757Y320085D01*
X210532Y321448D01*
X211895Y323223D01*
X212751Y325291D01*
X213043Y327510D01*
Y340510D01*
X212751Y342729D01*
X211895Y344797D01*
X210532Y346572D01*
X208757Y347935D01*
X206689Y348791D01*
X204470Y349083D01*
D02*
G37*
G36*
X128270D02*
X126051Y348791D01*
X123983Y347935D01*
X122208Y346572D01*
X120845Y344797D01*
X119989Y342729D01*
X119697Y340510D01*
Y327510D01*
X119989Y325291D01*
X120845Y323223D01*
X122208Y321448D01*
X123983Y320085D01*
X126051Y319229D01*
X128270Y318937D01*
X130489Y319229D01*
X132557Y320085D01*
X134332Y321448D01*
X135695Y323223D01*
X136551Y325291D01*
X136843Y327510D01*
Y340510D01*
X136551Y342729D01*
X135695Y344797D01*
X134332Y346572D01*
X132557Y347935D01*
X130489Y348791D01*
X128270Y349083D01*
D02*
G37*
G36*
X358140Y391591D02*
X355399Y391230D01*
X352845Y390172D01*
X350651Y388489D01*
X348968Y386295D01*
X347910Y383741D01*
X347549Y381000D01*
X347910Y378259D01*
X348968Y375705D01*
X350651Y373511D01*
X352845Y371828D01*
X355399Y370770D01*
X358140Y370409D01*
X360881Y370770D01*
X363435Y371828D01*
X365269Y373235D01*
X367380Y371124D01*
X368738Y370082D01*
X370319Y369427D01*
X372016Y369204D01*
X372500D01*
Y363962D01*
X371809Y363590D01*
X371207Y363620D01*
X368640Y365289D01*
Y366100D01*
X347640D01*
Y345100D01*
X368640D01*
Y348669D01*
X371593Y350616D01*
X371625Y350614D01*
X372107Y350550D01*
X372509Y350474D01*
X372794Y350398D01*
X372894Y350360D01*
X372977Y350237D01*
X374134Y349463D01*
X375500Y349192D01*
X375700D01*
X375787Y348857D01*
X375873Y348332D01*
X375902Y347989D01*
Y346870D01*
X376051Y346120D01*
X375637Y345843D01*
X374863Y344686D01*
X374591Y343320D01*
Y332320D01*
X374863Y330954D01*
X375637Y329797D01*
X376794Y329023D01*
X378160Y328751D01*
X384160D01*
X385526Y329023D01*
X385970Y329320D01*
X393482D01*
X395011Y326384D01*
X394301Y324672D01*
X394226Y324104D01*
X408093D01*
X408019Y324672D01*
X407309Y326384D01*
X407221Y326500D01*
X406712Y329768D01*
X407495Y330939D01*
X407769Y332320D01*
Y336550D01*
X401160D01*
Y337820D01*
X399890D01*
Y346929D01*
X398160D01*
X396779Y346655D01*
X396278Y346320D01*
X390461D01*
X389459Y347237D01*
X388353Y349319D01*
X388517Y349898D01*
X389023Y350237D01*
X389797Y351394D01*
X390069Y352760D01*
Y358760D01*
X389797Y360126D01*
X389500Y360570D01*
Y370950D01*
X389797Y371394D01*
X390069Y372760D01*
Y378760D01*
X389797Y380126D01*
X389023Y381283D01*
X387866Y382057D01*
X386500Y382328D01*
X375500D01*
X375437Y382316D01*
X374732D01*
X374078Y382970D01*
X373327Y384782D01*
X372125Y386349D01*
X370558Y387551D01*
X368734Y388307D01*
X366776Y388565D01*
X365530D01*
X363435Y390172D01*
X360881Y391230D01*
X358140Y391591D01*
D02*
G37*
G36*
X152400Y332740D02*
X145056D01*
Y327510D01*
X145350Y325281D01*
X146210Y323203D01*
X147579Y321419D01*
X149363Y320050D01*
X151441Y319190D01*
X152400Y319063D01*
Y332740D01*
D02*
G37*
G36*
X255270Y425283D02*
X253051Y424991D01*
X250983Y424135D01*
X249208Y422772D01*
X247845Y420997D01*
X246989Y418929D01*
X246697Y416710D01*
Y403710D01*
X246989Y401491D01*
X247845Y399423D01*
X248181Y398985D01*
X248260Y398827D01*
X248679Y398279D01*
X249005Y397789D01*
X249289Y397287D01*
X249534Y396773D01*
X249741Y396244D01*
X249911Y395696D01*
X250045Y395128D01*
X250141Y394537D01*
X250172Y394213D01*
Y388192D01*
X239188Y377208D01*
X93980D01*
X92029Y376820D01*
X90375Y375715D01*
X73865Y359205D01*
X72760Y357551D01*
X72372Y355600D01*
Y350362D01*
X72339Y349989D01*
X72251Y349453D01*
X72149Y349073D01*
X72123Y349010D01*
X68970D01*
Y319010D01*
X85970D01*
Y349010D01*
X82817D01*
X82791Y349073D01*
X82689Y349453D01*
X82601Y349989D01*
X82568Y350362D01*
Y353488D01*
X96092Y367012D01*
X241300D01*
X243251Y367400D01*
X244905Y368505D01*
X258875Y382475D01*
X259980Y384129D01*
X260368Y386080D01*
Y394213D01*
X260399Y394537D01*
X260495Y395128D01*
X260629Y395696D01*
X260799Y396243D01*
X261006Y396773D01*
X261251Y397287D01*
X261535Y397789D01*
X261861Y398279D01*
X262281Y398827D01*
X262358Y398985D01*
X262695Y399423D01*
X263551Y401491D01*
X263843Y403710D01*
Y416710D01*
X263551Y418929D01*
X262695Y420997D01*
X261332Y422772D01*
X259557Y424135D01*
X257489Y424991D01*
X255270Y425283D01*
D02*
G37*
%LPD*%
G36*
X470982Y62698D02*
X471162Y60558D01*
X471270Y59992D01*
X471402Y59500D01*
X471558Y59082D01*
X471737Y58737D01*
X471941Y58466D01*
X472169Y58269D01*
X464771D01*
X464999Y58466D01*
X465203Y58737D01*
X465382Y59082D01*
X465538Y59500D01*
X465670Y59992D01*
X465778Y60558D01*
X465862Y61197D01*
X465958Y62698D01*
X465970Y63559D01*
X470970D01*
X470982Y62698D01*
D02*
G37*
G36*
X444512Y47070D02*
X444462Y47545D01*
X444311Y47970D01*
X444059Y48345D01*
X443707Y48670D01*
X443254Y48945D01*
X442701Y49170D01*
X442047Y49345D01*
X441292Y49470D01*
X440437Y49545D01*
X439482Y49570D01*
Y54570D01*
X440437Y54595D01*
X441292Y54670D01*
X442047Y54795D01*
X442701Y54970D01*
X443254Y55195D01*
X443707Y55470D01*
X444059Y55795D01*
X444311Y56170D01*
X444462Y56595D01*
X444512Y57070D01*
Y47070D01*
D02*
G37*
G36*
X422026Y56061D02*
X422567Y55748D01*
X423149Y55472D01*
X423772Y55233D01*
X424435Y55030D01*
X425139Y54865D01*
X425884Y54736D01*
X426670Y54644D01*
X428363Y54570D01*
Y49570D01*
X427496Y49552D01*
X425884Y49404D01*
X425139Y49275D01*
X424435Y49110D01*
X423772Y48907D01*
X423149Y48668D01*
X422567Y48392D01*
X422026Y48079D01*
X421526Y47729D01*
Y56411D01*
X422026Y56061D01*
D02*
G37*
G36*
X383128Y223696D02*
X383847Y223094D01*
X384572Y222564D01*
X385303Y222105D01*
X386040Y221718D01*
X386783Y221403D01*
X387532Y221159D01*
X388287Y220988D01*
X389048Y220888D01*
X389815Y220860D01*
X382390Y213435D01*
X382362Y214202D01*
X382262Y214963D01*
X382091Y215718D01*
X381847Y216467D01*
X381532Y217210D01*
X381145Y217947D01*
X380686Y218678D01*
X380156Y219403D01*
X379554Y220122D01*
X378880Y220835D01*
X382415Y224370D01*
X383128Y223696D01*
D02*
G37*
G36*
X440097Y304030D02*
X439988Y303576D01*
X439892Y302946D01*
X439739Y301160D01*
X439586Y295483D01*
X439580Y293625D01*
X429580D01*
X429573Y295483D01*
X429063Y304030D01*
X428942Y304308D01*
X440218D01*
X440097Y304030D01*
D02*
G37*
G36*
X234385Y323561D02*
X233962Y322924D01*
X233589Y322265D01*
X233265Y321587D01*
X232992Y320887D01*
X232768Y320167D01*
X232594Y319426D01*
X232470Y318664D01*
X232395Y317881D01*
X232370Y317078D01*
X227370D01*
X227345Y317881D01*
X227271Y318664D01*
X227146Y319426D01*
X226972Y320167D01*
X226748Y320887D01*
X226474Y321587D01*
X226151Y322265D01*
X225778Y322924D01*
X225355Y323561D01*
X224883Y324178D01*
X234858D01*
X234385Y323561D01*
D02*
G37*
G36*
X107385D02*
X106962Y322924D01*
X106589Y322265D01*
X106265Y321587D01*
X105992Y320887D01*
X105768Y320167D01*
X105594Y319426D01*
X105470Y318664D01*
X105395Y317881D01*
X105370Y317078D01*
X100370D01*
X100345Y317881D01*
X100271Y318664D01*
X100146Y319426D01*
X99972Y320167D01*
X99748Y320887D01*
X99474Y321587D01*
X99151Y322265D01*
X98778Y322924D01*
X98355Y323561D01*
X97882Y324178D01*
X107858D01*
X107385Y323561D01*
D02*
G37*
G36*
X448218Y187118D02*
X448318Y186357D01*
X448489Y185602D01*
X448733Y184853D01*
X449048Y184110D01*
X449435Y183373D01*
X449894Y182642D01*
X450424Y181917D01*
X451026Y181198D01*
X451700Y180485D01*
X448165Y176950D01*
X447452Y177624D01*
X446733Y178226D01*
X446008Y178756D01*
X445277Y179215D01*
X444540Y179602D01*
X443797Y179917D01*
X443048Y180161D01*
X442293Y180332D01*
X441532Y180432D01*
X440765Y180460D01*
X448190Y187885D01*
X448218Y187118D01*
D02*
G37*
G36*
X364415Y180460D02*
X363648Y180432D01*
X362887Y180332D01*
X362132Y180161D01*
X361383Y179917D01*
X360640Y179602D01*
X359903Y179215D01*
X359172Y178756D01*
X358447Y178226D01*
X357728Y177624D01*
X357015Y176950D01*
X353480Y180485D01*
X354154Y181198D01*
X354756Y181917D01*
X355286Y182642D01*
X355745Y183373D01*
X356132Y184110D01*
X356447Y184853D01*
X356691Y185602D01*
X356862Y186357D01*
X356962Y187118D01*
X356990Y187885D01*
X364415Y180460D01*
D02*
G37*
G36*
X366111Y358672D02*
X366208Y358552D01*
X366370Y358446D01*
X366597Y358354D01*
X366888Y358277D01*
X367244Y358213D01*
X367665Y358164D01*
X368701Y358107D01*
X369316Y358100D01*
Y353100D01*
X368701Y353093D01*
X367244Y352987D01*
X366888Y352923D01*
X366597Y352846D01*
X366370Y352754D01*
X366208Y352648D01*
X366111Y352528D01*
X366079Y352393D01*
Y358806D01*
X366111Y358672D01*
D02*
G37*
G36*
X259785Y399761D02*
X259362Y399123D01*
X258989Y398465D01*
X258666Y397787D01*
X258392Y397087D01*
X258168Y396367D01*
X257994Y395625D01*
X257869Y394864D01*
X257795Y394081D01*
X257770Y393278D01*
X252770D01*
X252745Y394081D01*
X252670Y394864D01*
X252546Y395625D01*
X252372Y396367D01*
X252148Y397087D01*
X251875Y397787D01*
X251551Y398465D01*
X251178Y399123D01*
X250755Y399761D01*
X250282Y400378D01*
X260257D01*
X259785Y399761D01*
D02*
G37*
G36*
X233642Y151742D02*
X233824Y148971D01*
X233867Y148937D01*
X228413D01*
X228456Y148971D01*
X228495Y149075D01*
X228529Y149248D01*
X228558Y149491D01*
X228604Y150183D01*
X228640Y152400D01*
X233640D01*
X233642Y151742D01*
D02*
G37*
G36*
X106665Y153289D02*
X106740Y152506D01*
X106864Y151744D01*
X107038Y151003D01*
X107262Y150283D01*
X107535Y149583D01*
X107859Y148905D01*
X108232Y148246D01*
X108655Y147609D01*
X109128Y146993D01*
X99152D01*
X99625Y147609D01*
X100048Y148246D01*
X100421Y148905D01*
X100744Y149583D01*
X101018Y150283D01*
X101242Y151003D01*
X101416Y151744D01*
X101540Y152506D01*
X101615Y153289D01*
X101640Y154093D01*
X106640D01*
X106665Y153289D01*
D02*
G37*
G36*
X262529Y139449D02*
X262680Y139024D01*
X262932Y138649D01*
X263284Y138324D01*
X263737Y138049D01*
X264290Y137824D01*
X264944Y137649D01*
X265699Y137524D01*
X266554Y137449D01*
X267509Y137424D01*
Y132424D01*
X266554Y132399D01*
X265699Y132324D01*
X264944Y132199D01*
X264290Y132024D01*
X263737Y131799D01*
X263284Y131524D01*
X262932Y131199D01*
X262680Y130824D01*
X262529Y130399D01*
X262479Y129924D01*
Y139924D01*
X262529Y139449D01*
D02*
G37*
G36*
X394569Y182098D02*
X394010Y181601D01*
X393510Y181050D01*
X393069Y180443D01*
X392687Y179782D01*
X392363Y179066D01*
X392099Y178295D01*
X391893Y177470D01*
X391746Y176589D01*
X391657Y175654D01*
X391628Y174664D01*
X386628Y175207D01*
X386603Y176176D01*
X386528Y177108D01*
X386403Y178000D01*
X386227Y178854D01*
X386002Y179669D01*
X385726Y180445D01*
X385401Y181183D01*
X385025Y181883D01*
X384599Y182543D01*
X384123Y183165D01*
X394569Y182098D01*
D02*
G37*
G36*
X357728Y223696D02*
X358447Y223094D01*
X359172Y222564D01*
X359903Y222105D01*
X360640Y221718D01*
X361383Y221403D01*
X362132Y221159D01*
X362887Y220988D01*
X363648Y220888D01*
X364415Y220860D01*
X356990Y213435D01*
X356962Y214202D01*
X356862Y214963D01*
X356691Y215718D01*
X356447Y216467D01*
X356132Y217210D01*
X355745Y217947D01*
X355286Y218678D01*
X354756Y219403D01*
X354154Y220122D01*
X353480Y220835D01*
X357015Y224370D01*
X357728Y223696D01*
D02*
G37*
G36*
X460674Y225918D02*
X464355Y222800D01*
X465982Y221666D01*
X467467Y220814D01*
X468810Y220245D01*
X470011Y219960D01*
X471071Y219957D01*
X471988Y220236D01*
X472763Y220799D01*
X458651Y206687D01*
X459214Y207462D01*
X459493Y208379D01*
X459490Y209439D01*
X459204Y210640D01*
X458636Y211983D01*
X457784Y213468D01*
X456650Y215096D01*
X455233Y216865D01*
X451549Y220830D01*
X458620Y227901D01*
X460674Y225918D01*
D02*
G37*
G36*
X406514Y60429D02*
X406014Y60779D01*
X405473Y61092D01*
X404891Y61368D01*
X404268Y61607D01*
X403605Y61810D01*
X402901Y61975D01*
X402156Y62104D01*
X401370Y62196D01*
X399677Y62270D01*
Y67270D01*
X400544Y67288D01*
X402156Y67436D01*
X402901Y67565D01*
X403605Y67730D01*
X404268Y67933D01*
X404891Y68172D01*
X405473Y68448D01*
X406014Y68761D01*
X406514Y69111D01*
Y60429D01*
D02*
G37*
G36*
X335149Y70565D02*
X335300Y70140D01*
X335552Y69765D01*
X335904Y69440D01*
X336357Y69165D01*
X336910Y68940D01*
X337564Y68765D01*
X338318Y68640D01*
X339174Y68565D01*
X340130Y68540D01*
Y63540D01*
X339174Y63515D01*
X338318Y63440D01*
X337564Y63315D01*
X336910Y63140D01*
X336357Y62915D01*
X335904Y62640D01*
X335552Y62315D01*
X335300Y61940D01*
X335149Y61515D01*
X335099Y61040D01*
Y71040D01*
X335149Y70565D01*
D02*
G37*
G36*
X385445Y351753D02*
X385037Y351605D01*
X384677Y351358D01*
X384365Y351013D01*
X384100Y350569D01*
X383884Y350027D01*
X383716Y349385D01*
X383596Y348646D01*
X383524Y347807D01*
X383500Y346870D01*
X378500D01*
X378476Y347807D01*
X378404Y348646D01*
X378284Y349385D01*
X378116Y350027D01*
X377900Y350569D01*
X377635Y351013D01*
X377323Y351358D01*
X376963Y351605D01*
X376555Y351753D01*
X376099Y351802D01*
X385901D01*
X385445Y351753D01*
D02*
G37*
G36*
X374801Y352061D02*
X374604Y352289D01*
X374333Y352493D01*
X373988Y352673D01*
X373570Y352828D01*
X373078Y352960D01*
X372512Y353068D01*
X371873Y353152D01*
X370372Y353248D01*
X369511Y353260D01*
Y358260D01*
X370372Y358272D01*
X372512Y358452D01*
X373078Y358560D01*
X373570Y358692D01*
X373988Y358848D01*
X374333Y359027D01*
X374604Y359231D01*
X374801Y359459D01*
Y352061D01*
D02*
G37*
G36*
X79995Y350524D02*
X80070Y349669D01*
X80195Y348914D01*
X80370Y348260D01*
X80595Y347707D01*
X80870Y347254D01*
X81195Y346902D01*
X81570Y346650D01*
X81995Y346499D01*
X82470Y346449D01*
X72470D01*
X72945Y346499D01*
X73370Y346650D01*
X73745Y346902D01*
X74070Y347254D01*
X74345Y347707D01*
X74570Y348260D01*
X74745Y348914D01*
X74870Y349669D01*
X74945Y350524D01*
X74970Y351479D01*
X79970D01*
X79995Y350524D01*
D02*
G37*
G36*
X333734Y182710D02*
X333172Y183232D01*
X332563Y183700D01*
X331908Y184112D01*
X331206Y184470D01*
X330457Y184772D01*
X329663Y185020D01*
X328821Y185212D01*
X327934Y185350D01*
X327000Y185432D01*
X326019Y185460D01*
Y190460D01*
X327000Y190487D01*
X327934Y190570D01*
X328821Y190707D01*
X329663Y190900D01*
X330457Y191147D01*
X331206Y191450D01*
X331908Y191807D01*
X332563Y192220D01*
X333172Y192687D01*
X333734Y193210D01*
Y182710D01*
D02*
G37*
D10*
X381000Y375760D02*
D03*
Y355760D02*
D03*
D12*
X434580Y244870D02*
Y312420D01*
Y244870D02*
X466090Y213360D01*
X358140Y381000D02*
X366776D01*
X439530Y432212D02*
X446800Y424942D01*
X439530Y432212D02*
Y444500D01*
X416800Y412750D02*
Y439770D01*
X421530Y444500D01*
D14*
X256540Y134924D02*
Y137160D01*
X361746Y134924D02*
X389128Y162306D01*
Y187960D02*
X389890D01*
X102870Y254000D02*
Y334010D01*
Y254000D02*
X121158Y235712D01*
X342138D01*
X364490Y213360D01*
X229870Y266700D02*
Y334010D01*
Y266700D02*
X253238Y243332D01*
X359918D01*
X389890Y213360D01*
X381160Y337820D02*
Y346710D01*
X381000Y346870D02*
X381160Y346710D01*
X381000Y346870D02*
Y355760D01*
X358140Y355600D02*
X369316D01*
X369476Y355760D01*
X381000D01*
X327660Y66040D02*
X370840D01*
X372110Y64770D01*
X414020D01*
X337058Y160528D02*
X364490Y187960D01*
X239268Y160528D02*
X337058D01*
X231140Y152400D02*
X239268Y160528D01*
X231140Y137160D02*
Y152400D01*
X104140Y137160D02*
Y165100D01*
X127000Y187960D01*
X339090D01*
X77470Y334010D02*
Y355600D01*
X93980Y372110D01*
X241300D01*
X255270Y386080D01*
Y410210D01*
X440690Y187960D02*
X468470Y160180D01*
Y52070D02*
Y160180D01*
X414020Y52070D02*
X448470D01*
X256540Y134924D02*
X361746D01*
X389128Y162306D02*
Y187960D01*
D15*
X255270Y352030D02*
X298450Y395210D01*
X255270Y334010D02*
Y352030D01*
X101600Y91440D02*
X327660D01*
X78740Y114300D02*
X101600Y91440D01*
X78740Y114300D02*
Y137160D01*
X446800Y392270D02*
X458070Y381000D01*
X358140Y406400D02*
X364490Y412750D01*
X439820Y349250D02*
X521970D01*
X408070Y381000D02*
X439820Y349250D01*
X408070Y381000D02*
Y392430D01*
D16*
X34931Y83971D02*
X38263Y87304D01*
X44928D01*
X48260Y83971D01*
Y80639D01*
X44928Y77307D01*
X38263D01*
X34931Y73974D01*
Y70642D01*
X38263Y67310D01*
X44928D01*
X48260Y70642D01*
X14937Y83971D02*
X18270Y87304D01*
X24934D01*
X28266Y83971D01*
Y80639D01*
X24934Y77307D01*
X18270D01*
X14937Y73974D01*
Y70642D01*
X18270Y67310D01*
X24934D01*
X28266Y70642D01*
D17*
X521970Y27940D02*
D03*
X27940D02*
D03*
X521970Y472440D02*
D03*
X27940D02*
D03*
D18*
X358140Y406400D02*
D03*
Y381000D02*
D03*
D19*
Y355600D02*
D03*
D20*
X521970Y374650D02*
D03*
X327660Y66040D02*
D03*
D21*
X521970Y349250D02*
D03*
X327660Y91440D02*
D03*
X180340Y200660D02*
D03*
X339090Y187960D02*
D03*
Y213360D02*
D03*
X364490Y187960D02*
D03*
Y213360D02*
D03*
X389890Y187960D02*
D03*
Y213360D02*
D03*
X415290Y187960D02*
D03*
Y213360D02*
D03*
X440690Y187960D02*
D03*
Y213360D02*
D03*
X466090Y187960D02*
D03*
X179070Y471170D02*
D03*
X153670Y274320D02*
D03*
D22*
X458070Y381000D02*
D03*
D23*
X408070D02*
D03*
D24*
X414020Y64770D02*
D03*
Y52070D02*
D03*
D25*
Y39370D02*
D03*
D26*
X78740Y60960D02*
D03*
X104140D02*
D03*
X129540D02*
D03*
X154940D02*
D03*
X180340D02*
D03*
X205740D02*
D03*
X231140D02*
D03*
X256540D02*
D03*
X78740Y137160D02*
D03*
X104140D02*
D03*
X129540D02*
D03*
X154940D02*
D03*
X180340D02*
D03*
X205740D02*
D03*
X231140D02*
D03*
X255270Y410210D02*
D03*
X229870D02*
D03*
X204470D02*
D03*
X179070D02*
D03*
X153670D02*
D03*
X128270D02*
D03*
X102870D02*
D03*
X77470D02*
D03*
X255270Y334010D02*
D03*
X229870D02*
D03*
X204470D02*
D03*
X179070D02*
D03*
X153670D02*
D03*
X128270D02*
D03*
X102870D02*
D03*
D27*
X256540Y137160D02*
D03*
X77470Y334010D02*
D03*
D28*
X154940Y200660D02*
D03*
X466090Y213360D02*
D03*
X153670Y471170D02*
D03*
X179070Y274320D02*
D03*
D29*
X401160Y322834D02*
D03*
D30*
X464580Y312420D02*
D03*
X434580D02*
D03*
X446800Y412750D02*
D03*
X416800D02*
D03*
D31*
X448470Y52070D02*
D03*
X468470D02*
D03*
X381160Y337820D02*
D03*
X401160D02*
D03*
D32*
X439530Y444500D02*
D03*
X421530D02*
D03*
D33*
X317500Y425210D02*
D03*
Y395210D02*
D03*
D34*
X401160Y322834D02*
Y337820D01*
X366776Y381000D02*
X372016Y375760D01*
X381000D01*
D35*
X298450Y395210D02*
X317500D01*
X446800Y392270D02*
Y412750D01*
X317500Y395210D02*
X343676Y406400D01*
X358140D01*
X364490Y412750D02*
X416800D01*
X446800D02*
Y424942D01*
X408070Y392430D02*
X416800Y401160D01*
Y412750D01*
M02*
