G04 Layer_Color=65535*
%FSLAX44Y44*%
%MOMM*%
G71*
G01*
G75*
%ADD16C,0.2540*%
%ADD36C,0.2500*%
%ADD37C,0.1524*%
%ADD38C,0.2000*%
%ADD39C,0.1270*%
%ADD40C,0.2032*%
G36*
X422061Y107284D02*
X413656D01*
Y101544D01*
X420948D01*
Y99669D01*
X413656D01*
Y93314D01*
X422207D01*
Y91440D01*
X411255D01*
Y109187D01*
X422061D01*
Y107284D01*
D02*
G37*
G36*
X364104Y109158D02*
X364338D01*
X364631Y109100D01*
X364924Y109070D01*
X365246Y109012D01*
X365978Y108836D01*
X366710Y108572D01*
X367062Y108397D01*
X367413Y108221D01*
X367735Y107987D01*
X368057Y107723D01*
X368087Y107694D01*
X368116Y107665D01*
X368204Y107577D01*
X368292Y107460D01*
X368438Y107313D01*
X368555Y107137D01*
X368702Y106932D01*
X368848Y106698D01*
X369141Y106142D01*
X369404Y105468D01*
X369580Y104707D01*
X369609Y104297D01*
X369639Y103857D01*
Y103828D01*
Y103740D01*
Y103623D01*
X369609Y103447D01*
X369580Y103242D01*
X369551Y103008D01*
X369434Y102481D01*
X369258Y101866D01*
X368965Y101222D01*
X368789Y100899D01*
X368585Y100577D01*
X368350Y100284D01*
X368057Y99992D01*
X368028Y99962D01*
X367999Y99933D01*
X367882Y99874D01*
X367765Y99757D01*
X367618Y99669D01*
X367413Y99552D01*
X367179Y99406D01*
X366915Y99289D01*
X366622Y99142D01*
X366271Y99025D01*
X365919Y98879D01*
X365539Y98791D01*
X365099Y98703D01*
X364631Y98615D01*
X364162Y98586D01*
X363635Y98556D01*
X359242D01*
Y91440D01*
X356841D01*
Y109187D01*
X363899D01*
X364104Y109158D01*
D02*
G37*
G36*
X469885Y109422D02*
X470178Y109392D01*
X470471Y109334D01*
X470823Y109275D01*
X471233Y109187D01*
X471613Y109070D01*
X472053Y108924D01*
X472492Y108748D01*
X472931Y108543D01*
X473341Y108280D01*
X473781Y107987D01*
X474190Y107665D01*
X474571Y107284D01*
X474600Y107254D01*
X474659Y107196D01*
X474747Y107079D01*
X474893Y106903D01*
X475040Y106698D01*
X475215Y106434D01*
X475391Y106142D01*
X475596Y105820D01*
X475772Y105439D01*
X475948Y105029D01*
X476123Y104590D01*
X476270Y104092D01*
X476416Y103594D01*
X476504Y103037D01*
X476563Y102481D01*
X476592Y101866D01*
Y98732D01*
Y98703D01*
Y98586D01*
Y98410D01*
X476563Y98176D01*
X476533Y97912D01*
X476475Y97590D01*
X476416Y97209D01*
X476328Y96829D01*
X476241Y96419D01*
X476094Y95979D01*
X475948Y95511D01*
X475743Y95071D01*
X475508Y94603D01*
X475245Y94164D01*
X474923Y93724D01*
X474571Y93314D01*
X474542Y93285D01*
X474483Y93226D01*
X474366Y93109D01*
X474220Y92992D01*
X474015Y92816D01*
X473781Y92641D01*
X473488Y92465D01*
X473166Y92260D01*
X472814Y92055D01*
X472433Y91879D01*
X471994Y91704D01*
X471525Y91528D01*
X471028Y91411D01*
X470500Y91294D01*
X469944Y91235D01*
X469358Y91206D01*
X469212D01*
X469065Y91235D01*
X468831D01*
X468568Y91264D01*
X468275Y91323D01*
X467923Y91381D01*
X467542Y91469D01*
X467162Y91586D01*
X466752Y91733D01*
X466312Y91879D01*
X465902Y92084D01*
X465493Y92348D01*
X465053Y92611D01*
X464673Y92934D01*
X464292Y93314D01*
X464263Y93344D01*
X464204Y93402D01*
X464116Y93549D01*
X463999Y93695D01*
X463853Y93900D01*
X463677Y94164D01*
X463501Y94457D01*
X463325Y94808D01*
X463150Y95159D01*
X462974Y95569D01*
X462798Y96009D01*
X462652Y96507D01*
X462535Y97004D01*
X462447Y97561D01*
X462388Y98117D01*
X462359Y98732D01*
Y101866D01*
Y101895D01*
Y102012D01*
Y102188D01*
X462388Y102422D01*
X462417Y102686D01*
X462476Y103008D01*
X462535Y103359D01*
X462593Y103770D01*
X462827Y104619D01*
X462974Y105058D01*
X463179Y105527D01*
X463384Y105966D01*
X463647Y106434D01*
X463940Y106874D01*
X464292Y107284D01*
X464321Y107313D01*
X464380Y107372D01*
X464497Y107489D01*
X464643Y107635D01*
X464848Y107782D01*
X465083Y107957D01*
X465346Y108162D01*
X465639Y108367D01*
X465990Y108572D01*
X466371Y108777D01*
X466781Y108953D01*
X467250Y109100D01*
X467718Y109246D01*
X468245Y109363D01*
X468773Y109422D01*
X469358Y109451D01*
X469680D01*
X469885Y109422D01*
D02*
G37*
G36*
X493285Y91440D02*
X490825D01*
X489273Y96009D01*
X482566D01*
X480985Y91440D01*
X478525D01*
X484939Y109187D01*
X486989D01*
X493285Y91440D01*
D02*
G37*
G36*
X453427Y109158D02*
X453661D01*
X453924Y109129D01*
X454217Y109100D01*
X454539Y109041D01*
X455242Y108895D01*
X455975Y108690D01*
X456677Y108397D01*
X457322Y107987D01*
X457351D01*
X457380Y107928D01*
X457556Y107752D01*
X457820Y107489D01*
X458112Y107079D01*
X458405Y106581D01*
X458669Y105966D01*
X458844Y105234D01*
X458874Y104824D01*
X458903Y104384D01*
Y104326D01*
Y104179D01*
X458874Y103975D01*
X458815Y103711D01*
X458727Y103389D01*
X458581Y103037D01*
X458405Y102686D01*
X458171Y102334D01*
X458142Y102305D01*
X458054Y102188D01*
X457878Y102012D01*
X457673Y101807D01*
X457410Y101602D01*
X457087Y101368D01*
X456707Y101134D01*
X456297Y100929D01*
X456385D01*
X456472Y100899D01*
X456590Y100870D01*
X456912Y100782D01*
X457292Y100665D01*
X457732Y100460D01*
X458200Y100197D01*
X458639Y99845D01*
X459050Y99406D01*
X459108Y99347D01*
X459225Y99172D01*
X459372Y98908D01*
X459577Y98556D01*
X459752Y98117D01*
X459928Y97619D01*
X460045Y97063D01*
X460075Y96448D01*
Y96419D01*
Y96331D01*
Y96214D01*
X460045Y96038D01*
X460016Y95833D01*
X459987Y95599D01*
X459870Y95071D01*
X459694Y94457D01*
X459401Y93841D01*
X459225Y93519D01*
X459020Y93226D01*
X458786Y92963D01*
X458493Y92699D01*
X458464D01*
X458434Y92641D01*
X458317Y92582D01*
X458200Y92494D01*
X458054Y92406D01*
X457849Y92289D01*
X457615Y92201D01*
X457380Y92084D01*
X457087Y91967D01*
X456765Y91850D01*
X456414Y91733D01*
X456033Y91645D01*
X455184Y91499D01*
X454715Y91469D01*
X454217Y91440D01*
X447159D01*
Y109187D01*
X453222D01*
X453427Y109158D01*
D02*
G37*
G36*
X431608D02*
X431872D01*
X432136Y109129D01*
X432458Y109070D01*
X432780Y109012D01*
X433483Y108865D01*
X434244Y108631D01*
X434947Y108309D01*
X435269Y108104D01*
X435562Y107870D01*
X435591D01*
X435621Y107811D01*
X435709Y107723D01*
X435796Y107635D01*
X435914Y107489D01*
X436060Y107342D01*
X436353Y106932D01*
X436616Y106376D01*
X436880Y105732D01*
X437056Y105000D01*
X437085Y104560D01*
X437114Y104121D01*
Y104092D01*
Y104062D01*
Y103887D01*
X437085Y103623D01*
X437026Y103301D01*
X436939Y102920D01*
X436821Y102540D01*
X436646Y102129D01*
X436411Y101720D01*
X436382Y101690D01*
X436294Y101544D01*
X436119Y101368D01*
X435884Y101163D01*
X435591Y100899D01*
X435240Y100636D01*
X434830Y100372D01*
X434332Y100138D01*
X434361D01*
X434391Y100109D01*
X434566Y100050D01*
X434830Y99933D01*
X435152Y99757D01*
X435503Y99552D01*
X435855Y99289D01*
X436177Y98967D01*
X436441Y98586D01*
X436470Y98527D01*
X436529Y98410D01*
X436646Y98176D01*
X436763Y97854D01*
X436880Y97473D01*
X436997Y97034D01*
X437056Y96507D01*
X437085Y95950D01*
Y94281D01*
Y94251D01*
Y94134D01*
Y93988D01*
X437114Y93783D01*
Y93549D01*
X437173Y93314D01*
X437261Y92787D01*
Y92758D01*
X437290Y92670D01*
X437349Y92553D01*
X437407Y92406D01*
X437583Y92084D01*
X437876Y91733D01*
Y91440D01*
X435416D01*
X435386Y91469D01*
X435328Y91528D01*
X435269Y91616D01*
X435152Y91733D01*
X435064Y91909D01*
X434947Y92114D01*
X434859Y92377D01*
X434801Y92641D01*
Y92670D01*
X434771Y92787D01*
Y92934D01*
X434742Y93168D01*
X434713Y93402D01*
Y93695D01*
X434683Y94310D01*
Y95921D01*
Y95950D01*
Y95979D01*
Y96155D01*
X434654Y96419D01*
X434566Y96741D01*
X434478Y97121D01*
X434332Y97502D01*
X434127Y97883D01*
X433834Y98234D01*
X433805Y98264D01*
X433688Y98381D01*
X433483Y98527D01*
X433248Y98674D01*
X432897Y98849D01*
X432516Y98967D01*
X432077Y99084D01*
X431579Y99113D01*
X427450D01*
Y91440D01*
X425048D01*
Y109187D01*
X431433D01*
X431608Y109158D01*
D02*
G37*
G36*
X512814Y145545D02*
X513205D01*
X513693Y145447D01*
X514181Y145398D01*
X514767Y145301D01*
X515988Y145008D01*
X517208Y144568D01*
X517843Y144324D01*
X518428Y143982D01*
X518965Y143641D01*
X519502Y143201D01*
X519551Y143153D01*
X519600Y143104D01*
X519747Y142957D01*
X519893Y142762D01*
X520137Y142518D01*
X520332Y142225D01*
X520577Y141883D01*
X520821Y141493D01*
X521065Y141053D01*
X521309Y140565D01*
X521748Y139394D01*
X522041Y138124D01*
X522090Y137392D01*
X522139Y136611D01*
Y136562D01*
Y136464D01*
Y136318D01*
Y136123D01*
X522041Y135634D01*
X521943Y134951D01*
X521797Y134170D01*
X521504Y133340D01*
X521162Y132461D01*
X520674Y131631D01*
X520625Y131534D01*
X520528Y131387D01*
X520381Y131241D01*
X520235Y130997D01*
X519991Y130753D01*
X519747Y130411D01*
X519454Y130020D01*
X519112Y129581D01*
X518721Y129142D01*
X518282Y128605D01*
X517794Y128019D01*
X517257Y127384D01*
X516671Y126749D01*
X515988Y126017D01*
X515304Y125236D01*
X511692Y120940D01*
X511740Y120842D01*
X523164D01*
Y115570D01*
X502611D01*
Y120013D01*
X511692Y130020D01*
Y130069D01*
X511789Y130118D01*
X511984Y130362D01*
X512326Y130753D01*
X512717Y131290D01*
X513156Y131827D01*
X513595Y132461D01*
X514035Y133096D01*
X514376Y133731D01*
X514425Y133779D01*
X514523Y134024D01*
X514669Y134316D01*
X514816Y134707D01*
X514962Y135146D01*
X515109Y135586D01*
X515206Y136074D01*
X515255Y136562D01*
Y136660D01*
Y136855D01*
X515206Y137148D01*
X515158Y137538D01*
X515060Y137978D01*
X514913Y138417D01*
X514718Y138857D01*
X514474Y139247D01*
X514425Y139296D01*
X514328Y139394D01*
X514132Y139589D01*
X513888Y139784D01*
X513547Y139931D01*
X513107Y140126D01*
X512570Y140224D01*
X511984Y140272D01*
X511740D01*
X511447Y140224D01*
X511057Y140126D01*
X510666Y139931D01*
X510276Y139735D01*
X509836Y139394D01*
X509495Y138954D01*
X509446Y138905D01*
X509348Y138710D01*
X509202Y138466D01*
X509055Y138076D01*
X508909Y137587D01*
X508762Y137001D01*
X508665Y136367D01*
X508616Y135634D01*
X501879D01*
X501830Y135781D01*
Y135830D01*
Y135976D01*
Y136172D01*
X501879Y136464D01*
Y136806D01*
X501928Y137246D01*
X502025Y137685D01*
X502123Y138173D01*
X502465Y139296D01*
X502660Y139833D01*
X502904Y140419D01*
X503246Y141005D01*
X503588Y141590D01*
X504027Y142176D01*
X504515Y142713D01*
X504564Y142762D01*
X504662Y142860D01*
X504808Y142957D01*
X505052Y143153D01*
X505296Y143397D01*
X505638Y143641D01*
X506077Y143885D01*
X506517Y144178D01*
X507005Y144422D01*
X507591Y144666D01*
X508176Y144910D01*
X508860Y145154D01*
X509592Y145350D01*
X510325Y145447D01*
X511155Y145545D01*
X511984Y145594D01*
X512473D01*
X512814Y145545D01*
D02*
G37*
G36*
X420791Y120842D02*
X433484D01*
Y115570D01*
X413907D01*
Y145154D01*
X420791D01*
Y120842D01*
D02*
G37*
G36*
X397944Y145105D02*
X398383D01*
X398920Y145057D01*
X399506Y145008D01*
X400140Y144910D01*
X401556Y144666D01*
X402972Y144276D01*
X404339Y143787D01*
X405022Y143446D01*
X405608Y143104D01*
X405657D01*
X405755Y143006D01*
X405901Y142908D01*
X406096Y142713D01*
X406585Y142225D01*
X407170Y141590D01*
X407756Y140712D01*
X408244Y139686D01*
X408440Y139052D01*
X408586Y138417D01*
X408684Y137734D01*
X408733Y137001D01*
Y136904D01*
Y136660D01*
X408684Y136269D01*
X408635Y135732D01*
X408489Y135146D01*
X408342Y134512D01*
X408098Y133877D01*
X407756Y133242D01*
X407707Y133194D01*
X407561Y132998D01*
X407317Y132705D01*
X407024Y132315D01*
X406585Y131924D01*
X406048Y131534D01*
X405413Y131143D01*
X404681Y130801D01*
X404729D01*
X404778Y130753D01*
X404925D01*
X405120Y130704D01*
X405559Y130509D01*
X406145Y130265D01*
X406780Y129972D01*
X407463Y129532D01*
X408049Y129044D01*
X408586Y128409D01*
X408635Y128312D01*
X408782Y128116D01*
X408977Y127726D01*
X409221Y127238D01*
X409465Y126652D01*
X409660Y125920D01*
X409807Y125139D01*
X409855Y124309D01*
Y124260D01*
Y124113D01*
Y123918D01*
X409807Y123576D01*
X409758Y123235D01*
X409709Y122795D01*
X409514Y121868D01*
X409123Y120794D01*
X408928Y120257D01*
X408635Y119720D01*
X408293Y119183D01*
X407903Y118694D01*
X407463Y118206D01*
X406926Y117767D01*
X406878D01*
X406780Y117669D01*
X406633Y117572D01*
X406389Y117425D01*
X406096Y117279D01*
X405755Y117083D01*
X405315Y116888D01*
X404827Y116693D01*
X404241Y116449D01*
X403656Y116253D01*
X402972Y116058D01*
X402191Y115912D01*
X401410Y115765D01*
X400531Y115668D01*
X399604Y115619D01*
X398627Y115570D01*
X387350D01*
Y145154D01*
X397553D01*
X397944Y145105D01*
D02*
G37*
G36*
X379567Y109422D02*
X379860Y109392D01*
X380153Y109334D01*
X380504Y109275D01*
X380914Y109187D01*
X381295Y109070D01*
X381734Y108924D01*
X382173Y108748D01*
X382613Y108543D01*
X383023Y108280D01*
X383462Y107987D01*
X383872Y107665D01*
X384253Y107284D01*
X384282Y107254D01*
X384341Y107196D01*
X384428Y107079D01*
X384575Y106903D01*
X384721Y106698D01*
X384897Y106434D01*
X385073Y106142D01*
X385278Y105820D01*
X385453Y105439D01*
X385629Y105029D01*
X385805Y104590D01*
X385951Y104092D01*
X386098Y103594D01*
X386185Y103037D01*
X386244Y102481D01*
X386273Y101866D01*
Y98732D01*
Y98703D01*
Y98586D01*
Y98410D01*
X386244Y98176D01*
X386215Y97912D01*
X386156Y97590D01*
X386098Y97209D01*
X386010Y96829D01*
X385922Y96419D01*
X385775Y95979D01*
X385629Y95511D01*
X385424Y95071D01*
X385190Y94603D01*
X384926Y94164D01*
X384604Y93724D01*
X384253Y93314D01*
X384223Y93285D01*
X384165Y93226D01*
X384048Y93109D01*
X383901Y92992D01*
X383696Y92816D01*
X383462Y92641D01*
X383169Y92465D01*
X382847Y92260D01*
X382495Y92055D01*
X382115Y91879D01*
X381675Y91704D01*
X381207Y91528D01*
X380709Y91411D01*
X380182Y91294D01*
X379625Y91235D01*
X379040Y91206D01*
X378893D01*
X378747Y91235D01*
X378512D01*
X378249Y91264D01*
X377956Y91323D01*
X377605Y91381D01*
X377224Y91469D01*
X376843Y91586D01*
X376433Y91733D01*
X375994Y91879D01*
X375584Y92084D01*
X375174Y92348D01*
X374735Y92611D01*
X374354Y92934D01*
X373973Y93314D01*
X373944Y93344D01*
X373885Y93402D01*
X373797Y93549D01*
X373680Y93695D01*
X373534Y93900D01*
X373358Y94164D01*
X373182Y94457D01*
X373007Y94808D01*
X372831Y95159D01*
X372655Y95569D01*
X372480Y96009D01*
X372333Y96507D01*
X372216Y97004D01*
X372128Y97561D01*
X372070Y98117D01*
X372040Y98732D01*
Y101866D01*
Y101895D01*
Y102012D01*
Y102188D01*
X372070Y102422D01*
X372099Y102686D01*
X372157Y103008D01*
X372216Y103359D01*
X372275Y103770D01*
X372509Y104619D01*
X372655Y105058D01*
X372860Y105527D01*
X373065Y105966D01*
X373329Y106434D01*
X373622Y106874D01*
X373973Y107284D01*
X374002Y107313D01*
X374061Y107372D01*
X374178Y107489D01*
X374325Y107635D01*
X374530Y107782D01*
X374764Y107957D01*
X375027Y108162D01*
X375320Y108367D01*
X375672Y108572D01*
X376053Y108777D01*
X376463Y108953D01*
X376931Y109100D01*
X377400Y109246D01*
X377927Y109363D01*
X378454Y109422D01*
X379040Y109451D01*
X379362D01*
X379567Y109422D01*
D02*
G37*
G36*
X490943Y115570D02*
X483523D01*
X474003Y145154D01*
X481180D01*
X486940Y123576D01*
X487136Y122502D01*
X487282D01*
X487477Y123479D01*
X493336Y145154D01*
X500561D01*
X490943Y115570D01*
D02*
G37*
G36*
X461457Y125968D02*
Y125920D01*
Y125724D01*
Y125480D01*
X461408Y125139D01*
X461359Y124699D01*
X461262Y124211D01*
X461164Y123674D01*
X461018Y123088D01*
X460871Y122453D01*
X460627Y121819D01*
X460334Y121135D01*
X460041Y120452D01*
X459602Y119817D01*
X459162Y119183D01*
X458625Y118597D01*
X458040Y118011D01*
X457991Y117962D01*
X457893Y117913D01*
X457698Y117767D01*
X457454Y117572D01*
X457112Y117376D01*
X456673Y117132D01*
X456233Y116839D01*
X455696Y116595D01*
X455062Y116351D01*
X454427Y116058D01*
X453695Y115814D01*
X452914Y115619D01*
X452084Y115423D01*
X451205Y115326D01*
X450229Y115228D01*
X449252Y115179D01*
X448715D01*
X448325Y115228D01*
X447885Y115277D01*
X447348Y115326D01*
X446763Y115423D01*
X446079Y115521D01*
X444663Y115863D01*
X443931Y116107D01*
X443199Y116400D01*
X442466Y116693D01*
X441734Y117083D01*
X441051Y117523D01*
X440367Y118011D01*
X440318Y118060D01*
X440221Y118157D01*
X440074Y118304D01*
X439830Y118548D01*
X439586Y118841D01*
X439293Y119183D01*
X439000Y119622D01*
X438707Y120110D01*
X438366Y120647D01*
X438073Y121233D01*
X437780Y121868D01*
X437536Y122600D01*
X437292Y123332D01*
X437145Y124162D01*
X437048Y125041D01*
X436999Y125968D01*
Y145154D01*
X443882D01*
Y125968D01*
Y125920D01*
Y125871D01*
Y125724D01*
Y125529D01*
X443980Y125041D01*
X444077Y124406D01*
X444224Y123772D01*
X444468Y123088D01*
X444810Y122405D01*
X445298Y121819D01*
X445347Y121770D01*
X445591Y121623D01*
X445884Y121379D01*
X446323Y121135D01*
X446909Y120842D01*
X447592Y120647D01*
X448373Y120452D01*
X449252Y120403D01*
X449643D01*
X450131Y120501D01*
X450668Y120598D01*
X451303Y120745D01*
X451937Y120989D01*
X452572Y121331D01*
X453158Y121770D01*
X453207Y121819D01*
X453402Y122014D01*
X453597Y122356D01*
X453890Y122844D01*
X454134Y123430D01*
X454378Y124162D01*
X454525Y124992D01*
X454574Y125968D01*
Y145154D01*
X461457D01*
Y125968D01*
D02*
G37*
G36*
X404460Y91440D02*
X402322D01*
X398779Y103740D01*
X398515Y105351D01*
X398427D01*
X398163Y103740D01*
X394561Y91440D01*
X392423D01*
X388148Y109187D01*
X390754D01*
X393331Y97590D01*
X393624Y95247D01*
X393712D01*
X394122Y97590D01*
X397256Y109187D01*
X399628D01*
X402791Y97590D01*
X403201Y95218D01*
X403289D01*
X403611Y97590D01*
X406159Y109187D01*
X408765D01*
X404460Y91440D01*
D02*
G37*
G36*
X517944Y109158D02*
X518237Y109129D01*
X518559Y109070D01*
X518940Y109012D01*
X519379Y108924D01*
X519789Y108807D01*
X520258Y108660D01*
X520726Y108485D01*
X521195Y108280D01*
X521663Y108045D01*
X522103Y107752D01*
X522542Y107430D01*
X522952Y107050D01*
X522981Y107020D01*
X523040Y106962D01*
X523157Y106845D01*
X523274Y106669D01*
X523450Y106464D01*
X523626Y106200D01*
X523801Y105907D01*
X524006Y105556D01*
X524211Y105175D01*
X524387Y104765D01*
X524563Y104297D01*
X524739Y103828D01*
X524856Y103301D01*
X524973Y102715D01*
X525031Y102129D01*
X525061Y101515D01*
Y99084D01*
Y99054D01*
Y98937D01*
Y98762D01*
X525031Y98527D01*
X525002Y98234D01*
X524944Y97883D01*
X524885Y97531D01*
X524797Y97121D01*
X524680Y96682D01*
X524534Y96243D01*
X524387Y95774D01*
X524182Y95306D01*
X523918Y94867D01*
X523655Y94398D01*
X523333Y93959D01*
X522952Y93549D01*
X522923Y93519D01*
X522864Y93461D01*
X522747Y93344D01*
X522571Y93226D01*
X522366Y93051D01*
X522103Y92875D01*
X521810Y92699D01*
X521458Y92494D01*
X521078Y92289D01*
X520668Y92114D01*
X520199Y91938D01*
X519701Y91762D01*
X519174Y91645D01*
X518588Y91528D01*
X518003Y91469D01*
X517358Y91440D01*
X511765D01*
Y109187D01*
X517681D01*
X517944Y109158D01*
D02*
G37*
G36*
X502422D02*
X502686D01*
X502950Y109129D01*
X503272Y109070D01*
X503594Y109012D01*
X504297Y108865D01*
X505058Y108631D01*
X505761Y108309D01*
X506083Y108104D01*
X506376Y107870D01*
X506405D01*
X506435Y107811D01*
X506522Y107723D01*
X506610Y107635D01*
X506727Y107489D01*
X506874Y107342D01*
X507167Y106932D01*
X507430Y106376D01*
X507694Y105732D01*
X507870Y105000D01*
X507899Y104560D01*
X507928Y104121D01*
Y104092D01*
Y104062D01*
Y103887D01*
X507899Y103623D01*
X507840Y103301D01*
X507752Y102920D01*
X507635Y102540D01*
X507460Y102129D01*
X507225Y101720D01*
X507196Y101690D01*
X507108Y101544D01*
X506932Y101368D01*
X506698Y101163D01*
X506405Y100899D01*
X506054Y100636D01*
X505644Y100372D01*
X505146Y100138D01*
X505175D01*
X505205Y100109D01*
X505380Y100050D01*
X505644Y99933D01*
X505966Y99757D01*
X506317Y99552D01*
X506669Y99289D01*
X506991Y98967D01*
X507255Y98586D01*
X507284Y98527D01*
X507342Y98410D01*
X507460Y98176D01*
X507577Y97854D01*
X507694Y97473D01*
X507811Y97034D01*
X507870Y96507D01*
X507899Y95950D01*
Y94281D01*
Y94251D01*
Y94134D01*
Y93988D01*
X507928Y93783D01*
Y93549D01*
X507987Y93314D01*
X508075Y92787D01*
Y92758D01*
X508104Y92670D01*
X508162Y92553D01*
X508221Y92406D01*
X508397Y92084D01*
X508690Y91733D01*
Y91440D01*
X506230D01*
X506200Y91469D01*
X506142Y91528D01*
X506083Y91616D01*
X505966Y91733D01*
X505878Y91909D01*
X505761Y92114D01*
X505673Y92377D01*
X505615Y92641D01*
Y92670D01*
X505585Y92787D01*
Y92934D01*
X505556Y93168D01*
X505527Y93402D01*
Y93695D01*
X505498Y94310D01*
Y95921D01*
Y95950D01*
Y95979D01*
Y96155D01*
X505468Y96419D01*
X505380Y96741D01*
X505293Y97121D01*
X505146Y97502D01*
X504941Y97883D01*
X504648Y98234D01*
X504619Y98264D01*
X504502Y98381D01*
X504297Y98527D01*
X504062Y98674D01*
X503711Y98849D01*
X503330Y98967D01*
X502891Y99084D01*
X502393Y99113D01*
X498264D01*
Y91440D01*
X495862D01*
Y109187D01*
X502247D01*
X502422Y109158D01*
D02*
G37*
%LPC*%
G36*
X363635Y107284D02*
X359242D01*
Y100431D01*
X363811D01*
X363928Y100460D01*
X364250Y100489D01*
X364660Y100548D01*
X365099Y100665D01*
X365539Y100841D01*
X365949Y101075D01*
X366329Y101397D01*
X366359Y101456D01*
X366476Y101573D01*
X366622Y101778D01*
X366798Y102071D01*
X366945Y102422D01*
X367091Y102832D01*
X367208Y103330D01*
X367237Y103857D01*
Y103887D01*
Y103916D01*
Y104092D01*
X367179Y104384D01*
X367120Y104707D01*
X367003Y105087D01*
X366857Y105497D01*
X366622Y105907D01*
X366329Y106288D01*
X366300Y106317D01*
X366154Y106434D01*
X365949Y106610D01*
X365656Y106786D01*
X365275Y106962D01*
X364836Y107137D01*
X364279Y107254D01*
X363635Y107284D01*
D02*
G37*
G36*
X398871Y128263D02*
X394234D01*
Y120842D01*
X398969D01*
X399359Y120891D01*
X399848Y120940D01*
X400385Y121038D01*
X400922Y121184D01*
X401459Y121379D01*
X401898Y121672D01*
X401947Y121721D01*
X402093Y121819D01*
X402240Y122063D01*
X402484Y122356D01*
X402679Y122697D01*
X402826Y123186D01*
X402972Y123723D01*
X403021Y124357D01*
Y124455D01*
Y124650D01*
X402972Y124992D01*
X402923Y125431D01*
X402777Y125920D01*
X402630Y126359D01*
X402386Y126847D01*
X402044Y127238D01*
X401996Y127287D01*
X401849Y127384D01*
X401605Y127531D01*
X401263Y127726D01*
X400824Y127921D01*
X400287Y128068D01*
X399652Y128214D01*
X398871Y128263D01*
D02*
G37*
G36*
X452958Y107284D02*
X449561D01*
Y101632D01*
X453690D01*
X453924Y101661D01*
X454247Y101720D01*
X454598Y101807D01*
X454949Y101954D01*
X455301Y102129D01*
X455652Y102364D01*
X455682Y102393D01*
X455799Y102510D01*
X455916Y102686D01*
X456092Y102920D01*
X456238Y103213D01*
X456385Y103565D01*
X456472Y103975D01*
X456502Y104443D01*
Y104472D01*
Y104502D01*
Y104677D01*
X456443Y104941D01*
X456385Y105263D01*
X456267Y105585D01*
X456121Y105966D01*
X455887Y106288D01*
X455564Y106581D01*
X455535Y106610D01*
X455389Y106698D01*
X455184Y106815D01*
X454891Y106932D01*
X454539Y107050D01*
X454071Y107167D01*
X453573Y107254D01*
X452958Y107284D01*
D02*
G37*
G36*
X501954D02*
X498264D01*
Y101017D01*
X502012D01*
X502393Y101046D01*
X502832Y101104D01*
X503301Y101192D01*
X503799Y101339D01*
X504238Y101515D01*
X504619Y101778D01*
X504648Y101807D01*
X504765Y101924D01*
X504912Y102100D01*
X505088Y102364D01*
X505234Y102715D01*
X505380Y103125D01*
X505498Y103594D01*
X505527Y104150D01*
Y104179D01*
Y104209D01*
Y104384D01*
X505468Y104677D01*
X505410Y105000D01*
X505322Y105380D01*
X505146Y105761D01*
X504941Y106142D01*
X504648Y106464D01*
X504619Y106493D01*
X504502Y106581D01*
X504297Y106727D01*
X504004Y106874D01*
X503623Y107020D01*
X503155Y107167D01*
X502598Y107254D01*
X501954Y107284D01*
D02*
G37*
G36*
X431140D02*
X427450D01*
Y101017D01*
X431198D01*
X431579Y101046D01*
X432018Y101104D01*
X432487Y101192D01*
X432985Y101339D01*
X433424Y101515D01*
X433805Y101778D01*
X433834Y101807D01*
X433951Y101924D01*
X434098Y102100D01*
X434273Y102364D01*
X434420Y102715D01*
X434566Y103125D01*
X434683Y103594D01*
X434713Y104150D01*
Y104179D01*
Y104209D01*
Y104384D01*
X434654Y104677D01*
X434596Y105000D01*
X434508Y105380D01*
X434332Y105761D01*
X434127Y106142D01*
X433834Y106464D01*
X433805Y106493D01*
X433688Y106581D01*
X433483Y106727D01*
X433190Y106874D01*
X432809Y107020D01*
X432341Y107167D01*
X431784Y107254D01*
X431140Y107284D01*
D02*
G37*
G36*
X485993Y105644D02*
X485905D01*
X483269Y98000D01*
X488570D01*
X485993Y105644D01*
D02*
G37*
G36*
X469358Y107460D02*
X469153D01*
X469007Y107430D01*
X468831Y107401D01*
X468626Y107372D01*
X468158Y107254D01*
X467601Y107079D01*
X467045Y106815D01*
X466781Y106639D01*
X466488Y106434D01*
X466225Y106171D01*
X465990Y105907D01*
Y105878D01*
X465932Y105849D01*
X465873Y105761D01*
X465785Y105615D01*
X465698Y105468D01*
X465610Y105292D01*
X465493Y105058D01*
X465375Y104824D01*
X465141Y104238D01*
X464965Y103565D01*
X464819Y102774D01*
X464760Y101895D01*
Y98732D01*
Y98703D01*
Y98615D01*
Y98498D01*
X464790Y98322D01*
Y98117D01*
X464819Y97854D01*
X464907Y97297D01*
X465053Y96653D01*
X465288Y95979D01*
X465580Y95306D01*
X465990Y94691D01*
X466020Y94662D01*
X466049Y94632D01*
X466225Y94457D01*
X466488Y94193D01*
X466898Y93929D01*
X467367Y93637D01*
X467953Y93373D01*
X468597Y93197D01*
X468978Y93168D01*
X469358Y93139D01*
X469563D01*
X469739Y93168D01*
X469915Y93197D01*
X470120Y93226D01*
X470647Y93344D01*
X471203Y93519D01*
X471789Y93783D01*
X472082Y93959D01*
X472346Y94193D01*
X472609Y94427D01*
X472873Y94691D01*
X472902Y94720D01*
X472931Y94749D01*
X472990Y94837D01*
X473078Y94984D01*
X473166Y95130D01*
X473283Y95306D01*
X473400Y95540D01*
X473546Y95774D01*
X473781Y96360D01*
X473985Y97063D01*
X474132Y97854D01*
X474190Y98264D01*
Y98732D01*
Y101895D01*
Y101924D01*
Y102012D01*
Y102129D01*
X474161Y102305D01*
Y102510D01*
X474132Y102745D01*
X474015Y103330D01*
X473868Y103945D01*
X473634Y104619D01*
X473312Y105292D01*
X473107Y105615D01*
X472873Y105907D01*
Y105937D01*
X472814Y105966D01*
X472726Y106054D01*
X472638Y106142D01*
X472346Y106405D01*
X471936Y106698D01*
X471438Y106962D01*
X470823Y107225D01*
X470149Y107401D01*
X469768Y107430D01*
X469358Y107460D01*
D02*
G37*
G36*
X379040D02*
X378835D01*
X378688Y107430D01*
X378512Y107401D01*
X378307Y107372D01*
X377839Y107254D01*
X377282Y107079D01*
X376726Y106815D01*
X376463Y106639D01*
X376170Y106434D01*
X375906Y106171D01*
X375672Y105907D01*
Y105878D01*
X375613Y105849D01*
X375555Y105761D01*
X375467Y105615D01*
X375379Y105468D01*
X375291Y105292D01*
X375174Y105058D01*
X375057Y104824D01*
X374822Y104238D01*
X374647Y103565D01*
X374500Y102774D01*
X374442Y101895D01*
Y98732D01*
Y98703D01*
Y98615D01*
Y98498D01*
X374471Y98322D01*
Y98117D01*
X374500Y97854D01*
X374588Y97297D01*
X374735Y96653D01*
X374969Y95979D01*
X375262Y95306D01*
X375672Y94691D01*
X375701Y94662D01*
X375730Y94632D01*
X375906Y94457D01*
X376170Y94193D01*
X376580Y93929D01*
X377048Y93637D01*
X377634Y93373D01*
X378278Y93197D01*
X378659Y93168D01*
X379040Y93139D01*
X379245D01*
X379420Y93168D01*
X379596Y93197D01*
X379801Y93226D01*
X380328Y93344D01*
X380885Y93519D01*
X381470Y93783D01*
X381763Y93959D01*
X382027Y94193D01*
X382290Y94427D01*
X382554Y94691D01*
X382583Y94720D01*
X382613Y94749D01*
X382671Y94837D01*
X382759Y94984D01*
X382847Y95130D01*
X382964Y95306D01*
X383081Y95540D01*
X383228Y95774D01*
X383462Y96360D01*
X383667Y97063D01*
X383813Y97854D01*
X383872Y98264D01*
Y98732D01*
Y101895D01*
Y101924D01*
Y102012D01*
Y102129D01*
X383843Y102305D01*
Y102510D01*
X383813Y102745D01*
X383696Y103330D01*
X383550Y103945D01*
X383315Y104619D01*
X382993Y105292D01*
X382788Y105615D01*
X382554Y105907D01*
Y105937D01*
X382495Y105966D01*
X382408Y106054D01*
X382320Y106142D01*
X382027Y106405D01*
X381617Y106698D01*
X381119Y106962D01*
X380504Y107225D01*
X379830Y107401D01*
X379450Y107430D01*
X379040Y107460D01*
D02*
G37*
G36*
X454247Y99757D02*
X449561D01*
Y93314D01*
X454481D01*
X454774Y93344D01*
X455154Y93402D01*
X455564Y93519D01*
X455975Y93637D01*
X456385Y93841D01*
X456765Y94105D01*
X456795Y94134D01*
X456912Y94251D01*
X457058Y94457D01*
X457234Y94691D01*
X457380Y95042D01*
X457527Y95423D01*
X457644Y95892D01*
X457673Y96419D01*
Y96448D01*
Y96477D01*
Y96653D01*
X457615Y96917D01*
X457556Y97268D01*
X457439Y97649D01*
X457292Y98029D01*
X457058Y98439D01*
X456736Y98791D01*
X456707Y98820D01*
X456560Y98937D01*
X456355Y99084D01*
X456092Y99259D01*
X455740Y99435D01*
X455301Y99582D01*
X454803Y99699D01*
X454247Y99757D01*
D02*
G37*
G36*
X397016Y139882D02*
X394234D01*
Y132803D01*
X397309D01*
X397748Y132852D01*
X398334Y132901D01*
X398920Y132998D01*
X399555Y133194D01*
X400140Y133389D01*
X400629Y133682D01*
X400677Y133731D01*
X400824Y133828D01*
X401019Y134072D01*
X401263Y134316D01*
X401459Y134707D01*
X401654Y135146D01*
X401800Y135683D01*
X401849Y136269D01*
Y136367D01*
Y136562D01*
X401800Y136904D01*
X401703Y137294D01*
X401556Y137734D01*
X401312Y138222D01*
X401019Y138612D01*
X400629Y139003D01*
X400580Y139052D01*
X400433Y139150D01*
X400140Y139296D01*
X399750Y139442D01*
X399213Y139589D01*
X398627Y139735D01*
X397895Y139833D01*
X397016Y139882D01*
D02*
G37*
G36*
X517358Y107284D02*
X514166D01*
Y93314D01*
X517593D01*
X517768Y93344D01*
X517973Y93373D01*
X518208Y93402D01*
X518764Y93519D01*
X519379Y93695D01*
X520023Y93988D01*
X520346Y94193D01*
X520668Y94398D01*
X520961Y94632D01*
X521224Y94925D01*
X521253Y94954D01*
X521283Y95013D01*
X521371Y95101D01*
X521458Y95218D01*
X521546Y95364D01*
X521693Y95569D01*
X521810Y95804D01*
X521956Y96038D01*
X522074Y96331D01*
X522220Y96653D01*
X522425Y97356D01*
X522601Y98176D01*
X522630Y98615D01*
X522659Y99084D01*
Y101544D01*
Y101573D01*
Y101661D01*
Y101778D01*
X522630Y101954D01*
Y102188D01*
X522571Y102422D01*
X522483Y103008D01*
X522308Y103652D01*
X522044Y104355D01*
X521898Y104707D01*
X521693Y105029D01*
X521488Y105351D01*
X521224Y105673D01*
X521195Y105702D01*
X521166Y105732D01*
X521078Y105820D01*
X520961Y105937D01*
X520814Y106054D01*
X520638Y106171D01*
X520433Y106317D01*
X520228Y106493D01*
X519672Y106786D01*
X518998Y107020D01*
X518237Y107225D01*
X517798Y107254D01*
X517358Y107284D01*
D02*
G37*
%LPD*%
D16*
X41026Y322961D02*
X53722D01*
X56261Y325500D01*
Y330578D01*
X53722Y333118D01*
X41026D01*
X43565Y338196D02*
X41026Y340735D01*
Y345814D01*
X43565Y348353D01*
X46104D01*
X48643Y345814D01*
Y343274D01*
Y345814D01*
X51183Y348353D01*
X53722D01*
X56261Y345814D01*
Y340735D01*
X53722Y338196D01*
X292984Y148209D02*
X280288D01*
X277749Y145670D01*
Y140591D01*
X280288Y138052D01*
X292984D01*
X277749Y122817D02*
Y132974D01*
X287906Y122817D01*
X290445D01*
X292984Y125356D01*
Y130435D01*
X290445Y132974D01*
X330200Y458465D02*
Y445769D01*
X332739Y443230D01*
X337817D01*
X340357Y445769D01*
Y458465D01*
X345435Y443230D02*
X350513D01*
X347974D01*
Y458465D01*
X345435Y455926D01*
X300863Y377317D02*
X285628D01*
Y384935D01*
X288167Y387474D01*
X293246D01*
X295785Y384935D01*
Y377317D01*
Y382395D02*
X300863Y387474D01*
Y402709D02*
Y392552D01*
X290706Y402709D01*
X288167D01*
X285628Y400170D01*
Y395091D01*
X288167Y392552D01*
X455927Y25399D02*
Y35556D01*
X453387Y38095D01*
X448309D01*
X445770Y35556D01*
Y25399D01*
X448309Y22860D01*
X453387D01*
X450848Y27938D02*
X455927Y22860D01*
X453387D02*
X455927Y25399D01*
X461005Y22860D02*
X466083D01*
X463544D01*
Y38095D01*
X461005Y35556D01*
X106680Y464820D02*
Y480055D01*
X114298D01*
X116837Y477516D01*
Y472438D01*
X114298Y469898D01*
X106680D01*
X132072Y480055D02*
X126993Y477516D01*
X121915Y472438D01*
Y467359D01*
X124454Y464820D01*
X129533D01*
X132072Y467359D01*
Y469898D01*
X129533Y472438D01*
X121915D01*
X107950Y262890D02*
Y278125D01*
X115568D01*
X118107Y275586D01*
Y270508D01*
X115568Y267968D01*
X107950D01*
X133342Y278125D02*
X123185D01*
Y270508D01*
X128263Y273047D01*
X130803D01*
X133342Y270508D01*
Y265429D01*
X130803Y262890D01*
X125724D01*
X123185Y265429D01*
X328930Y236220D02*
Y251455D01*
X336548D01*
X339087Y248916D01*
Y243838D01*
X336548Y241298D01*
X328930D01*
X351783Y236220D02*
Y251455D01*
X344165Y243838D01*
X354322D01*
X200660Y187960D02*
Y203195D01*
X208277D01*
X210817Y200656D01*
Y195578D01*
X208277Y193038D01*
X200660D01*
X215895Y200656D02*
X218434Y203195D01*
X223513D01*
X226052Y200656D01*
Y198117D01*
X223513Y195578D01*
X220973D01*
X223513D01*
X226052Y193038D01*
Y190499D01*
X223513Y187960D01*
X218434D01*
X215895Y190499D01*
X529590Y394970D02*
X514355D01*
Y402588D01*
X516894Y405127D01*
X521973D01*
X524512Y402588D01*
Y394970D01*
X529590Y420362D02*
Y410205D01*
X519433Y420362D01*
X516894D01*
X514355Y417823D01*
Y412744D01*
X516894Y410205D01*
X316611Y112649D02*
Y127884D01*
X324229D01*
X326768Y125345D01*
Y120267D01*
X324229Y117727D01*
X316611D01*
X331846Y112649D02*
X336924D01*
X334385D01*
Y127884D01*
X331846Y125345D01*
X331470Y300985D02*
Y285750D01*
X339087D01*
X341627Y288289D01*
Y298446D01*
X339087Y300985D01*
X331470D01*
X346705Y285750D02*
X351783D01*
X349244D01*
Y300985D01*
X346705Y298446D01*
X406397Y448306D02*
X403857Y450845D01*
X398779D01*
X396240Y448306D01*
Y438149D01*
X398779Y435610D01*
X403857D01*
X406397Y438149D01*
X411475Y435610D02*
X416553D01*
X414014D01*
Y450845D01*
X411475Y448306D01*
X425450Y288290D02*
Y308284D01*
X435447D01*
X438779Y304951D01*
Y298287D01*
X435447Y294954D01*
X425450D01*
X445444Y308284D02*
Y288290D01*
X452108Y294954D01*
X458773Y288290D01*
Y308284D01*
X465437Y288290D02*
Y308284D01*
X475434D01*
X478766Y304951D01*
Y298287D01*
X475434Y294954D01*
X465437D01*
X472102D02*
X478766Y288290D01*
X513406Y275590D02*
X533400D01*
Y285587D01*
X530068Y288919D01*
X526735D01*
X523403Y285587D01*
Y275590D01*
Y285587D01*
X520071Y288919D01*
X516739D01*
X513406Y285587D01*
Y275590D01*
X533400Y295584D02*
X520071D01*
X513406Y302248D01*
X520071Y308913D01*
X533400D01*
X523403D01*
Y295584D01*
X513406Y315577D02*
Y328906D01*
Y322242D01*
X533400D01*
X201930Y461010D02*
Y481004D01*
X211927D01*
X215259Y477671D01*
Y471007D01*
X211927Y467674D01*
X201930D01*
X208594D02*
X215259Y461010D01*
X221924Y481004D02*
X228588D01*
X225256D01*
Y461010D01*
X221924D01*
X228588D01*
X251914Y477671D02*
X248582Y481004D01*
X241917D01*
X238585Y477671D01*
Y464342D01*
X241917Y461010D01*
X248582D01*
X251914Y464342D01*
Y471007D01*
X245249D01*
X258578Y481004D02*
Y461010D01*
Y471007D01*
X271907D01*
Y481004D01*
Y461010D01*
X278572Y481004D02*
X291901D01*
X285236D01*
Y461010D01*
X200660Y285424D02*
Y265430D01*
X213989D01*
X233983Y285424D02*
X220654D01*
Y265430D01*
X233983D01*
X220654Y275427D02*
X227318D01*
X253976Y285424D02*
X240647D01*
Y275427D01*
X247312D01*
X240647D01*
Y265430D01*
X260641Y285424D02*
X273970D01*
X267305D01*
Y265430D01*
X55880Y209224D02*
Y189230D01*
X69209D01*
X75874D02*
Y209224D01*
X89203Y189230D01*
Y209224D01*
X109196Y205891D02*
X105864Y209224D01*
X99199D01*
X95867Y205891D01*
Y192562D01*
X99199Y189230D01*
X105864D01*
X109196Y192562D01*
X115861Y209224D02*
Y189230D01*
Y199227D01*
X129190D01*
Y209224D01*
Y189230D01*
X228600Y36504D02*
Y16510D01*
X238597D01*
X241929Y19842D01*
Y23175D01*
X238597Y26507D01*
X228600D01*
X238597D01*
X241929Y29839D01*
Y33171D01*
X238597Y36504D01*
X228600D01*
X248594D02*
Y16510D01*
X261923D01*
X268587Y36504D02*
Y19842D01*
X271919Y16510D01*
X278584D01*
X281916Y19842D01*
Y36504D01*
X308574D02*
Y16510D01*
X321903D01*
X341897Y36504D02*
X328568D01*
Y16510D01*
X341897D01*
X328568Y26507D02*
X335232D01*
X348561Y36504D02*
Y16510D01*
X358558D01*
X361890Y19842D01*
Y33171D01*
X358558Y36504D01*
X348561D01*
X368555Y16510D02*
X378552D01*
X381884Y19842D01*
X378552Y23175D01*
X371887D01*
X368555Y26507D01*
X371887Y29839D01*
X381884D01*
D36*
X371390Y334000D02*
G03*
X371390Y334000I-1250J0D01*
G01*
X401560Y82100D02*
G03*
X401560Y82100I-1250J0D01*
G01*
D37*
X483070Y381000D02*
G03*
X483070Y381000I-50000J0D01*
G01*
X373070Y373000D02*
Y389000D01*
X365070Y381000D02*
X381070D01*
X428070Y351000D02*
Y411000D01*
X438070Y351000D02*
Y411000D01*
Y381000D02*
X446070D01*
X420070D02*
X428070D01*
D38*
X398820Y30363D02*
G03*
X398820Y73777I15200J21707D01*
G01*
X269240Y105410D02*
G03*
X269240Y92710I0J-6350D01*
G01*
X64770Y365760D02*
G03*
X64770Y378460I0J6350D01*
G01*
X329640Y434500D02*
X376640D01*
X329640Y327500D02*
X376640D01*
Y434500D01*
X329640Y327500D02*
Y434500D01*
X334640Y327500D02*
Y434500D01*
X509270Y336550D02*
X534670D01*
X509270D02*
Y387350D01*
X534670D01*
Y336550D02*
Y387350D01*
X314960Y104140D02*
X340360D01*
Y53340D02*
Y104140D01*
X314960Y53340D02*
X340360D01*
X314960D02*
Y104140D01*
X398820Y30363D02*
Y73777D01*
X359580Y285260D02*
X378580D01*
X359580Y319260D02*
X378580D01*
X359580Y285260D02*
Y319260D01*
X415580Y289260D02*
Y315260D01*
X393580Y285260D02*
X410580D01*
Y319260D02*
X415580Y315260D01*
X410580Y285260D02*
X415580Y289260D01*
X393580Y319260D02*
X410580D01*
X66040Y116310D02*
X269240D01*
X66040Y81810D02*
Y116310D01*
Y81810D02*
X269240D01*
Y92710D01*
Y105410D02*
Y116310D01*
X193040Y187960D02*
Y213360D01*
X142240Y187960D02*
X193040D01*
X142240D02*
Y213360D01*
X193040D01*
X326390Y226060D02*
X478790D01*
X326390Y175260D02*
Y226060D01*
Y175260D02*
X478790D01*
Y226060D01*
X64770Y354860D02*
X267970D01*
Y389360D01*
X64770D02*
X267970D01*
X64770Y378460D02*
Y389360D01*
Y354860D02*
Y365760D01*
X191770Y458470D02*
Y483870D01*
X140970Y458470D02*
X191770D01*
X140970D02*
Y483870D01*
X191770D01*
X140970Y261620D02*
Y287020D01*
X191770D01*
Y261620D02*
Y287020D01*
X140970Y261620D02*
X191770D01*
D39*
X311150Y387350D02*
Y394970D01*
X323850Y387350D02*
Y394970D01*
D40*
X300990Y179070D02*
X305222D01*
X303106D01*
Y191766D01*
X300990Y189650D01*
X320034Y179070D02*
X311570D01*
X320034Y187534D01*
Y189650D01*
X317918Y191766D01*
X313686D01*
X311570Y189650D01*
X304800Y205740D02*
X309032D01*
X306916D01*
Y218436D01*
X304800Y216320D01*
X316230Y205740D02*
X320462D01*
X318346D01*
Y218436D01*
X316230Y216320D01*
X487680Y208280D02*
X491912D01*
X489796D01*
Y220976D01*
X487680Y218860D01*
X494874Y181610D02*
X486410D01*
X494874Y190074D01*
Y192190D01*
X492758Y194306D01*
X488526D01*
X486410Y192190D01*
M02*
